<?xml version="1.0" standalone="no"?>
<!DOCTYPE svg PUBLIC "-//W3C//DTD SVG 1.1//EN" "http://www.w3.org/Graphics/SVG/1.1/DTD/svg11.dtd" >
<svg>
<metadata>
Created by FontForge 20120731 at Tue Jan  5 21:12:57 2016
 By ,,,
Copyright (c) 2010, 2011, Brian M Zick (http://21326.info/),
with Reserved Font Name "Neuton".
</metadata>
<defs>
<font id="Neuton-Italic" horiz-adv-x="1358" >
  <font-face 
    font-family="Neuton"
    font-weight="400"
    font-style="italic"
    font-stretch="normal"
    units-per-em="2048"
    panose-1="2 0 5 3 0 0 0 0 0 0"
    ascent="1638"
    descent="-410"
    x-height="870"
    cap-height="1246"
    bbox="-127 -400 1907 1927"
    underline-thickness="181"
    underline-position="-363"
    slope="-9"
    unicode-range="U+000D-25CA"
  />
<missing-glyph horiz-adv-x="846" 
d="M84 -387v1694h679v-1694h-679zM169 -303h509v1526h-509v-1526z" />
    <glyph glyph-name=".notdef" horiz-adv-x="846" 
d="M84 -387v1694h679v-1694h-679zM169 -303h509v1526h-509v-1526z" />
    <glyph glyph-name="uni0000" horiz-adv-x="0" 
 />
    <glyph glyph-name="uni0000" horiz-adv-x="0" 
 />
    <glyph glyph-name="uni000D" unicode="&#xd;" horiz-adv-x="564" 
 />
    <glyph glyph-name="space" unicode=" " horiz-adv-x="397" 
 />
    <glyph glyph-name="exclam" unicode="!" horiz-adv-x="438" 
d="M251 213q45 0 73.5 -31.5t28.5 -75.5q0 -60 -39 -99.5t-98 -39.5q-40 0 -73 34t-33 72q0 60 40.5 100t100.5 40zM318 357l-86 20v3q55 687 85 872l1 4q7 17 51.5 28t87.5 11q24 0 41 -8.5t17 -25.5v-5q-31 -203 -197 -892v-7z" />
    <glyph glyph-name="quotedbl" unicode="&#x22;" horiz-adv-x="513" 
d="M468 1305l182 -16l-97 -384l-96 -12zM260 1305l182 -16l-98 -384l-96 -12z" />
    <glyph glyph-name="numbersign" unicode="#" horiz-adv-x="961" 
d="M372 364l-24 -185l-106 -9l26 194h-169l26 101h162l31 212h-162l23 101h156l30 175l102 10l-29 -185h205l28 175l103 8l-29 -183h169l-24 -101h-162l-31 -212h161l-24 -101h-156l-22 -185l-106 -9l26 194h-204zM390 465h203l32 212h-205z" />
    <glyph glyph-name="dollar" unicode="$" horiz-adv-x="868" 
d="M553 506l-67 -421q77 17 134 68.5t71 135.5q2 15 3 28q0 57 -36.5 101t-104.5 88zM512 790l63 398q-67 -12 -114 -58t-60 -128q-2 -17 -2 -33q0 -100 113 -179zM864 892l-98 11l4 193q-8 25 -40 52t-73 38l-71 -443q12 -7 42 -24t44.5 -25.5t40.5 -25t40.5 -28t36.5 -29
t34 -32.5t26.5 -35.5t22 -41t13 -45t5.5 -50.5q0 -21 -4 -51q-22 -140 -134 -239.5t-262 -129.5l-24 -152l-134 -16l24 157q-97 5 -175.5 46.5t-116.5 100.5l55 269l101 -15l8 -189q20 -42 64 -73t103 -36l75 476q-50 29 -77.5 47t-67.5 50t-61.5 60.5t-37.5 70.5t-16 88
q0 22 4 50q11 69 44.5 130t82 103.5t106 71.5t120.5 42l22 135l128 16l-23 -143q141 -10 236 -100z" />
    <glyph glyph-name="percent" unicode="%" horiz-adv-x="1173" 
d="M888 48q59 0 98.5 58.5t39.5 136.5q0 74 -18.5 106.5t-68.5 32.5q-60 0 -99 -56t-39 -129q0 -82 18.5 -115.5t68.5 -33.5zM997 4q-65 -39 -123 -39q-97 0 -149.5 57t-52.5 163q0 63 44 129t110 108q66 41 126 41q197 0 197 -226q0 -64 -43.5 -128t-108.5 -105zM391 559
q59 0 99 58.5t40 136.5q0 74 -18.5 106.5t-68.5 32.5q-60 0 -99 -55t-39 -127q0 -83 18 -117.5t68 -34.5zM500 515q-65 -39 -122 -39q-95 0 -148.5 58.5t-53.5 165.5q0 63 44 127.5t110 106.5q65 40 126 40q197 0 197 -226q0 -64 -44 -128t-109 -105zM1015 978l111 -9
l-816 -1007l-119 10z" />
    <glyph glyph-name="ampersand" unicode="&#x26;" horiz-adv-x="1335" 
d="M1246 725l-268 -371q86 -114 182 -203q64 -59 102 -72l32 -10l-25 -69q-62 -20 -124 -20q-71 0 -143.5 59t-164.5 179q-33 -39 -59 -64.5t-67 -57.5q-46 -37 -90.5 -60t-104.5 -39q-62 -17 -126 -17q-160 0 -239 89q-73 81 -73 199q0 122 84 228q33 41 82.5 83.5
t97.5 72.5t90 51q-103 99 -103 247q0 74 54 149.5t140 125.5q86 49 168 49q138 0 210.5 -57t72.5 -181q0 -94 -101 -185q-89 -78 -190 -133l-1 -12l236 -283l217 298l-162 42l21 76h450l-21 -76zM485 630l-17 2q-79 -50 -135.5 -122.5t-56.5 -145.5q0 -106 40 -177
q45 -81 154 -81q50 0 105 21t97 54q78 61 106 102zM625 774q174 106 174 242q0 87 -33 130t-108 43q-64 0 -113.5 -56.5t-49.5 -123.5q-1 -112 130 -235z" />
    <glyph glyph-name="quotesingle" unicode="'" horiz-adv-x="305" 
d="M260 1305l182 -16l-98 -384l-96 -12z" />
    <glyph glyph-name="parenleft" unicode="(" horiz-adv-x="483" 
d="M332 -376q-3 3 -11.5 12t-10.5 12t-9 10.5t-10.5 12t-10 13t-12.5 17.5l-14 21t-17 27q-38 61 -60 123.5t-42 163.5q-20 102 -20 215q0 255 81 469q66 174 178 319q38 50 88.5 101.5t80.5 77.5q32 26 52 39l39 -66q-45 -50 -82 -100t-84 -136q-55 -98 -91 -201t-63 -245
q-27 -148 -27 -307q0 -251 122 -520z" />
    <glyph glyph-name="parenright" unicode=")" horiz-adv-x="485" 
d="M-24 -318q77 102 126 184q230 385 242 821q1 16 1 48q0 264 -116 456l60 66l7 -7q39 -38 71 -79q44 -56 83 -142q39 -89 58 -223q9 -74 9 -148q0 -122 -23 -245.5t-61 -222.5q-34 -89 -84.5 -179.5t-98.5 -154.5q-41 -55 -91 -110t-78 -81q-6 -6 -45 -41z" />
    <glyph glyph-name="asterisk" unicode="*" horiz-adv-x="850" 
d="M804 693l-120 -69l-148 248l51 51zM376 594l-102 93l190 218l65 -33zM156 966l53 127l267 -114l-12 -71zM441 1295l136 -13l-26 -288l-70 -11zM840 1125l29 -134l-283 -65l-33 65z" />
    <glyph glyph-name="plus" unicode="+" horiz-adv-x="689" 
d="M466 410l-37 -236l-109 11l36 225h-221l26 101h210l37 232l106 -12l-33 -220h220l-27 -101h-208z" />
    <glyph glyph-name="comma" unicode="," horiz-adv-x="447" 
d="M25 -245q93 24 151.5 77.5t58.5 106.5q0 45 -26 71t-75 26q-5 0 -30 -6q-7 31 -6 54q0 54 47 94t95 40q58 0 100 -35q49 -43 49 -152q0 -69 -46 -142q-56 -91 -165 -150q-65 -34 -142 -53z" />
    <glyph glyph-name="hyphen" unicode="-" horiz-adv-x="604" 
d="M176 500l409 18l-12 -101l-408 -18z" />
    <glyph glyph-name="period" unicode="." horiz-adv-x="404" 
d="M240 213q45 0 73.5 -31.5t28.5 -75.5q0 -60 -39 -99.5t-98 -39.5q-40 0 -73 34t-33 72q0 60 40.5 100t100.5 40z" />
    <glyph glyph-name="slash" unicode="/" horiz-adv-x="516" 
d="M494 1237l132 9l-466 -1602l-129 -8z" />
    <glyph glyph-name="zero" unicode="0" horiz-adv-x="1012" 
d="M341 412q0 -339 193 -339q142 0 222 134q42 69 71 203q26 140 27 325q0 164 -46 253t-135 89q-72 0 -127 -33q-103 -65 -151 -212q-40 -123 -51 -289q-3 -43 -3 -131zM1016 700q0 -168 -45 -307t-121 -236q-70 -89 -159.5 -136t-171.5 -47q-69 0 -135 31t-108 86
q-50 62 -73 149q-28 90 -28 208q0 154 44.5 292t117.5 234q74 97 164 149t182 52q74 0 138 -34q124 -73 172 -243q23 -91 23 -198z" />
    <glyph glyph-name="one" unicode="1" horiz-adv-x="786" 
d="M538 111l261 -30l-20 -81h-711l18 73l283 44l126 890h-265l16 77l412 74h27z" />
    <glyph glyph-name="two" unicode="2" horiz-adv-x="945" 
d="M74 0l9 103l261 200l146 116q154 123 233 274q38 77 38 166q0 83 -38 135q-45 56 -136 56q-50 0 -96 -23q-45 -25 -79 -59q-72 -79 -116 -167l-76 29q23 62 68.5 127t100.5 112q65 53 129 82q74 31 147 32q136 0 207 -71.5t71 -203.5q0 -201 -217 -408q-83 -81 -190 -159
l-174 -133l-85 -72h454l118 170l67 -9l-95 -297h-747z" />
    <glyph glyph-name="three" unicode="3" horiz-adv-x="854" 
d="M212 208q0 -40 46 -91q23 -26 53 -43q26 -18 65 -18q155 0 225 101q43 66 43 154q0 38 -19 80.5t-51 75.5q-79 74 -195 74h-17v64q2 2 9 3q4 1 13 5q7 3 16 6q61 24 138 71q82 55 122 134q22 45 22 91q0 60 -34 97q-41 45 -114 45q-74 0 -125.5 -38.5t-90.5 -110.5
l-70 25q8 34 44 80.5t85 84.5q117 88 235 88q44 0 98 -16q94 -36 134 -116q20 -40 20 -88q0 -115 -86 -207q-77 -77 -190 -115l-1 -12q116 -19 179 -93q60 -69 59 -162q0 -79 -41 -157q-89 -155 -274 -218q-101 -31 -197 -32q-52 0 -106 12q-91 26 -119 71q-15 22 -15 46
q0 38 36 70q38 32 103 39z" />
    <glyph glyph-name="four" unicode="4" horiz-adv-x="942" 
d="M566 349h-477l-11 73l709 746l60 -18q0 -1 -18 -100l-18 -117l-20 -131q-17 -127 -18 -134l-29 -200h247l-33 -122h-232l-44 -331l-169 -27zM639 890l-389 -422h329z" />
    <glyph glyph-name="five" unicode="5" horiz-adv-x="775" 
d="M109 41q225 20 349 105q126 84 126 213q0 258 -414 286l196 499l438 27l-45 -154l-362 -18l-83 -213q217 -14 343 -114q56 -46 86 -111t30 -138q0 -85 -41 -165t-118 -144q-79 -64 -205 -109q-125 -43 -295 -53z" />
    <glyph glyph-name="six" unicode="6" horiz-adv-x="905" 
d="M377 596q37 37 109 67q23 8 73 22q39 8 78 8q60 0 112 -25t88 -69q33 -41 55 -98q18 -55 18 -114q0 -82 -38 -157q-82 -153 -243 -218q-79 -33 -166 -34q-88 0 -147 29q-63 31 -99 77q-74 89 -75 250q0 168 108 359q49 84 119 165t145 141q160 130 340 189l28 -56
q-96 -42 -187 -106q-76 -56 -146 -132.5t-112 -149.5q-45 -77 -70 -148h10zM483 60q134 0 199 99q46 81 46 203q0 87 -43 157q-49 73 -132 73q-16 0 -58 -6q-66 -18 -110 -43q-22 -15 -31 -27q-7 -26 -17.5 -81.5t-10.5 -98.5q0 -112 40 -192q18 -37 49 -61q28 -23 68 -23z
" />
    <glyph glyph-name="seven" unicode="7" horiz-adv-x="846" 
d="M306 1007l-69 -134l-67 14l62 269h756l-5 -51l-581 -1138l-88 30l495 1010h-503z" />
    <glyph glyph-name="eight" unicode="8" horiz-adv-x="913" 
d="M469 543l-63 -50q-65 -55 -93 -124q-15 -40 -14 -94q0 -79 53 -146q24 -29 56 -46q29 -18 69 -18q126 0 182 56q56 59 56 152q0 36 -20 71q-22 35 -57 70q-35 32 -80 64zM132 237q0 98 70.5 180t215.5 160l1 9q-24 14 -51 39q-65 53 -93 128q-15 40 -14 84q0 65 31 124
q60 121 205 184q69 30 146 30q120 0 197 -72q32 -31 52 -74q18 -46 19 -93q0 -47 -19 -96q-22 -50 -49 -87q-30 -43 -73 -73q-42 -32 -88 -48l-3 -10q200 -145 200 -294q0 -68 -32 -132.5t-91.5 -114.5t-144.5 -79q-85 -28 -190 -28q-131 0 -205 69q-41 36 -61 83
q-23 50 -23 111zM621 662q39 22 63 43q26 22 46 51q17 31 27 66q8 39 8 86q0 84 -45 139q-45 53 -112 53q-81 0 -142 -61q-48 -53 -48 -124q0 -76 56 -137q56 -60 147 -116z" />
    <glyph glyph-name="nine" unicode="9" horiz-adv-x="904" 
d="M703 562q-20 -22 -54 -44.5t-65 -32.5q-66 -28 -139 -28q-124 0 -199 82q-69 79 -69 202q0 176 146 311q69 64 147 98t150 34q156 0 242 -109q36 -46 56 -116q18 -69 18 -138q0 -150 -51.5 -291.5t-146.5 -256.5q-96 -117 -228 -195t-287 -104l-13 72q230 64 359 204
q108 117 151 312h-17zM602 1105q-132 0 -195 -93q-61 -83 -61 -223q0 -47 11 -86q12 -43 35 -71q48 -69 139 -70q26 0 55 7q50 7 109 43q22 14 38 36q14 45 18.5 63.5t8.5 50.5t4 77q0 39 -11 99q-10 41 -33 86q-22 36 -52 58q-30 23 -66 23z" />
    <glyph glyph-name="colon" unicode=":" horiz-adv-x="468" 
d="M367 857q43 0 69.5 -30t26.5 -71q0 -56 -37 -93.5t-92 -37.5q-37 0 -68 32t-31 68q0 56 38.5 94t93.5 38zM271 230q43 0 70.5 -30.5t27.5 -72.5q0 -56 -37 -93t-92 -37q-37 0 -69 32.5t-32 68.5q0 56 38.5 94t93.5 38z" />
    <glyph glyph-name="semicolon" unicode=";" horiz-adv-x="493" 
d="M50 -233q88 24 142 72.5t54 99.5q0 43 -23.5 67.5t-70.5 24.5q-3 0 -28 -6q-7 28 -7 51q0 50 44.5 88t89.5 38q54 0 94 -34q45 -39 45 -142q0 -65 -43 -134q-51 -84 -154 -139q-58 -31 -133 -51zM392 857q43 0 69.5 -30t26.5 -71q0 -56 -37 -93.5t-92 -37.5q-37 0 -68 32
t-31 68q0 56 38.5 94t93.5 38z" />
    <glyph glyph-name="less" unicode="&#x3c;" horiz-adv-x="741" 
d="M120 428l7 29l622 517l44 -71l-433 -448l309 -468l-74 -70z" />
    <glyph glyph-name="equal" unicode="=" horiz-adv-x="878" 
d="M202 425h615l-28 -106h-615zM243 665h616l-29 -106h-615z" />
    <glyph glyph-name="greater" unicode="&#x3e;" horiz-adv-x="743" 
d="M759 428l-637 -511l-51 70l455 468l-291 448l68 71l460 -517z" />
    <glyph glyph-name="question" unicode="?" horiz-adv-x="684" 
d="M331 213q45 0 73.5 -31.5t28.5 -75.5q0 -60 -39 -99.5t-98 -39.5q-40 0 -73 34t-33 72q0 60 40.5 100t100.5 40zM245 1145q0 46 50 92q26 24 71 38.5t99 14.5q119 0 201 -103t82 -257q0 -128 -71 -196q-54 -51 -145 -97q-46 -23 -74.5 -41.5t-45.5 -45.5q-20 -29 -20 -67
q0 -46 7 -99l-76 -17q-45 84 -45 176q0 108 73 164q47 37 148 82q92 41 123 91q20 33 20 78q0 65 -42.5 111t-93.5 46q-125 0 -203 -71q-26 11 -42 38t-16 63z" />
    <glyph glyph-name="at" unicode="@" horiz-adv-x="1391" 
d="M881 693q-48 12 -88 12q-53 0 -100.5 -55.5t-72.5 -139.5q-25 -81 -25 -159q0 -73 9 -112q9 -36 23 -47.5t44 -11.5q74 0 142 75zM1251 232q-66 -74 -159.5 -118.5t-190.5 -44.5q-42 0 -68.5 26.5t-26.5 73.5q0 5 1 9t1 9h-8q-37 -55 -89.5 -91t-102.5 -36q-84 0 -128 62
t-44 186q0 101 39.5 194.5t104.5 155.5q63 61 134.5 97t134.5 36q90 0 166 -17l3 -1l17 -20l-53 -368q-20 -141 -20 -167q0 -50 23 -49q74 0 137.5 54t100.5 145q36 90 37 191q0 189 -111.5 293t-299.5 104q-117 0 -223.5 -51t-181.5 -138q-74 -87 -115.5 -198.5
t-41.5 -227.5q0 -227 130 -352t371 -125q87 0 188 34.5t158 73.5l10 8l35 -63l-9 -5q-84 -55 -162 -89q-112 -51 -259 -51q-199 0 -349 74q-84 41 -141.5 102t-91.5 152q-36 92 -35 211q0 146 57 281.5t159 236.5q101 101 243 159t298 58q142 0 256.5 -54.5t182.5 -156.5
q68 -103 67 -236q0 -99 -39 -196t-105 -171z" />
    <glyph glyph-name="A" unicode="A" horiz-adv-x="1159" 
d="M874 1270l189 -1146l124 -43l-18 -81h-485l20 74l172 55l-56 304h-401l-153 -309l170 -43l-22 -81h-446l18 74l149 55l592 1110zM471 534h335l-79 502z" />
    <glyph glyph-name="B" unicode="B" horiz-adv-x="1140" 
d="M518 605l-90 -509h194q78 0 141.5 25.5t103.5 69.5q78 85 78 199q0 93 -57.5 154t-156.5 61h-213zM882 673q120 -7 187 -77.5t67 -173.5q0 -125 -95 -231q-107 -118 -294 -165q-102 -26 -226 -26h-456l18 74l168 47l171 986l-159 29l20 77q309 46 483 46q192 0 285 -80
q84 -74 84 -175q0 -86 -54 -174q-60 -99 -198 -148zM534 690h199q96 0 154 72.5t59 193.5q0 88 -52 149q-59 68 -201 68q-38 0 -76 -7z" />
    <glyph glyph-name="C" unicode="C" horiz-adv-x="1148" 
d="M489 211q103 -105 255 -105q183 0 347 152l38 -55q-98 -116 -222.5 -172t-258.5 -56q-199 0 -337 130q-68 63 -105.5 161t-37.5 217q0 146 59 297q65 168 179 283q132 134 300 183q94 26 195 26q217 0 327 -101l-82 -332l-81 13l-4 220q-28 49 -88 76.5t-145 27.5
q-87 0 -168 -46t-144 -128q-64 -84 -100 -204.5t-36 -258.5q0 -107 28.5 -191.5t80.5 -136.5z" />
    <glyph glyph-name="D" unicode="D" horiz-adv-x="1349" 
d="M441 104h140q127 0 239 48.5t188 132.5q75 84 117 192.5t42 225.5q0 194 -107 320q-54 64 -140.5 99.5t-195.5 35.5q-60 0 -118 -7zM1189 1163q67 -44 111.5 -107.5t63.5 -136.5q18 -69 18 -153q0 -238 -153 -436q-160 -206 -416 -287q-135 -43 -288 -43h-453l20 74
l172 55l154 976l-161 30l20 76q305 50 500 50q263 0 412 -98z" />
    <glyph glyph-name="E" unicode="E" horiz-adv-x="1135" 
d="M271 1246h955l-80 -320l-81 14l-5 215h-451l-75 -477h278l61 119l91 14l-92 -389l-85 -13l-5 175h-263l-77 -488h474l131 230l78 -12l-79 -314h-963l15 74l165 47l159 1007l-167 42z" />
    <glyph glyph-name="F" unicode="F" horiz-adv-x="1052" 
d="M273 1246h951l-89 -321l-81 13v217h-445l-76 -483h274l61 120l87 14l-87 -392l-87 -15l-2 180h-261l-73 -457l222 -38l-20 -84h-564l15 74l165 47l159 1007l-167 42z" />
    <glyph glyph-name="G" unicode="G" horiz-adv-x="1285" 
d="M1227 842l-81 15l-4 192q-30 50 -105.5 82t-188.5 32q-146 0 -260 -88q-127 -98 -176 -295q-27 -108 -27 -241q0 -228 97 -345.5t290 -117.5q125 0 178 46l50 313l-220 38l20 83h531l-18 -75l-124 -41l-55 -352q-85 -57 -212.5 -88t-282.5 -31q-117 0 -209.5 39
t-148.5 110q-112 141 -111 349q0 144 42.5 273.5t116.5 225.5q152 194 370 263q104 33 213 33q266 0 392 -97z" />
    <glyph glyph-name="H" unicode="H" horiz-adv-x="1406" 
d="M581 0h-492l15 74l157 47l159 1007l-159 42l17 76h495l-17 -76l-159 -38l-68 -439h569l68 435l-160 42l18 76h495l-17 -76l-159 -38l-160 -1018l162 -33l-18 -81h-493l18 74l155 47l75 471l-571 -1l-74 -477l165 -33z" />
    <glyph glyph-name="I" unicode="I" horiz-adv-x="670" 
d="M596 0h-513l15 74l165 47l159 1007l-167 42l16 76h520l-17 -76l-169 -38l-160 -1018l170 -33z" />
    <glyph glyph-name="J" unicode="J" horiz-adv-x="635" 
d="M476 385q-34 -213 -84 -325q-29 -66 -61.5 -114t-82.5 -95q-49 -46 -102.5 -85.5t-138.5 -91.5q-26 39 -38 88q134 116 203.5 218t88.5 217l148 931l-165 42l15 76h519l-13 -76l-169 -38z" />
    <glyph glyph-name="K" unicode="K" horiz-adv-x="1210" 
d="M620 510q-45 74 -67 95l5 25q79 60 121 108l343 385l-148 47l15 76h475l-18 -76l-177 -47l-437 -473l174 -270q96 -147 154.5 -207t139.5 -89l33 -11l-21 -73q-63 -22 -126 -22q-115 0 -200 83q-72 69 -139 200zM451 124l173 -43l-18 -81h-527l14 74l174 55l156 991
l-172 50l19 76h525l-17 -76l-172 -47z" />
    <glyph glyph-name="L" unicode="L" horiz-adv-x="1076" 
d="M793 1246l-16 -76l-172 -47l-162 -1027h421l164 248l81 -13l-87 -331h-938l13 74l167 47l157 999l-172 50l20 76h524z" />
    <glyph glyph-name="M" unicode="M" horiz-adv-x="1647" 
d="M725 31l-182 937l-195 -854l174 -33l-22 -81h-458l18 74l166 47l228 1007l-169 42l19 76h382l43 -194l132 -743l419 776l86 161h377l-17 -76l-167 -38l-109 -1018l169 -33l-18 -81h-510l18 74l164 47l86 885l-514 -955z" />
    <glyph glyph-name="N" unicode="N" horiz-adv-x="1359" 
d="M993 -30l-476 993l-134 -849l172 -33l-18 -81h-453l14 74l166 47l157 999l-165 50l16 76h334l460 -973l134 855l-170 42l18 76h453l-18 -76l-165 -38l-179 -1132z" />
    <glyph glyph-name="O" unicode="O" horiz-adv-x="1341" 
d="M1079 1031q-36 69 -97 108t-138 39q-79 0 -147.5 -23t-115.5 -63q-89 -75 -135 -207q-39 -112 -48 -245q-4 -60 -4 -112q0 -184 70 -311q36 -65 96 -101.5t138 -36.5q159 0 261 86q89 74 137 205q39 110 50 238q4 60 4 107q-1 180 -71 316zM1247 1115q117 -154 116 -385
q0 -249 -127 -439q-134 -201 -354 -277q-116 -41 -248 -40q-137 0 -243 69.5t-161 191.5q-55 121 -55 271q0 162 53 304.5t149 245.5q97 103 234 161t294 58q108 0 196 -42t146 -118z" />
    <glyph glyph-name="P" unicode="P" horiz-adv-x="1071" 
d="M1167 958q0 -99 -40.5 -187.5t-110.5 -149.5q-69 -61 -159.5 -95.5t-184.5 -34.5q-50 0 -107 9l-7 82h52q175 0 263.5 86t88.5 250q0 118 -64 187.5t-187 69.5l-103 -5l-165 -1048l221 -38l-21 -84h-566l16 74l168 47l153 986l-157 29l22 77q283 45 463 44
q425 0 425 -299z" />
    <glyph glyph-name="Q" unicode="Q" horiz-adv-x="1354" 
d="M1119 960q-59 132 -156 183q-55 26 -116 27q-218 0 -344 -162.5t-126 -446.5q0 -145 51 -261q58 -136 177 -194q65 -33 151 -38q148 37 243 124q82 74 125 185q35 89 44 206q3 41 3 99q0 156 -52 278zM695 -63q0 22 1 41q-12 -5 -61 -4q-137 0 -243.5 69.5t-162.5 191.5
q-55 119 -55 271q0 160 55.5 303t156 246.5t239 161.5t293.5 58q107 0 195.5 -41t146.5 -116q118 -151 118 -380q0 -175 -69.5 -329.5t-198.5 -263.5q-131 -111 -299 -152q13 -56 35 -94.5t62 -72.5q81 -69 272 -102q-7 -48 -22 -75q-73 -35 -174 -34q-128 0 -208.5 87.5
t-80.5 234.5z" />
    <glyph glyph-name="R" unicode="R" horiz-adv-x="1167" 
d="M1098 1138q56 -65 57 -159q0 -117 -87 -220q-89 -103 -244 -158v-2l132 -250q35 -65 65 -117q23 -41 59 -81q23 -28 70 -53q24 -13 44 -20l29 -10l-25 -68q-63 -22 -119 -22q-101 0 -172 69.5t-123 205.5l-109 285h-165l-65 -412l174 -43l-19 -83h-522l16 74l168 47
l155 982l-161 30l24 76q287 46 443 47q271 -1 375 -118zM523 629h159q104 0 185 87t81 210q0 107 -60 176t-162 69q-26 0 -102 -3l-15 -2z" />
    <glyph glyph-name="S" unicode="S" horiz-adv-x="913" 
d="M875 888l-94 12l5 192q-7 31 -51 62.5t-95 31.5q-89 0 -148 -64t-59 -169q0 -93 93 -170q45 -37 90 -66q141 -93 190 -138q92 -84 92 -195q0 -89 -41.5 -168t-112.5 -132q-149 -109 -335 -109q-100 0 -184 42.5t-114 104.5l56 268l94 -14l5 -189q21 -51 67.5 -80
t114.5 -29q73 0 140 30q74 34 105 104q17 40 17 85q0 77 -71 141q-64 56 -156 115q-90 57 -155 127q-71 75 -72 175q0 150 92 258q88 103 214 141q60 18 125 18q78 0 145 -24.5t108 -76.5z" />
    <glyph glyph-name="T" unicode="T" horiz-adv-x="1112" 
d="M228 1246h1061l-85 -338l-89 15v232h-290l-165 -1041l170 -33l-19 -81h-517l17 74l167 47l164 1034h-281l-90 -243l-86 13z" />
    <glyph glyph-name="U" unicode="U" 
d="M471 495q-10 -62 -10 -111q0 -146 72.5 -218.5t206.5 -72.5q117 0 195 49q68 42 111 121q33 62 53 147q6 26 14 71l102 647l-165 42l15 76h456l-16 -76l-168 -38l-104 -632q-89 -526 -574 -526q-115 0 -203 41q-56 26 -93.5 66.5t-61.5 105.5q-26 67 -26 157q0 56 10 126
l105 658l-171 42l18 76h517l-15 -76l-169 -38z" />
    <glyph glyph-name="V" unicode="V" horiz-adv-x="1165" 
d="M510 -25l-222 1153l-131 42l17 76h506l-15 -76l-169 -38l161 -881l441 877l-167 42l15 76h435l-15 -76l-130 -38l-586 -1127z" />
    <glyph glyph-name="W" unicode="W" horiz-adv-x="1692" 
d="M1095 -25l-89 978l-430 -948l-151 -30l-134 1153l-124 42l15 76h485l-20 -76l-167 -38l97 -859l422 923l166 25l81 -933l380 840l-164 42l17 76h428l-16 -76l-124 -38l-526 -1127z" />
    <glyph glyph-name="X" unicode="X" horiz-adv-x="1147" 
d="M774 652l242 -538l129 -33l-22 -81h-483l20 74l165 47l-188 402l-346 -409l171 -33l-19 -81h-431l19 74l121 47l429 488l-247 511l-117 50l18 76h496l-18 -76l-165 -47l170 -379l319 384l-172 42l18 76h432l-15 -76l-127 -38z" />
    <glyph glyph-name="Y" unicode="Y" horiz-adv-x="1057" 
d="M706 529l-66 -415l154 -33l-18 -81h-485l17 74l150 47l61 385l-241 622l-122 42l19 76h478l-18 -76l-157 -38l192 -493l328 489l-166 42l15 76h423l-14 -76l-126 -38z" />
    <glyph glyph-name="Z" unicode="Z" horiz-adv-x="1095" 
d="M291 1246h917l-12 -76l-898 -1069h534l142 250l91 -15l-82 -336h-897l7 104l876 1047h-537l-91 -246l-88 18z" />
    <glyph glyph-name="bracketleft" unicode="[" horiz-adv-x="441" 
d="M350 -376l-278 -1l261 1634h272l-4 -89l-144 -20l-221 -1408l139 -20z" />
    <glyph glyph-name="backslash" unicode="\" horiz-adv-x="711" 
d="M382 1237l210 -1601l-129 8l-212 1602z" />
    <glyph glyph-name="bracketright" unicode="]" horiz-adv-x="443" 
d="M-24 -376l5 96l146 20l221 1408l-137 20l26 89h272l-258 -1634z" />
    <glyph glyph-name="asciicircum" unicode="^" horiz-adv-x="751" 
d="M597 1252l230 -427l-63 -36l-228 286h-10l-294 -281l-45 33l354 412z" />
    <glyph glyph-name="underscore" unicode="_" horiz-adv-x="842" 
d="M7 -26h831l-28 -106h-831z" />
    <glyph glyph-name="grave" unicode="`" horiz-adv-x="634" 
d="M164 1663l116 38l132 -335l-58 -34z" />
    <glyph glyph-name="a" unicode="a" horiz-adv-x="855" 
d="M846 84l-20 -69q-69 -30 -140 -30q-53 0 -86 25t-33 73v11l3 38h-12q-38 -68 -102 -111t-134 -43q-93 0 -147.5 79t-54.5 218q0 112 31.5 212t85.5 174q108 147 256 201q71 25 138 25q130 0 185 -35l17 -18l-71 -455q-26 -175 -27 -217q0 -34 9.5 -48t33.5 -18zM661 748
q-37 35 -119 34q-74 0 -136 -69t-93 -178q-31 -103 -31 -214q0 -215 121 -215q50 0 88.5 23t83.5 73z" />
    <glyph glyph-name="b" unicode="b" horiz-adv-x="866" 
d="M304 1145l-134 23l6 76l276 25l19 -23l-63 -402l-27 -121h12q41 70 115 119.5t141 49.5q65 0 119 -50t83 -132q28 -79 28 -174q0 -152 -67.5 -280.5t-186.5 -203.5q-120 -75 -265 -75q-63 0 -129 20t-103 53zM586 142q75 65 107 196q17 74 18 168q0 126 -63 203
q-33 41 -78 40q-56 0 -96.5 -19t-88.5 -63l-86 -513q20 -30 63 -47.5t97 -17.5q65 0 127 53z" />
    <glyph glyph-name="c" unicode="c" horiz-adv-x="666" 
d="M447 93q53 0 92.5 14.5t90.5 48.5l23 -50q-48 -60 -122 -98t-146 -38q-124 0 -193.5 88.5t-69.5 249.5q0 103 30 199.5t80 168.5q48 69 108 121t120 79q60 26 112 26q79 0 124 -39t45 -105q0 -48 -39 -79t-100 -35q-5 62 -20 106q-18 57 -59 57q-37 0 -76.5 -34
t-74.5 -94q-35 -61 -56.5 -153.5t-21.5 -194.5q0 -112 38.5 -175t114.5 -63z" />
    <glyph glyph-name="d" unicode="d" horiz-adv-x="854" 
d="M840 86l-19 -71q-86 -30 -139 -30q-58 0 -88 24t-32 65q0 23 5 58h-13q-38 -68 -102 -111t-134 -43q-199 0 -199 293q0 103 30 202t82 173q108 156 248 213q69 28 135 28q47 0 69 -7h7l38 278l-142 26l13 73l276 25l20 -23l-137 -879q-26 -185 -27 -220q0 -33 9 -45.5
t34 -16.5zM657 746q-43 36 -118 36q-74 0 -135.5 -68t-91.5 -174q-31 -100 -31 -209q0 -117 30.5 -171t93.5 -54q50 0 84.5 21.5t79.5 74.5z" />
    <glyph glyph-name="e" unicode="e" horiz-adv-x="733" 
d="M576 534q22 45 21 119q-4 146 -96 146q-58 0 -112 -70q-55 -70 -85 -216zM701 458l-408 -18q-7 -43 -8 -91q0 -130 60 -189q57 -57 146 -57q36 0 103 26.5t86 47.5l26 -45q-41 -63 -129.5 -112.5t-179.5 -49.5q-74 0 -129 28t-86 78q-56 93 -56 230q0 156 56 290t157 215
t222 81q94 0 141 -61.5t47 -175.5q0 -107 -48 -197z" />
    <glyph glyph-name="f" unicode="f" horiz-adv-x="588" 
d="M854 1175q0 -33 -26 -61t-76 -42q-11 32 -53 60.5t-84 28.5q-59 0 -89 -68q-23 -52 -37 -135l-13 -83h187l-25 -89h-176l-107 -677l208 -30l-18 -79h-495l17 76l124 33l106 677h-119l16 68l119 36q22 106 80.5 198t137.5 147q79 54 156 54q81 0 124 -28.5t43 -85.5z" />
    <glyph glyph-name="g" unicode="g" horiz-adv-x="830" 
d="M347 553q0 -74 31 -123.5t77 -49.5q69 0 114.5 78.5t45.5 203.5q0 76 -24.5 119t-67.5 43q-74 0 -125 -78.5t-51 -192.5zM534 151q246 0 247 -151q0 -65 -30.5 -126.5t-84.5 -108.5q-112 -99 -248 -134q-67 -18 -129 -18q-170 0 -250 79q-44 44 -44 106q0 134 194 220v8
q-42 22 -59.5 48.5t-18.5 71.5q0 41 65 98.5t132 83.5l1 8q-45 12 -86 77t-41 137q0 88 56.5 170t146.5 131q85 47 171 47q100 0 157 -63l212 15l16 -23l-54 -111h-17l-119 40l-2 -17q15 -50 15 -107q0 -84 -54.5 -162t-137.5 -123q-81 -44 -155 -44q-40 0 -70 10l-18 -19
q-17 -17 -20 -22q-6 -8 -8 -11q-6 -8 -8 -15q0 -1 -2 -6t-4 -8q-6 -15 -6 -33q0 -31 35 -40q32 -8 131 -8h87zM253 3q-2 -2 -7 -5q-20 -15 -39 -46q-25 -41 -25 -101q0 -131 170 -131q111 0 180.5 55.5t69.5 148.5q0 43 -48 61q-47 18 -162 18h-139z" />
    <glyph glyph-name="h" unicode="h" horiz-adv-x="899" 
d="M768 101l124 -28l-21 -73h-271l84 526q8 55 8 93q0 127 -87 127q-41 0 -80 -13t-62 -31t-45 -39l-90 -560l123 -32l-18 -71h-406l22 74l121 34l165 1037l-134 23l10 76l275 25l21 -23l-63 -399l-28 -124h12q56 74 131.5 123t152.5 49q147 0 147 -180q0 -55 -8 -101z" />
    <glyph glyph-name="i" unicode="i" horiz-adv-x="497" 
d="M566 1198q0 -50 -36.5 -86.5t-86 -36.5t-84.5 36.5t-35 87.5q0 46 35.5 79t83.5 33q50 0 86.5 -33t36.5 -80zM202 106l101 642l-131 21l10 76l275 25l19 -23l-115 -744l125 -32l-16 -71h-409l18 73z" />
    <glyph glyph-name="j" unicode="j" horiz-adv-x="441" 
d="M420 1313q52 0 90.5 -35.5t38.5 -84.5q0 -51 -38.5 -89.5t-90.5 -38.5q-50 0 -86 39.5t-36 91.5q0 47 37 82t85 35zM-84 -308q222 162 258 407l103 650l-133 22l10 76l274 25l22 -23l-121 -763q-12 -76 -44 -149t-72 -126q-36 -46 -84 -88t-89 -69q-40 -25 -75 -41z" />
    <glyph glyph-name="k" unicode="k" horiz-adv-x="861" 
d="M405 435l4 17l263 319l-123 33l15 71h381l-22 -76l-132 -33l-240 -278l50 -104q7 -16 24 -53l43 -93q15 -32 41 -73q16 -25 45 -53q22 -20 57 -31q14 -6 36 -8l35 -5l-22 -68q-19 -6 -63 -13t-71 -7q-66 0 -115 43q-41 36 -92 146q-21 43 -52 119zM170 108l166 1037
l-133 21l12 76l271 25l24 -23l-181 -1140l126 -31l-17 -73h-408l16 74z" />
    <glyph glyph-name="l" unicode="l" horiz-adv-x="466" 
d="M170 108l165 1037l-132 21l11 76l272 25l21 -23l-179 -1140l128 -31l-18 -73h-409l18 74z" />
    <glyph glyph-name="m" unicode="m" horiz-adv-x="1367" 
d="M1242 101l124 -28l-21 -73h-263l-12 13l80 513q8 58 8 96q0 126 -76 126q-108 0 -192 -85q-12 -85 -23 -153l-25 -158l-40 -249l124 -29l-21 -74h-263l-12 15l83 511q10 57 10 104q0 117 -78 118q-101 0 -188 -85l-88 -559l122 -31l-18 -73h-410l21 76l121 33l96 634
l-131 21l14 83l281 25l21 -23l-31 -126h12q26 45 99 102q38 31 87.5 50.5t97.5 19.5q66 0 104 -38t38 -113v-13h12q124 164 278 164q74 0 108 -43.5t34 -133.5q0 -44 -8 -104z" />
    <glyph glyph-name="n" unicode="n" horiz-adv-x="927" 
d="M799 104l124 -28l-21 -73h-267l-11 12l82 511q12 84 12 113q0 58 -20 81.5t-63 23.5q-101 0 -183 -79l-90 -559l123 -32l-18 -74h-404l21 74l121 34l96 635l-131 21l14 83l278 25l21 -23l-35 -126h12q52 69 134.5 120.5t153.5 51.5t105.5 -40t34.5 -132q0 -45 -10 -109z
" />
    <glyph glyph-name="o" unicode="o" horiz-adv-x="842" 
d="M655 310q30 114 30 240q0 125 -36.5 196t-100.5 71q-59 0 -106.5 -41t-76.5 -113q-59 -146 -59 -340q0 -155 60 -234q31 -41 72 -41q69 0 127.5 72.5t89.5 189.5zM728 151q-60 -81 -145 -129t-178 -48q-89 0 -154 46.5t-97 127.5q-31 80 -32 181q0 103 35.5 206t97.5 183
q62 81 150.5 129t185.5 48q132 0 197.5 -92t65.5 -267q0 -103 -33.5 -204t-92.5 -181z" />
    <glyph glyph-name="p" unicode="p" horiz-adv-x="905" 
d="M129 -261l146 1007l-133 22l12 76l278 28l20 -23l-32 -128h12q34 65 108 118t138 53q99 0 168 -104t69 -255q0 -124 -40 -230.5t-108 -176.5q-67 -69 -152 -106.5t-175 -37.5q-65 0 -93 11l22 115q14 -7 42 -13t46 -6q54 0 100 14q31 9 55 24t49 45q50 59 69 174
q11 61 11 140q0 117 -38.5 189.5t-93.5 72.5q-56 0 -94 -18t-93 -68l-139 -925l155 -31l-18 -72l-432 -3l20 75z" />
    <glyph glyph-name="q" unicode="q" horiz-adv-x="828" 
d="M512 -258l147 1004q-59 35 -114 35q-60 0 -111.5 -42.5t-83.5 -112.5q-65 -141 -65 -295q0 -100 31 -164t85 -64q86 0 141 44l8 -51q-45 -59 -100 -88.5t-138 -29.5q-91 0 -143 79t-52 208q0 97 27.5 191.5t78.5 171.5q105 163 248 226q74 31 145 31q64 0 104 -20l100 15
l16 -7l-168 -1136l135 -31l-18 -72h-447l20 75z" />
    <glyph glyph-name="r" unicode="r" horiz-adv-x="621" 
d="M203 108l100 635l-133 21l12 83l275 25l21 -23l-46 -191h15q79 235 188 235q32 0 55 -24t23 -58q0 -40 -16.5 -79t-38.5 -50q-20 12 -35 14t-52 2q-30 0 -69 -39.5t-65 -89.5l-80 -463l174 -32l-18 -74h-450l21 74z" />
    <glyph glyph-name="s" unicode="s" horiz-adv-x="650" 
d="M680 764q0 -66 -33.5 -104t-95.5 -45l-3 24q-15 189 -100 188q-55 0 -88.5 -33.5t-33.5 -95.5q0 -94 107 -185q6 -5 25 -21t27 -23t24.5 -21.5t25.5 -24t21.5 -22.5t22.5 -26.5t19 -26.5q31 -50 31 -103q0 -100 -76 -174q-74 -69 -163 -93q-45 -12 -84 -13
q-102 0 -163.5 45t-61.5 112q0 50 33 85t89 41q47 -194 143 -193q55 0 97 35t42 92q0 60 -108 143q-81 64 -111 95q-32 35 -54 74q-31 56 -32 121q0 53 25 105.5t68 94.5q43 41 103 64.5t124 23.5q83 0 131.5 -36t48.5 -103z" />
    <glyph glyph-name="t" unicode="t" horiz-adv-x="564" 
d="M476 1082l-34 -209h215l-20 -95h-215l-68 -431q-13 -88 -13 -114q0 -50 15 -81t48 -31q76 0 155 33l13 -51q-48 -53 -115 -89t-131 -36q-72 0 -110.5 44.5t-38.5 129.5q0 53 10 108l83 518h-111l10 47q64 45 118.5 104t124.5 153h64z" />
    <glyph glyph-name="u" unicode="u" horiz-adv-x="906" 
d="M893 84l-18 -69q-69 -30 -140 -30q-60 0 -90 28t-30 86q0 17 2 32h-10q-31 -56 -105 -103.5t-158 -47.5q-154 0 -154 184q0 41 9 101l72 483l-130 23l10 74l282 25l20 -23l-79 -471q-16 -97 -16 -153t18.5 -81t61.5 -25q98 0 181 83l82 548l-134 23l10 74l287 25l19 -23
l-76 -476q-23 -150 -23 -201q0 -39 9.5 -54.5t33.5 -19.5z" />
    <glyph glyph-name="v" unicode="v" horiz-adv-x="768" 
d="M323 -28l-107 801l-96 31l18 71h379l-18 -69l-123 -38l70 -553l240 556l-123 33l17 71h332l-20 -74l-99 -35l-365 -776z" />
    <glyph glyph-name="w" unicode="w" horiz-adv-x="1168" 
d="M659 811l134 18l60 -482l5 -132l230 558l-121 31l16 71h326l-19 -74l-96 -33l-338 -780l-106 -18l-79 634l-260 -616l-116 -18l-76 803l-97 31l18 71h354l-18 -74l-121 -33l49 -406l9 -135z" />
    <glyph glyph-name="x" unicode="x" horiz-adv-x="856" 
d="M750 104l95 -35l-19 -69h-395l20 69l122 35l-114 248l-200 -246l127 -35l-20 -71h-347l20 69l94 35l288 331l-154 338l-96 29l18 71h381l-20 -69l-117 -31l112 -237l187 233l-104 33l18 71h313l-22 -71l-99 -36l-260 -301z" />
    <glyph glyph-name="y" unicode="y" horiz-adv-x="832" 
d="M467 225l281 546l-123 33l20 71h334l-20 -74l-95 -32l-429 -822q-96 -184 -176 -255.5t-185 -71.5q-65 0 -97.5 30t-32.5 82q0 71 71 127q68 -55 142 -54q49 0 86 29.5t83 115.5l18 35l-127 788l-95 31l17 71h385l-18 -69l-124 -40z" />
    <glyph glyph-name="z" unicode="z" horiz-adv-x="746" 
d="M179 634l48 241h579l-10 -68l-551 -719h303l115 163l63 -8l-79 -243h-579l8 79l543 712h-286l-88 -169z" />
    <glyph glyph-name="braceleft" unicode="{" horiz-adv-x="528" 
d="M432 -278l-9 -101h-61q-100 0 -144 54.5t-44 159.5q0 62 18 189t18 184q0 79 -23 122t-78 52l-49 8l14 100l50 8q58 10 98.5 56.5t60.5 117.5q21 74 33 146q37 205 79 298q30 66 86.5 103.5t138.5 37.5h58l-25 -99l-39 -7q-66 -11 -93 -138q-12 -58 -22 -125
q-25 -172 -63 -270q-25 -64 -70.5 -110t-107.5 -63l-2 -7q67 -20 95.5 -76t28.5 -149q0 -69 -19 -202q-20 -132 -20 -180q0 -96 58 -104z" />
    <glyph glyph-name="bar" unicode="|" horiz-adv-x="381" 
d="M191 -364l-114 13l255 1608l114 -11z" />
    <glyph glyph-name="braceright" unicode="}" horiz-adv-x="527" 
d="M9 -278l33 5q72 11 101 139q11 45 24 126q25 165 65 273q24 64 69.5 110.5t107.5 62.5l2 7q-122 36 -122 213q0 65 21.5 203.5t21.5 184.5q0 50 -11.5 75t-40.5 30l-39 7l8 99h60q110 0 149 -63q36 -59 36 -155q0 -60 -18 -190q-17 -130 -17 -184q0 -74 24 -115.5
t79 -51.5l46 -8l-15 -100l-53 -8q-91 -14 -133 -114q-32 -75 -58 -223q-28 -165 -56 -237q-47 -122 -131 -162q-51 -25 -117 -25h-61z" />
    <glyph glyph-name="asciitilde" unicode="~" horiz-adv-x="948" 
d="M164 414q0 1 6 21q22 65 53 108q21 29 52.5 49t65.5 20h13l447 -45h5q16 0 35.5 14.5t33.5 32.5l12 15l64 -2q-1 -2 -3 -9.5t-3 -12.5q-6 -18 -22 -52t-34 -58q-22 -30 -54.5 -51t-66.5 -21q-4 0 -7.5 1t-7.5 1l-447 45h-5q-17 0 -37.5 -16t-33.5 -36l-12 -18z" />
    <glyph glyph-name="nbspace" unicode="&#xa0;" horiz-adv-x="397" 
 />
    <glyph glyph-name="exclamdown" unicode="&#xa1;" horiz-adv-x="412" 
d="M317 685q-45 0 -74 32t-29 75q0 60 39.5 99.5t98.5 39.5q40 0 72.5 -33.5t32.5 -72.5q0 -60 -40 -100t-100 -40zM249 541l86 -20v-3q-55 -687 -84 -872l-2 -3q-7 -17 -51.5 -28.5t-87.5 -11.5q-24 0 -41 8.5t-17 26.5v5q31 203 197 891v7z" />
    <glyph glyph-name="cent" unicode="&#xa2;" horiz-adv-x="845" 
d="M742 1037l-41 -140q89 -9 127 -42.5t38 -93.5q0 -45 -40 -79.5t-102 -39.5q-2 37 -18.5 76.5t-46.5 62.5l-195 -677q40 -18 101 -18q57 0 106 17t112 53q8 -15 14 -57q-74 -67 -156 -98t-185 -31q-18 0 -32 2l-24 -86l-123 -20l40 134q-98 50 -139 146q-36 87 -37 188
q0 89 26.5 174.5t73.5 151.5q91 131 221 195q60 30 121 40l37 121zM567 804q-81 -21 -150.5 -141.5t-69.5 -255.5q0 -84 8 -127t36 -96z" />
    <glyph glyph-name="sterling" unicode="&#xa3;" horiz-adv-x="1148" 
d="M1035 897l-83 13l-8 213q-39 23 -81 23q-97 0 -152 -57q-50 -53 -88 -209q-18 -74 -37 -175l-8 -48l223 13l-28 -101l-211 -13l-9 -40q-53 -299 -127 -417l462 -3l170 253l83 -18l-90 -331h-991l20 74l174 47q31 66 49.5 134t44.5 207l15 87l-180 -10l28 101l172 10
l25 137q45 239 179 354q128 111 302 111q139 0 228 -39z" />
    <glyph glyph-name="currency" unicode="&#xa4;" horiz-adv-x="815" 
d="M510 672q-73 0 -128 -58t-55 -139q0 -84 30.5 -122.5t98.5 -38.5q74 0 132 57.5t58 134.5q0 85 -32.5 125.5t-103.5 40.5zM145 255l96 78q-17 35 -22 54t-5 56q0 32 23 95t45 91l-76 86l98 82l62 -87q37 27 82 43t82 16q42 0 82.5 -13t66.5 -36l91 79l63 -88l-97 -74
q12 -27 15 -43.5t3 -57.5q0 -55 -20.5 -107t-51.5 -87l81 -86l-100 -82l-65 91q-88 -48 -164 -48q-64 0 -127 41l-91 -89z" />
    <glyph glyph-name="yen" unicode="&#xa5;" horiz-adv-x="1137" 
d="M543 473h-308l28 106h265l-154 549l-132 42l26 76h468l-25 -76l-137 -38l132 -490l296 486l-152 42l23 76h397l-23 -76l-129 -38l-342 -553h304l-28 -106h-316l-20 -127h325l-30 -106h-313l-20 -126l159 -33l-21 -81h-508l21 74l157 47l19 119h-311l29 106h300z" />
    <glyph glyph-name="brokenbar" unicode="&#xa6;" horiz-adv-x="377" 
d="M78 -351l124 783l109 -12l-124 -784zM218 541l115 716l109 -11l-119 -717z" />
    <glyph glyph-name="section" unicode="&#xa7;" horiz-adv-x="801" 
d="M864 892l-98 11l4 193q-11 32 -55 63.5t-100 31.5q-81 0 -140 -48t-74 -141q-2 -16 -2 -32q0 -50 27 -91.5t70.5 -72.5t95.5 -61t104.5 -62t96 -69t71 -90t27.5 -116q0 -29 -4 -52q-5 -31 -13 -54l-372 228q-117 69 -155 99q-124 94 -135 216q-1 12 -1 24q0 29 4 52
q17 109 87.5 192t165 123.5t195.5 40.5q163 0 268 -101zM493 408q22 -13 63.5 -37t67.5 -40t62 -40.5t58.5 -48t44.5 -53t32 -65.5t10 -77q0 -29 -4 -52q-13 -84 -62.5 -156.5t-119 -121t-154.5 -75.5t-171 -27q-103 0 -188.5 42.5t-126.5 105.5l55 268l101 -14l9 -190
q22 -46 72.5 -78t117.5 -32q42 0 84.5 12.5t82 36.5t68.5 66t37 96q2 14 2 27q0 40 -20.5 75t-54.5 61t-77.5 54.5t-89 53t-88.5 57t-77 66.5t-55 82.5t-21 104.5q0 29 5 52q3 23 11 49z" />
    <glyph glyph-name="dieresis" unicode="&#xa8;" horiz-adv-x="687" 
d="M564 1467q0 -35 -26 -58t-62 -23q-35 0 -59.5 23.5t-24.5 57.5t25.5 56t58.5 22q36 0 62 -22.5t26 -55.5zM294 1467q0 -35 -25 -58t-61 -23q-35 0 -59.5 23.5t-24.5 57.5t25.5 56t58.5 22q36 0 61 -22.5t25 -55.5z" />
    <glyph glyph-name="copyright" unicode="&#xa9;" horiz-adv-x="1404" 
d="M1261 1001q-72 122 -209 167q-74 25 -165 25q-194 0 -346 -114q-165 -123 -228 -330q-34 -113 -33 -239q0 -150 62 -258q67 -118 203 -161q70 -23 161 -23q198 0 354 113q167 121 231 327q34 112 34 236q1 148 -64 257zM1254 1176q124 -100 166 -257q19 -74 19 -153
q0 -149 -41 -278.5t-114 -224.5q-72 -93 -168 -159t-206 -98q-111 -32 -227 -32q-105 0 -192.5 28.5t-148.5 78.5q-120 98 -159 257q-19 74 -19 155q0 237 108 420q104 177 272 274q169 97 356 97q108 0 199 -29t155 -79zM773 362q80 0 150 53l20 -43q-38 -48 -99.5 -79.5
t-120.5 -31.5q-102 0 -159.5 74t-57.5 204q0 84 24.5 163.5t65.5 139.5q82 118 188 164q50 22 93 21q65 0 102 -32t37 -87q0 -39 -33 -63.5t-83 -28.5q-4 74 -28 110q-15 23 -37 24q-70 0 -129.5 -115t-59.5 -278q0 -92 32 -143.5t95 -51.5z" />
    <glyph glyph-name="ordfeminine" unicode="&#xaa;" horiz-adv-x="541" 
d="M167 346h339l-16 -58h-339zM400 577q-70 -10 -98.5 -30.5t-28.5 -56.5q0 -40 38 -40q41 0 76 43zM500 417q-1 0 -4.5 -1t-6.5 -1.5t-6 -0.5q-21 -5 -38 -5q-26 0 -41 12.5t-15 31.5q0 2 0.5 5t0.5 5v5h-5q-13 -24 -47.5 -42.5t-71.5 -18.5q-31 0 -48.5 16t-17.5 44
q0 53 48 86t156 52l5 27q3 23 3 38q0 68 -53 68q-19 0 -33 -13q-7 -6 -17 -37q-3 -12 -8 -28q-50 0 -50 33q0 32 49 58.5t99 26.5q43 0 62.5 -20.5t19.5 -62.5q0 -15 -3 -42l-23 -145q-2 -12 -2 -20q0 -16 8.5 -23.5t29.5 -9.5l20 -3z" />
    <glyph glyph-name="guillemotleft" unicode="&#xab;" horiz-adv-x="652" 
d="M342 470l325 352l36 -59l-213 -301l117 -321l-63 -63l-202 372v20zM94 470l325 352l36 -59l-213 -301l117 -321l-63 -63l-202 372v20z" />
    <glyph glyph-name="logicalnot" unicode="&#xac;" horiz-adv-x="969" 
d="M216 665h746l-48 -314l-109 -18l36 226h-653z" />
    <glyph glyph-name="softhyphen" unicode="&#xad;" horiz-adv-x="641" 
d="M199 523l409 59l-8 -115l-409 -60z" />
    <glyph glyph-name="registered" unicode="&#xae;" horiz-adv-x="598" 
d="M696 1118q0 -125 -80 -202t-195 -77q-89 0 -137 50.5t-48 129.5q0 87 38 155.5t99 102.5q58 33 127 33q93 0 144.5 -54t51.5 -138zM495 1279q-91 0 -154.5 -69.5t-63.5 -180.5q0 -69 39.5 -113t112.5 -44q128 0 195 110q34 56 34 133q0 72 -43 118t-120 46zM434 1087h35
q17 0 30 18.5t13 42.5q0 40 -48 40l-15 -2zM563 1155q0 -21 -17.5 -41t-48.5 -32l32 -55q22 -41 49 -53l7 -1l-8 -18q-9 -3 -25 -4q-42 0 -66 55l-25 56h-32l-11 -79l33 -10l-5 -18h-116l5 18l36 8l32 199l-35 6l5 18q70 7 89 7q56 0 78.5 -12.5t22.5 -43.5z" />
    <glyph glyph-name="macron" unicode="&#xaf;" horiz-adv-x="702" 
d="M137 1481h442l-13 -100h-442z" />
    <glyph glyph-name="degree" unicode="&#xb0;" horiz-adv-x="435" 
d="M409 1239q-44 0 -75 -41t-31 -96q0 -47 19.5 -75.5t57.5 -28.5q46 0 76 38t30 109q0 38 -19 66t-58 28zM428 1287q73 0 102 -28t29 -99q0 -74 -63 -142t-135 -68q-63 0 -98 36t-35 93q0 85 61.5 146.5t138.5 61.5z" />
    <glyph glyph-name="plusminus" unicode="&#xb1;" horiz-adv-x="799" 
d="M141 117l614 7l-33 -104l-614 -7zM502 476l-36 -236l-110 11l37 225h-222l27 101h210l36 232l106 -12l-33 -220h220l-26 -101h-209z" />
    <glyph glyph-name="twosuperior" unicode="&#xb2;" horiz-adv-x="320" 
d="M304 1198q-22 2 -29 8t-7 21q0 27 35.5 52t68.5 25q31 0 48.5 -18.5t17.5 -49.5q0 -38 -23 -67t-86 -79l-44 -35h132l-15 -43h-177l3 32l101 86q53 43 53 97q0 43 -35 43q-31 1 -43 -72z" />
    <glyph glyph-name="threesuperior" unicode="&#xb3;" horiz-adv-x="320" 
d="M276 1133q1 0 9 3q20 5 34 10q17 7 39 26q20 17 24 47q0 3 1 5.5t1 6.5q0 17 -10.5 28t-27.5 11t-31 -17.5t-19 -51.5q-36 2 -36 25v5q5 30 41 51.5t68 21.5q29 0 47.5 -17.5t18.5 -42.5q0 -3 -1 -5.5t-1 -6.5q-3 -28 -23 -54.5t-49 -41.5v-4q29 -8 45 -28.5t16 -46.5
q0 -4 -1 -7.5t-1 -7.5q-7 -41 -41 -71.5t-78 -30.5q-42 0 -61.5 14t-19.5 35v7q2 14 16 23t29 12q0 -38 10 -52q8 -10 26 -10q26 0 43 18.5t22 46.5q0 4 0.5 6.5t0.5 6.5q0 25 -15 42.5t-39 17.5q-9 0 -18 -1t-19 -1v17v10v1z" />
    <glyph glyph-name="acute" unicode="&#xb4;" horiz-adv-x="619" 
d="M465 1669l-184 -317l-51 31l122 326z" />
    <glyph glyph-name="micro" unicode="&#xb5;" horiz-adv-x="911" 
d="M612 131q-30 -55 -101 -103t-145 -48q-93 0 -121 43h-8q0 -47 -9 -124l-26 -288l-124 27q0 1 1.5 8t5 25t7.5 36l72 366q45 226 76 422l38 243l-132 35l10 76l277 21l22 -25l-86 -529q-8 -55 -8 -88q0 -58 20 -84.5t62 -26.5q98 0 181 83l82 548l-134 23l10 74l286 25
l20 -23l-76 -476q-23 -150 -23 -201q0 -39 9.5 -54.5t33.5 -19.5l66 -12l-18 -69q-69 -30 -141 -30q-60 0 -89.5 28t-29.5 86q0 17 2 32h-10z" />
    <glyph glyph-name="paragraph" unicode="&#xb6;" horiz-adv-x="1325" 
d="M1059 1136l-23 -4l-163 -1018l22 -3l40 10l160 1007zM1446 1246l-23 -76l-176 -38l-162 -1018l177 -33l-21 -81h-727l20 74l174 47l58 365q-65 -5 -131 -5q-208 0 -320 62q-127 69 -126 244q0 99 44.5 188.5t119.5 147.5q74 59 165 91.5t182 32.5zM781 581l91 574
q-55 2 -106 1q-171 0 -268.5 -86.5t-97.5 -248.5q0 -79 32 -135q36 -65 125 -92q49 -15 111 -15l108 7z" />
    <glyph glyph-name="periodcentered" unicode="&#xb7;" horiz-adv-x="430" 
d="M313 619q47 0 74 -31.5t27 -81t-43 -87t-96 -37.5q-99 0 -100 104q0 57 41.5 95t96.5 38z" />
    <glyph glyph-name="cedilla" unicode="&#xb8;" horiz-adv-x="384" 
d="M213 -76q89 -78 90 -151q0 -103 -200 -163l-20 59q41 14 63.5 36.5t22.5 46.5q0 41 -73 111l98 140h74z" />
    <glyph glyph-name="onesuperior" unicode="&#xb9;" horiz-adv-x="270" 
d="M364 1292l-38 -246l53 -10l-8 -25h-154l6 23l53 13l32 199h-47l5 23l90 23h8z" />
    <glyph glyph-name="ordmasculine" unicode="&#xba;" horiz-adv-x="551" 
d="M172 346h339l-16 -58h-339zM285 550q0 -49 17.5 -78.5t53.5 -29.5q43 0 72.5 48.5t29.5 128.5q0 114 -71 114q-45 0 -73.5 -47.5t-28.5 -135.5zM490 743q20 -26 24 -89q2 -31 2 -62q0 -81 -52 -135.5t-125 -54.5q-131 0 -131 144q0 69 31 123t79 80q45 25 91 25
q56 0 81 -31z" />
    <glyph glyph-name="guillemotright" unicode="&#xbb;" horiz-adv-x="652" 
d="M457 470l-4 -20l-321 -372l-43 63l220 321l-117 301l53 59zM705 470l-4 -20l-321 -372l-43 63l220 321l-117 301l53 59z" />
    <glyph glyph-name="onequarter" unicode="&#xbc;" horiz-adv-x="1050" 
d="M786 -5l18 149h-196l-6 30l286 307l26 -8q-12 -69 -28 -198l-10 -82h103l-13 -51h-96l-17 -136zM808 193l22 173l-158 -173h136zM395 981l-53 -430l109 -13l-8 -33h-292l6 29l117 19l44 366h-108l6 31l169 31h10zM971 965l82 9l-813 -996l-85 -8z" />
    <glyph glyph-name="onehalf" unicode="&#xbd;" horiz-adv-x="1052" 
d="M950 0h-313l3 41l108 82q45 36 74 62.5t57 66.5t33 78q2 10 1 28q0 74 -70 74q-66 0 -120 -103l-32 13q20 55 72 99.5t110 44.5q116 0 116 -110q0 -8 -1 -28q-4 -32 -21 -63.5t-45 -61t-51.5 -49.5t-59.5 -48t-49 -40l-42 -30h194l46 70l28 -4zM415 981l-53 -430l109 -13
l-9 -33h-292l7 29l117 19l44 366h-108l6 31l168 31h11zM971 965l82 9l-813 -996l-85 -8z" />
    <glyph glyph-name="threequarters" unicode="&#xbe;" horiz-adv-x="1050" 
d="M216 587q0 -16 21 -39t47 -23q95 0 108 96q0 2 0.5 5t0.5 4q0 36 -30.5 65.5t-80.5 29.5h-7v26q17 5 39.5 16t53.5 39t35 61q1 4 1 11q0 26 -15 42t-47 16q-55 0 -88 -61l-28 11q11 36 54 69.5t93 33.5q44 0 74.5 -25t30.5 -64q0 -7 -1 -12q-5 -45 -36 -75.5t-74 -46.5
v-4q46 -7 73 -36.5t27 -67.5q0 -8 -1 -13q-8 -65 -68.5 -110t-139.5 -45q-47 0 -72.5 15.5t-25.5 37.5q0 17 15.5 29.5t40.5 14.5zM786 -5l18 149h-196l-6 30l286 307l26 -8q-12 -69 -28 -198l-10 -82h103l-13 -51h-96l-17 -136zM808 193l22 173l-158 -173h136zM971 965
l82 9l-813 -996l-85 -8z" />
    <glyph glyph-name="questiondown" unicode="&#xbf;" horiz-adv-x="672" 
d="M486 690q-45 0 -73.5 32t-28.5 75q0 60 39 99.5t98 39.5q40 0 73 -34t33 -72q0 -60 -40.5 -100t-100.5 -40zM572 -242q0 -46 -50 -92q-26 -24 -71 -38.5t-99 -14.5q-119 0 -201 103.5t-82 257.5q0 128 71 196q55 53 145 97q31 16 49 25.5t39 26t33 34.5q19 29 19 67
q0 46 -6 99l76 17q45 -83 44 -175q0 -108 -72 -164q-48 -38 -149 -83q-45 -20 -74.5 -40.5t-47.5 -50.5q-21 -33 -21 -78q0 -65 42.5 -111.5t93.5 -46.5q125 0 203 72q26 -11 42 -38t16 -63z" />
    <glyph glyph-name="Agrave" unicode="&#xc0;" horiz-adv-x="1159" 
d="M874 1270l189 -1146l124 -43l-18 -81h-485l20 74l172 55l-56 304h-401l-153 -309l170 -43l-22 -81h-446l18 74l149 55l592 1110zM471 534h335l-79 502zM611 1663l116 38l132 -335l-58 -34z" />
    <glyph glyph-name="Aacute" unicode="&#xc1;" horiz-adv-x="1159" 
d="M874 1270l189 -1146l124 -43l-18 -81h-485l20 74l172 55l-56 304h-401l-153 -309l170 -43l-22 -81h-446l18 74l149 55l592 1110zM471 534h335l-79 502zM1035 1669l-184 -317l-51 31l122 326z" />
    <glyph glyph-name="Acircumflex" unicode="&#xc2;" horiz-adv-x="1159" 
d="M874 1270l189 -1146l124 -43l-18 -81h-485l20 74l172 55l-56 304h-401l-153 -309l170 -43l-22 -81h-446l18 74l149 55l592 1110zM471 534h335l-79 502zM831 1583l179 -186l-50 -36l-163 110h-10l-141 -111l-38 30l169 180z" />
    <glyph glyph-name="Atilde" unicode="&#xc3;" horiz-adv-x="1159" 
d="M874 1270l189 -1146l124 -43l-18 -81h-485l20 74l172 55l-56 304h-401l-153 -309l170 -43l-22 -81h-446l18 74l149 55l592 1110zM471 534h335l-79 502zM577 1381q2 5 2 9q5 20 18 48q17 36 39 59q28 28 63 28q4 0 6.5 -0.5t6.5 -0.5l223 -30h4q11 0 25 10t23 21l8 10
l48 -1q-1 -2 -2 -8t-2 -8q-13 -41 -40 -78q-37 -50 -87 -50h-11l-224 31h-3q-12 0 -27 -11.5t-24 -24.5l-8 -12z" />
    <glyph glyph-name="Adieresis" unicode="&#xc4;" horiz-adv-x="1159" 
d="M874 1270l189 -1146l124 -43l-18 -81h-485l20 74l172 55l-56 304h-401l-153 -309l170 -43l-22 -81h-446l18 74l149 55l592 1110zM471 534h335l-79 502zM1030 1467q0 -35 -26 -58t-62 -23q-35 0 -59.5 23.5t-24.5 57.5t25 56t59 22q36 0 62 -22.5t26 -55.5zM760 1467
q0 -35 -25 -58t-61 -23q-35 0 -59.5 23.5t-24.5 57.5t25 56t59 22q36 0 61 -22.5t25 -55.5z" />
    <glyph glyph-name="Aring" unicode="&#xc5;" horiz-adv-x="1159" 
d="M874 1270l189 -1146l124 -43l-18 -81h-485l20 74l172 55l-56 304h-401l-153 -309l170 -43l-22 -81h-446l18 74l149 55l592 1110zM471 534h335l-79 502zM719 1542q0 -53 26 -91t70 -38q41 0 63.5 29.5t22.5 84.5q0 54 -26.5 90.5t-69.5 36.5q-41 0 -63.5 -31.5
t-22.5 -80.5zM972 1540q0 -73 -48 -124t-121 -51q-70 0 -112.5 44.5t-42.5 120.5q0 70 49.5 121t118.5 51q71 0 113.5 -44.5t42.5 -117.5z" />
    <glyph glyph-name="AE" unicode="&#xc6;" horiz-adv-x="1617" 
d="M936 1060l-370 -493h291zM844 473h-343l-260 -347l171 -43l-22 -83h-435l19 76l137 55l857 1115h739l-79 -316l-80 13l-5 212h-416l-77 -473h247l60 122l92 7l-92 -386l-87 -15l-3 177h-231l-78 -491h443l131 233l74 -15l-77 -314h-455h-422h-50l20 74l162 45l5 2z" />
    <glyph glyph-name="Ccedilla" unicode="&#xc7;" horiz-adv-x="1149" 
d="M682 -76q89 -79 89 -151q0 -103 -200 -163l-20 59q41 14 63.5 36.5t22.5 46.5q0 41 -73 111l78 112q-198 4 -332 133q-66 63 -103.5 160.5t-37.5 214.5q0 146 59 297q65 168 179 283q132 134 299 183q94 26 196 26q217 0 327 -101l-83 -332l-81 13l-3 220
q-28 49 -88 76.5t-145 27.5q-87 0 -168 -46t-144 -128q-64 -84 -100.5 -204.5t-36.5 -258.5q0 -107 29 -191.5t81 -136.5q103 -105 254 -105q183 0 348 152l38 -55q-168 -197 -410 -225z" />
    <glyph glyph-name="Egrave" unicode="&#xc8;" horiz-adv-x="1135" 
d="M271 1246h955l-80 -320l-81 14l-5 215h-451l-75 -477h278l61 119l91 14l-92 -389l-85 -13l-5 175h-263l-77 -488h474l131 230l78 -12l-79 -314h-963l15 74l165 47l159 1007l-167 42zM677 1663l115 38l133 -335l-58 -34z" />
    <glyph glyph-name="Eacute" unicode="&#xc9;" horiz-adv-x="1135" 
d="M271 1246h955l-80 -320l-81 14l-5 215h-451l-75 -477h278l61 119l91 14l-92 -389l-85 -13l-5 175h-263l-77 -488h474l131 230l78 -12l-79 -314h-963l15 74l165 47l159 1007l-167 42zM1026 1669l-184 -317l-51 31l122 326z" />
    <glyph glyph-name="Ecircumflex" unicode="&#xca;" horiz-adv-x="1135" 
d="M271 1246h955l-80 -320l-81 14l-5 215h-451l-75 -477h278l61 119l91 14l-92 -389l-85 -13l-5 175h-263l-77 -488h474l131 230l78 -12l-79 -314h-963l15 74l165 47l159 1007l-167 42zM822 1583l179 -186l-50 -36l-164 110h-9l-141 -111l-38 30l169 180z" />
    <glyph glyph-name="Edieresis" unicode="&#xcb;" horiz-adv-x="1135" 
d="M271 1246h955l-80 -320l-81 14l-5 215h-451l-75 -477h278l61 119l91 14l-92 -389l-85 -13l-5 175h-263l-77 -488h474l131 230l78 -12l-79 -314h-963l15 74l165 47l159 1007l-167 42zM1020 1467q0 -35 -25.5 -58t-61.5 -23q-35 0 -59.5 23.5t-24.5 57.5t25 56t59 22
q36 0 61.5 -22.5t25.5 -55.5zM751 1467q0 -35 -25 -58t-61 -23q-35 0 -59.5 23.5t-24.5 57.5t25 56t59 22q36 0 61 -22.5t25 -55.5z" />
    <glyph glyph-name="Igrave" unicode="&#xcc;" horiz-adv-x="670" 
d="M596 0h-513l15 74l165 47l159 1007l-167 42l16 76h520l-17 -76l-169 -38l-160 -1018l170 -33zM341 1663l116 38l132 -335l-58 -34z" />
    <glyph glyph-name="Iacute" unicode="&#xcd;" horiz-adv-x="670" 
d="M596 0h-513l15 74l165 47l159 1007l-167 42l16 76h520l-17 -76l-169 -38l-160 -1018l170 -33zM756 1669l-184 -317l-51 31l123 326z" />
    <glyph glyph-name="Icircumflex" unicode="&#xce;" horiz-adv-x="670" 
d="M596 0h-513l15 74l165 47l159 1007l-167 42l16 76h520l-17 -76l-169 -38l-160 -1018l170 -33zM569 1583l179 -186l-50 -36l-164 110h-10l-140 -111l-38 30l168 180z" />
    <glyph glyph-name="Idieresis" unicode="&#xcf;" horiz-adv-x="670" 
d="M596 0h-513l15 74l165 47l159 1007l-167 42l16 76h520l-17 -76l-169 -38l-160 -1018l170 -33zM768 1467q0 -35 -26.5 -58t-61.5 -23t-59.5 23.5t-24.5 57.5t25 56t59 22q36 0 62 -22.5t26 -55.5zM498 1467q0 -35 -25.5 -58t-60.5 -23t-59.5 23.5t-24.5 57.5t25 56t59 22
q36 0 61 -22.5t25 -55.5z" />
    <glyph glyph-name="Eth" unicode="&#xd0;" horiz-adv-x="1350" 
d="M514 562l-72 -458h140q127 0 239 49t188 133q75 84 117 192.5t42 226.5q0 198 -107 321q-54 63 -140 97.5t-196 34.5q-60 0 -118 -7l-78 -489l288 13l-28 -101zM1189 1163q66 -44 111.5 -107t64.5 -135q18 -69 18 -152q0 -241 -153 -438q-160 -207 -416 -288
q-135 -43 -288 -43h-453l20 74l172 55l68 425l-153 -6l27 100l140 7l72 450l-161 30l20 76q305 50 500 50q262 0 411 -98z" />
    <glyph glyph-name="Ntilde" unicode="&#xd1;" horiz-adv-x="1359" 
d="M993 -30l-476 993l-134 -849l172 -33l-18 -81h-453l14 74l166 47l157 999l-165 50l16 76h334l460 -973l134 855l-170 42l18 76h453l-18 -76l-165 -38l-179 -1132zM651 1381q2 5 2 9q5 20 19 48q17 36 39 59q28 28 62 28q4 0 6.5 -0.5t7.5 -0.5l223 -30h3q11 0 25 10
t23 21l8 10l48 -1q-1 -2 -2 -8t-2 -8q-13 -41 -39 -78q-37 -50 -87 -50h-12l-223 31h-3q-12 0 -27.5 -11.5t-24.5 -24.5l-8 -12z" />
    <glyph glyph-name="Ograve" unicode="&#xd2;" horiz-adv-x="1341" 
d="M1079 1031q-36 69 -97 108t-138 39q-79 0 -147.5 -23t-115.5 -63q-44 -37 -79 -92t-56 -114q-39 -110 -48 -244q-4 -60 -4 -113q0 -150 44 -259q50 -122 145 -166q50 -25 115 -25q159 0 261 86q89 74 137 205q39 110 50 238q4 60 4 107q-1 180 -71 316zM1247 1115
q117 -154 116 -385q0 -249 -127 -439q-134 -201 -354 -277q-116 -41 -248 -40q-137 0 -243 69.5t-161 191.5q-55 121 -55 271q0 162 53 304.5t149 245.5q97 103 234 161t294 58q108 0 196 -42t146 -118zM791 1666l116 38l132 -334l-58 -35z" />
    <glyph glyph-name="Oacute" unicode="&#xd3;" horiz-adv-x="1341" 
d="M1079 1031q-36 69 -97 108t-138 39q-79 0 -147.5 -23t-115.5 -63q-44 -37 -79 -92t-56 -114q-39 -110 -48 -244q-4 -60 -4 -113q0 -150 44 -259q50 -122 145 -166q50 -25 115 -25q159 0 261 86q89 74 137 205q39 110 50 238q4 60 4 107q-1 180 -71 316zM1247 1115
q117 -154 116 -385q0 -249 -127 -439q-134 -201 -354 -277q-116 -41 -248 -40q-137 0 -243 69.5t-161 191.5q-55 121 -55 271q0 162 53 304.5t149 245.5q97 103 234 161t294 58q108 0 196 -42t146 -118zM1173 1672l-184 -317l-51 31l122 326z" />
    <glyph glyph-name="Ocircumflex" unicode="&#xd4;" horiz-adv-x="1341" 
d="M1079 1031q-36 69 -97 108t-138 39q-79 0 -147.5 -23t-115.5 -63q-44 -37 -79 -92t-56 -114q-39 -110 -48 -244q-4 -60 -4 -113q0 -150 44 -259q50 -122 145 -166q50 -25 115 -25q159 0 261 86q89 74 137 205q39 110 50 238q4 60 4 107q-1 180 -71 316zM1247 1115
q117 -154 116 -385q0 -249 -127 -439q-134 -201 -354 -277q-116 -41 -248 -40q-137 0 -243 69.5t-161 191.5q-55 121 -55 271q0 162 53 304.5t149 245.5q97 103 234 161t294 58q108 0 196 -42t146 -118zM936 1586l179 -185l-50 -36l-163 109h-10l-141 -111l-38 30l169 180z
" />
    <glyph glyph-name="Otilde" unicode="&#xd5;" horiz-adv-x="1341" 
d="M1079 1031q-36 69 -97 108t-138 39q-79 0 -147.5 -23t-115.5 -63q-44 -37 -79 -92t-56 -114q-39 -110 -48 -244q-4 -60 -4 -113q0 -150 44 -259q50 -122 145 -166q50 -25 115 -25q159 0 261 86q89 74 137 205q39 110 50 238q4 60 4 107q-1 180 -71 316zM1247 1115
q117 -154 116 -385q0 -249 -127 -439q-134 -201 -354 -277q-116 -41 -248 -40q-137 0 -243 69.5t-161 191.5q-55 121 -55 271q0 162 53 304.5t149 245.5q97 103 234 161t294 58q108 0 196 -42t146 -118zM682 1385q2 5 2 8q5 20 18 49q17 36 39 58q28 28 63 29q4 0 6.5 -1
t6.5 -1l224 -30h3q11 0 25 10t23 22l8 9l48 -1q-1 -2 -2 -7.5t-2 -8.5q-13 -41 -40 -78q-37 -50 -87 -50h-11l-224 31h-3q-12 0 -27 -11.5t-24 -24.5l-8 -12z" />
    <glyph glyph-name="Odieresis" unicode="&#xd6;" horiz-adv-x="1341" 
d="M1079 1031q-36 69 -97 108t-138 39q-79 0 -147.5 -23t-115.5 -63q-44 -37 -79 -92t-56 -114q-39 -110 -48 -244q-4 -60 -4 -113q0 -150 44 -259q50 -122 145 -166q50 -25 115 -25q159 0 261 86q89 74 137 205q39 110 50 238q4 60 4 107q-1 180 -71 316zM1247 1115
q117 -154 116 -385q0 -249 -127 -439q-134 -201 -354 -277q-116 -41 -248 -40q-137 0 -243 69.5t-161 191.5q-55 121 -55 271q0 162 53 304.5t149 245.5q97 103 234 161t294 58q108 0 196 -42t146 -118zM1135 1471q0 -35 -26 -58t-62 -23q-35 0 -59.5 23t-24.5 58
q0 34 25 55.5t59 21.5q36 0 62 -22t26 -55zM865 1471q0 -35 -25 -58t-61 -23q-35 0 -59.5 23t-24.5 58q0 34 25 55.5t59 21.5q36 0 61 -21.5t25 -55.5z" />
    <glyph glyph-name="multiply" unicode="&#xd7;" horiz-adv-x="655" 
d="M385 389l-190 -161l-53 83l179 152l-129 157l93 67l129 -154l191 160l52 -84l-181 -151l134 -160l-94 -66z" />
    <glyph glyph-name="Oslash" unicode="&#xd8;" horiz-adv-x="1341" 
d="M471 204l576 876q-79 98 -203 98q-79 0 -147.5 -23t-115.5 -63q-89 -75 -135 -207q-39 -112 -48 -245q-4 -60 -4 -112q0 -184 70 -311zM1086 1019l-573 -868q3 -3 3 -5q0 -11 -43 -22.5t-85.5 -20t-42.5 -12.5q0 -12 353 -12q159 0 261 86q89 74 137 205q39 110 50 238
q4 60 4 107q0 172 -64 304zM1247 1115q117 -154 116 -385q0 -249 -127 -439q-134 -201 -354 -277q-116 -41 -248 -40q-103 0 -188 38l-57 -86l-132 -9l99 151q-81 65 -126 167q-55 121 -55 271q0 162 53 304.5t149 245.5q97 103 234 161t294 58q117 0 212 -51l43 65l134 8
l-89 -136q23 -21 42 -46z" />
    <glyph glyph-name="Ugrave" unicode="&#xd9;" 
d="M471 495q-10 -62 -10 -111q0 -146 72.5 -218.5t206.5 -72.5q117 0 195 49q68 42 111 121q33 62 53 147q6 26 14 71l102 647l-165 42l15 76h456l-16 -76l-168 -38l-104 -632q-89 -526 -574 -526q-115 0 -203 41q-56 26 -93.5 66.5t-61.5 105.5q-26 67 -26 157q0 56 10 126
l105 658l-171 42l18 76h517l-15 -76l-169 -38zM801 1663l116 38l133 -335l-58 -34z" />
    <glyph glyph-name="Uacute" unicode="&#xda;" 
d="M471 495q-10 -62 -10 -111q0 -146 72.5 -218.5t206.5 -72.5q117 0 195 49q68 42 111 121q33 62 53 147q6 26 14 71l102 647l-165 42l15 76h456l-16 -76l-168 -38l-104 -632q-89 -526 -574 -526q-115 0 -203 41q-56 26 -93.5 66.5t-61.5 105.5q-26 67 -26 157q0 56 10 126
l105 658l-171 42l18 76h517l-15 -76l-169 -38zM1117 1661l-183 -318l-51 32l122 326z" />
    <glyph glyph-name="Ucircumflex" unicode="&#xdb;" 
d="M471 495q-10 -62 -10 -111q0 -146 72.5 -218.5t206.5 -72.5q117 0 195 49q68 42 111 121q33 62 53 147q6 26 14 71l102 647l-165 42l15 76h456l-16 -76l-168 -38l-104 -632q-89 -526 -574 -526q-115 0 -203 41q-56 26 -93.5 66.5t-61.5 105.5q-26 67 -26 157q0 56 10 126
l105 658l-171 42l18 76h517l-15 -76l-169 -38zM947 1583l179 -186l-50 -36l-164 110h-10l-140 -111l-38 30l168 180z" />
    <glyph glyph-name="Udieresis" unicode="&#xdc;" 
d="M471 495q-10 -62 -10 -111q0 -146 72.5 -218.5t206.5 -72.5q117 0 195 49q68 42 111 121q33 62 53 147q6 26 14 71l102 647l-165 42l15 76h456l-16 -76l-168 -38l-104 -632q-89 -526 -574 -526q-115 0 -203 41q-56 26 -93.5 66.5t-61.5 105.5q-26 67 -26 157q0 56 10 126
l105 658l-171 42l18 76h517l-15 -76l-169 -38zM1146 1467q0 -35 -26.5 -58t-61.5 -23t-59.5 23.5t-24.5 57.5t25 56t59 22q36 0 62 -22.5t26 -55.5zM876 1467q0 -35 -25.5 -58t-60.5 -23t-59.5 23.5t-24.5 57.5t25 56t59 22q36 0 61 -22.5t25 -55.5z" />
    <glyph glyph-name="Yacute" unicode="&#xdd;" horiz-adv-x="1057" 
d="M706 529l-66 -415l154 -33l-18 -81h-485l17 74l150 47l61 385l-241 622l-122 42l19 76h478l-18 -76l-157 -38l192 -493l328 489l-166 42l15 76h423l-14 -76l-126 -38zM991 1669l-184 -317l-51 31l122 326z" />
    <glyph glyph-name="Thorn" unicode="&#xde;" horiz-adv-x="1084" 
d="M605 1132l-14 -95q65 5 127 5q146 0 246 -38q113 -43 156 -140q23 -52 23 -121q0 -99 -40.5 -187.5t-110.5 -149.5q-69 -61 -159.5 -95.5t-184.5 -34.5q-50 0 -107 9l-7 82h52q175 0 263.5 85.5t88.5 250.5q0 118 -64 187t-187 69l-103 -4l-7 -4l-132 -837l170 -33
l-19 -81h-513l15 74l165 47l159 1007l-167 42l16 76h520l-17 -76z" />
    <glyph glyph-name="germandbls" unicode="&#xdf;" horiz-adv-x="980" 
d="M892 949q-21 -26 -97 -101q-62 -59 -81 -103q-13 -30 -13 -63q0 -92 105 -179q7 -7 28 -24t30.5 -24.5t27 -23.5t28.5 -27t23.5 -27t22.5 -30q31 -48 31 -102q0 -60 -31.5 -115t-82.5 -90q-105 -74 -211 -75q-102 0 -163.5 45.5t-61.5 111.5q0 50 33.5 85t89.5 41
q47 -194 142 -193q55 0 97 35t42 92q0 60 -107 143q-81 64 -112 95q-32 35 -54 74q-31 56 -31 121q0 85 81 191l68 87q81 102 81 174q0 58 -26.5 85.5t-87.5 27.5q-77 0 -119 -51.5t-60 -170.5l-149 -958h-285l17 76l124 33l106 677h-119l16 68l119 36q22 103 86 196.5
t149 148.5q84 54 163 54q125 0 180 -68q48 -60 48 -137q0 -75 -47 -135z" />
    <glyph glyph-name="agrave" unicode="&#xe0;" horiz-adv-x="855" 
d="M846 84l-20 -69q-69 -30 -140 -30q-53 0 -86 25t-33 73v11l3 38h-12q-38 -68 -102 -111t-134 -43q-93 0 -147.5 79t-54.5 218q0 112 31.5 212t85.5 174q108 147 256 201q71 25 138 25q130 0 185 -35l17 -18l-71 -455q-26 -175 -27 -217q0 -34 9.5 -48t33.5 -18zM661 748
q-37 35 -119 34q-74 0 -136 -69t-93 -178q-31 -103 -31 -214q0 -215 121 -215q50 0 88.5 23t83.5 73zM527 1309l116 38l132 -335l-58 -34z" />
    <glyph glyph-name="aacute" unicode="&#xe1;" horiz-adv-x="855" 
d="M846 84l-20 -69q-69 -30 -140 -30q-53 0 -86 25t-33 73v11l3 38h-12q-38 -68 -102 -111t-134 -43q-93 0 -147.5 79t-54.5 218q0 112 31.5 212t85.5 174q108 147 256 201q71 25 138 25q130 0 185 -35l17 -18l-71 -455q-26 -175 -27 -217q0 -34 9.5 -48t33.5 -18zM661 748
q-37 35 -119 34q-74 0 -136 -69t-93 -178q-31 -103 -31 -214q0 -215 121 -215q50 0 88.5 23t83.5 73zM892 1315l-183 -317l-51 31l122 326z" />
    <glyph glyph-name="acircumflex" unicode="&#xe2;" horiz-adv-x="855" 
d="M846 84l-20 -69q-69 -30 -140 -30q-53 0 -86 25t-33 73v11l3 38h-12q-38 -68 -102 -111t-134 -43q-93 0 -147.5 79t-54.5 218q0 112 31.5 212t85.5 174q108 147 256 201q71 25 138 25q130 0 185 -35l17 -18l-71 -455q-26 -175 -27 -217q0 -34 9.5 -48t33.5 -18zM661 748
q-37 35 -119 34q-74 0 -136 -69t-93 -178q-31 -103 -31 -214q0 -215 121 -215q50 0 88.5 23t83.5 73zM706 1229l178 -185l-49 -37l-164 110h-10l-141 -111l-38 30l169 180z" />
    <glyph glyph-name="atilde" unicode="&#xe3;" horiz-adv-x="855" 
d="M846 84l-20 -69q-69 -30 -140 -30q-53 0 -86 25t-33 73v11l3 38h-12q-38 -68 -102 -111t-134 -43q-93 0 -147.5 79t-54.5 218q0 112 31.5 212t85.5 174q108 147 256 201q71 25 138 25q130 0 185 -35l17 -18l-71 -455q-26 -175 -27 -217q0 -34 9.5 -48t33.5 -18zM661 748
q-37 35 -119 34q-74 0 -136 -69t-93 -178q-31 -103 -31 -214q0 -215 121 -215q50 0 88.5 23t83.5 73zM451 1027q2 5 2 9q5 20 18 48q17 36 39 59q28 28 63 28q4 0 6.5 -0.5t6.5 -0.5l224 -30h3q11 0 25 10t23 21l8 10l48 -1q-1 -2 -2 -8t-2 -8q-13 -41 -40 -78
q-37 -50 -86 -50h-12l-223 31h-4q-12 0 -27 -11.5t-24 -24.5l-8 -12z" />
    <glyph glyph-name="adieresis" unicode="&#xe4;" horiz-adv-x="855" 
d="M846 84l-20 -69q-69 -30 -140 -30q-53 0 -86 25t-33 73v11l3 38h-12q-38 -68 -102 -111t-134 -43q-93 0 -147.5 79t-54.5 218q0 112 31.5 212t85.5 174q108 147 256 201q71 25 138 25q130 0 185 -35l17 -18l-71 -455q-26 -175 -27 -217q0 -34 9.5 -48t33.5 -18zM661 748
q-37 35 -119 34q-74 0 -136 -69t-93 -178q-31 -103 -31 -214q0 -215 121 -215q50 0 88.5 23t83.5 73zM904 1113q0 -35 -26 -58t-62 -23q-35 0 -59.5 23.5t-24.5 57.5t25 56t59 22q36 0 62 -22.5t26 -55.5zM634 1113q0 -35 -25 -58t-61 -23q-35 0 -59.5 23.5t-24.5 57.5
t25 56t59 22q36 0 61 -22.5t25 -55.5z" />
    <glyph glyph-name="aring" unicode="&#xe5;" horiz-adv-x="855" 
d="M846 84l-20 -69q-69 -30 -140 -30q-53 0 -86 25t-33 73v11l3 38h-12q-38 -68 -102 -111t-134 -43q-93 0 -147.5 79t-54.5 218q0 112 31.5 212t85.5 174q108 147 256 201q71 25 138 25q130 0 185 -35l17 -18l-71 -455q-26 -175 -27 -217q0 -34 9.5 -48t33.5 -18zM661 748
q-37 35 -119 34q-74 0 -136 -69t-93 -178q-31 -103 -31 -214q0 -215 121 -215q50 0 88.5 23t83.5 73zM593 1188q0 -53 26 -90.5t70 -37.5q41 0 63.5 29t22.5 84q0 54 -26.5 90.5t-69.5 36.5q-41 0 -63.5 -31.5t-22.5 -80.5zM846 1186q0 -73 -48 -124t-121 -51
q-70 0 -112.5 44.5t-42.5 120.5q0 70 49.5 121t119.5 51q71 0 113 -44.5t42 -117.5z" />
    <glyph glyph-name="ae" unicode="&#xe6;" horiz-adv-x="1212" 
d="M1055 534q22 45 21 119q-4 146 -96 146q-59 0 -113 -70q-55 -70 -85 -216zM661 748q-37 35 -119 34q-74 0 -136 -69t-93 -178q-31 -103 -31 -214q0 -215 121 -215q50 0 88.5 23t83.5 73zM1040 892q189 0 188 -230q0 -117 -47 -204l-409 -18q-7 -43 -8 -91q0 -130 60 -189
q57 -57 146 -57q36 0 102.5 26.5t86.5 47.5l26 -45q-41 -63 -129.5 -112.5t-179.5 -49.5q-198 0 -253 187q-20 -25 -55 -61q-112 -117 -246 -118q-93 0 -147.5 79t-54.5 218q0 112 31.5 212t85.5 174q108 147 256 201q71 25 138 25q56 0 105.5 -23.5t66.5 -66.5
q109 95 237 95z" />
    <glyph glyph-name="ccedilla" unicode="&#xe7;" horiz-adv-x="669" 
d="M422 -76q89 -78 89 -151q0 -103 -200 -163l-20 59q41 14 63.5 36.5t22.5 46.5q0 41 -73 111l75 107q-120 2 -187.5 91t-67.5 247q0 103 30 199.5t79 168.5q48 69 108 121t121 79q60 26 112 26q79 0 124 -39t45 -105q0 -48 -39 -79t-100 -35q-5 62 -20 106q-18 57 -60 57
q-37 0 -76 -34t-74 -94q-35 -61 -56.5 -153.5t-21.5 -194.5q0 -112 38 -175t114 -63q53 0 93 14.5t91 48.5l23 -50q-35 -44 -86.5 -77.5t-106.5 -48.5z" />
    <glyph glyph-name="egrave" unicode="&#xe8;" horiz-adv-x="733" 
d="M576 534q22 45 21 119q-4 146 -96 146q-58 0 -112 -70q-55 -70 -85 -216zM701 458l-408 -18q-7 -43 -8 -91q0 -130 60 -189q57 -57 146 -57q36 0 103 26.5t86 47.5l26 -45q-41 -63 -129.5 -112.5t-179.5 -49.5q-127 0 -199 85.5t-72 250.5q0 156 56 290t157 215t222 81
q189 0 188 -237q0 -107 -48 -197zM378 1309l116 38l132 -335l-58 -34z" />
    <glyph glyph-name="eacute" unicode="&#xe9;" horiz-adv-x="733" 
d="M576 534q22 45 21 119q-4 146 -96 146q-58 0 -112 -70q-55 -70 -85 -216zM701 458l-408 -18q-7 -43 -8 -91q0 -130 60 -189q57 -57 146 -57q36 0 103 26.5t86 47.5l26 -45q-41 -63 -129.5 -112.5t-179.5 -49.5q-127 0 -199 85.5t-72 250.5q0 156 56 290t157 215t222 81
q189 0 188 -237q0 -107 -48 -197zM801 1307l-183 -318l-51 32l122 326z" />
    <glyph glyph-name="ecircumflex" unicode="&#xea;" horiz-adv-x="733" 
d="M576 534q22 45 21 119q-4 146 -96 146q-58 0 -112 -70q-55 -70 -85 -216zM701 458l-408 -18q-7 -43 -8 -91q0 -130 60 -189q57 -57 146 -57q36 0 103 26.5t86 47.5l26 -45q-41 -63 -129.5 -112.5t-179.5 -49.5q-127 0 -199 85.5t-72 250.5q0 156 56 290t157 215t222 81
q189 0 188 -237q0 -107 -48 -197zM590 1236l178 -186l-49 -36l-164 109h-10l-141 -111l-37 30l169 180z" />
    <glyph glyph-name="edieresis" unicode="&#xeb;" horiz-adv-x="733" 
d="M576 534q22 45 21 119q-4 146 -96 146q-58 0 -112 -70q-55 -70 -85 -216zM701 458l-408 -18q-7 -43 -8 -91q0 -130 60 -189q57 -57 146 -57q36 0 103 26.5t86 47.5l26 -45q-41 -63 -129.5 -112.5t-179.5 -49.5q-127 0 -199 85.5t-72 250.5q0 156 56 290t157 215t222 81
q189 0 188 -237q0 -107 -48 -197zM810 1113q0 -35 -26 -58t-62 -23q-35 0 -59.5 23.5t-24.5 57.5t25 56t59 22q36 0 62 -22.5t26 -55.5zM541 1113q0 -35 -25.5 -58t-60.5 -23t-59.5 23.5t-24.5 57.5t25 56t59 22q36 0 61 -22.5t25 -55.5z" />
    <glyph glyph-name="igrave" unicode="&#xec;" horiz-adv-x="497" 
d="M201 106l101 642l-131 21l10 76l275 25l20 -23l-116 -744l126 -32l-17 -71h-409l19 73zM187 1309l116 38l131 -335l-57 -34z" />
    <glyph glyph-name="iacute" unicode="&#xed;" horiz-adv-x="497" 
d="M202 106l101 642l-131 21l10 76l275 25l19 -23l-115 -744l125 -32l-16 -71h-409l18 73zM620 1315l-184 -317l-51 31l122 326z" />
    <glyph glyph-name="icircumflex" unicode="&#xee;" horiz-adv-x="497" 
d="M202 106l101 642l-131 21l10 76l275 25l19 -23l-115 -744l125 -32l-16 -71h-409l18 73zM467 1229l178 -185l-49 -37l-164 110h-10l-141 -111l-38 30l169 180z" />
    <glyph glyph-name="idieresis" unicode="&#xef;" horiz-adv-x="497" 
d="M202 106l101 642l-131 21l10 76l275 25l19 -23l-115 -744l125 -32l-16 -71h-409l18 73zM665 1113q0 -35 -26 -58t-62 -23q-35 0 -59.5 23.5t-24.5 57.5t25 56t59 22q36 0 62 -22.5t26 -55.5zM395 1113q0 -35 -25 -58t-61 -23q-35 0 -59.5 23.5t-24.5 57.5t25 56t59 22
q36 0 61 -22.5t25 -55.5z" />
    <glyph glyph-name="eth" unicode="&#xf0;" horiz-adv-x="895" 
d="M797 1108q55 -101 78.5 -205t23.5 -244.5t-28 -260t-76 -199.5q-46 -75 -108 -127.5t-126 -75.5q-63 -22 -127 -22q-142 0 -224 91t-82 266q0 113 28 210.5t77 163.5q46 63 108 108.5t126 66.5q63 20 124 20q36 0 76 -17q48 -21 58 -74h7q-14 97 -76 263l-212 -41l23 77
l164 33q-42 88 -106 164h111q69 -61 124 -134l146 32l-23 -78zM414 747q-69 -67 -96 -210q-14 -80 -14 -176q0 -139 41.5 -214.5t125.5 -75.5q114 0 182.5 126.5t68.5 348.5q0 118 -40.5 189.5t-114.5 71.5q-90 0 -153 -60z" />
    <glyph glyph-name="ntilde" unicode="&#xf1;" horiz-adv-x="927" 
d="M799 104l124 -28l-21 -73h-267l-11 12l82 511q12 84 12 113q0 58 -20 81.5t-63 23.5q-101 0 -183 -79l-90 -559l123 -32l-18 -74h-404l21 74l121 34l96 635l-131 21l14 83l278 25l21 -23l-35 -126h12q52 69 134.5 120.5t153.5 51.5t105.5 -40t34.5 -132q0 -45 -10 -109z
M392 1027q2 5 3 9q5 20 18 48q17 36 39 59q28 28 62 28q4 0 7 -0.5t7 -0.5l223 -30h3q11 0 25 10t23 21l9 10l48 -1q-1 -2 -2.5 -8t-2.5 -8q-13 -41 -39 -78q-37 -50 -87 -50h-12l-223 31h-3q-12 0 -27.5 -11.5t-24.5 -24.5l-8 -12z" />
    <glyph glyph-name="ograve" unicode="&#xf2;" horiz-adv-x="842" 
d="M655 310q30 114 30 240q0 125 -36.5 196t-100.5 71q-59 0 -106.5 -41t-76.5 -113q-59 -146 -59 -340q0 -155 60 -234q31 -41 72 -41q69 0 127.5 72.5t89.5 189.5zM728 151q-60 -81 -145 -129t-178 -48q-89 0 -154 46.5t-97 127.5q-31 80 -32 181q0 103 35.5 206t97.5 183
q62 81 150.5 129t185.5 48q132 0 197.5 -92t65.5 -267q0 -103 -33.5 -204t-92.5 -181zM458 1309l116 38l132 -335l-58 -34z" />
    <glyph glyph-name="oacute" unicode="&#xf3;" horiz-adv-x="842" 
d="M655 310q30 114 30 240q0 125 -36.5 196t-100.5 71q-59 0 -106.5 -41t-76.5 -113q-59 -146 -59 -340q0 -155 60 -234q31 -41 72 -41q69 0 127.5 72.5t89.5 189.5zM728 151q-60 -81 -145 -129t-178 -48q-89 0 -154 46.5t-97 127.5q-31 80 -32 181q0 103 35.5 206t97.5 183
q62 81 150.5 129t185.5 48q132 0 197.5 -92t65.5 -267q0 -103 -33.5 -204t-92.5 -181zM840 1315l-183 -317l-52 31l123 326z" />
    <glyph glyph-name="ocircumflex" unicode="&#xf4;" horiz-adv-x="842" 
d="M655 310q30 114 30 240q0 125 -36.5 196t-100.5 71q-59 0 -106.5 -41t-76.5 -113q-59 -146 -59 -340q0 -155 60 -234q31 -41 72 -41q69 0 127.5 72.5t89.5 189.5zM728 151q-60 -81 -145 -129t-178 -48q-89 0 -154 46.5t-97 127.5q-31 80 -32 181q0 103 35.5 206t97.5 183
q62 81 150.5 129t185.5 48q132 0 197.5 -92t65.5 -267q0 -103 -33.5 -204t-92.5 -181zM604 1229l178 -185l-49 -37l-164 110h-10l-140 -111l-39 30l169 180z" />
    <glyph glyph-name="otilde" unicode="&#xf5;" horiz-adv-x="842" 
d="M655 310q30 114 30 240q0 125 -36.5 196t-100.5 71q-59 0 -106.5 -41t-76.5 -113q-59 -146 -59 -340q0 -155 60 -234q31 -41 72 -41q69 0 127.5 72.5t89.5 189.5zM728 151q-60 -81 -145 -129t-178 -48q-89 0 -154 46.5t-97 127.5q-31 80 -32 181q0 103 35.5 206t97.5 183
q62 81 150.5 129t185.5 48q132 0 197.5 -92t65.5 -267q0 -103 -33.5 -204t-92.5 -181zM349 1027q2 5 3 9q5 20 18 48q17 36 39 59q28 28 62 28q4 0 7 -0.5t7 -0.5l223 -30h3q11 0 25 10t23 21l9 10l48 -1q-1 -2 -2.5 -8t-2.5 -8q-13 -41 -39 -78q-37 -50 -87 -50h-12
l-223 31h-3q-12 0 -27.5 -11.5t-24.5 -24.5l-8 -12z" />
    <glyph glyph-name="odieresis" unicode="&#xf6;" horiz-adv-x="842" 
d="M655 310q30 114 30 240q0 125 -36.5 196t-100.5 71q-59 0 -106.5 -41t-76.5 -113q-59 -146 -59 -340q0 -155 60 -234q31 -41 72 -41q69 0 127.5 72.5t89.5 189.5zM728 151q-60 -81 -145 -129t-178 -48q-89 0 -154 46.5t-97 127.5q-31 80 -32 181q0 103 35.5 206t97.5 183
q62 81 150.5 129t185.5 48q132 0 197.5 -92t65.5 -267q0 -103 -33.5 -204t-92.5 -181zM802 1113q0 -35 -26 -58t-61 -23t-60 23.5t-25 57.5t25.5 56t59.5 22q36 0 61.5 -22.5t25.5 -55.5zM533 1113q0 -35 -25.5 -58t-60.5 -23t-60 23.5t-25 57.5t25.5 56t59.5 22
q36 0 61 -22.5t25 -55.5z" />
    <glyph glyph-name="divide" unicode="&#xf7;" horiz-adv-x="976" 
d="M616 903q43 0 71 -30t28 -72q0 -58 -38 -96t-94 -38q-39 0 -70.5 31.5t-31.5 69.5q0 57 39 96t96 39zM532 341q43 0 70 -30t27 -73q0 -58 -38 -96t-94 -38q-39 0 -70 31.5t-31 69.5q0 57 39.5 96.5t96.5 39.5zM175 561h813l-28 -106h-814z" />
    <glyph glyph-name="oslash" unicode="&#xf8;" horiz-adv-x="842" 
d="M313 223l340 515q-36 79 -105 79q-59 0 -106.5 -41t-76.5 -113q-59 -146 -59 -340q0 -53 7 -100zM655 310q30 114 30 240q0 68 -9 113l-342 -516q12 -33 32 -58q31 -41 72 -41q69 0 127.5 72.5t89.5 189.5zM728 151q-60 -81 -145 -129t-178 -48q-76 0 -137 36l-55 -84
l-125 -9l105 161q-24 31 -39 70q-31 80 -32 181q0 103 35.5 206t97.5 183q62 81 150.5 129t185.5 48q70 0 122 -27l48 72l128 9l-98 -150q63 -91 63 -263q0 -103 -33.5 -204t-92.5 -181z" />
    <glyph glyph-name="ugrave" unicode="&#xf9;" horiz-adv-x="906" 
d="M893 84l-18 -69q-69 -30 -140 -30q-60 0 -90 28t-30 86q0 17 2 32h-10q-31 -56 -105 -103.5t-158 -47.5q-154 0 -154 184q0 41 9 101l72 483l-130 23l10 74l282 25l20 -23l-79 -471q-16 -97 -16 -153t18.5 -81t61.5 -25q98 0 181 83l82 548l-134 23l10 74l287 25l19 -23
l-76 -476q-23 -150 -23 -201q0 -39 9.5 -54.5t33.5 -19.5zM428 1309l116 38l133 -335l-58 -34z" />
    <glyph glyph-name="uacute" unicode="&#xfa;" horiz-adv-x="906" 
d="M893 84l-18 -69q-69 -30 -140 -30q-60 0 -90 28t-30 86q0 17 2 32h-10q-31 -56 -105 -103.5t-158 -47.5q-154 0 -154 184q0 41 9 101l72 483l-130 23l10 74l282 25l20 -23l-79 -471q-16 -97 -16 -153t18.5 -81t61.5 -25q98 0 181 83l82 548l-134 23l10 74l287 25l19 -23
l-76 -476q-23 -150 -23 -201q0 -39 9.5 -54.5t33.5 -19.5zM811 1315l-184 -317l-51 31l122 326z" />
    <glyph glyph-name="ucircumflex" unicode="&#xfb;" horiz-adv-x="906" 
d="M893 84l-18 -69q-69 -30 -140 -30q-60 0 -90 28t-30 86q0 17 2 32h-10q-31 -56 -105 -103.5t-158 -47.5q-154 0 -154 184q0 41 9 101l72 483l-130 23l10 74l282 25l20 -23l-79 -471q-16 -97 -16 -153t18.5 -81t61.5 -25q98 0 181 83l82 548l-134 23l10 74l287 25l19 -23
l-76 -476q-23 -150 -23 -201q0 -39 9.5 -54.5t33.5 -19.5zM591 1229l178 -185l-49 -37l-164 110h-10l-141 -111l-38 30l169 180z" />
    <glyph glyph-name="udieresis" unicode="&#xfc;" horiz-adv-x="906" 
d="M893 84l-18 -69q-69 -30 -140 -30q-60 0 -90 28t-30 86q0 17 2 32h-10q-31 -56 -105 -103.5t-158 -47.5q-154 0 -154 184q0 41 9 101l72 483l-130 23l10 74l282 25l20 -23l-79 -471q-16 -97 -16 -153t18.5 -81t61.5 -25q98 0 181 83l82 548l-134 23l10 74l287 25l19 -23
l-76 -476q-23 -150 -23 -201q0 -39 9.5 -54.5t33.5 -19.5zM773 1113q0 -35 -26.5 -58t-61.5 -23t-59.5 23.5t-24.5 57.5t25 56t59 22q36 0 62 -22.5t26 -55.5zM503 1113q0 -35 -25.5 -58t-60.5 -23t-59.5 23.5t-24.5 57.5t25 56t59 22q36 0 61 -22.5t25 -55.5z" />
    <glyph glyph-name="yacute" unicode="&#xfd;" horiz-adv-x="832" 
d="M467 225l281 546l-123 33l20 71h334l-20 -74l-95 -32l-429 -822q-96 -184 -176 -255.5t-185 -71.5q-65 0 -97.5 30t-32.5 82q0 71 71 127q68 -55 142 -54q49 0 86 29.5t83 115.5l18 35l-127 788l-95 31l17 71h385l-18 -69l-124 -40zM849 1315l-184 -317l-51 31l122 326z
" />
    <glyph glyph-name="thorn" unicode="&#xfe;" horiz-adv-x="873" 
d="M398 721h2q34 65 107.5 118t138.5 53q99 0 168 -104t69 -255q0 -124 -40 -230.5t-108 -176.5q-67 -69 -152 -106.5t-175 -37.5q-65 0 -93 11l22 115q14 -7 42 -13t45 -6q54 0 101 14q31 9 55 24t49 45q50 59 69 174q11 61 11 140q0 117 -38.5 189.5t-93.5 72.5
q-56 0 -94 -18t-93 -68l-139 -925l155 -31l-18 -75h-432l20 75l121 33l200 1406l-134 23l10 76l274 25l22 -23l-55 -399l-28 -124h12v-2z" />
    <glyph glyph-name="ydieresis" unicode="&#xff;" horiz-adv-x="832" 
d="M467 225l281 546l-123 33l20 71h334l-20 -74l-95 -32l-429 -822q-96 -184 -176 -255.5t-185 -71.5q-65 0 -97.5 30t-32.5 82q0 71 71 127q68 -55 142 -54q49 0 86 29.5t83 115.5l18 35l-127 788l-95 31l17 71h385l-18 -69l-124 -40zM811 1113q0 -35 -26.5 -58t-61.5 -23
t-59.5 23.5t-24.5 57.5t25 56t59 22q36 0 62 -22.5t26 -55.5zM541 1113q0 -35 -25.5 -58t-60.5 -23t-59.5 23.5t-24.5 57.5t25 56t59 22q36 0 61 -22.5t25 -55.5z" />
    <glyph glyph-name="Amacron" unicode="&#x100;" horiz-adv-x="1159" 
d="M874 1270l189 -1146l124 -43l-18 -81h-485l20 74l172 55l-56 304h-401l-153 -309l170 -43l-22 -81h-446l18 74l149 55l592 1110zM471 534h335l-79 502zM595 1481h441l-13 -100h-442z" />
    <glyph glyph-name="amacron" unicode="&#x101;" horiz-adv-x="855" 
d="M846 84l-20 -69q-69 -30 -140 -30q-53 0 -86 25t-33 73v11l3 38h-12q-38 -68 -102 -111t-134 -43q-93 0 -147.5 79t-54.5 218q0 112 31.5 212t85.5 174q108 147 256 201q71 25 138 25q130 0 185 -35l17 -18l-71 -455q-26 -175 -27 -217q0 -34 9.5 -48t33.5 -18zM661 748
q-37 35 -119 34q-74 0 -136 -69t-93 -178q-31 -103 -31 -214q0 -215 121 -215q50 0 88.5 23t83.5 73zM469 1128h442l-14 -101h-441z" />
    <glyph glyph-name="Abreve" unicode="&#x102;" horiz-adv-x="1159" 
d="M874 1270l189 -1146l124 -43l-18 -81h-485l20 74l172 55l-56 304h-401l-153 -309l170 -43l-22 -81h-446l18 74l149 55l592 1110zM471 534h335l-79 502zM618 1555l46 31l8 -16q18 -36 54.5 -60t81.5 -24q89 0 142 86l10 16l42 -28l-7 -20q-24 -74 -72.5 -119t-114.5 -45
q-71 0 -119.5 44.5t-65.5 114.5z" />
    <glyph glyph-name="abreve" unicode="&#x103;" horiz-adv-x="855" 
d="M846 84l-20 -69q-69 -30 -140 -30q-53 0 -86 25t-33 73v11l3 38h-12q-38 -68 -102 -111t-134 -43q-93 0 -147.5 79t-54.5 218q0 112 31.5 212t85.5 174q108 147 256 201q71 25 138 25q130 0 185 -35l17 -18l-71 -455q-26 -175 -27 -217q0 -34 9.5 -48t33.5 -18zM661 748
q-37 35 -119 34q-74 0 -136 -69t-93 -178q-31 -103 -31 -214q0 -215 121 -215q50 0 88.5 23t83.5 73zM492 1201l46 31l9 -16q18 -36 54.5 -60t80.5 -24q89 0 143 86l10 16l41 -28l-7 -20q-24 -74 -72 -119t-115 -45q-71 0 -119.5 44.5t-65.5 114.5z" />
    <glyph glyph-name="Aogonek" unicode="&#x104;" horiz-adv-x="1159" 
d="M1152 0q-40 -44 -51 -136q-1 -3 -1 -10q0 -43 32.5 -93t92.5 -84l-35 -51q-105 11 -171.5 61.5t-66.5 117.5q0 45 26 88.5t95 106.5h-389l20 74l172 55l-56 304h-401l-153 -309l170 -43l-22 -81h-446l18 74l149 55l592 1110l147 31l189 -1146l124 -43l-18 -81h-17z
M471 534h335l-79 502z" />
    <glyph glyph-name="aogonek" unicode="&#x105;" horiz-adv-x="853" 
d="M818 12q-58 -55 -58 -148q0 -101 27 -101h3q30 -50 94 -86l-35 -51q-105 11 -171.5 61.5t-66.5 117.5q0 42 23 83.5t83 98.5q-13 -2 -31 -2q-53 0 -86 25t-33 73v11l3 38h-12q-38 -68 -102 -111t-134 -43q-93 0 -147.5 79t-54.5 218q0 112 31.5 212t85.5 174
q108 147 256 201q71 25 138 25q130 0 185 -35l17 -18l-71 -455q-26 -173 -27 -217q0 -34 9.5 -48t33.5 -18l68 -12l-20 -69zM661 748q-37 35 -119 34q-74 0 -136 -69t-93 -178q-31 -103 -31 -214q0 -215 121 -215q50 0 88.5 23t83.5 73z" />
    <glyph glyph-name="Cacute" unicode="&#x106;" horiz-adv-x="1148" 
d="M489 211q103 -105 255 -105q183 0 347 152l38 -55q-98 -116 -222.5 -172t-258.5 -56q-199 0 -337 130q-68 63 -105.5 161t-37.5 217q0 146 59 297q65 168 179 283q132 134 300 183q94 26 195 26q217 0 327 -101l-82 -332l-81 13l-4 220q-28 49 -88 76.5t-145 27.5
q-87 0 -168 -46t-144 -128q-64 -84 -100 -204.5t-36 -258.5q0 -107 28.5 -191.5t80.5 -136.5zM1167 1669l-184 -317l-51 31l123 326z" />
    <glyph glyph-name="cacute" unicode="&#x107;" horiz-adv-x="666" 
d="M447 93q53 0 92.5 14.5t90.5 48.5l23 -50q-48 -60 -122 -98t-146 -38q-124 0 -193.5 88.5t-69.5 249.5q0 103 30 199.5t80 168.5q48 69 108 121t120 79q60 26 112 26q79 0 124 -39t45 -105q0 -48 -39 -79t-100 -35q-5 62 -20 106q-18 57 -59 57q-37 0 -76.5 -34
t-74.5 -94q-35 -61 -56.5 -153.5t-21.5 -194.5q0 -112 38.5 -175t114.5 -63zM840 1315l-183 -317l-52 31l123 326z" />
    <glyph glyph-name="Cdotaccent" unicode="&#x10a;" horiz-adv-x="1148" 
d="M489 211q103 -105 255 -105q183 0 347 152l38 -55q-98 -116 -222.5 -172t-258.5 -56q-199 0 -337 130q-68 63 -105.5 161t-37.5 217q0 146 59 297q65 168 179 283q132 134 300 183q94 26 195 26q217 0 327 -101l-82 -332l-81 13l-4 220q-28 49 -88 76.5t-145 27.5
q-87 0 -168 -46t-144 -128q-64 -84 -100 -204.5t-36 -258.5q0 -107 28.5 -191.5t80.5 -136.5zM1065 1481q0 -50 -36 -86.5t-86 -36.5t-84.5 36t-34.5 87q0 47 35.5 80.5t83.5 33.5q50 0 86 -33.5t36 -80.5z" />
    <glyph glyph-name="cdotaccent" unicode="&#x10b;" horiz-adv-x="666" 
d="M447 93q53 0 92.5 14.5t90.5 48.5l23 -50q-48 -60 -122 -98t-146 -38q-124 0 -193.5 88.5t-69.5 249.5q0 103 30 199.5t80 168.5q48 69 108 121t120 79q60 26 112 26q79 0 124 -39t45 -105q0 -48 -39 -79t-100 -35q-5 62 -20 106q-18 57 -59 57q-37 0 -76.5 -34
t-74.5 -94q-35 -61 -56.5 -153.5t-21.5 -194.5q0 -112 38.5 -175t114.5 -63zM757 1108q0 -50 -36.5 -86t-86 -36t-84.5 36t-35 87q0 47 35.5 80.5t83.5 33.5q50 0 86.5 -34t36.5 -81z" />
    <glyph glyph-name="Ccaron" unicode="&#x10c;" horiz-adv-x="1148" 
d="M489 211q103 -105 255 -105q183 0 347 152l38 -55q-98 -116 -222.5 -172t-258.5 -56q-199 0 -337 130q-68 63 -105.5 161t-37.5 217q0 146 59 297q65 168 179 283q132 134 300 183q94 26 195 26q217 0 327 -101l-82 -332l-81 13l-4 220q-28 49 -88 76.5t-145 27.5
q-87 0 -168 -46t-144 -128q-64 -84 -100 -204.5t-36 -258.5q0 -107 28.5 -191.5t80.5 -136.5zM886 1360l-180 165l81 61l148 -143h10l124 140l44 -30l-173 -180z" />
    <glyph glyph-name="ccaron" unicode="&#x10d;" horiz-adv-x="666" 
d="M447 93q53 0 92.5 14.5t90.5 48.5l23 -50q-48 -60 -122 -98t-146 -38q-124 0 -193.5 88.5t-69.5 249.5q0 103 30 199.5t80 168.5q48 69 108 121t120 79q60 26 112 26q79 0 124 -39t45 -105q0 -48 -39 -79t-100 -35q-5 62 -20 106q-18 57 -59 57q-37 0 -76.5 -34
t-74.5 -94q-35 -61 -56.5 -153.5t-21.5 -194.5q0 -112 38.5 -175t114.5 -63zM559 1006l-180 165l81 61l149 -143h10l124 140l43 -30l-173 -180z" />
    <glyph glyph-name="Dcaron" unicode="&#x10e;" horiz-adv-x="1349" 
d="M441 104h140q127 0 239 48.5t188 132.5q75 84 117 192.5t42 225.5q0 194 -107 320q-54 64 -140.5 99.5t-195.5 35.5q-60 0 -118 -7zM1189 1163q67 -44 111.5 -107.5t63.5 -136.5q18 -69 18 -153q0 -238 -153 -436q-160 -206 -416 -287q-135 -43 -288 -43h-453l20 74
l172 55l154 976l-161 30l20 76q305 50 500 50q263 0 412 -98zM856 1360l-180 165l81 61l149 -143h10l124 140l43 -30l-172 -180z" />
    <glyph glyph-name="dcaron" unicode="&#x10f;" horiz-adv-x="979" 
d="M840 86l-19 -71q-86 -30 -139 -30q-58 0 -88 24t-32 65q0 23 5 58h-13q-38 -68 -102 -111t-134 -43q-199 0 -199 293q0 103 30 202t82 173q108 156 248 213q69 28 135 28q47 0 69 -7h7l38 278l-142 26l13 73l276 25l20 -23l-137 -879q-26 -185 -27 -220q0 -33 9 -45.5
t34 -16.5zM657 746q-43 36 -118 36q-74 0 -135.5 -68t-91.5 -174q-31 -100 -31 -209q0 -117 30.5 -171t93.5 -54q50 0 84.5 21.5t79.5 74.5zM900 821q93 24 151.5 77t58.5 106q0 45 -26 71.5t-75 26.5q-5 0 -30 -7q-7 31 -6 55q0 54 47 94t96 40q58 0 100 -36
q48 -43 48 -151q0 -69 -46 -142q-56 -91 -165 -150q-65 -34 -141 -54z" />
    <glyph glyph-name="Dcroat" unicode="&#x110;" horiz-adv-x="1349" 
d="M441 104h140q127 0 239 48.5t188 132.5q75 84 117 192.5t42 225.5q0 194 -107 320q-54 64 -140.5 99.5t-195.5 35.5q-60 0 -118 -7zM1189 1163q67 -44 111.5 -107.5t63.5 -136.5q18 -69 18 -153q0 -238 -153 -436q-160 -206 -416 -287q-135 -43 -288 -43h-453l20 74
l172 55l154 976l-161 30l20 76q305 50 500 50q263 0 412 -98zM664 1481h442l-13 -100h-442z" />
    <glyph glyph-name="dcroat" unicode="&#x111;" horiz-adv-x="853" 
d="M471 1076h245l12 82l-142 26l13 73l276 25l20 -23l-29 -183h46l-13 -100h-49l-92 -596q-26 -185 -27 -220q0 -33 9 -45.5t34 -16.5l66 -12l-19 -71q-86 -30 -139 -30q-58 0 -88 24t-32 65q0 23 5 58h-13q-38 -68 -102 -111t-134 -43q-199 0 -199 293q0 103 30 202t82 173
q108 156 248 213q69 28 135 28q47 0 69 -7h7l13 96h-246zM657 746q-43 36 -118 36q-74 0 -135.5 -68t-91.5 -174q-31 -100 -31 -209q0 -117 30.5 -171t93.5 -54q50 0 84.5 21.5t79.5 74.5z" />
    <glyph glyph-name="Emacron" unicode="&#x112;" horiz-adv-x="1135" 
d="M271 1246h955l-80 -320l-81 14l-5 215h-451l-75 -477h278l61 119l91 14l-92 -389l-85 -13l-5 175h-263l-77 -488h474l131 230l78 -12l-79 -314h-963l15 74l165 47l159 1007l-167 42zM586 1481h441l-13 -100h-442z" />
    <glyph glyph-name="emacron" unicode="&#x113;" horiz-adv-x="733" 
d="M576 534q22 45 21 119q-4 146 -96 146q-58 0 -112 -70q-55 -70 -85 -216zM701 458l-408 -18q-7 -43 -8 -91q0 -130 60 -189q57 -57 146 -57q36 0 103 26.5t86 47.5l26 -45q-41 -63 -129.5 -112.5t-179.5 -49.5q-74 0 -129 28t-86 78q-56 93 -56 230q0 156 56 290t157 215
t222 81q94 0 141 -61.5t47 -175.5q0 -107 -48 -197zM379 1128h442l-14 -101h-441z" />
    <glyph glyph-name="Edotaccent" unicode="&#x116;" horiz-adv-x="1135" 
d="M271 1246h955l-80 -320l-81 14l-5 215h-451l-75 -477h278l61 119l91 14l-92 -389l-85 -13l-5 175h-263l-77 -488h474l131 230l78 -12l-79 -314h-963l15 74l165 47l159 1007l-167 42zM921 1481q0 -50 -36 -86.5t-86 -36.5t-84.5 36t-34.5 87q0 47 35.5 80.5t83.5 33.5
q50 0 86 -33.5t36 -80.5z" />
    <glyph glyph-name="edotaccent" unicode="&#x117;" horiz-adv-x="733" 
d="M576 534q22 45 21 119q-4 146 -96 146q-58 0 -112 -70q-55 -70 -85 -216zM701 458l-408 -18q-7 -43 -8 -91q0 -130 60 -189q57 -57 146 -57q36 0 103 26.5t86 47.5l26 -45q-41 -63 -129.5 -112.5t-179.5 -49.5q-74 0 -129 28t-86 78q-56 93 -56 230q0 156 56 290t157 215
t222 81q94 0 141 -61.5t47 -175.5q0 -107 -48 -197zM715 1127q0 -50 -36.5 -86.5t-86 -36.5t-84.5 36.5t-35 87.5q0 46 35.5 79.5t83.5 33.5q50 0 86.5 -33.5t36.5 -80.5z" />
    <glyph glyph-name="Eogonek" unicode="&#x118;" horiz-adv-x="1135" 
d="M1026 0q-51 -80 -52 -136q0 -115 124 -187l-34 -51q-105 11 -172 61.5t-67 117.5q0 45 26.5 88.5t94.5 106.5h-863l15 74l165 47l159 1007l-167 42l16 76h955l-80 -320l-81 14l-5 215h-451l-75 -477h278l61 119l91 14l-92 -389l-85 -13l-5 175h-263l-77 -488h474l131 230
l78 -12l-79 -314h-20z" />
    <glyph glyph-name="eogonek" unicode="&#x119;" horiz-adv-x="737" 
d="M578 534q22 45 22 119q-4 146 -96 146q-58 0 -113 -70t-85 -216zM517 -237q30 -50 94 -86l-34 -51q-105 11 -172 61.5t-67 117.5q0 40 19.5 77.5t71.5 89.5q-13 -2 -29 -2q-74 0 -129.5 28t-86.5 78q-56 93 -56 230q0 156 56.5 290t157.5 215t221 81q94 0 141.5 -61.5
t47.5 -175.5q0 -107 -48 -197l-409 -18q-7 -43 -7 -91q0 -130 59 -189q57 -57 147 -57q36 0 102.5 26.5t85.5 47.5l27 -45q-23 -36 -69.5 -72.5t-101.5 -59.5q-51 -55 -51 -129q0 -59 30 -108z" />
    <glyph glyph-name="Ecaron" unicode="&#x11a;" horiz-adv-x="1135" 
d="M271 1246h955l-80 -320l-81 14l-5 215h-451l-75 -477h278l61 119l91 14l-92 -389l-85 -13l-5 175h-263l-77 -488h474l131 230l78 -12l-79 -314h-963l15 74l165 47l159 1007l-167 42zM778 1360l-182 165l82 61l149 -143h10l124 140l43 -30l-172 -180z" />
    <glyph glyph-name="ecaron" unicode="&#x11b;" horiz-adv-x="733" 
d="M576 534q22 45 21 119q-4 146 -96 146q-58 0 -112 -70q-55 -70 -85 -216zM701 458l-408 -18q-7 -43 -8 -91q0 -130 60 -189q57 -57 146 -57q36 0 103 26.5t86 47.5l26 -45q-41 -63 -129.5 -112.5t-179.5 -49.5q-74 0 -129 28t-86 78q-56 93 -56 230q0 156 56 290t157 215
t222 81q94 0 141 -61.5t47 -175.5q0 -107 -48 -197zM571 1006l-181 165l81 61l149 -143h10l124 140l43 -30l-172 -180z" />
    <glyph glyph-name="Gbreve" unicode="&#x11e;" horiz-adv-x="1285" 
d="M1227 842l-81 15l-4 192q-30 50 -105.5 82t-188.5 32q-146 0 -260 -88q-127 -98 -176 -295q-27 -108 -27 -241q0 -228 97 -345.5t290 -117.5q125 0 178 46l50 313l-220 38l20 83h531l-18 -75l-124 -41l-55 -352q-85 -57 -212.5 -88t-282.5 -31q-117 0 -209.5 39
t-148.5 110q-112 141 -111 349q0 144 42.5 273.5t116.5 225.5q152 194 370 263q104 33 213 33q266 0 392 -97zM745 1555l47 31l8 -16q18 -36 54.5 -60t80.5 -24q89 0 143 86l10 16l41 -28l-7 -20q-24 -74 -72 -119t-115 -45q-71 0 -119 44.5t-66 114.5z" />
    <glyph glyph-name="gbreve" unicode="&#x11f;" horiz-adv-x="830" 
d="M347 553q0 -74 31 -123.5t77 -49.5q69 0 114.5 78.5t45.5 203.5q0 76 -24.5 119t-67.5 43q-74 0 -125 -78.5t-51 -192.5zM534 151q246 0 247 -151q0 -65 -30.5 -126.5t-84.5 -108.5q-112 -99 -248 -134q-67 -18 -129 -18q-170 0 -250 79q-44 44 -44 106q0 134 194 220v8
q-42 22 -59.5 48.5t-18.5 71.5q0 41 65 98.5t132 83.5l1 8q-45 12 -86 77t-41 137q0 88 56.5 170t146.5 131q85 47 171 47q100 0 157 -63l212 15l16 -23l-54 -111h-17l-119 40l-2 -17q15 -50 15 -107q0 -84 -54.5 -162t-137.5 -123q-81 -44 -155 -44q-40 0 -70 10l-18 -19
q-17 -17 -20 -22q-6 -8 -8 -11q-6 -8 -8 -15q0 -1 -2 -6t-4 -8q-6 -15 -6 -33q0 -31 35 -40q32 -8 131 -8h87zM253 3q-2 -2 -7 -5q-20 -15 -39 -46q-25 -41 -25 -101q0 -131 170 -131q111 0 180.5 55.5t69.5 148.5q0 43 -48 61q-47 18 -162 18h-139zM389 1183l46 31l8 -16
q18 -36 54.5 -60.5t81.5 -24.5q89 0 142 86l10 17l42 -28l-7 -20q-24 -74 -72.5 -119t-114.5 -45q-71 0 -119.5 44.5t-65.5 114.5z" />
    <glyph glyph-name="Gdotaccent" unicode="&#x120;" horiz-adv-x="1285" 
d="M1227 842l-81 15l-4 192q-30 50 -105.5 82t-188.5 32q-146 0 -260 -88q-127 -98 -176 -295q-27 -108 -27 -241q0 -228 97 -345.5t290 -117.5q125 0 178 46l50 313l-220 38l20 83h531l-18 -75l-124 -41l-55 -352q-85 -57 -212.5 -88t-282.5 -31q-117 0 -209.5 39
t-148.5 110q-112 141 -111 349q0 144 42.5 273.5t116.5 225.5q152 194 370 263q104 33 213 33q266 0 392 -97zM1058 1481q0 -50 -36.5 -86.5t-86 -36.5t-84.5 36t-35 87q0 47 36 80.5t83 33.5q50 0 86.5 -33.5t36.5 -80.5z" />
    <glyph glyph-name="gdotaccent" unicode="&#x121;" horiz-adv-x="830" 
d="M347 553q0 -74 31 -123.5t77 -49.5q69 0 114.5 78.5t45.5 203.5q0 76 -24.5 119t-67.5 43q-74 0 -125 -78.5t-51 -192.5zM534 151q246 0 247 -151q0 -65 -30.5 -126.5t-84.5 -108.5q-112 -99 -248 -134q-67 -18 -129 -18q-170 0 -250 79q-44 44 -44 106q0 134 194 220v8
q-42 22 -59.5 48.5t-18.5 71.5q0 41 65 98.5t132 83.5l1 8q-45 12 -86 77t-41 137q0 88 56.5 170t146.5 131q85 47 171 47q100 0 157 -63l212 15l16 -23l-54 -111h-17l-119 40l-2 -17q15 -50 15 -107q0 -84 -54.5 -162t-137.5 -123q-81 -44 -155 -44q-40 0 -70 10l-18 -19
q-17 -17 -20 -22q-6 -8 -8 -11q-6 -8 -8 -15q0 -1 -2 -6t-4 -8q-6 -15 -6 -33q0 -31 35 -40q32 -8 131 -8h87zM253 3q-2 -2 -7 -5q-20 -15 -39 -46q-25 -41 -25 -101q0 -131 170 -131q111 0 180.5 55.5t69.5 148.5q0 43 -48 61q-47 18 -162 18h-139zM701 1108q0 -50 -36 -86
t-86 -36t-84.5 36t-34.5 87q0 47 35.5 80.5t83.5 33.5q50 0 86 -34t36 -81z" />
    <glyph glyph-name="Gcommaaccent" unicode="&#x122;" horiz-adv-x="1285" 
d="M1227 842l-81 15l-4 192q-30 50 -105.5 82t-188.5 32q-146 0 -260 -88q-127 -98 -176 -295q-27 -108 -27 -241q0 -228 97 -345.5t290 -117.5q125 0 178 46l50 313l-220 38l20 83h531l-18 -75l-124 -41l-55 -352q-85 -57 -212.5 -88t-282.5 -31q-117 0 -209.5 39
t-148.5 110q-112 141 -111 349q0 144 42.5 273.5t116.5 225.5q152 194 370 263q104 33 213 33q266 0 392 -97zM537 -361q54 15 88 46.5t34 61.5q0 27 -15 42.5t-44 15.5q-4 0 -17 -4q-5 17 -5 32q0 31 28 54.5t57 23.5q86 0 86 -110q0 -48 -43 -105q-23 -31 -65.5 -56.5
t-97.5 -39.5z" />
    <glyph glyph-name="gcommaaccent" unicode="&#x123;" horiz-adv-x="830" 
d="M738 1246q-51 -14 -84.5 -43.5t-33.5 -58.5q0 -26 14.5 -40.5t42.5 -14.5q4 0 16 3q5 -17 5 -30q0 -30 -26.5 -53t-52.5 -23q-84 0 -85 104q0 46 42 103q22 30 62.5 54t92.5 37zM347 553q0 -74 31 -123.5t77 -49.5q69 0 114.5 78.5t45.5 203.5q0 76 -24.5 119t-67.5 43
q-74 0 -125 -78.5t-51 -192.5zM534 151q246 0 247 -151q0 -65 -30.5 -126.5t-84.5 -108.5q-112 -99 -248 -134q-67 -18 -129 -18q-170 0 -250 79q-44 44 -44 106q0 80 71 142q57 49 123 78v8q-42 22 -59.5 48.5t-18.5 71.5q0 41 65 98.5t132 83.5l1 8q-45 12 -86 77t-41 137
q0 88 56.5 170t146.5 131q85 47 171 47q100 0 157 -63l212 15l16 -23l-54 -111h-17l-119 40l-2 -17q15 -50 15 -107q0 -84 -54.5 -162t-137.5 -123q-81 -44 -155 -44q-40 0 -70 10l-18 -19q-17 -17 -20 -22q-6 -8 -8 -11q-6 -8 -8 -15q0 -1 -2 -6t-4 -8q-6 -15 -6 -33
q0 -31 35 -40q32 -8 131 -8h87zM253 3q-1 0 -3.5 -1.5t-3.5 -2.5q-19 -12 -39 -44q-25 -41 -25 -104q0 -131 170 -131q111 0 180.5 55.5t69.5 148.5q0 43 -48 61q-47 18 -162 18h-139z" />
    <glyph glyph-name="Hbar" unicode="&#x126;" horiz-adv-x="1406" 
d="M1127 876h-570l-28 -183h569zM242 876l21 91h132l25 161l-159 42l17 76h495l-17 -76l-159 -38l-25 -165h569l25 161l-160 42l18 76h495l-17 -76l-159 -38l-25 -165h133l-21 -91h-127l-120 -762l162 -33l-18 -81h-493l18 74l155 47l75 471l-571 -1l-74 -477l165 -33
l-21 -81h-492l15 74l157 47l119 755h-138z" />
    <glyph glyph-name="hbar" unicode="&#x127;" horiz-adv-x="899" 
d="M170 946l21 91h127l17 108l-134 23l10 76l275 25l21 -23l-33 -209h219l-21 -91h-212l-16 -99l-28 -124h12q56 74 131.5 123t152.5 49q147 0 147 -180q0 -55 -8 -101l-83 -513l124 -28l-21 -73h-271l84 526q8 55 8 93q0 127 -87 127q-41 0 -80 -13t-62 -31t-45 -39
l-90 -560l123 -32l-18 -71h-406l22 74l121 34l134 838h-134z" />
    <glyph glyph-name="Imacron" unicode="&#x12a;" horiz-adv-x="670" 
d="M596 0h-513l15 74l165 47l159 1007l-167 42l16 76h520l-17 -76l-169 -38l-160 -1018l170 -33zM333 1481h441l-13 -100h-442z" />
    <glyph glyph-name="imacron" unicode="&#x12b;" horiz-adv-x="497" 
d="M202 106l101 642l-131 21l10 76l275 25l19 -23l-115 -744l125 -32l-16 -71h-409l18 73zM184 1128h441l-13 -101h-442z" />
    <glyph glyph-name="Iogonek" unicode="&#x12e;" horiz-adv-x="671" 
d="M608 17q-61 -101 -61 -153q0 -115 124 -187l-35 -51q-105 11 -171.5 61.5t-66.5 117.5q0 45 26 88.5t95 106.5h-436l15 74l165 47l159 1007l-167 42l16 76h520l-17 -76l-169 -38l-160 -1018l170 -33z" />
    <glyph glyph-name="iogonek" unicode="&#x12f;" horiz-adv-x="497" 
d="M432 0q-60 -79 -60 -149q0 -115 124 -187l-34 -51q-105 11 -172 61.5t-67 117.5q0 47 28.5 93t107.5 115h-298l18 73l123 33l101 642l-131 21l10 76l275 25l19 -23l-115 -744l125 -32l-16 -71h-38zM566 1127q0 -50 -36.5 -86.5t-86 -36.5t-84.5 36.5t-35 87.5
q0 46 35.5 79.5t83.5 33.5q50 0 86.5 -33.5t36.5 -80.5z" />
    <glyph glyph-name="Idotaccent" unicode="&#x130;" horiz-adv-x="670" 
d="M596 0h-513l15 74l165 47l159 1007l-167 42l16 76h520l-17 -76l-169 -38l-160 -1018l170 -33zM680 1481q0 -50 -36.5 -86.5t-86 -36.5t-84.5 36t-35 87q0 47 36 80.5t83 33.5q50 0 86.5 -33.5t36.5 -80.5z" />
    <glyph glyph-name="dotlessi" unicode="&#x131;" horiz-adv-x="497" 
d="M202 106l101 642l-131 21l10 76l275 25l19 -23l-115 -744l125 -32l-16 -71h-409l18 73z" />
    <glyph glyph-name="Kcommaaccent" unicode="&#x136;" horiz-adv-x="1206" 
d="M620 510q-45 74 -67 95l5 25q79 60 121 108l343 385l-148 47l15 76h475l-18 -76l-177 -47l-437 -473l174 -270q96 -147 154.5 -207t139.5 -89l33 -11l-21 -73q-63 -22 -126 -22q-115 0 -200 83q-72 69 -139 200zM451 124l173 -43l-18 -81h-527l14 74l174 55l156 991
l-172 50l19 76h525l-17 -76l-172 -47zM504 -361q54 15 88 46.5t34 61.5q0 27 -15 42.5t-44 15.5q-4 0 -17 -4q-5 17 -5 32q0 31 28 54.5t56 23.5q86 0 86 -110q0 -48 -42 -105q-23 -31 -65.5 -56.5t-97.5 -39.5z" />
    <glyph glyph-name="kcommaaccent" unicode="&#x137;" horiz-adv-x="864" 
d="M405 435l4 17l263 319l-123 33l15 71h381l-22 -76l-132 -33l-240 -278l50 -104q7 -16 24 -53l43 -93q15 -32 41 -73q16 -25 45 -53q22 -20 57 -31q14 -6 36 -8l35 -5l-22 -68q-19 -6 -63 -13t-71 -7q-66 0 -115 43q-41 36 -92 146q-21 43 -52 119zM170 108l166 1037
l-133 21l12 76l271 25l24 -23l-181 -1140l126 -31l-17 -73h-408l16 74zM309 -361q54 15 88.5 46.5t34.5 61.5q0 27 -15.5 42.5t-44.5 15.5q-4 0 -16 -4q-5 17 -5 32q0 31 27.5 54.5t56.5 23.5q86 0 86 -110q0 -48 -42 -105q-23 -31 -65.5 -56.5t-97.5 -39.5z" />
    <glyph glyph-name="Lacute" unicode="&#x139;" horiz-adv-x="1076" 
d="M793 1246l-16 -76l-172 -47l-162 -1027h421l164 248l81 -13l-87 -331h-938l13 74l167 47l157 999l-172 50l20 76h524zM833 1669l-184 -317l-51 31l122 326z" />
    <glyph glyph-name="lacute" unicode="&#x13a;" horiz-adv-x="466" 
d="M170 108l165 1037l-132 21l11 76l272 25l21 -23l-179 -1140l128 -31l-18 -73h-409l18 74zM717 1689l-183 -318l-52 32l123 326z" />
    <glyph glyph-name="Lcommaaccent" unicode="&#x13b;" horiz-adv-x="1075" 
d="M793 1246l-16 -76l-172 -47l-162 -1027h421l164 248l81 -13l-87 -331h-938l13 74l167 47l157 999l-172 50l20 76h524zM414 -361q54 15 88.5 46.5t34.5 61.5q0 27 -15.5 42.5t-44.5 15.5q-4 0 -16 -4q-5 17 -5 32q0 31 27.5 54.5t56.5 23.5q86 0 86 -110q0 -48 -42 -105
q-23 -31 -65.5 -56.5t-97.5 -39.5z" />
    <glyph glyph-name="lcommaaccent" unicode="&#x13c;" horiz-adv-x="466" 
d="M170 108l165 1037l-132 21l11 76l272 25l21 -23l-179 -1140l128 -31l-18 -73h-409l18 74zM95 -361q54 15 88.5 46.5t34.5 61.5q0 27 -15.5 42.5t-44.5 15.5q-4 0 -17 -4q-5 17 -5 32q0 31 28 54.5t57 23.5q86 0 86 -110q0 -48 -42 -105q-23 -31 -66 -56.5t-97 -39.5z" />
    <glyph glyph-name="Lcaron" unicode="&#x13d;" horiz-adv-x="1079" 
d="M782 821q93 24 151.5 77t58.5 106q0 45 -26 71.5t-75 26.5q-5 0 -30 -7q-7 31 -7 55q0 54 47.5 94t96.5 40q58 0 100 -36q48 -43 48 -151q0 -69 -46 -142q-56 -91 -165 -150q-65 -34 -142 -54zM793 1246l-16 -76l-172 -47l-162 -1027h421l164 248l81 -13l-87 -331h-938
l13 74l167 47l157 999l-172 50l20 76h524z" />
    <glyph glyph-name="lcaron" unicode="&#x13e;" horiz-adv-x="614" 
d="M510 821q93 24 151.5 77t58.5 106q0 45 -26 71.5t-74 26.5q-5 0 -30 -7q-7 31 -7 55q0 54 47 94t96 40q58 0 100 -36q48 -43 48 -151q0 -69 -45 -142q-56 -91 -166 -150q-65 -34 -141 -54zM170 108l165 1037l-132 21l11 76l272 25l21 -23l-179 -1140l128 -31l-18 -73
h-409l18 74z" />
    <glyph glyph-name="Lslash" unicode="&#x141;" horiz-adv-x="1076" 
d="M793 1246l-16 -76l-172 -47l-57 -360l219 79l19 -100l-256 -93l-87 -553h421l164 248l81 -13l-87 -331h-938l13 74l167 47l72 459l-149 -54l-19 99l186 67l67 428l-172 50l20 76h524z" />
    <glyph glyph-name="lslash" unicode="&#x142;" horiz-adv-x="604" 
d="M251 108l68 428l-199 -65l-16 105l234 75l79 494l-132 21l11 76l271 25l22 -23l-84 -539l182 59l15 -105l-216 -69l-76 -486l128 -31l-19 -73h-408l18 74z" />
    <glyph glyph-name="Nacute" unicode="&#x143;" horiz-adv-x="1359" 
d="M993 -30l-476 993l-134 -849l172 -33l-18 -81h-453l14 74l166 47l157 999l-165 50l16 76h334l460 -973l134 855l-170 42l18 76h453l-18 -76l-165 -38l-179 -1132zM1142 1669l-183 -317l-52 31l123 326z" />
    <glyph glyph-name="nacute" unicode="&#x144;" horiz-adv-x="927" 
d="M799 104l124 -28l-21 -73h-267l-11 12l82 511q12 84 12 113q0 58 -20 81.5t-63 23.5q-101 0 -183 -79l-90 -559l123 -32l-18 -74h-404l21 74l121 34l96 635l-131 21l14 83l278 25l21 -23l-35 -126h12q52 69 134.5 120.5t153.5 51.5t105.5 -40t34.5 -132q0 -45 -10 -109z
M883 1315l-183 -317l-52 31l123 326z" />
    <glyph glyph-name="Ncommaaccent" unicode="&#x145;" horiz-adv-x="1359" 
d="M993 -30l-476 993l-134 -849l172 -33l-18 -81h-453l14 74l166 47l157 999l-165 50l16 76h334l460 -973l134 855l-170 42l18 76h453l-18 -76l-165 -38l-179 -1132zM557 -361q54 15 88 46.5t34 61.5q0 27 -15.5 42.5t-43.5 15.5q-4 0 -17 -4q-6 20 -6 32q0 31 28 54.5
t57 23.5q40 0 63 -26t23 -84q0 -48 -42 -105q-23 -31 -65.5 -56.5t-97.5 -39.5z" />
    <glyph glyph-name="ncommaaccent" unicode="&#x146;" horiz-adv-x="927" 
d="M799 104l124 -28l-21 -73h-267l-11 12l82 511q12 84 12 113q0 58 -20 81.5t-63 23.5q-101 0 -183 -79l-90 -559l123 -32l-18 -74h-404l21 74l121 34l96 635l-131 21l14 83l278 25l21 -23l-35 -126h12q52 69 134.5 120.5t153.5 51.5t105.5 -40t34.5 -132q0 -45 -10 -109z
M349 -361q54 15 88 46.5t34 61.5q0 27 -15 42.5t-44 15.5q-4 0 -17 -4q-5 17 -5 32q0 31 28 54.5t57 23.5q86 0 86 -110q0 -48 -42 -105q-49 -67 -163 -96z" />
    <glyph glyph-name="Ncaron" unicode="&#x147;" horiz-adv-x="1359" 
d="M993 -30l-476 993l-134 -849l172 -33l-18 -81h-453l14 74l166 47l157 999l-165 50l16 76h334l460 -973l134 855l-170 42l18 76h453l-18 -76l-165 -38l-179 -1132zM861 1360l-180 165l81 61l149 -143h10l124 140l43 -30l-172 -180z" />
    <glyph glyph-name="ncaron" unicode="&#x148;" horiz-adv-x="927" 
d="M799 104l124 -28l-21 -73h-267l-11 12l82 511q12 84 12 113q0 58 -20 81.5t-63 23.5q-101 0 -183 -79l-90 -559l123 -32l-18 -74h-404l21 74l121 34l96 635l-131 21l14 83l278 25l21 -23l-35 -126h12q52 69 134.5 120.5t153.5 51.5t105.5 -40t34.5 -132q0 -45 -10 -109z
M602 1006l-180 165l81 61l149 -143h10l124 140l43 -30l-172 -180z" />
    <glyph glyph-name="Eng" unicode="&#x14a;" horiz-adv-x="1784" 
d="M1048 1246h453l-18 -76l-165 -38l-165 -1046q-12 -76 -44 -149t-73 -126q-36 -46 -83.5 -88t-88.5 -69q-40 -25 -75 -41l-50 79q179 130 237 314l-459 957l-134 -849l172 -33l-18 -81h-453l14 74l166 47l157 999l-165 50l16 76h334l460 -973l134 855l-170 42z" />
    <glyph glyph-name="eng" unicode="&#x14b;" horiz-adv-x="861" 
d="M448 723h12q52 69 134.5 120.5t153.5 51.5t105.5 -40t34.5 -132q0 -45 -10 -109l-86 -528q-12 -77 -44 -149.5t-72 -125.5q-36 -46 -84 -88t-89 -69q-40 -25 -75 -41l-49 79q222 162 258 407l69 427q12 69 12 113q0 58 -20 81.5t-63 23.5q-101 0 -183 -79l-90 -559
l123 -32l-18 -74h-404l21 74l121 34l96 635l-131 21l14 83l278 25l21 -23z" />
    <glyph glyph-name="Omacron" unicode="&#x14c;" horiz-adv-x="1341" 
d="M1079 1031q-36 69 -97 108t-138 39q-79 0 -147.5 -23t-115.5 -63q-89 -75 -135 -207q-39 -112 -48 -245q-4 -60 -4 -112q0 -184 70 -311q36 -65 96 -101.5t138 -36.5q159 0 261 86q89 74 137 205q39 110 50 238q4 60 4 107q-1 180 -71 316zM1247 1115q117 -154 116 -385
q0 -249 -127 -439q-134 -201 -354 -277q-116 -41 -248 -40q-137 0 -243 69.5t-161 191.5q-55 121 -55 271q0 162 53 304.5t149 245.5q97 103 234 161t294 58q108 0 196 -42t146 -118zM700 1486h441l-13 -101h-441z" />
    <glyph glyph-name="omacron" unicode="&#x14d;" horiz-adv-x="842" 
d="M655 310q30 114 30 240q0 125 -36.5 196t-100.5 71q-59 0 -106.5 -41t-76.5 -113q-59 -146 -59 -340q0 -155 60 -234q31 -41 72 -41q69 0 127.5 72.5t89.5 189.5zM728 151q-60 -81 -145 -129t-178 -48q-89 0 -154 46.5t-97 127.5q-31 80 -32 181q0 103 35.5 206t97.5 183
q62 81 150.5 129t185.5 48q132 0 197.5 -92t65.5 -267q0 -103 -33.5 -204t-92.5 -181zM367 1128h442l-13 -101h-442z" />
    <glyph glyph-name="Ohungarumlaut" unicode="&#x150;" horiz-adv-x="1341" 
d="M1079 1031q-36 69 -97 108t-138 39q-79 0 -147.5 -23t-115.5 -63q-89 -75 -135 -207q-39 -112 -48 -245q-4 -60 -4 -112q0 -184 70 -311q36 -65 96 -101.5t138 -36.5q159 0 261 86q89 74 137 205q39 110 50 238q4 60 4 107q-1 180 -71 316zM1247 1115q117 -154 116 -385
q0 -249 -127 -439q-134 -201 -354 -277q-116 -41 -248 -40q-137 0 -243 69.5t-161 191.5q-55 121 -55 271q0 162 53 304.5t149 245.5q97 103 234 161t294 58q108 0 196 -42t146 -118zM1318 1532l-291 -167l-28 49l247 201zM1117 1537l-301 -172l-29 49l255 209z" />
    <glyph glyph-name="ohungarumlaut" unicode="&#x151;" horiz-adv-x="842" 
d="M655 310q30 114 30 240q0 125 -36.5 196t-100.5 71q-59 0 -106.5 -41t-76.5 -113q-59 -146 -59 -340q0 -155 60 -234q31 -41 72 -41q69 0 127.5 72.5t89.5 189.5zM728 151q-60 -81 -145 -129t-178 -48q-89 0 -154 46.5t-97 127.5q-31 80 -32 181q0 103 35.5 206t97.5 183
q62 81 150.5 129t185.5 48q132 0 197.5 -92t65.5 -267q0 -103 -33.5 -204t-92.5 -181zM986 1175l-291 -168l-28 50l246 200zM784 1180l-301 -173l-28 50l255 209z" />
    <glyph glyph-name="OE" unicode="&#x152;" horiz-adv-x="1620" 
d="M810 93l169 1048q-60 37 -136 37q-79 0 -147.5 -23t-115.5 -63q-89 -75 -135 -207q-39 -112 -48 -245q-4 -60 -4 -112q0 -184 70 -311q36 -65 96.5 -101.5t137.5 -36.5q58 1 113 14zM1711 1246l-80 -320l-81 14l-5 215h-380l-74 -477h206l61 119l91 14l-92 -389l-85 -13
l-5 175h-191l-78 -488h403l131 230l78 -12l-80 -314h-694q-98 -26 -203 -26q-137 0 -243 69.5t-161 191.5q-55 121 -54 271q0 162 52.5 304.5t148.5 245.5q97 103 234 161t294 58q89 0 166 -29h641z" />
    <glyph glyph-name="oe" unicode="&#x153;" horiz-adv-x="1576" 
d="M1234 458l-409 -18q-7 -43 -7 -91q0 -131 60 -189q57 -57 146 -57q36 0 103 26.5t86 47.5l26 -45q-41 -63 -129.5 -112.5t-179.5 -49.5q-74 0 -129.5 28t-85.5 78q-13 23 -19 36q-60 -65 -135 -101.5t-156 -36.5q-89 0 -154 46.5t-97 127.5q-31 80 -32 181
q0 103 35.5 206t97.5 183q62 81 150.5 129t185.5 48q163 0 225 -138q22 26 56 54q101 81 221 81q94 0 141.5 -61.5t47.5 -175.5q0 -107 -48 -197zM1108 534q22 45 22 119q-4 146 -96 146q-58 0 -113 -70t-85 -216zM655 310q30 114 30 240q0 125 -36.5 196t-100.5 71
q-59 0 -106.5 -41t-76.5 -113q-59 -146 -59 -340q0 -155 60 -234q31 -41 72 -41q69 0 127.5 72.5t89.5 189.5z" />
    <glyph glyph-name="Racute" unicode="&#x154;" horiz-adv-x="1167" 
d="M1098 1138q56 -65 57 -159q0 -117 -87 -220q-89 -103 -244 -158v-2l132 -250q35 -65 65 -117q23 -41 59 -81q23 -28 70 -53q24 -13 44 -20l29 -10l-25 -68q-63 -22 -119 -22q-101 0 -172 69.5t-123 205.5l-109 285h-165l-65 -412l174 -43l-19 -83h-522l16 74l168 47
l155 982l-161 30l24 76q287 46 443 47q271 -1 375 -118zM523 629h159q104 0 185 87t81 210q0 111 -59 178t-163 67q-26 0 -102 -3l-15 -2zM1042 1669l-183 -317l-52 31l123 326z" />
    <glyph glyph-name="racute" unicode="&#x155;" horiz-adv-x="621" 
d="M203 108l100 635l-133 21l12 83l275 25l21 -23l-46 -191h15q79 235 188 235q32 0 55 -24t23 -58q0 -40 -16.5 -79t-38.5 -50q-20 12 -35 14t-52 2q-30 0 -69 -39.5t-65 -89.5l-80 -463l174 -32l-18 -74h-450l21 74zM792 1315l-183 -317l-52 31l123 326z" />
    <glyph glyph-name="Rcommaaccent" unicode="&#x156;" horiz-adv-x="1167" 
d="M1098 1138q56 -65 57 -159q0 -117 -87 -220q-89 -103 -244 -158v-2l132 -250q35 -65 65 -117q23 -41 59 -81q23 -28 70 -53q24 -13 44 -20l29 -10l-25 -68q-63 -22 -119 -22q-101 0 -172 69.5t-123 205.5l-109 285h-165l-65 -412l174 -43l-19 -83h-522l16 74l168 47
l155 982l-161 30l24 76q287 46 443 47q271 -1 375 -118zM523 629h159q104 0 185 87t81 210q0 111 -59 178t-163 67q-26 0 -102 -3l-15 -2z" />
    <glyph glyph-name="rcommaaccent" unicode="&#x157;" horiz-adv-x="621" 
d="M203 108l100 635l-133 21l12 83l275 25l21 -23l-46 -191h15q79 235 188 235q32 0 55 -24t23 -58q0 -40 -16.5 -79t-38.5 -50q-20 12 -35 14t-52 2q-30 0 -69 -39.5t-65 -89.5l-80 -463l174 -32l-18 -74h-450l21 74zM225 -361q54 15 88 46.5t34 61.5q0 27 -15 42.5
t-44 15.5q-4 0 -17 -4q-5 17 -5 32q0 31 28 54.5t57 23.5q86 0 86 -110q0 -48 -42 -105q-23 -31 -66 -56.5t-97 -39.5z" />
    <glyph glyph-name="Rcaron" unicode="&#x158;" horiz-adv-x="1167" 
d="M1098 1138q56 -65 57 -159q0 -117 -87 -220q-89 -103 -244 -158v-2l132 -250q35 -65 65 -117q23 -41 59 -81q23 -28 70 -53q24 -13 44 -20l29 -10l-25 -68q-63 -22 -119 -22q-101 0 -172 69.5t-123 205.5l-109 285h-165l-65 -412l174 -43l-19 -83h-522l16 74l168 47
l155 982l-161 30l24 76q287 46 443 47q271 -1 375 -118zM523 629h159q104 0 185 87t81 210q0 111 -59 178t-163 67q-26 0 -102 -3l-15 -2zM761 1360l-180 165l81 61l149 -143h10l124 140l43 -30l-172 -180z" />
    <glyph glyph-name="rcaron" unicode="&#x159;" horiz-adv-x="621" 
d="M203 108l100 635l-133 21l12 83l275 25l21 -23l-46 -191h15q79 235 188 235q32 0 55 -24t23 -58q0 -40 -16.5 -79t-38.5 -50q-20 12 -35 14t-52 2q-30 0 -69 -39.5t-65 -89.5l-80 -463l174 -32l-18 -74h-450l21 74zM511 1006l-180 165l81 61l149 -143h10l124 140l43 -30
l-172 -180z" />
    <glyph glyph-name="Sacute" unicode="&#x15a;" horiz-adv-x="913" 
d="M875 888l-94 12l5 192q-7 31 -51 62.5t-95 31.5q-89 0 -148 -64t-59 -169q0 -93 93 -170q45 -37 90 -66q141 -93 190 -138q92 -84 92 -195q0 -89 -41.5 -168t-112.5 -132q-149 -109 -335 -109q-100 0 -184 42.5t-114 104.5l56 268l94 -14l5 -189q21 -51 67.5 -80
t114.5 -29q73 0 140 30q74 34 105 104q17 40 17 85q0 77 -71 141q-64 56 -156 115q-90 57 -155 127q-71 75 -72 175q0 150 92 258q88 103 214 141q60 18 125 18q78 0 145 -24.5t108 -76.5zM968 1672l-184 -317l-51 31l122 326z" />
    <glyph glyph-name="sacute" unicode="&#x15b;" horiz-adv-x="650" 
d="M680 764q0 -66 -33.5 -104t-95.5 -45l-3 24q-15 189 -100 188q-55 0 -88.5 -33.5t-33.5 -95.5q0 -94 107 -185q6 -5 25 -21t27 -23t24.5 -21.5t25.5 -24t21.5 -22.5t22.5 -26.5t19 -26.5q31 -50 31 -103q0 -100 -76 -174q-74 -69 -163 -93q-45 -12 -84 -13
q-102 0 -163.5 45t-61.5 112q0 50 33 85t89 41q47 -194 143 -193q55 0 97 35t42 92q0 60 -108 143q-81 64 -111 95q-32 35 -54 74q-31 56 -32 121q0 53 25 105.5t68 94.5q43 41 103 64.5t124 23.5q83 0 131.5 -36t48.5 -103zM759 1315l-183 -317l-52 31l123 326z" />
    <glyph glyph-name="Scedilla" unicode="&#x15e;" horiz-adv-x="916" 
d="M469 -76q89 -78 89 -151q0 -103 -200 -163l-20 59q41 14 63.5 36.5t22.5 46.5q0 41 -72 111l77 112h-20q-100 0 -184 42.5t-113 104.5l56 268l94 -14l5 -189q21 -51 67.5 -80t114.5 -29q73 0 140 30q74 34 105 104q17 40 17 85q0 77 -71 141q-64 56 -156 115
q-90 57 -156 127q-71 75 -71 175q0 150 92 258q88 103 213 141q60 18 125 18q78 0 145.5 -24.5t107.5 -76.5l-64 -283l-94 12l5 192q-7 31 -51.5 62.5t-94.5 31.5q-89 0 -148 -64t-59 -169q0 -93 93 -170q45 -37 90 -66q141 -93 190 -138q92 -84 92 -195q0 -79 -31.5 -149
t-86.5 -120q-111 -103 -271 -132z" />
    <glyph glyph-name="scedilla" unicode="&#x15f;" horiz-adv-x="654" 
d="M372 -76q89 -78 90 -151q0 -103 -201 -163l-19 59q41 14 63.5 36.5t22.5 46.5q0 41 -73 111l71 102h-18q-102 0 -163.5 45t-61.5 112q0 50 33 85t89 41q47 -194 142 -193q55 0 97 35t42 92q0 60 -107 143q-81 64 -112 95q-32 35 -54 74q-31 56 -31 121q0 53 25 105.5
t68 94.5q43 41 103 64.5t123 23.5q83 0 132 -36t49 -103q0 -66 -33.5 -104t-95.5 -45l-4 24q-15 189 -99 188q-55 0 -88.5 -33.5t-33.5 -95.5q0 -94 107 -185q6 -5 25 -21t27 -23t24.5 -21.5t25.5 -24t21.5 -22.5t22.5 -26.5t19 -26.5q31 -50 31 -103q0 -89 -61 -158
t-156 -102z" />
    <glyph glyph-name="Scaron" unicode="&#x160;" horiz-adv-x="913" 
d="M875 888l-94 12l5 192q-7 31 -51 62.5t-95 31.5q-89 0 -148 -64t-59 -169q0 -94 93 -171q43 -35 90 -67q7 -5 32 -21.5t35.5 -23.5t31.5 -22t33.5 -24.5t28.5 -22.5t29 -24q92 -84 92 -193q0 -89 -41.5 -168t-112.5 -132q-149 -109 -335 -109q-100 0 -184 42.5
t-114 104.5l56 268l94 -14l5 -189q21 -51 67.5 -80t114.5 -29q73 0 140 30q74 34 105 104q17 40 17 85q0 77 -71 141q-64 56 -156 115q-90 57 -155 127q-71 75 -72 175q0 150 92 258q88 103 214 141q60 18 125 18q78 0 145 -24.5t108 -76.5zM687 1363l-181 166l81 61
l149 -144h10l124 140l43 -29l-172 -181z" />
    <glyph glyph-name="scaron" unicode="&#x161;" horiz-adv-x="650" 
d="M680 764q0 -66 -33.5 -104t-95.5 -45l-3 24q-15 189 -100 188q-55 0 -88.5 -33.5t-33.5 -95.5q0 -94 107 -185q6 -5 25 -21t27 -23t24.5 -21.5t25.5 -24t21.5 -22.5t22.5 -26.5t19 -26.5q31 -50 31 -103q0 -100 -76 -174q-74 -69 -163 -93q-45 -12 -84 -13
q-102 0 -163.5 45t-61.5 112q0 50 33 85t89 41q47 -194 143 -193q55 0 97 35t42 92q0 60 -108 143q-81 64 -111 95q-32 35 -54 74q-31 56 -32 121q0 53 25 105.5t68 94.5q43 41 103 64.5t124 23.5q83 0 131.5 -36t48.5 -103zM478 1006l-180 165l81 61l149 -143h10l124 140
l43 -30l-172 -180z" />
    <glyph glyph-name="Tcedilla" unicode="&#x162;" horiz-adv-x="1112" 
d="M571 -76q89 -79 89 -151q0 -103 -200 -163l-20 59q41 14 63.5 36.5t22.5 46.5q0 41 -73 111l96 137h-255l17 74l167 47l164 1034h-281l-90 -243l-86 13l43 321h1061l-85 -338l-89 15v232h-290l-165 -1041l170 -33l-19 -81h-187z" />
    <glyph glyph-name="tcedilla" unicode="&#x163;" horiz-adv-x="569" 
d="M360 -76q89 -78 89 -151q0 -103 -200 -163l-20 59q41 14 63.5 36.5t22.5 46.5q0 41 -73 111l81 115q-69 2 -106.5 46t-37.5 128q0 53 10 108l83 518h-111l10 47q64 45 119 104t124 153h65l-35 -209h215l-20 -95h-215l-68 -431q-13 -88 -13 -114q0 -50 15.5 -81t47.5 -31
q76 0 156 33l13 -51q-69 -79 -169 -111z" />
    <glyph glyph-name="Tcaron" unicode="&#x164;" horiz-adv-x="1112" 
d="M228 1246h1061l-85 -338l-89 15v232h-290l-165 -1041l170 -33l-19 -81h-517l17 74l167 47l164 1034h-281l-90 -243l-86 13zM756 1360l-180 165l81 61l149 -143h10l124 140l43 -30l-172 -180z" />
    <glyph glyph-name="tcaron" unicode="&#x165;" horiz-adv-x="564" 
d="M552 1027q93 24 152 77.5t59 106.5q0 45 -26 71.5t-75 26.5q-5 0 -30 -7q-7 31 -7 55q0 54 47.5 94t95.5 40q58 0 100 -36q49 -43 48 -151q0 -69 -45 -143q-56 -91 -165 -149q-65 -34 -142 -54zM476 1082l-34 -209h215l-20 -95h-215l-68 -431q-13 -88 -13 -114
q0 -50 15 -81t48 -31q76 0 155 33l13 -51q-48 -53 -115 -89t-131 -36q-72 0 -110.5 44.5t-38.5 129.5q0 53 10 108l83 518h-111l10 47q64 45 118.5 104t124.5 153h64z" />
    <glyph glyph-name="Tbar" unicode="&#x166;" horiz-adv-x="1112" 
d="M228 1246h1061l-85 -338l-89 15v232h-290l-165 -1041l170 -33l-19 -81h-517l17 74l167 47l164 1034h-281l-90 -243l-86 13zM534 1481h442l-13 -100h-442z" />
    <glyph glyph-name="tbar" unicode="&#x167;" horiz-adv-x="564" 
d="M476 1082l-34 -209h215l-20 -95h-215l-20 -129h210l-21 -83h-202l-35 -219q-13 -88 -13 -114q0 -50 15 -81t48 -31q76 0 155 33l13 -51q-48 -53 -115 -89t-131 -36q-72 0 -110.5 44.5t-38.5 129.5q0 53 10 108l49 306h-103l21 83h95l21 129h-111l10 47q64 45 118.5 104
t124.5 153h64z" />
    <glyph glyph-name="Umacron" unicode="&#x16a;" 
d="M471 495q-10 -62 -10 -111q0 -146 72.5 -218.5t206.5 -72.5q117 0 195 49q68 42 111 121q33 62 53 147q6 26 14 71l102 647l-165 42l15 76h456l-16 -76l-168 -38l-104 -632q-89 -526 -574 -526q-115 0 -203 41q-56 26 -93.5 66.5t-61.5 105.5q-26 67 -26 157q0 56 10 126
l105 658l-171 42l18 76h517l-15 -76l-169 -38zM711 1481h441l-13 -100h-442z" />
    <glyph glyph-name="umacron" unicode="&#x16b;" horiz-adv-x="906" 
d="M893 84l-18 -69q-69 -30 -140 -30q-60 0 -90 28t-30 86q0 17 2 32h-10q-31 -56 -105 -103.5t-158 -47.5q-154 0 -154 184q0 41 9 101l72 483l-130 23l10 74l282 25l20 -23l-79 -471q-16 -97 -16 -153t18.5 -81t61.5 -25q98 0 181 83l82 548l-134 23l10 74l287 25l19 -23
l-76 -476q-23 -150 -23 -201q0 -39 9.5 -54.5t33.5 -19.5zM337 1128h442l-13 -101h-442z" />
    <glyph glyph-name="Uring" unicode="&#x16e;" 
d="M471 495q-10 -62 -10 -111q0 -146 72.5 -218.5t206.5 -72.5q117 0 195 49q68 42 111 121q33 62 53 147q6 26 14 71l102 647l-165 42l15 76h456l-16 -76l-168 -38l-104 -632q-89 -526 -574 -526q-115 0 -203 41q-56 26 -93.5 66.5t-61.5 105.5q-26 67 -26 157q0 56 10 126
l105 658l-171 42l18 76h517l-15 -76l-169 -38zM835 1542q0 -53 26 -91t70 -38q41 0 63.5 29.5t22.5 84.5q0 54 -26.5 90.5t-69.5 36.5q-41 0 -63.5 -31.5t-22.5 -80.5zM1088 1540q0 -73 -48 -124t-121 -51q-70 0 -113 44.5t-43 120.5q0 70 50 121t119 51q71 0 113.5 -44.5
t42.5 -117.5z" />
    <glyph glyph-name="uring" unicode="&#x16f;" horiz-adv-x="906" 
d="M893 84l-18 -69q-69 -30 -140 -30q-60 0 -90 28t-30 86q0 17 2 32h-10q-31 -56 -105 -103.5t-158 -47.5q-154 0 -154 184q0 41 9 101l72 483l-130 23l10 74l282 25l20 -23l-79 -471q-16 -97 -16 -153t18.5 -81t61.5 -25q98 0 181 83l82 548l-134 23l10 74l287 25l19 -23
l-76 -476q-23 -150 -23 -201q0 -39 9.5 -54.5t33.5 -19.5zM462 1188q0 -53 26 -90.5t69 -37.5q41 0 64 29t23 84q0 54 -26.5 90.5t-69.5 36.5q-41 0 -63.5 -31.5t-22.5 -80.5zM715 1186q0 -73 -48 -124t-121 -51q-70 0 -113 44.5t-43 120.5q0 70 50 121t119 51
q71 0 113.5 -44.5t42.5 -117.5z" />
    <glyph glyph-name="Uhungarumlaut" unicode="&#x170;" 
d="M471 495q-10 -62 -10 -111q0 -146 72.5 -218.5t206.5 -72.5q117 0 195 49q68 42 111 121q33 62 53 147q6 26 14 71l102 647l-165 42l15 76h456l-16 -76l-168 -38l-104 -632q-89 -526 -574 -526q-115 0 -203 41q-56 26 -93.5 66.5t-61.5 105.5q-26 67 -26 157q0 56 10 126
l105 658l-171 42l18 76h517l-15 -76l-169 -38zM1329 1529l-291 -168l-28 50l246 200zM1127 1534l-301 -173l-28 50l255 209z" />
    <glyph glyph-name="uhungarumlaut" unicode="&#x171;" horiz-adv-x="906" 
d="M893 84l-18 -69q-69 -30 -140 -30q-60 0 -90 28t-30 86q0 17 2 32h-10q-31 -56 -105 -103.5t-158 -47.5q-154 0 -154 184q0 41 9 101l72 483l-130 23l10 74l282 25l20 -23l-79 -471q-16 -97 -16 -153t18.5 -81t61.5 -25q98 0 181 83l82 548l-134 23l10 74l287 25l19 -23
l-76 -476q-23 -150 -23 -201q0 -39 9.5 -54.5t33.5 -19.5zM956 1175l-291 -168l-28 50l246 200zM754 1180l-301 -173l-28 50l255 209z" />
    <glyph glyph-name="Uogonek" unicode="&#x172;" horiz-adv-x="1365" 
d="M792 -136q0 -115 124 -187l-35 -51q-105 11 -171.5 61.5t-66.5 117.5q0 41 20 79t76 93q-36 -3 -80 -3q-115 0 -203 41q-56 26 -93.5 66.5t-61.5 105.5q-26 67 -26 157q0 56 10 126l105 658l-171 42l18 76h517l-15 -76l-169 -38l-99 -637q-10 -63 -10 -111
q0 -146 72.5 -218.5t206.5 -72.5q117 0 195 49q68 42 111 121q33 62 53 147q3 13 14 71l102 647l-165 42l15 76h456l-16 -76l-168 -38l-104 -632q-69 -421 -393 -505q-48 -81 -48 -131z" />
    <glyph glyph-name="uogonek" unicode="&#x173;" horiz-adv-x="905" 
d="M868 0q-56 -53 -56 -130q0 -57 30 -106q30 -50 94 -87l-34 -51q-105 11 -172 61.5t-67 117.5q0 42 23 83.5t83 98.5q-15 -2 -34 -2q-60 0 -90 28t-30 86q0 17 2 32h-10q-31 -56 -105 -103.5t-158 -47.5q-154 0 -154 184q0 41 9 101l72 483l-130 23l10 74l282 25l20 -23
l-79 -471q-16 -97 -16 -153t18.5 -81t61.5 -25q98 0 181 83l82 548l-134 23l10 74l287 25l19 -23l-76 -476q-23 -150 -23 -201q0 -39 9.5 -54.5t33.5 -19.5l66 -12z" />
    <glyph glyph-name="Wcircumflex" unicode="&#x174;" horiz-adv-x="1692" 
d="M1095 -25l-89 978l-430 -948l-151 -30l-134 1153l-124 42l15 76h485l-20 -76l-167 -38l97 -859l422 923l166 25l81 -933l380 840l-164 42l17 76h428l-16 -76l-124 -38l-526 -1127zM1121 1583l178 -186l-49 -36l-164 110h-10l-141 -111l-38 30l169 180z" />
    <glyph glyph-name="wcircumflex" unicode="&#x175;" horiz-adv-x="1168" 
d="M659 811l134 18l60 -482l5 -132l230 558l-121 31l16 71h326l-19 -74l-96 -33l-338 -780l-106 -18l-79 634l-260 -616l-116 -18l-76 803l-97 31l18 71h354l-18 -74l-121 -33l49 -406l9 -135zM773 1211l178 -186l-49 -36l-164 109h-10l-141 -110l-38 29l169 181z" />
    <glyph glyph-name="Ycircumflex" unicode="&#x176;" horiz-adv-x="1057" 
d="M706 529l-66 -415l154 -33l-18 -81h-485l17 74l150 47l61 385l-241 622l-122 42l19 76h478l-18 -76l-157 -38l192 -493l328 489l-166 42l15 76h423l-14 -76l-126 -38zM786 1583l178 -186l-49 -36l-164 110h-10l-140 -111l-39 30l169 180z" />
    <glyph glyph-name="ycircumflex" unicode="&#x177;" horiz-adv-x="832" 
d="M467 225l281 546l-123 33l20 71h334l-20 -74l-95 -32l-429 -822q-96 -184 -176 -255.5t-185 -71.5q-65 0 -97.5 30t-32.5 82q0 71 71 127q68 -55 142 -54q49 0 86 29.5t83 115.5l18 35l-127 788l-95 31l17 71h385l-18 -69l-124 -40zM605 1211l178 -186l-49 -36l-164 109
h-10l-141 -110l-38 29l169 181z" />
    <glyph glyph-name="Ydieresis" unicode="&#x178;" horiz-adv-x="1057" 
d="M706 529l-66 -415l154 -33l-18 -81h-485l17 74l150 47l61 385l-241 622l-122 42l19 76h478l-18 -76l-157 -38l192 -493l328 489l-166 42l15 76h423l-14 -76l-126 -38zM983 1467q0 -35 -26 -58t-61 -23t-60 23.5t-25 57.5t25.5 56t59.5 22q36 0 61.5 -22.5t25.5 -55.5z
M714 1467q0 -35 -25.5 -58t-60.5 -23t-60 23.5t-25 57.5t25.5 56t59.5 22q36 0 61 -22.5t25 -55.5z" />
    <glyph glyph-name="Zacute" unicode="&#x179;" horiz-adv-x="1095" 
d="M291 1246h917l-12 -76l-898 -1069h534l142 250l91 -15l-82 -336h-897l7 104l876 1047h-537l-91 -246l-88 18zM1007 1669l-183 -317l-51 31l122 326z" />
    <glyph glyph-name="zacute" unicode="&#x17a;" horiz-adv-x="746" 
d="M179 634l48 241h579l-10 -68l-551 -719h303l115 163l63 -8l-79 -243h-579l8 79l543 712h-286l-88 -169zM769 1315l-183 -317l-52 31l123 326z" />
    <glyph glyph-name="Zdotaccent" unicode="&#x17b;" horiz-adv-x="1095" 
d="M291 1246h917l-12 -76l-898 -1069h534l142 250l91 -15l-82 -336h-897l7 104l876 1047h-537l-91 -246l-88 18zM870 1481q0 -50 -36.5 -86.5t-86 -36.5t-84 36t-34.5 87q0 47 35.5 80.5t83.5 33.5q50 0 86 -33.5t36 -80.5z" />
    <glyph glyph-name="zdotaccent" unicode="&#x17c;" horiz-adv-x="746" 
d="M179 634l48 241h579l-10 -68l-551 -719h303l115 163l63 -8l-79 -243h-579l8 79l543 712h-286l-88 -169zM632 1127q0 -50 -36.5 -86.5t-86 -36.5t-84.5 36.5t-35 87.5q0 46 36 79.5t84 33.5q50 0 86 -33.5t36 -80.5z" />
    <glyph glyph-name="Zcaron" unicode="&#x17d;" horiz-adv-x="1095" 
d="M291 1246h917l-12 -76l-898 -1069h534l142 250l91 -15l-82 -336h-897l7 104l876 1047h-537l-91 -246l-88 18zM726 1360l-180 165l81 61l149 -143h10l124 140l43 -30l-171 -180z" />
    <glyph glyph-name="zcaron" unicode="&#x17e;" horiz-adv-x="746" 
d="M179 634l48 241h579l-10 -68l-551 -719h303l115 163l63 -8l-79 -243h-579l8 79l543 712h-286l-88 -169zM488 1006l-180 165l81 61l149 -143h10l124 140l43 -30l-172 -180z" />
    <glyph glyph-name="Acaron" unicode="&#x1cd;" horiz-adv-x="1159" 
d="M874 1270l189 -1146l124 -43l-18 -81h-485l20 74l172 55l-56 304h-401l-153 -309l170 -43l-22 -81h-446l18 74l149 55l592 1110zM471 534h335l-79 502zM799 1360l-180 165l81 61l149 -143h10l124 140l43 -30l-172 -180z" />
    <glyph glyph-name="acaron" unicode="&#x1ce;" horiz-adv-x="855" 
d="M846 84l-20 -69q-69 -30 -140 -30q-53 0 -86 25t-33 73v11l3 38h-12q-38 -68 -102 -111t-134 -43q-93 0 -147.5 79t-54.5 218q0 112 31.5 212t85.5 174q108 147 256 201q71 25 138 25q130 0 185 -35l17 -18l-71 -455q-26 -175 -27 -217q0 -34 9.5 -48t33.5 -18zM661 748
q-37 35 -119 34q-74 0 -136 -69t-93 -178q-31 -103 -31 -214q0 -215 121 -215q50 0 88.5 23t83.5 73zM620 988l-181 165l81 61l149 -144h10l124 141l43 -30l-172 -180z" />
    <glyph glyph-name="Icaron" unicode="&#x1cf;" horiz-adv-x="670" 
d="M596 0h-513l15 74l165 47l159 1007l-167 42l16 76h520l-17 -76l-169 -38l-160 -1018l170 -33zM536 1360l-180 165l81 61l149 -143h10l124 140l43 -30l-172 -180z" />
    <glyph glyph-name="icaron" unicode="&#x1d0;" horiz-adv-x="497" 
d="M202 106l101 642l-131 21l10 76l275 25l19 -23l-115 -744l125 -32l-16 -71h-409l18 73zM391 988l-180 165l81 61l149 -144h10l124 141l43 -30l-172 -180z" />
    <glyph glyph-name="Ocaron" unicode="&#x1d1;" horiz-adv-x="1341" 
d="M1079 1031q-36 69 -97 108t-138 39q-79 0 -147.5 -23t-115.5 -63q-89 -75 -135 -207q-39 -112 -48 -245q-4 -60 -4 -112q0 -184 70 -311q36 -65 96 -101.5t138 -36.5q159 0 261 86q89 74 137 205q39 110 50 238q4 60 4 107q-1 180 -71 316zM1247 1115q117 -154 116 -385
q0 -249 -127 -439q-134 -201 -354 -277q-116 -41 -248 -40q-137 0 -243 69.5t-161 191.5q-55 121 -55 271q0 162 53 304.5t149 245.5q97 103 234 161t294 58q108 0 196 -42t146 -118zM896 1360l-181 165l82 61l148 -143h10l124 140l43 -30l-172 -180z" />
    <glyph glyph-name="ocaron" unicode="&#x1d2;" horiz-adv-x="842" 
d="M655 310q30 114 30 240q0 125 -36.5 196t-100.5 71q-59 0 -106.5 -41t-76.5 -113q-59 -146 -59 -340q0 -155 60 -234q31 -41 72 -41q69 0 127.5 72.5t89.5 189.5zM728 151q-60 -81 -145 -129t-178 -48q-89 0 -154 46.5t-97 127.5q-31 80 -32 181q0 103 35.5 206t97.5 183
q62 81 150.5 129t185.5 48q132 0 197.5 -92t65.5 -267q0 -103 -33.5 -204t-92.5 -181zM622 988l-180 165l81 61l149 -144h10l124 141l43 -30l-172 -180z" />
    <glyph glyph-name="Ucaron" unicode="&#x1d3;" 
d="M471 495q-10 -62 -10 -111q0 -146 72.5 -218.5t206.5 -72.5q117 0 195 49q68 42 111 121q33 62 53 147q6 26 14 71l102 647l-165 42l15 76h456l-16 -76l-168 -38l-104 -632q-89 -526 -574 -526q-115 0 -203 41q-56 26 -93.5 66.5t-61.5 105.5q-26 67 -26 157q0 56 10 126
l105 658l-171 42l18 76h517l-15 -76l-169 -38zM931 1360l-180 165l81 61l149 -143h10l124 140l43 -30l-172 -180z" />
    <glyph glyph-name="ucaron" unicode="&#x1d4;" horiz-adv-x="906" 
d="M893 84l-18 -69q-69 -30 -140 -30q-60 0 -90 28t-30 86q0 17 2 32h-10q-31 -56 -105 -103.5t-158 -47.5q-154 0 -154 184q0 41 9 101l72 483l-130 23l10 74l282 25l20 -23l-79 -471q-16 -97 -16 -153t18.5 -81t61.5 -25q98 0 181 83l82 548l-134 23l10 74l287 25l19 -23
l-76 -476q-23 -150 -23 -201q0 -39 9.5 -54.5t33.5 -19.5zM560 988l-180 165l81 61l149 -144h10l124 141l43 -30l-172 -180z" />
    <glyph glyph-name="Udieresismacron" unicode="&#x1d5;" 
d="M763 1706h442l-13 -101h-442zM471 495q-10 -62 -10 -111q0 -146 72.5 -218.5t206.5 -72.5q117 0 195 49q68 42 111 121q33 62 53 147q6 26 14 71l102 647l-165 42l15 76h456l-16 -76l-168 -38l-104 -632q-89 -526 -574 -526q-115 0 -203 41q-56 26 -93.5 66.5
t-61.5 105.5q-26 67 -26 157q0 56 10 126l105 658l-171 42l18 76h517l-15 -76l-169 -38zM1175 1467q0 -35 -26.5 -58t-61.5 -23t-60 23.5t-25 57.5t25.5 56t59.5 22q36 0 62 -22.5t26 -55.5zM905 1467q0 -35 -25.5 -58t-60.5 -23t-59.5 23.5t-24.5 57.5t25 56t59 22
q36 0 61 -22.5t25 -55.5z" />
    <glyph glyph-name="udieresismacron" unicode="&#x1d6;" horiz-adv-x="906" 
d="M410 1343h442l-13 -100h-442zM893 84l-18 -69q-69 -30 -140 -30q-60 0 -90 28t-30 86q0 17 2 32h-10q-31 -56 -105 -103.5t-158 -47.5q-154 0 -154 184q0 41 9 101l72 483l-130 23l10 74l282 25l20 -23l-79 -471q-16 -97 -16 -153t18.5 -81t61.5 -25q98 0 181 83l82 548
l-134 23l10 74l287 25l19 -23l-76 -476q-23 -150 -23 -201q0 -39 9.5 -54.5t33.5 -19.5zM803 1095q0 -35 -26 -58t-62 -23q-35 0 -59.5 23t-24.5 58q0 34 25.5 56t58.5 22q36 0 62 -22.5t26 -55.5zM534 1095q0 -35 -25.5 -58t-61.5 -23q-35 0 -59.5 23t-24.5 58
q0 34 25.5 56t58.5 22q36 0 61.5 -22.5t25.5 -55.5z" />
    <glyph glyph-name="Udieresisacute" unicode="&#x1d7;" 
d="M1173 1888l-184 -318l-51 31l122 326zM471 495q-10 -62 -10 -111q0 -146 72.5 -218.5t206.5 -72.5q117 0 195 49q68 42 111 121q33 62 53 147q6 26 14 71l102 647l-165 42l15 76h456l-16 -76l-168 -38l-104 -632q-89 -526 -574 -526q-115 0 -203 41q-56 26 -93.5 66.5
t-61.5 105.5q-26 67 -26 157q0 56 10 126l105 658l-171 42l18 76h517l-15 -76l-169 -38zM1175 1467q0 -35 -26.5 -58t-61.5 -23t-60 23.5t-25 57.5t25.5 56t59.5 22q36 0 62 -22.5t26 -55.5zM905 1467q0 -35 -25.5 -58t-60.5 -23t-59.5 23.5t-24.5 57.5t25 56t59 22
q36 0 61 -22.5t25 -55.5z" />
    <glyph glyph-name="udieresisacute" unicode="&#x1d8;" horiz-adv-x="906" 
d="M797 1533l-184 -318l-51 32l122 325zM893 84l-18 -69q-69 -30 -140 -30q-60 0 -90 28t-30 86q0 17 2 32h-10q-31 -56 -105 -103.5t-158 -47.5q-154 0 -154 184q0 41 9 101l72 483l-130 23l10 74l282 25l20 -23l-79 -471q-16 -97 -16 -153t18.5 -81t61.5 -25q98 0 181 83
l82 548l-134 23l10 74l287 25l19 -23l-76 -476q-23 -150 -23 -201q0 -39 9.5 -54.5t33.5 -19.5zM803 1095q0 -35 -26 -58t-62 -23q-35 0 -59.5 23t-24.5 58q0 34 25.5 56t58.5 22q36 0 62 -22.5t26 -55.5zM534 1095q0 -35 -25.5 -58t-61.5 -23q-35 0 -59.5 23t-24.5 58
q0 34 25.5 56t58.5 22q36 0 61.5 -22.5t25.5 -55.5z" />
    <glyph glyph-name="Udieresiscaron" unicode="&#x1d9;" 
d="M948 1590l-180 165l81 61l149 -144h9l125 141l43 -30l-173 -180zM471 495q-10 -62 -10 -111q0 -146 72.5 -218.5t206.5 -72.5q117 0 195 49q68 42 111 121q33 62 53 147q6 26 14 71l102 647l-165 42l15 76h456l-16 -76l-168 -38l-104 -632q-89 -526 -574 -526
q-115 0 -203 41q-56 26 -93.5 66.5t-61.5 105.5q-26 67 -26 157q0 56 10 126l105 658l-171 42l18 76h517l-15 -76l-169 -38zM1175 1467q0 -35 -26.5 -58t-61.5 -23t-60 23.5t-25 57.5t25.5 56t59.5 22q36 0 62 -22.5t26 -55.5zM905 1467q0 -35 -25.5 -58t-60.5 -23
t-59.5 23.5t-24.5 57.5t25 56t59 22q36 0 61 -22.5t25 -55.5z" />
    <glyph glyph-name="udieresiscaron" unicode="&#x1da;" horiz-adv-x="906" 
d="M577 1189l-181 166l81 61l149 -144h10l124 141l43 -30l-172 -180zM893 84l-18 -69q-69 -30 -140 -30q-60 0 -90 28t-30 86q0 17 2 32h-10q-31 -56 -105 -103.5t-158 -47.5q-154 0 -154 184q0 41 9 101l72 483l-130 23l10 74l282 25l20 -23l-79 -471q-16 -97 -16 -153
t18.5 -81t61.5 -25q98 0 181 83l82 548l-134 23l10 74l287 25l19 -23l-76 -476q-23 -150 -23 -201q0 -39 9.5 -54.5t33.5 -19.5zM803 1095q0 -35 -26 -58t-62 -23q-35 0 -59.5 23t-24.5 58q0 34 25.5 56t58.5 22q36 0 62 -22.5t26 -55.5zM534 1095q0 -35 -25.5 -58
t-61.5 -23q-35 0 -59.5 23t-24.5 58q0 34 25.5 56t58.5 22q36 0 61.5 -22.5t25.5 -55.5z" />
    <glyph glyph-name="Udieresisgrave" unicode="&#x1db;" 
d="M731 1888l116 38l132 -334l-58 -34zM1175 1467q0 -35 -26.5 -58t-61.5 -23t-60 23.5t-25 57.5t25.5 56t59.5 22q36 0 62 -22.5t26 -55.5zM905 1467q0 -35 -25.5 -58t-60.5 -23t-59.5 23.5t-24.5 57.5t25 56t59 22q36 0 61 -22.5t25 -55.5zM471 495q-10 -62 -10 -111
q0 -146 72.5 -218.5t206.5 -72.5q117 0 195 49q68 42 111 121q33 62 53 147q6 26 14 71l102 647l-165 42l15 76h456l-16 -76l-168 -38l-104 -632q-89 -526 -574 -526q-115 0 -203 41q-56 26 -93.5 66.5t-61.5 105.5q-26 67 -26 157q0 56 10 126l105 658l-171 42l18 76h517
l-15 -76l-169 -38z" />
    <glyph glyph-name="udieresisgrave" unicode="&#x1dc;" horiz-adv-x="906" 
d="M376 1521l116 38l132 -334l-57 -35zM893 84l-18 -69q-69 -30 -140 -30q-60 0 -90 28t-30 86q0 17 2 32h-10q-31 -56 -105 -103.5t-158 -47.5q-154 0 -154 184q0 41 9 101l72 483l-130 23l10 74l282 25l20 -23l-79 -471q-16 -97 -16 -153t18.5 -81t61.5 -25q98 0 181 83
l82 548l-134 23l10 74l287 25l19 -23l-76 -476q-23 -150 -23 -201q0 -39 9.5 -54.5t33.5 -19.5zM803 1095q0 -35 -26 -58t-62 -23q-35 0 -59.5 23t-24.5 58q0 34 25.5 56t58.5 22q36 0 62 -22.5t26 -55.5zM534 1095q0 -35 -25.5 -58t-61.5 -23q-35 0 -59.5 23t-24.5 58
q0 34 25.5 56t58.5 22q36 0 61.5 -22.5t25.5 -55.5z" />
    <glyph glyph-name="Scommaaccent" unicode="&#x218;" horiz-adv-x="913" 
d="M875 888l-94 12l5 192q-7 31 -51 62.5t-95 31.5q-89 0 -148 -64t-59 -169q0 -93 93 -170q45 -37 90 -66q141 -93 190 -138q92 -84 92 -195q0 -89 -41.5 -168t-112.5 -132q-149 -109 -335 -109q-100 0 -184 42.5t-114 104.5l56 268l94 -14l5 -189q21 -51 67.5 -80
t114.5 -29q73 0 140 30q74 34 105 104q17 40 17 85q0 77 -71 141q-64 56 -156 115q-90 57 -155 127q-71 75 -72 175q0 150 92 258q88 103 214 141q60 18 125 18q78 0 145 -24.5t108 -76.5zM352 -361q54 15 88 46.5t34 61.5q0 27 -15.5 42.5t-44.5 15.5q-4 0 -16 -4
q-5 17 -5 32q0 31 27.5 54.5t56.5 23.5q86 0 86 -110q0 -48 -42 -105q-23 -31 -65.5 -56.5t-97.5 -39.5z" />
    <glyph glyph-name="scommaaccent" unicode="&#x219;" horiz-adv-x="650" 
d="M680 764q0 -66 -33.5 -104t-95.5 -45l-3 24q-15 189 -100 188q-55 0 -88.5 -33.5t-33.5 -95.5q0 -94 107 -185q6 -5 25 -21t27 -23t24.5 -21.5t25.5 -24t21.5 -22.5t22.5 -26.5t19 -26.5q31 -50 31 -103q0 -100 -76 -174q-74 -69 -163 -93q-45 -12 -84 -13
q-102 0 -163.5 45t-61.5 112q0 50 33 85t89 41q47 -194 143 -193q55 0 97 35t42 92q0 60 -108 143q-81 64 -111 95q-32 35 -54 74q-31 56 -32 121q0 53 25 105.5t68 94.5q43 41 103 64.5t124 23.5q83 0 131.5 -36t48.5 -103zM220 -361q54 15 88 46.5t34 61.5q0 27 -15 42.5
t-44 15.5q-4 0 -17 -4q-5 17 -5 32q0 31 28 54.5t57 23.5q86 0 86 -110q0 -48 -42 -105q-23 -31 -66 -56.5t-97 -39.5z" />
    <glyph glyph-name="Tcommaaccent" unicode="&#x21a;" horiz-adv-x="1112" 
d="M228 1246h1061l-85 -338l-89 15v232h-290l-165 -1041l170 -33l-19 -81h-517l17 74l167 47l164 1034h-281l-90 -243l-86 13zM451 -361q54 15 88 46.5t34 61.5q0 27 -15 42.5t-44 15.5q-4 0 -17 -4q-5 17 -5 32q0 31 28 54.5t57 23.5q86 0 86 -110q0 -48 -43 -105
q-23 -31 -65.5 -56.5t-97.5 -39.5z" />
    <glyph glyph-name="tcommaaccent" unicode="&#x21b;" horiz-adv-x="564" 
d="M476 1082l-34 -209h215l-20 -95h-215l-68 -431q-13 -88 -13 -114q0 -50 15 -81t48 -31q76 0 155 33l13 -51q-48 -53 -115 -89t-131 -36q-72 0 -110.5 44.5t-38.5 129.5q0 53 10 108l83 518h-111l10 47q64 45 118.5 104t124.5 153h64zM177 -361q54 15 88 46.5t34 61.5
q0 27 -15 42.5t-44 15.5q-4 0 -17 -4q-5 17 -5 32q0 31 28 54.5t57 23.5q86 0 86 -110q0 -48 -42 -105q-23 -31 -66 -56.5t-97 -39.5z" />
    <glyph glyph-name="dotlessj" unicode="&#x237;" horiz-adv-x="441" 
d="M-84 -308q222 162 258 407l103 650l-133 22l10 76l274 25l22 -23l-121 -763q-12 -76 -44 -149t-72 -126q-36 -46 -84 -88t-89 -69q-40 -25 -75 -41z" />
    <glyph glyph-name="circumflex" unicode="&#x2c6;" horiz-adv-x="649" 
d="M344 1583l179 -186l-50 -36l-164 110h-10l-140 -111l-38 30l168 180z" />
    <glyph glyph-name="caron" unicode="&#x2c7;" horiz-adv-x="654" 
d="M304 1360l-180 165l81 61l149 -143h10l124 140l43 -30l-172 -180z" />
    <glyph glyph-name="breve" unicode="&#x2d8;" horiz-adv-x="631" 
d="M121 1555l46 31l8 -16q18 -36 54.5 -60t81.5 -24q89 0 142 86l10 16l42 -28l-7 -20q-24 -74 -72.5 -119t-114.5 -45q-71 0 -119.5 44.5t-65.5 114.5z" />
    <glyph glyph-name="dotaccent" unicode="&#x2d9;" horiz-adv-x="488" 
d="M366 1481q0 -50 -36.5 -86.5t-86 -36.5t-84.5 36t-35 87q0 47 35.5 80.5t83.5 33.5q50 0 86.5 -33.5t36.5 -80.5z" />
    <glyph glyph-name="ring" unicode="&#x2da;" horiz-adv-x="550" 
d="M190 1542q0 -53 26 -91t70 -38q41 0 63.5 29.5t22.5 84.5q0 54 -26.5 90.5t-69.5 36.5q-41 0 -63.5 -31.5t-22.5 -80.5zM443 1540q0 -73 -48 -124t-120 -51q-70 0 -113 44.5t-43 120.5q0 70 49.5 121t119.5 51q71 0 113 -44.5t42 -117.5z" />
    <glyph glyph-name="ogonek" unicode="&#x2db;" horiz-adv-x="520" 
d="M397 -336l-35 -51q-105 11 -171.5 61.5t-66.5 117.5q0 48 29.5 94t109.5 117h71q-61 -101 -61 -152q0 -115 124 -187z" />
    <glyph glyph-name="tilde" unicode="&#x2dc;" horiz-adv-x="713" 
d="M124 1381q2 5 3 9q5 20 18 48q17 36 39 59q28 28 62 28q4 0 7 -0.5t7 -0.5l223 -30h3q11 0 25 10t23 21l9 10l48 -1q-1 -2 -2.5 -8t-2.5 -8q-13 -41 -39 -78q-37 -50 -87 -50h-12l-223 31h-3q-12 0 -27.5 -11.5t-24.5 -24.5l-8 -12z" />
    <glyph glyph-name="hungarumlaut" unicode="&#x2dd;" horiz-adv-x="778" 
d="M655 1529l-291 -168l-28 50l246 200zM453 1534l-301 -173l-28 50l255 209z" />
    <glyph glyph-name="commaaccent" unicode="&#x326;" horiz-adv-x="991" 
d="M-12 -361q54 15 88.5 46.5t34.5 61.5q0 27 -15.5 42.5t-44.5 15.5q-4 0 -16 -4q-5 17 -5 32q0 31 27.5 54.5t56.5 23.5q86 0 86 -110q0 -48 -42 -105q-23 -31 -65.5 -56.5t-97.5 -39.5z" />
    <glyph glyph-name="Wgrave" unicode="&#x1e80;" horiz-adv-x="1692" 
d="M1095 -25l-89 978l-430 -948l-151 -30l-134 1153l-124 42l15 76h485l-20 -76l-167 -38l97 -859l422 923l166 25l81 -933l380 840l-164 42l17 76h428l-16 -76l-124 -38l-526 -1127zM875 1663l116 38l132 -335l-58 -34z" />
    <glyph glyph-name="wgrave" unicode="&#x1e81;" horiz-adv-x="1168" 
d="M659 811l134 18l60 -482l5 -132l230 558l-121 31l16 71h326l-19 -74l-96 -33l-338 -780l-106 -18l-79 634l-260 -616l-116 -18l-76 803l-97 31l18 71h354l-18 -74l-121 -33l49 -406l9 -135zM527 1290l116 38l132 -334l-58 -35z" />
    <glyph glyph-name="Wacute" unicode="&#x1e82;" horiz-adv-x="1692" 
d="M1095 -25l-89 978l-430 -948l-151 -30l-134 1153l-124 42l15 76h485l-20 -76l-167 -38l97 -859l422 923l166 25l81 -933l380 840l-164 42l17 76h428l-16 -76l-124 -38l-526 -1127zM1317 1669l-184 -317l-51 31l122 326z" />
    <glyph glyph-name="wacute" unicode="&#x1e83;" horiz-adv-x="1168" 
d="M659 811l134 18l60 -482l5 -132l230 558l-121 31l16 71h326l-19 -74l-96 -33l-338 -780l-106 -18l-79 634l-260 -616l-116 -18l-76 803l-97 31l18 71h354l-18 -74l-121 -33l49 -406l9 -135zM969 1297l-184 -318l-51 32l122 326z" />
    <glyph glyph-name="Wdieresis" unicode="&#x1e84;" horiz-adv-x="1692" 
d="M1095 -25l-89 978l-430 -948l-151 -30l-134 1153l-124 42l15 76h485l-20 -76l-167 -38l97 -859l422 923l166 25l81 -933l380 840l-164 42l17 76h428l-16 -76l-124 -38l-526 -1127zM1318 1467q0 -35 -26 -58t-61 -23t-60 23.5t-25 57.5t25.5 56t59.5 22q36 0 61.5 -22.5
t25.5 -55.5zM1049 1467q0 -35 -25.5 -58t-60.5 -23t-60 23.5t-25 57.5t25.5 56t59.5 22q36 0 61 -22.5t25 -55.5z" />
    <glyph glyph-name="wdieresis" unicode="&#x1e85;" horiz-adv-x="1168" 
d="M659 811l134 18l60 -482l5 -132l230 558l-121 31l16 71h326l-19 -74l-96 -33l-338 -780l-106 -18l-79 634l-260 -616l-116 -18l-76 803l-97 31l18 71h354l-18 -74l-121 -33l49 -406l9 -135zM970 1095q0 -35 -26 -58t-61 -23t-60 23t-25 58q0 34 25.5 56t59.5 22
q36 0 61.5 -22.5t25.5 -55.5zM701 1095q0 -35 -25.5 -58t-60.5 -23t-60 23t-25 58q0 34 25.5 56t59.5 22q36 0 61 -22.5t25 -55.5z" />
    <glyph glyph-name="Germandbls" unicode="&#x1e9e;" horiz-adv-x="1330" 
d="M858 945q0 -117 91 -186q36 -29 88 -58q130 -72 187 -121q90 -80 90 -219q0 -87 -41 -161.5t-110 -123.5q-143 -101 -322 -101q-111 0 -197.5 40t-116.5 107l54 260l95 -15l6 -180q23 -46 78 -77.5t121 -31.5q105 0 170 53.5t65 153.5q0 81 -70 130q-71 50 -157 90
q-89 41 -155 110q-71 71 -71 196q0 117 93.5 227.5t208.5 136.5l2 3q-36 3 -88 3q-292 0 -355 -394l-124 -787h-369l21 74l174 47l102 643q41 254 190.5 381t388.5 127q162 0 298 -41q74 -22 116.5 -63.5t42.5 -95.5q0 -55 -39.5 -96t-107.5 -63q-9 50 -19 89t-33 77
q-20 31 -59 45q-21 7 -45 8q-71 0 -137 -58.5t-66 -128.5z" />
    <glyph glyph-name="Ygrave" unicode="&#x1ef2;" horiz-adv-x="1057" 
d="M706 529l-66 -415l154 -33l-18 -81h-485l17 74l150 47l61 385l-241 622l-122 42l19 76h478l-18 -76l-157 -38l192 -493l328 489l-166 42l15 76h423l-14 -76l-126 -38zM540 1663l116 38l132 -335l-58 -34z" />
    <glyph glyph-name="ygrave" unicode="&#x1ef3;" horiz-adv-x="832" 
d="M467 225l281 546l-123 33l20 71h334l-20 -74l-95 -32l-429 -822q-96 -184 -176 -255.5t-185 -71.5q-65 0 -97.5 30t-32.5 82q0 71 71 127q68 -55 142 -54q49 0 86 29.5t83 115.5l18 35l-127 788l-95 31l17 71h385l-18 -69l-124 -40zM359 1290l116 38l132 -334l-58 -35z
" />
    <glyph glyph-name="endash" unicode="&#x2013;" horiz-adv-x="815" 
d="M183 514l612 7l-17 -104l-612 -7z" />
    <glyph glyph-name="emdash" unicode="&#x2014;" horiz-adv-x="1326" 
d="M184 514l1121 7l-16 -104l-1122 -7z" />
    <glyph glyph-name="quoteleft" unicode="&#x2018;" horiz-adv-x="441" 
d="M573 1218q-93 -24 -151.5 -77.5t-58.5 -106.5q0 -45 26 -71.5t75 -26.5q5 0 30 7q7 -31 6 -55q0 -54 -47 -94t-95 -40q-59 0 -99 37q-50 41 -50 150q0 68 47 143q56 90 165 149q65 35 141 54z" />
    <glyph glyph-name="quoteright" unicode="&#x2019;" horiz-adv-x="448" 
d="M201 821q93 24 151.5 77t58.5 106q0 45 -26 71.5t-75 26.5q-5 0 -30 -7q-7 31 -6 55q0 54 47 94t96 40q58 0 100 -36q48 -43 48 -151q0 -69 -46 -142q-56 -91 -165 -150q-65 -34 -141 -54z" />
    <glyph glyph-name="quotesinglbase" unicode="&#x201a;" horiz-adv-x="447" 
d="M25 -245q93 24 151.5 77.5t58.5 106.5q0 45 -26 71t-75 26q-5 0 -30 -6q-7 31 -6 54q0 54 47 94t95 40q58 0 100 -35q49 -43 49 -152q0 -69 -46 -142q-56 -91 -165 -150q-65 -34 -142 -53z" />
    <glyph glyph-name="quotereversed" unicode="&#x201b;" horiz-adv-x="444" 
d="M470 759q-121 33 -185 100q-50 53 -62 125q-5 28 -5 62q0 57 23 106t59 80q72 60 133 60q45 0 75.5 -27.5t30.5 -76.5q0 -30 -26 -76q-69 -5 -117.5 -38.5t-48.5 -80.5q0 -121 158 -164z" />
    <glyph glyph-name="quotedblleft" unicode="&#x201c;" horiz-adv-x="756" 
d="M574 1221q-93 -24 -151.5 -77.5t-58.5 -106.5q0 -45 26 -71t75 -26q5 0 30 6q7 -31 6 -54q0 -54 -47 -94t-95 -40q-58 0 -99 36q-50 41 -50 151q0 68 46 143q56 90 166 149q65 35 140 53zM890 1221q-93 -24 -151.5 -77.5t-58.5 -106.5q0 -45 26 -71t75 -26q5 0 30 6
q7 -31 6 -54q0 -54 -47 -94t-95 -40q-58 0 -99 36q-50 41 -50 151q0 68 46 143q56 90 166 149q65 35 140 53z" />
    <glyph glyph-name="quotedblright" unicode="&#x201d;" horiz-adv-x="763" 
d="M518 825q93 24 151.5 77.5t58.5 106.5q0 45 -26 71.5t-75 26.5q-5 0 -30 -7q-7 31 -6 55q0 54 47 94t95 40q58 0 100 -36q49 -43 49 -151q0 -69 -46 -143q-56 -91 -165 -149q-65 -34 -142 -54zM200 825q93 24 151.5 77.5t58.5 106.5q0 45 -26 71.5t-75 26.5q-5 0 -29 -7
q-7 31 -7 55q0 54 47 94t95 40q58 0 100 -36q49 -43 49 -151q0 -69 -45 -143q-56 -91 -166 -149q-65 -34 -141 -54z" />
    <glyph glyph-name="quotedblbase" unicode="&#x201e;" horiz-adv-x="765" 
d="M342 -255q93 24 152 77.5t59 106.5q0 45 -26.5 71t-74.5 26q-5 0 -30 -6q-7 31 -7 54q0 54 47.5 94t94.5 40q58 0 101 -35q49 -43 48 -151q0 -69 -45 -143q-56 -91 -166 -149q-65 -34 -141 -54zM25 -255q93 24 151.5 77.5t58.5 106.5q0 45 -26 71t-75 26q-5 0 -30 -6
q-7 31 -6 54q0 54 47 94t95 40q58 0 100 -35q49 -43 49 -151q0 -69 -46 -143q-56 -91 -165 -149q-65 -34 -142 -54z" />
    <glyph glyph-name="dagger" unicode="&#x2020;" horiz-adv-x="829" 
d="M602 821l308 8l-27 -123l-296 12l-157 -1082l-144 13l185 1071l-306 -7l25 116l296 -8l62 436l132 -11z" />
    <glyph glyph-name="daggerdbl" unicode="&#x2021;" horiz-adv-x="873" 
d="M553 430l-38 -256l315 6l-25 -115l-305 8l-61 -437l-132 12l78 425l-290 -8l27 122l279 -12l60 325l31 220l-304 -7l25 116l294 -8l61 436l133 -11l-78 -425l306 8l-27 -123l-294 12z" />
    <glyph glyph-name="bullet" unicode="&#x2022;" horiz-adv-x="520" 
d="M376 754q67 0 108.5 -45.5t41.5 -111.5q0 -89 -57 -146t-143 -57q-59 0 -107.5 48t-48.5 106q0 88 60 147t146 59z" />
    <glyph glyph-name="ellipsis" unicode="&#x2026;" horiz-adv-x="1324" 
d="M240 213q45 0 73.5 -31.5t28.5 -75.5q0 -60 -39 -99.5t-98 -39.5q-40 0 -73 34t-33 72q0 60 40.5 100t100.5 40zM1160 213q45 0 73.5 -31.5t28.5 -75.5q0 -60 -39 -99.5t-98 -39.5q-40 0 -73 34t-33 72q0 60 40.5 100t100.5 40zM687 213q45 0 73.5 -31.5t28.5 -75.5
q0 -60 -39 -99.5t-98 -39.5q-40 0 -73 34t-33 72q0 60 40.5 100t100.5 40z" />
    <glyph glyph-name="perthousand" unicode="&#x2030;" horiz-adv-x="1720" 
d="M1437 46q59 0 99 58.5t40 137.5q0 74 -19 106t-69 32q-60 0 -98.5 -55t-38.5 -126q0 -83 18 -118t68 -35zM1546 2q-65 -39 -122 -38q-95 0 -148.5 58t-53.5 165q0 63 43.5 128t110.5 106q65 41 125 41q197 0 197 -227q0 -64 -43.5 -128t-108.5 -105zM891 48q59 0 99 58.5
t40 136.5q0 74 -18.5 106.5t-69.5 32.5q-60 0 -98.5 -56t-38.5 -129q0 -82 18 -115.5t68 -33.5zM1000 4q-65 -39 -122 -39q-97 0 -149.5 57t-52.5 163q0 63 43.5 129t110.5 108q66 41 125 41q197 0 197 -226q0 -64 -43.5 -128t-108.5 -105zM395 559q59 0 99 58.5t40 136.5
q0 74 -19 106.5t-69 32.5q-60 0 -98.5 -55t-38.5 -127q0 -83 18 -117.5t68 -34.5zM504 515q-65 -39 -123 -39q-95 0 -148.5 58.5t-53.5 165.5q0 63 44 127.5t110 106.5q65 40 126 40q197 0 197 -226q0 -64 -43.5 -128t-108.5 -105zM1018 978l111 -9l-816 -1007l-119 10z" />
    <glyph glyph-name="guilsinglleft" unicode="&#x2039;" horiz-adv-x="404" 
d="M96 470l323 352l36 -59l-213 -301l117 -321l-63 -63l-202 372z" />
    <glyph glyph-name="guilsinglright" unicode="&#x203a;" horiz-adv-x="404" 
d="M458 470l-5 -20l-321 -372l-43 63l220 321l-117 301l53 59z" />
    <glyph glyph-name="overline" unicode="&#x203e;" horiz-adv-x="650" 
d="M194 523h441l-28 -101h-442z" />
    <glyph glyph-name="fraction" unicode="&#x2044;" horiz-adv-x="1052" 
d="M971 965l82 9l-813 -996l-85 -8z" />
    <glyph glyph-name="Euro" unicode="&#x20ac;" horiz-adv-x="1205" 
d="M1056 394l90 13l-15 -296q-107 -74 -201 -105t-216 -31q-139 0 -245 54.5t-168 161.5q-64 108 -64 259q0 10 1 18t1 18h-103l35 106h78q5 31 13 70h-92l34 106h90q58 164 170 287q126 137 301 189q94 28 204 28q103 0 177 -23.5t135 -77.5l-84 -332l-84 13l-7 220
q-33 55 -79 79.5t-131 24.5q-139 0 -244.5 -107.5t-156.5 -300.5h546l-46 -106h-521v-2q-7 -56 -8 -68h503l-47 -106h-461v-1q0 -193 83.5 -297t235.5 -104q122 0 200 90z" />
    <glyph glyph-name="trademark" unicode="&#x2122;" horiz-adv-x="929" 
d="M271 1320h295l-25 -93l-28 4v61h-68l-43 -265l50 -8l-9 -26h-158l4 24l47 12l43 263h-65l-26 -65l-27 4zM725 1001l-53 246l-52 -220l48 -8l-8 -26h-132l5 24l46 12l61 256l-48 10l7 25h124l13 -51l38 -195l114 205l25 41h123l-7 -25l-46 -10l-27 -258l48 -8l-8 -26h-152
l6 24l45 12l21 228l-140 -251z" />
    <glyph glyph-name="partialdiff" unicode="&#x2202;" horiz-adv-x="898" 
d="M638 1305q266 -233 266 -627q0 -141 -28.5 -262.5t-77.5 -202.5q-47 -79 -108.5 -134.5t-126.5 -80.5q-64 -25 -127 -24q-100 0 -171 47.5t-103 130.5q-32 82 -32 192q0 107 27.5 200.5t76.5 158.5q96 132 233 176q62 21 126 21q36 0 75 -17q48 -21 59 -74h7
q-17 119 -77.5 266.5t-129.5 229.5h111zM365 678q-63 -124 -63 -311q0 -122 36 -203q41 -93 134 -93q78 0 137.5 64.5t88.5 170.5q27 103 27 227q0 122 -43 199t-117 77q-66 0 -117.5 -34.5t-82.5 -96.5z" />
    <glyph glyph-name="emptyset" unicode="&#x2205;" horiz-adv-x="1062" 
d="M328 174q78 -108 221 -108q148 0 265 113q58 55 91 145t33 199q0 67 -15 119zM283 265l595 466q-72 93 -210 93q-72 0 -142 -31.5t-127 -88.5q-60 -59 -94.5 -148t-34.5 -192q0 -49 13 -99zM69 96l105 83q-33 74 -33 175q0 95 33 186t91 162q121 147 273 202
q75 27 147 27q184 0 291 -122l106 83l43 -91l-94 -75q43 -85 43 -180q0 -117 -45 -227t-121 -188.5t-175 -123.5t-200 -45q-200 0 -308 132l-113 -89z" />
    <glyph glyph-name="product" unicode="&#x220f;" horiz-adv-x="1514" 
d="M615 0h-542l20 74l175 47l159 1007l-176 42l22 76h1370l-23 -76l-174 -38l-161 -1018l177 -33l-24 -81h-543l23 74l174 47l160 1023l-628 -3l-162 -1027l180 -33z" />
    <glyph glyph-name="summation" unicode="&#x2211;" horiz-adv-x="1180" 
d="M268 1246h991l-81 -320l-85 14l-6 215h-606l341 -473l-10 -48l-499 -472h625l134 230l79 -12l-89 -380h-993l12 74l564 533l2 12l-399 567z" />
    <glyph glyph-name="minus" unicode="&#x2212;" horiz-adv-x="894" 
d="M229 514l614 7l-33 -104l-614 -7z" />
    <glyph glyph-name="radical" unicode="&#x221a;" horiz-adv-x="955" 
d="M299 -132l-119 546l-115 28l21 76l265 15l76 -444l640 1210l121 6l-758 -1419z" />
    <glyph glyph-name="infinity" unicode="&#x221e;" horiz-adv-x="1413" 
d="M260 541q0 -74 69 -126.5t159 -52.5q74 0 147 30.5t106 72.5q-81 116 -142 181q-74 77 -147 77q-93 0 -142.5 -48.5t-49.5 -133.5zM493 875q95 0 168 -46t138 -151l10 2q143 190 324 190q122 0 201 -88.5t79 -228.5q0 -141 -100 -244.5t-239 -103.5q-172 0 -290 202h-8
q-129 -203 -309 -204q-136 0 -216.5 80t-80.5 215q0 162 93.5 269.5t229.5 107.5zM1330 526q0 79 -71 132t-166 53q-98 0 -160 -35q-44 -25 -89 -67q66 -116 152.5 -181.5t173.5 -65.5q65 0 112.5 49t47.5 115z" />
    <glyph glyph-name="integral" unicode="&#x222b;" horiz-adv-x="851" 
d="M961 1079q-33 52 -74.5 87t-80.5 35q-64 0 -104.5 -50t-62.5 -168l-139 -866q-17 -108 -56.5 -197.5t-90.5 -146.5q-47 -53 -104 -90.5t-110 -53.5q-51 -15 -96 -14q-81 0 -125.5 26t-44.5 74q0 41 33.5 76t75.5 52q33 -52 74.5 -87.5t80.5 -35.5q64 0 104 50.5t62 168.5
l139 848q30 184 115 304q82 116 175 166t168 50q83 0 128.5 -26.5t45.5 -76.5q0 -32 -38.5 -71.5t-74.5 -53.5z" />
    <glyph glyph-name="approxequal" unicode="&#x2248;" horiz-adv-x="967" 
d="M173 541q0 1 6 21q22 65 53 109q21 29 52.5 48.5t65.5 19.5h13l448 -44h4q16 0 35.5 14.5t33.5 31.5l12 15l64 -2q0 -1 -1 -5t-2 -6q-13 -40 -27 -69q-25 -50 -60 -83q-41 -41 -93 -41q-1 0 -8 2q-3 1 -7 1l-447 44h-5q-17 0 -37.5 -16t-33.5 -36l-12 -17zM173 285
q0 1 6 21q22 65 53 108q21 29 52.5 49t65.5 20h13l448 -45h4q16 0 35.5 14.5t33.5 32.5l12 15l64 -2q-1 -2 -3 -9.5t-3 -12.5q-6 -18 -22 -52t-34 -58q-22 -30 -54.5 -51t-66.5 -21q-1 0 -8 2q-3 1 -7 1l-447 44h-5q-17 0 -37.5 -16t-33.5 -36l-12 -18z" />
    <glyph glyph-name="notequal" unicode="&#x2260;" horiz-adv-x="805" 
d="M696 796l132 3l-114 -134h111l-28 -106h-184l-116 -134h286l-28 -106h-337l-162 -187l-129 -3l162 190h-149l28 106h220l114 134h-321l28 106h376z" />
    <glyph glyph-name="lessequal" unicode="&#x2264;" horiz-adv-x="763" 
d="M124 428l7 29l622 517l44 -71l-433 -448l309 -468l-74 -70zM74 -164l614 7l-33 -104l-614 -7z" />
    <glyph glyph-name="greaterequal" unicode="&#x2265;" horiz-adv-x="751" 
d="M62 -164l614 7l-33 -104l-614 -7zM762 428l-637 -511l-51 70l455 468l-292 448l68 71l460 -517z" />
    <glyph glyph-name="lozenge" unicode="&#x25ca;" horiz-adv-x="770" 
d="M784 473l-375 -337l-273 339l377 326z" />
    <glyph glyph-name="Germandbls.alt" horiz-adv-x="1311" 
d="M975 764q15 -12 117 -73q75 -45 131 -120q63 -85 63 -210q0 -110 -63 -200.5t-167 -138.5q-102 -47 -216 -47q-108 0 -195.5 43t-117.5 113l56 268l99 -15l10 -189q26 -51 75 -84t112 -33q87 0 157 54q78 60 78 166q0 74 -66 142q-49 50 -153 112l-88 51q-57 32 -80 47
l-16 50l397 445v5q-23 11 -109 21t-121 10q-79 0 -135 -23t-102 -76q-89 -103 -131 -369l-112 -713h-369l21 74l174 47l89 569q54 327 211 459q77 65 170 94t212 29q127 0 266.5 -11.5t181.5 -26.5l-10 -73z" />
    <glyph glyph-name="Germandbls.alt2" horiz-adv-x="1329" 
d="M1195 1082q-59 51 -142 51q-38 0 -84 -26.5t-80 -70.5q-35 -46 -35 -93q0 -115 91 -189q36 -31 89 -63q127 -78 185 -135q90 -89 90 -235q0 -83 -39.5 -150.5t-109.5 -110.5q-139 -85 -319 -85q-111 0 -197.5 40t-116.5 107l56 268l99 -14l10 -189q24 -49 74 -79t115 -30
q87 0 156 41q79 47 79 149q0 98 -90 162q-41 30 -87 55q-124 68 -184 120q-89 78 -89 212q0 64 25.5 125.5t69.5 108.5q89 98 204 124l2 3q-36 3 -88 3q-292 0 -355 -394l-124 -787h-369l21 74l174 47l102 643q41 254 190.5 381t388.5 127q141 0 262 -27t187 -74l-66 -283
l-96 12z" />
    <glyph glyph-name="NULL" horiz-adv-x="0" 
 />
    <glyph glyph-name="eight.osf" horiz-adv-x="828" 
d="M278 268q0 -86 39.5 -144t110.5 -58q91 0 155.5 61.5t64.5 157.5q0 71 -50 130t-168 141q-55 -38 -103.5 -125t-48.5 -163zM377 591l2 8q-127 83 -128 255q0 64 32.5 128.5t86.5 113.5q54 48 120.5 77.5t129.5 29.5q117 0 182 -57t65 -160q0 -92 -59 -183t-160 -156
l-1 -10q97 -69 133.5 -132t36.5 -161q0 -96 -63 -182t-168 -137t-217 -51q-126 0 -196 71t-70 180q0 104 72 198t202 168zM711 956q0 65 -24 113q-29 57 -106 58q-60 0 -113.5 -52.5t-53.5 -111.5q0 -89 40.5 -158t131.5 -127q55 50 90 121t35 157z" />
    <glyph glyph-name="five.osf" horiz-adv-x="693" 
d="M763 951l-52 -164l-345 -23l-80 -218q390 -69 391 -347q0 -94 -46 -187t-122 -161q-76 -69 -173.5 -109t-193.5 -40q-240 0 -240 123q0 36 36 70.5t84 43.5q24 -42 44 -68t38 -40t47 -25q28 -12 59 -13q49 0 99 27.5t88.5 72t63 106t24.5 123.5q0 106 -71 177
q-78 79 -272 103l169 511z" />
    <glyph glyph-name="four.osf" horiz-adv-x="933" 
d="M457 -304l62 393h-486l-11 75l751 824l61 -19q-25 -119 -95 -536l-36 -220h255l-37 -127h-236l-56 -354zM536 213l74 465l-411 -465h337z" />
    <glyph glyph-name="nine.osf" horiz-adv-x="788" 
d="M596 337q-44 -50 -109 -78.5t-133 -28.5q-118 0 -180 69.5t-62 196.5q0 84 35.5 167.5t96 147t140 101.5t160.5 38q71 0 128.5 -23.5t89.5 -60.5q27 -32 45.5 -78t24.5 -85q5 -36 5 -71q0 -122 -40.5 -242.5t-112.5 -223.5q-149 -211 -358 -331q-102 -60 -209 -93l-11 74
q176 71 292 180q97 93 161 222q26 53 50 119h-13zM291 528q0 -190 152 -191q52 0 103.5 24.5t80.5 63.5q38 106 38 214q0 55 -17 109q-24 74 -66 103q-26 17 -59 17q-93 0 -162.5 -99.5t-69.5 -240.5z" />
    <glyph glyph-name="one.osf" horiz-adv-x="589" 
d="M549 943l-130 -829l185 -33l-23 -81h-541l20 74l193 47l104 666l-172 2l20 78l316 76h28z" />
    <glyph glyph-name="seven.osf" horiz-adv-x="711" 
d="M500 513l193 258h-420l-66 -124l-68 13l68 263h638l-3 -96l-159 -220q-109 -151 -152 -213.5t-105 -161.5q-118 -189 -187 -373q-37 -100 -45 -156q-3 -1 -15 -2q-4 -1 -11.5 -2.5t-8.5 -1.5q-12 -2 -13 -1q-99 0 -100 99q0 55 58 154q128 211 396 564z" />
    <glyph glyph-name="six.osf" horiz-adv-x="811" 
d="M349 602q103 99 240 99q127 0 188 -81q57 -76 57 -190q0 -76 -26 -148t-70 -126q-93 -115 -218 -157q-61 -21 -121 -21q-147 0 -221.5 86t-74.5 247q0 117 41.5 237.5t115.5 224.5q151 214 359 342q101 61 202 93l26 -58q-201 -85 -333 -245q-120 -147 -175 -303h10z
M648 404q0 195 -148 195q-50 0 -100.5 -23.5t-76.5 -56.5q-36 -147 -37 -215q0 -114 35 -178.5t99 -64.5q92 0 160 101t68 242z" />
    <glyph glyph-name="three.osf" horiz-adv-x="692" 
d="M104 -148q13 -28 38 -45t58 -17q65 0 119 24t85 64q64 80 64 175q0 96 -61.5 165.5t-150.5 69.5h-16v66q48 14 122 69q100 73 146 165q26 57 26 113q0 69 -22 101t-80 32q-96 0 -158 -70q-30 -36 -56 -81l-74 27q31 85 131 168q49 41 111.5 65.5t124.5 24.5
q69 0 118.5 -28t69.5 -74q19 -45 19 -98q0 -62 -26.5 -124.5t-71.5 -111.5q-79 -88 -160 -135l-3 -12q79 -12 142.5 -85t63.5 -161q0 -75 -40 -154t-108 -142q-69 -64 -161.5 -102.5t-186.5 -38.5q-114 0 -172 37.5t-58 98.5q0 36 42.5 69t101.5 38q0 -43 23 -93z" />
    <glyph glyph-name="two.osf" horiz-adv-x="803" 
d="M718 0h-665l10 103l286 198q125 88 194 198t69 199q0 71 -29.5 105t-96.5 34q-79 0 -151 -72q-59 -59 -93 -113l-70 30q12 39 48 86.5t88 91.5q54 47 126 77.5t143 30.5q104 0 164 -61t60 -159q0 -254 -434 -541l-104 -68h372l101 139l70 -10z" />
    <glyph glyph-name="zero.osf" horiz-adv-x="988" 
d="M514 84q138 0 232 138.5t94 349.5q0 109 -41 193q-23 45 -65.5 71t-100.5 26q-90 0 -167 -61.5t-123 -172.5q-46 -112 -46 -248q0 -134 60 -215t157 -81zM907 211q-108 -156 -259 -209q-74 -28 -154 -28q-161 0 -252 80q-82 71 -109 193q-12 56 -11 117q0 127 45 242.5
t121 194.5q75 79 169.5 123.5t190.5 44.5q160 0 252 -81q80 -74 104 -191q11 -50 11 -108q0 -222 -108 -378z" />
    </font>
</defs>
</svg>
