<?xml version="1.0" standalone="no"?>
<!DOCTYPE svg PUBLIC "-//W3C//DTD SVG 1.1//EN" "http://www.w3.org/Graphics/SVG/1.1/DTD/svg11.dtd" >
<svg>
<metadata>
Created by FontForge 20120731 at Tue Jan  5 21:12:57 2016
 By ,,,
Copyright (c) 2010, 2011 Brian M Zick (http://21326.info/), with Reserved Font Name "Neuton".
</metadata>
<defs>
<font id="Neuton-Regular" horiz-adv-x="1029" >
  <font-face 
    font-family="Neuton"
    font-weight="400"
    font-stretch="normal"
    units-per-em="2048"
    panose-1="2 0 5 3 0 0 0 0 0 0"
    ascent="1638"
    descent="-410"
    x-height="873"
    cap-height="1244"
    bbox="-49 -418 1837 1866"
    underline-thickness="180"
    underline-position="-361"
    unicode-range="U+0020-F002"
  />
<missing-glyph horiz-adv-x="615" 
d="M56 0v1123h447v-1123h-447zM112 56h335v1011h-335v-1011z" />
    <glyph glyph-name=".notdef" horiz-adv-x="615" 
d="M56 0v1123h447v-1123h-447zM112 56h335v1011h-335v-1011z" />
    <glyph glyph-name=".null" horiz-adv-x="0" 
 />
    <glyph glyph-name="nonmarkingreturn" horiz-adv-x="560" 
 />
    <glyph glyph-name="space" unicode=" " horiz-adv-x="429" 
 />
    <glyph glyph-name="exclam" unicode="!" horiz-adv-x="485" 
d="M287 364v-7l-89 20v3q-53 688 -52 870v3q6 19 50.5 29.5t80.5 10.5q25 0 45 -9t20 -31q0 -214 -55 -889zM368 90q0 -53 -37 -89.5t-88.5 -36.5t-87.5 37.5t-36 90.5q0 50 36.5 84t87.5 34t88 -35t37 -85z" />
    <glyph glyph-name="quotedbl" unicode="&#x22;" horiz-adv-x="556" 
d="M290 1303l184 -17l-36 -383l-94 -11zM82 1303l184 -17l-37 -383l-93 -11z" />
    <glyph glyph-name="numbersign" unicode="#" horiz-adv-x="939" 
d="M336 364l-26 -186l-105 -8l26 194h-168l24 100h162l31 211h-161l23 101h155l30 176l102 9l-29 -185h205l27 176l102 8l-27 -184h168l-23 -101h-162l-31 -211h160l-23 -100h-155l-23 -186l-106 -8l27 194h-203zM352 464h203l33 211h-205z" />
    <glyph glyph-name="dollar" unicode="$" horiz-adv-x="863" 
d="M470 503v-418q74 17 123 68t49 134q0 67 -44 117t-128 99zM385 785v396q-65 -12 -104.5 -58t-39.5 -127q0 -67 37.5 -117t106.5 -94zM718 887l-99 11l-26 192q-12 25 -48 52t-79 37v-440q13 -7 49.5 -26.5t52 -27.5t48.5 -27.5t48.5 -31t42.5 -32.5t40.5 -37.5t31 -41
t26 -48t15 -53t6.5 -60.5q0 -139 -95.5 -238t-239.5 -129v-151l-132 -16v156q-97 5 -182 46t-133 101l14 267l102 -15l38 -188q26 -42 75 -73t109 -36v474q-41 22 -65.5 35.5t-62.5 38t-60 43.5t-49 48t-41 57.5t-24.5 65t-10.5 76.5q0 137 84.5 227.5t211.5 117.5v134
l125 16v-142q143 -10 250 -99z" />
    <glyph glyph-name="percent" unicode="%" horiz-adv-x="1142" 
d="M748 211q0 -72 29.5 -118.5t82.5 -46.5q108 0 108 167q0 75 -27.5 122t-81.5 47q-111 -1 -111 -171zM1093 211q0 -98 -71.5 -172t-161.5 -74q-99 0 -168 69.5t-69 178.5q0 99 72 174t164 75q104 0 169 -71.5t65 -179.5zM174 721q0 -72 29 -117.5t82 -45.5q108 0 108 165
q0 75 -27.5 122t-81.5 47q-110 -1 -110 -171zM518 723q0 -99 -71.5 -173.5t-161.5 -74.5q-99 0 -167.5 69.5t-68.5 180.5q0 99 71.5 173.5t163.5 74.5q105 0 169.5 -71t64.5 -179zM842 976l113 -8l-656 -1006l-121 10z" />
    <glyph glyph-name="ampersand" unicode="&#x26;" horiz-adv-x="1231" 
d="M474 773q72 49 99.5 95.5t27.5 119.5q0 91 -33 143q-36 57 -109 57q-63 0 -99 -50q-36 -52 -36 -114q0 -67 46 -136q50 -72 104 -115zM357 629l-16 2q-58 -40 -97 -100q-38 -59 -38 -138q0 -76 22 -137q21 -61 72 -107q48 -43 124 -43q43 0 91 21q44 20 76 55
q35 37 50 56q20 25 29 44zM1060 723l-216 -343q253 -274 344 -301l33 -10l-15 -69q-57 -20 -121 -20q-42 0 -82 18q-43 19 -88 55q-34 26 -86 74q-34 31 -87 91q-21 -30 -78 -102q-111 -126 -272 -136h-27q-109 0 -187 46q-81 49 -120.5 123t-39.5 164q0 229 277 389
q-54 46 -92 117q-39 74 -39 156q0 114 93 204q95 92 222 93q71 0 114 -14q56 -16 90 -42q44 -33 65 -82q23 -53 23 -123q0 -155 -229 -295v-11l231 -256l177 271l-152 42l10 75h432l-10 -75z" />
    <glyph glyph-name="quotesingle" unicode="'" horiz-adv-x="380" 
d="M99 1303l183 -17l-36 -383l-94 -11z" />
    <glyph glyph-name="parenleft" unicode="(" horiz-adv-x="475" 
d="M451 -317l-69 -58q-21 19 -36 33.5t-52 59.5t-65 88t-64 115t-59.5 146t-40 174t-16.5 205q0 108 16 207.5t39 172t58 141.5t63 111t66.5 84.5t55 57.5t40.5 35l49 -66q-31 -41 -55 -79t-54.5 -105t-50.5 -140.5t-34 -180.5t-14 -228q0 -409 223 -773z" />
    <glyph glyph-name="parenright" unicode=")" horiz-adv-x="475" 
d="M25 -317q223 364 223 773q0 122 -14 228.5t-34.5 180t-51 140.5t-54 105t-55.5 79l50 66q24 -20 40.5 -35t54.5 -57.5t66 -84.5t63.5 -111t58 -141.5t38.5 -172t16 -207.5q0 -105 -16.5 -205t-40 -174t-59 -146t-63.5 -115t-65.5 -88t-52.5 -59.5t-35 -33.5z" />
    <glyph glyph-name="asterisk" unicode="*" horiz-adv-x="838" 
d="M710 692l-119 -69l-149 247l51 51zM284 593l-102 92l190 218l64 -33zM63 965l55 126l265 -113l-11 -72zM347 1293l137 -13l-27 -287l-70 -12zM747 1123l29 -134l-283 -65l-32 65z" />
    <glyph glyph-name="plus" unicode="+" horiz-adv-x="714" 
d="M413 410l2 -236l-112 11v225h-221l12 100h209v232l108 -12l2 -220h219l-11 -100h-208z" />
    <glyph glyph-name="comma" unicode="," horiz-adv-x="364" 
d="M20 -244q92 24 137 72t45 101q0 44 -32.5 75.5t-83.5 31.5q-20 0 -30 -1q-15 39 -15 62q0 56 39.5 88.5t83.5 32.5q28 0 56.5 -12t56 -35.5t45 -65.5t17.5 -95q0 -33 -5.5 -63.5t-24 -70.5t-49 -73t-86.5 -65t-131 -51z" />
    <glyph glyph-name="hyphen" unicode="-" horiz-adv-x="569" 
d="M90 498l408 19l-11 -101l-408 -18z" />
    <glyph glyph-name="period" unicode="." horiz-adv-x="403" 
d="M202 205q49 0 84.5 -33.5t35.5 -81.5q0 -50 -35.5 -85.5t-85 -35.5t-84.5 36t-35 87q0 48 35.5 80.5t84.5 32.5z" />
    <glyph glyph-name="slash" unicode="/" horiz-adv-x="547" 
d="M439 1235l133 9l-466 -1599l-129 -9z" />
    <glyph glyph-name="zero" unicode="0" horiz-adv-x="1005" 
d="M262 583q0 -509 250 -509q128 0 182 117.5t54 394.5q0 248 -60 381.5t-180 133.5q-132 0 -189 -130.5t-57 -387.5zM920 586q0 -146 -36 -265.5t-95 -193.5t-131 -113.5t-148 -39.5q-86 0 -161.5 38t-134.5 111.5t-93.5 193t-34.5 269.5q0 136 34.5 252.5t92.5 195
t134.5 123t159.5 44.5q183 0 298 -166.5t115 -448.5z" />
    <glyph glyph-name="one" unicode="1" horiz-adv-x="1005" 
d="M598 1184v-1070l274 -32l-10 -80l-726 -2l6 74l284 47v910h-271l7 77l410 76h26z" />
    <glyph glyph-name="two" unicode="2" horiz-adv-x="1005" 
d="M859 0h-764l-6 102l236 205q63 54 103 91t92.5 94t82.5 104t52 106.5t22 118.5q0 253 -205 252q-164 0 -264 -254l-82 30q15 64 51.5 127.5t88 115.5t121.5 84.5t145 32.5q161 0 244 -89t83 -255q0 -52 -15 -104t-37 -96t-58 -92t-69 -83.5t-80 -79.5t-79.5 -71
t-80.5 -67t-70 -59l-91 -79h471l96 178l69 -10z" />
    <glyph glyph-name="three" unicode="3" horiz-adv-x="1005" 
d="M234 213q7 -40 66 -97.5t123 -57.5q72 0 121 21.5t73.5 59t33.5 75.5t9 83q0 44 -21.5 89t-59.5 82.5t-96.5 61.5t-125.5 24h-16l-10 65q16 5 35.5 14t54.5 26t66.5 41t61.5 53.5t47.5 70t17.5 82.5q0 74 -41.5 124t-131.5 50q-76 0 -122.5 -39t-77.5 -113l-74 27
q7 40 36 85t72 83.5t103.5 63.5t124.5 25q117 0 203.5 -72t86.5 -179q0 -113 -67 -190t-169 -114v-11q128 -18 205 -102.5t77 -186.5q0 -108 -61.5 -196.5t-169.5 -139.5t-238 -51q-122 0 -192 42.5t-70 96.5q0 39 33.5 68.5t92.5 35.5z" />
    <glyph glyph-name="four" unicode="4" horiz-adv-x="1005" 
d="M549 -12v369h-486l-24 74l618 763l66 -18q-10 -179 -10 -493v-204h255l-16 -125h-239v-339zM545 479v431l-337 -431h337z" />
    <glyph glyph-name="five" unicode="5" horiz-adv-x="1005" 
d="M266 43q209 20 325.5 95t116.5 184q0 153 -111 237t-354 100l127 511l444 28l-24 -158l-367 -19l-53 -218q248 -15 385 -127.5t137 -288.5q0 -79 -35.5 -151t-106.5 -133.5t-191 -101.5t-275 -50z" />
    <glyph glyph-name="six" unicode="6" horiz-adv-x="1005" 
d="M313 609h11q35 41 104.5 70t146.5 29q94 0 169 -51t114.5 -131.5t39.5 -171.5q0 -100 -54 -187t-146.5 -137.5t-199.5 -50.5q-99 0 -174 35.5t-119.5 98t-66.5 140.5t-22 168q0 163 86 329.5t225.5 289.5t295.5 174l37 -58q-184 -85 -299.5 -235.5t-147.5 -311.5zM505 61
q114 0 162.5 70.5t48.5 195.5q0 52 -14 101t-39.5 89.5t-67.5 64.5t-93 24q-53 0 -113 -25.5t-79 -53.5q-7 -66 -7 -121q0 -86 24.5 -164t71.5 -129.5t106 -51.5z" />
    <glyph glyph-name="seven" unicode="7" horiz-adv-x="1005" 
d="M768 1031h-514l-51 -138l-69 13l25 277h772v-54l-429 -1162l-94 30z" />
    <glyph glyph-name="eight" unicode="8" horiz-adv-x="1005" 
d="M429 555q-3 -3 -19 -17t-20.5 -18.5t-19 -18t-19 -20.5t-16 -21.5t-15.5 -25t-11.5 -26.5t-10.5 -31t-5.5 -34t-2.5 -40q0 -89 67.5 -163t147.5 -74q111 0 163 49t52 151q0 31 -18 63.5t-41.5 58t-68 59t-75.5 53.5t-88 55zM126 280q0 166 244 310v8q-32 19 -63 45
t-63.5 61.5t-52 81.5t-19.5 94q0 63 26.5 121.5t72 102t109.5 70.5t135 27q139 0 225 -79.5t86 -195.5q0 -90 -54 -170t-138 -110l-3 -10q116 -72 181.5 -156t65.5 -172q0 -69 -28.5 -129.5t-81 -106.5t-132.5 -72t-177 -26q-142 0 -237.5 83t-95.5 223zM565 677
q60 35 87.5 81.5t27.5 131.5q0 104 -55 169t-136 65q-80 0 -124 -51t-44 -118q0 -76 63.5 -143.5t180.5 -134.5z" />
    <glyph glyph-name="nine" unicode="9" horiz-adv-x="1005" 
d="M700 575h-13q-35 -49 -108.5 -78.5t-142.5 -29.5q-142 0 -229.5 97.5t-87.5 238.5q0 81 34.5 157.5t90 131t126.5 87t142 32.5q76 0 139.5 -24.5t107.5 -66t74.5 -98.5t44.5 -122t14 -137q0 -199 -74.5 -366.5t-215 -279t-325.5 -143.5l-23 74q120 35 204.5 87.5
t134 121.5t74.5 145t33 173zM505 1129q-109 0 -163.5 -73.5t-54.5 -209.5q0 -109 60 -190t161 -81q54 0 113.5 25t81.5 62q10 55 10 144q0 81 -27.5 155.5t-76 121t-104.5 46.5z" />
    <glyph glyph-name="colon" unicode=":" horiz-adv-x="403" 
d="M206.5 852q46.5 0 79.5 -31t33 -76q0 -48 -33 -82t-80 -34t-79.5 34.5t-32.5 83.5q0 45 33 75t79.5 30zM206.5 225q46.5 0 79.5 -31.5t33 -75.5q0 -48 -33 -82t-80 -34t-79.5 34.5t-32.5 82.5q0 44 33 75t79.5 31z" />
    <glyph glyph-name="semicolon" unicode=";" horiz-adv-x="403" 
d="M195 852q48 0 82 -31.5t34 -77.5q0 -49 -34 -83t-82 -34t-81 35t-33 83q0 46 33.5 77t80.5 31zM31 -230q86 22 128 67t42 94q0 40 -30 69.5t-78 29.5q-19 0 -28 -1q-14 37 -14 58q0 52 36.5 82t77.5 30q58 0 110.5 -49.5t52.5 -143.5q0 -30 -5 -58.5t-22 -66t-45.5 -68
t-80.5 -60t-122 -47.5z" />
    <glyph glyph-name="less" unicode="&#x3c;" horiz-adv-x="683" 
d="M28 428l2 28l539 517l57 -72l-362 -447l382 -467l-63 -69z" />
    <glyph glyph-name="equal" unicode="=" horiz-adv-x="793" 
d="M94 424h614l-11 -105h-615zM97 664h614l-11 -106h-614z" />
    <glyph glyph-name="greater" unicode="&#x3e;" horiz-adv-x="683" 
d="M651 428l-556 -510l-62 69l382 467l-362 447l56 72l540 -517z" />
    <glyph glyph-name="question" unicode="?" horiz-adv-x="600" 
d="M28 1152q0 22 9 44t29.5 43.5t61.5 35t97 13.5q58 0 119 -31.5t111 -86.5t81.5 -136.5t31.5 -173.5q0 -49 -16 -86.5t-41 -61.5t-56 -43t-61.5 -34.5t-55.5 -32t-41.5 -40.5t-16.5 -54q0 -53 22 -125l-74 -16q-27 40 -52 102t-25 116q0 45 16.5 78.5t44 54t60 36.5t65 31
t60 33t44 49t16.5 72q0 65 -57 119.5t-106 54.5q-58 0 -109.5 -18.5t-82.5 -52.5q-28 12 -51 42t-23 68zM388 90q0 -53 -37 -89.5t-88.5 -36.5t-87.5 37.5t-36 90.5q0 50 36.5 84t86.5 34q51 0 88.5 -35t37.5 -85z" />
    <glyph glyph-name="at" unicode="@" horiz-adv-x="1360" 
d="M795 692q-46 12 -88 11q-55 0 -99.5 -52t-67 -128t-22.5 -155q0 -106 21.5 -147t63.5 -41q74 0 139 74zM753 955q-120 0 -222.5 -50t-171.5 -134t-108.5 -193t-39.5 -228q0 -224 137.5 -355t381.5 -131q95 0 194.5 37t147.5 71l10 8l36 -62l-8 -5q-39 -27 -72 -46
t-87 -44t-119.5 -38t-138.5 -13q-95 0 -183.5 18t-172 60.5t-145 104.5t-99 157t-37.5 212q0 148 54.5 280t150 229t233.5 154t296 57q141 0 258.5 -55.5t189 -160.5t71.5 -238q0 -100 -35.5 -195.5t-97.5 -167t-151 -115t-189 -43.5q-39 0 -68 24.5t-29 61.5l1 32h-9
q-35 -51 -85.5 -89.5t-101.5 -38.5q-81 0 -130.5 71t-49.5 196q0 102 38 192t97 147.5t128 91t133 33.5q92 0 164 -17l4 -2l18 -19l-41 -367q-13 -118 -13 -156q0 -34 5.5 -47t18.5 -13q74 0 134 52.5t93 139t33 188.5q0 127 -56.5 220t-152 139.5t-214.5 46.5z" />
    <glyph glyph-name="A" unicode="A" horiz-adv-x="1278" 
d="M750 1268l389 -1144l138 -43l-9 -81h-515l12 74l171 55l-109 304h-419l-113 -309l187 -43l-12 -81h-468l10 74l148 55l438 1108zM446 534h352l-167 500z" />
    <glyph glyph-name="B" unicode="B" horiz-adv-x="1127" 
d="M616 605h-223v-510h220q123 0 193.5 74t70.5 178q0 48 -16.5 93t-48 82t-82.5 60t-114 23zM763 680v-8q74 -4 134.5 -31.5t98 -69t57.5 -91t20 -100.5q0 -59 -16.5 -112t-55.5 -103t-98.5 -85.5t-152.5 -57.5t-210 -22h-517l10 74l169 47v984l-172 29l9 77q313 46 493 46
q112 0 198.5 -24t137.5 -65t76.5 -92t25.5 -110q0 -41 -11 -80.5t-33.5 -79t-64 -72.5t-98.5 -54zM393 1165v-477h258q131 55 130 222q0 39 -8.5 74.5t-30.5 70.5t-56 60t-89 40.5t-125 15.5q-44 1 -79 -6z" />
    <glyph glyph-name="C" unicode="C" horiz-adv-x="1111" 
d="M264 659q0 -130 37.5 -236t101 -173t144.5 -103t171 -36q95 0 187 42.5t162 107.5l36 -76q-68 -82 -193 -146t-269 -64q-117 0 -222.5 41t-188.5 116t-132 194t-49 264q0 65 11.5 130.5t37 133t61.5 128t89 113.5t117 92t148.5 61t179.5 22q229 0 362 -100l-31 -333
l-88 13l-41 220q-81 104 -259 105q-160 0 -266 -140t-106 -376z" />
    <glyph glyph-name="D" unicode="D" horiz-adv-x="1324" 
d="M395 1151v-1047h145q129 0 231 39.5t165 107.5t95 156.5t32 190.5q0 93 -21 175.5t-65 153t-108.5 121.5t-154.5 79.5t-197 28.5q-81 0 -122 -5zM1275 654q0 -104 -29.5 -199.5t-92 -178.5t-151.5 -144t-215 -96.5t-275 -35.5h-494l13 74l172 55v974l-172 30l8 76
q310 49 515 49q118 0 216.5 -17t172 -48t131 -75.5t95 -96t61.5 -113t34.5 -124t10.5 -130.5z" />
    <glyph glyph-name="E" unicode="E" horiz-adv-x="1074" 
d="M35 1244h996l-32 -320l-86 14l-41 214h-472v-475h290l43 119l94 13l-32 -388l-87 -13l-33 175h-275v-488h497l97 231l83 -13l-30 -313h-1016l8 74l167 47v1005l-181 42z" />
    <glyph glyph-name="F" unicode="F" horiz-adv-x="1028" 
d="M35 1244h994l-41 -321l-88 13l-35 216h-465v-482h287l43 121l89 13l-26 -391l-88 -15l-31 180h-274l-2 -455l238 -39l-13 -84h-592l8 74l167 47v1005l-181 42z" />
    <glyph glyph-name="G" unicode="G" horiz-adv-x="1276" 
d="M1129 1163l-24 -322l-88 14l-36 192q-43 43 -130.5 78.5t-193.5 35.5q-61 0 -116.5 -17.5t-106 -58t-88 -98.5t-59 -145.5t-21.5 -194.5q0 -113 33 -214.5t94 -181t156.5 -127t210.5 -47.5q101 0 173 42v315l-236 38l11 83h557l-12 -75l-124 -41v-360q-98 -58 -214 -84
t-268 -26q-118 0 -216.5 30.5t-168.5 85.5t-118.5 131.5t-71.5 167.5t-23 194q0 155 56 286.5t148.5 216.5t210 132t243.5 47q260 0 422 -97z" />
    <glyph glyph-name="H" unicode="H" horiz-adv-x="1416" 
d="M573 0h-542l8 74l167 47v1005l-181 42l10 76h545l-10 -76l-169 -39v-437h628v434l-183 42l11 76h545l-11 -76l-167 -39v-1015l182 -33l-10 -81h-544l12 74l165 47v470l-628 -1v-476l185 -33z" />
    <glyph glyph-name="I" unicode="I" horiz-adv-x="600" 
d="M572 0h-541l8 74l167 47v1005l-181 42l10 76h545l-10 -76l-170 -39v-1015l182 -33z" />
    <glyph glyph-name="J" unicode="J" horiz-adv-x="592" 
d="M23 -326l-54 88q122 115 179 217t57 218l1 929l-181 42l10 76h545l-10 -76l-170 -39l-2 -744q-1 -125 -13 -214.5t-36 -157.5t-71.5 -126t-104.5 -105t-150 -108z" />
    <glyph glyph-name="K" unicode="K" horiz-adv-x="1214" 
d="M18 1168l13 76h551l-10 -76l-172 -47v-997l190 -43l-12 -81h-553l10 74l171 55v989zM424 626q24 24 77.5 83.5t75.5 88.5l245 323l-155 47l8 76h493l-12 -76l-176 -47l-374 -467l228 -269q57 -67 84 -98t66.5 -72.5t66 -62t61.5 -39.5t72 -31l38 -11l-11 -69
q-64 -23 -131 -23q-60 0 -116 21t-106 62t-92 87.5t-89 111.5l-251 344z" />
    <glyph glyph-name="L" unicode="L" horiz-adv-x="1065" 
d="M588 1244l-10 -76l-172 -47v-1026h443l131 249l85 -13l-38 -331h-989l8 74l167 47v997l-188 50l13 76h550z" />
    <glyph glyph-name="M" unicode="M" horiz-adv-x="1663" 
d="M728 31l-343 935l-64 -852l184 -33l-13 -81h-480l11 74l167 47l72 1005l-183 42l11 76h400l80 -194l261 -742l310 775l70 161h395l-10 -76l-169 -39l53 -1015l181 -33l-9 -81h-536l12 74l165 47l-56 883l-382 -953z" />
    <glyph glyph-name="N" unicode="N" horiz-adv-x="1337" 
d="M998 -30l-664 991v-847l183 -33l-10 -81h-476l8 74l167 47v997l-181 50l10 76h352l642 -972v854l-185 42l11 76h476l-13 -76l-167 -39v-1127z" />
    <glyph glyph-name="O" unicode="O" horiz-adv-x="1322" 
d="M647 1176q-375 0 -375 -499q0 -90 14 -174.5t45.5 -162.5t77 -135.5t114 -91.5t152.5 -34q88 0 155.5 29t108.5 75t66.5 112t35 133t9.5 145q0 88 -14 172t-45.5 163t-77 138t-114.5 94.5t-152 35.5zM1273 619q0 -131 -43 -246.5t-123.5 -205t-205 -141.5t-275.5 -52
q-169 0 -301.5 86t-204 232.5t-71.5 326.5q0 192 78 340t225 231t343 83q106 0 198.5 -34t161.5 -95t118.5 -143t74.5 -179.5t25 -202.5z" />
    <glyph glyph-name="P" unicode="P" horiz-adv-x="1008" 
d="M1017 892q0 -86 -37.5 -162t-101 -127t-147.5 -80.5t-174 -29.5q-37 0 -100 4l-18 83l53 2q161 5 240 72t79 201q0 66 -17.5 122t-54.5 101t-99.5 70t-144.5 25l-102 -7v-1043l236 -39l-13 -84h-593l10 74l169 47v984l-172 29l9 77q290 44 478 44q500 1 500 -363z" />
    <glyph glyph-name="Q" unicode="Q" horiz-adv-x="1334" 
d="M665 1168q-189 0 -295 -128t-106 -360q0 -77 13.5 -154t48.5 -158.5t88 -144.5t140 -106.5t196 -49.5q98 25 166.5 73.5t106 116.5t54 142t16.5 164q0 111 -30.5 218.5t-84 194t-136 139.5t-177.5 53zM703 -21q-15 -5 -64 -5q-169 0 -301.5 83t-204.5 227t-72 324
q0 192 82 343t232.5 236.5t345.5 85.5q174 0 307 -88.5t202.5 -234t69.5 -321.5q0 -148 -56 -278.5t-166.5 -225.5t-258.5 -132q24 -55 53 -93t77.5 -73t123 -60t179.5 -43q0 -48 -10 -74q-73 -35 -177 -35q-92 0 -170 43t-130.5 127t-61.5 194z" />
    <glyph glyph-name="R" unicode="R" horiz-adv-x="1213" 
d="M998 943q0 -102 -75.5 -198.5t-211.5 -144.5v-2l181 -249q39 -53 55 -75t44.5 -58t45 -51t42 -35.5t50 -32t55.5 -20.5l33 -10l-15 -69q-57 -20 -120 -19q-111 0 -197 72t-159 202l-159 284h-174v-411l189 -44l-10 -82h-549l10 74l169 47v980l-172 30l9 76q294 46 458 46
q115 0 204 -16t157 -51.5t104 -96t36 -146.5zM591 628q84 28 142 94t58 165q0 126 -74 204.5t-204 78.5q-31 0 -61 -1.5t-44 -2.5l-15 -1v-537h198z" />
    <glyph glyph-name="S" unicode="S" horiz-adv-x="863" 
d="M718 887l-99 11l-26 192q-16 32 -64.5 63t-104.5 31q-81 0 -132 -47.5t-51 -140.5q0 -46 20 -85t54 -68.5t78 -56.5t92 -52t96.5 -51.5t92.5 -59t77.5 -69.5t54 -88.5t20.5 -111.5q0 -84 -37.5 -156t-99 -120t-142 -75.5t-165.5 -27.5q-104 0 -195.5 42.5t-142.5 105.5
l14 267l102 -15l38 -188q29 -46 84.5 -78t122.5 -32q42 0 82 12.5t76 36.5t57.5 66t21.5 95t-31.5 97t-82 76.5t-111.5 65t-122 69t-112 79t-82.5 105t-31.5 137.5q0 109 57 191t144 122.5t187 40.5q163 0 283 -100z" />
    <glyph glyph-name="T" unicode="T" horiz-adv-x="1119" 
d="M8 1244h1111l-34 -338l-94 15l-39 231h-305v-1038l185 -33l-13 -81h-540l8 74l169 47v1031h-296l-52 -242l-92 13z" />
    <glyph glyph-name="U" unicode="U" horiz-adv-x="1368" 
d="M733 106q155 0 240 92.5t86 283.5l1 644l-182 42l10 76h479l-12 -76l-166 -39l-5 -614q-2 -274 -122.5 -407.5t-378.5 -133.5q-76 0 -139.5 10.5t-131 42.5t-113.5 85t-76 144t-30 213v657l-185 42l13 76h542l-9 -76l-169 -39v-619q0 -206 93.5 -305t254.5 -99z" />
    <glyph glyph-name="V" unicode="V" horiz-adv-x="1284" 
d="M567 -25l-420 1151l-145 42l10 76h537l-10 -76l-169 -39l312 -878l321 875l-184 42l8 76h456l-8 -76l-131 -39l-426 -1124z" />
    <glyph glyph-name="W" unicode="W" horiz-adv-x="1844" 
d="M1183 -25l-262 977l-285 -947l-162 -30l-327 1151l-139 42l8 76h515l-14 -76l-168 -39l242 -857l281 922l177 25l247 -932l261 839l-181 42l12 76h449l-12 -76l-122 -39l-366 -1124z" />
    <glyph glyph-name="X" unicode="X" horiz-adv-x="1201" 
d="M713 657l342 -543l136 -33l-13 -81h-504l13 74l160 47l-262 408l-291 -411l165 -34l-15 -84h-441l13 76l126 45l366 493l-338 509l-137 43l11 78h514l-11 -78l-155 -45l247 -371l271 376l-170 40l12 78h436l-9 -76l-127 -39z" />
    <glyph glyph-name="Y" unicode="Y" horiz-adv-x="1209" 
d="M715 529v-415l163 -33l-9 -81h-507l10 74l149 47v384l-352 621l-138 42l13 76h508l-12 -76l-158 -39l277 -488l264 485l-183 42l10 76h444l-10 -76l-124 -39z" />
    <glyph glyph-name="Z" unicode="Z" horiz-adv-x="1008" 
d="M51 1244h929v-76l-765 -1068h570l123 250l93 -14l-57 -336h-936l-8 104l745 1045h-537l-77 -246l-90 18z" />
    <glyph glyph-name="bracketleft" unicode="[" horiz-adv-x="483" 
d="M424 -375l-357 -2v1632h354l12 -89l-215 -20v-1405l216 -20z" />
    <glyph glyph-name="backslash" unicode="\" horiz-adv-x="547" 
d="M109 1266l463 -1643l-130 9l-465 1642z" />
    <glyph glyph-name="bracketright" unicode="]" horiz-adv-x="483" 
d="M59 -375l-10 96l217 20v1405l-215 20l12 89h353l1 -1632z" />
    <glyph glyph-name="asciicircum" unicode="^" horiz-adv-x="750" 
d="M400 1250l295 -426l-56 -36l-272 285h-10l-251 -280l-50 33l289 411z" />
    <glyph glyph-name="underscore" unicode="_" horiz-adv-x="901" 
d="M41 -26h829l-11 -106h-829z" />
    <glyph glyph-name="grave" unicode="`" horiz-adv-x="634" 
d="M164 1660l115 38l132 -334l-57 -35z" />
    <glyph glyph-name="a" unicode="a" horiz-adv-x="866" 
d="M527 428q-155 -30 -220.5 -83.5t-65.5 -129.5q0 -43 30.5 -79.5t82.5 -36.5q47 0 95.5 28t77.5 61v240zM702 -18q-79 0 -117 40.5t-38 93.5v15h-12q-12 -23 -31.5 -47t-52 -50t-82 -42.5t-107.5 -16.5q-83 0 -139.5 52.5t-56.5 141.5q0 57 26.5 108.5t80.5 95.5t145 74
t209 38v55q0 54 -8 99t-27.5 84t-55 60t-86.5 21q-31 0 -51 -12t-30.5 -39t-15.5 -55.5t-10 -74.5q-2 -21 -4 -32q-21 0 -35.5 1.5t-35.5 7t-34.5 16t-23.5 31t-10 48.5q0 52 57 101.5t137 77.5q78 27 148 27q132 0 190 -74t58 -234v-364q0 -70 21 -96t90 -38l49 -8l-11 -85
q-16 -2 -41 -8t-47.5 -9t-48.5 -3z" />
    <glyph glyph-name="b" unicode="b" horiz-adv-x="970" 
d="M139 49v1059l-152 53l13 76l277 21l25 -23v-386l-15 -104h12q136 153 286 153q145 0 233 -118t88 -308q0 -115 -40.5 -210.5t-109 -156.5t-157 -94.5t-186.5 -33.5q-160 0 -274 72zM728 408q0 49 -5.5 95t-20 95.5t-37.5 86t-61.5 60t-86.5 23.5q-124 0 -215 -96v-517
q31 -31 88.5 -49.5t122.5 -18.5q92 0 153.5 81.5t61.5 239.5z" />
    <glyph glyph-name="c" unicode="c" horiz-adv-x="783" 
d="M543 90q46 0 86.5 10.5t62.5 21t53 30.5l25 -58q-41 -50 -128.5 -87t-180.5 -37q-117 0 -208.5 62t-139 163t-47.5 221q0 108 35.5 200.5t95.5 153.5t136 95.5t157 34.5q118 0 179.5 -44.5t61.5 -108.5q0 -45 -32.5 -72.5t-93.5 -32.5q-13 31 -25.5 55t-33 51.5
t-46.5 42.5t-58 15q-90 0 -143 -82t-53 -217q0 -52 10.5 -107.5t34 -111.5t57.5 -99.5t84.5 -71t110.5 -27.5z" />
    <glyph glyph-name="d" unicode="d" horiz-adv-x="1008" 
d="M679 131h-10q-110 -152 -277 -152q-139 0 -232.5 111.5t-93.5 309.5q0 105 39.5 200t102 160t140.5 103t155 38q49 0 98 -13.5t74 -32.5h8l-13 130v126l-152 55l14 74l277 25l23 -25v-1025q0 -37 6.5 -60t22 -35.5t30 -18t42.5 -11.5q6 -1 8 -1l45 -10l-11 -84
q-72 -18 -148 -18q-72 0 -110 40.5t-38 106.5v7zM669 197v468q-38 63 -99 100.5t-114 37.5q-58 0 -100 -26t-66 -73.5t-35.5 -107t-11.5 -134.5q0 -172 61 -264t160 -92q59 0 117.5 28t87.5 63z" />
    <glyph glyph-name="e" unicode="e" horiz-adv-x="824" 
d="M723 451l-484 -5q3 -62 21.5 -121t51 -110t86.5 -82t120 -31h6q43 0 67 2t65 15t89 38l22 -53q-60 -63 -146 -98.5t-183 -35.5q-72 0 -138.5 30t-120.5 85t-86 144t-32 199q0 109 37 199.5t96.5 148.5t131.5 90t146 32q115 0 191.5 -82t76.5 -234q0 -58 -17 -131z
M241 524l314 21q7 22 7 69q0 187 -139 187q-67 0 -121 -70.5t-61 -206.5z" />
    <glyph glyph-name="f" unicode="f" horiz-adv-x="611" 
d="M372 981l-2 -108h258l-14 -88h-244v-664l246 -37l-8 -84h-569l12 72l152 44v669h-149l12 72l139 23q10 83 38 154.5t67 120t85.5 83t93.5 50.5t91 16q85 0 136 -28.5t51 -86.5q0 -34 -30 -67.5t-60 -44.5q-38 48 -85.5 85t-89.5 37q-60 0 -93.5 -48t-36.5 -170z" />
    <glyph glyph-name="g" unicode="g" horiz-adv-x="881" 
d="M249 608q0 -98 53 -163t113 -65q69 0 108 49t39 151q0 57 -18 110.5t-56 92.5t-88 39q-75 0 -113 -56.5t-38 -157.5zM429 151h138q63 0 107.5 -7.5t85.5 -28t62.5 -62t21.5 -104.5q0 -85 -67 -163t-174.5 -125.5t-219.5 -47.5q-73 0 -134.5 11.5t-114.5 36.5t-83 70
t-30 107q0 26 13.5 52t28 43t42.5 37t40 27t37 21v8q-47 22 -71.5 58t-24.5 80q0 39 53.5 89t113.5 74v9q-49 12 -106.5 87t-57.5 167q0 81 48 152t125.5 113t160.5 42q123 0 211 -63l215 15l20 -23l-38 -111h-17l-124 40v-16q35 -73 35 -139t-31.5 -123.5t-81 -94.5
t-109 -58.5t-116.5 -21.5q-55 0 -90 10q-51 -54 -51 -89q0 -23 12.5 -37.5t54 -24.5t116.5 -10zM249 3q-2 -1 -5.5 -2.5t-12 -9.5t-15.5 -19.5t-12.5 -32.5t-5.5 -47q0 -171 240 -171q51 0 92.5 9.5t74 29.5t51 55.5t18.5 84.5q0 64 -54 83.5t-197 19.5h-174z" />
    <glyph glyph-name="h" unicode="h" horiz-adv-x="1066" 
d="M895 600v-486l145 -35l-11 -79h-449l11 74l135 40l4 459v7q0 51 -16 88.5t-42 57.5t-54.5 29.5t-60.5 9.5q-105 0 -193 -90v-559l146 -35l-12 -81h-465l11 79l154 37v1002l-160 53l11 76l290 23l25 -25v-395l-17 -105h12q140 156 293 156q56 0 97.5 -13.5t76 -46t52 -93
t17.5 -148.5z" />
    <glyph glyph-name="i" unicode="i" horiz-adv-x="572" 
d="M61 79l152 37v615l-152 55l13 76l281 23l25 -25v-744l160 -35l-11 -81h-480zM287 1307q50 0 86.5 -33.5t36.5 -80.5q0 -50 -37 -86.5t-86 -36.5t-83.5 36.5t-34.5 87.5q0 48 35 80.5t83 32.5z" />
    <glyph glyph-name="j" unicode="j" horiz-adv-x="460" 
d="M172 172v559l-151 55l15 79l279 22l26 -25v-711q0 -82 -16.5 -153.5t-44 -123.5t-67 -97.5t-79.5 -76.5t-90 -59l-44 -24l-49 88q37 28 65 54t58.5 67.5t51 88t33.5 113t13 144.5zM368 1188q0 -51 -36 -88t-86 -37t-86 37.5t-36 88.5q0 50 36.5 84.5t87.5 34.5
q49 0 84.5 -35.5t35.5 -84.5z" />
    <glyph glyph-name="k" unicode="k" horiz-adv-x="986" 
d="M388 452l259 324l-134 42l12 75h425l-14 -74l-150 -41l-236 -291l79 -100q25 -31 57.5 -74t50 -66t42.5 -53t42 -45t39.5 -31t45.5 -24t49 -12l39 -5l-11 -77q-59 -20 -119 -20q-49 0 -89.5 15.5t-86 57.5t-85.5 91t-110 143l-105 146v19zM44 79l153 37v992l-158 53
l12 76l288 23l25 -25v-57v-1062l159 -35l-11 -81h-479z" />
    <glyph glyph-name="l" unicode="l" horiz-adv-x="556" 
d="M364 116l159 -35l-11 -81h-479l11 79l153 37v1002l-158 53l12 76l288 23l25 -25v-1129z" />
    <glyph glyph-name="m" unicode="m" horiz-adv-x="1599" 
d="M890 731h11q53 68 130.5 112.5t166.5 44.5q236 0 236 -279v-493l138 -35l-13 -79h-426l8 72l124 40v471q0 75 -44.5 125t-122.5 50q-60 0 -104.5 -26.5t-87.5 -73.5v-546l149 -35l-10 -79h-444l12 74l131 40v471q0 78 -49 126.5t-122 48.5q-122 0 -198 -86v-560l143 -35
l-10 -79h-462l10 74l150 40v606l-160 50l10 76l304 41l18 -20l-18 -127h10q53 66 132.5 111.5t167.5 45.5q76 0 137 -40t83 -126z" />
    <glyph glyph-name="n" unicode="n" horiz-adv-x="1086" 
d="M913 616v-502l144 -35l-10 -79h-451l12 72l137 42v463q0 93 -47.5 139t-125.5 46q-55 0 -107 -23t-90 -64v-561l148 -35l-13 -79h-464l10 72l150 42v607l-153 52l10 76l297 39l18 -19l-18 -127h10q56 67 135 111.5t167 44.5q117 0 179 -73.5t62 -208.5z" />
    <glyph glyph-name="o" unicode="o" horiz-adv-x="957" 
d="M241 497q0 -81 15 -154t45 -135.5t83.5 -99.5t123.5 -37q67 0 115.5 43.5t70 107t21.5 137.5q0 79 -14.5 153t-43.5 140t-81 106t-120 40q-72 0 -122 -43.5t-71.5 -109.5t-21.5 -148zM893 441q0 -137 -56 -244t-151.5 -165t-211.5 -58q-192 0 -301.5 126.5t-109.5 325.5
q0 110 36.5 202t97.5 151t139 91.5t162 32.5q183 0 289 -126.5t106 -335.5z" />
    <glyph glyph-name="p" unicode="p" horiz-adv-x="988" 
d="M479 -20q-44 0 -94 10l-5 121q35 -14 64 -18t88 -4q102 0 156 86t54 231q0 362 -192 362q-105 0 -205 -103v-922l155 -35l-11 -81h-466l7 79l152 38v979l-154 45l11 78l292 36l21 -18l-15 -130h8q30 41 65.5 75t92.5 61.5t118 27.5q66 0 120 -25t95.5 -75.5t64.5 -135
t23 -195.5q0 -213 -125.5 -350t-319.5 -137z" />
    <glyph glyph-name="q" unicode="q" horiz-adv-x="975" 
d="M618 72q-44 -42 -114.5 -67.5t-126.5 -25.5q-67 0 -126 26.5t-104.5 78.5t-71.5 136.5t-26 192.5q0 99 39.5 191t102 156t142 102.5t157.5 38.5q44 0 94.5 -15.5t79.5 -31.5l116 38l29 -2v-1141l161 -34l-12 -82h-476l10 80l150 36v915q-32 56 -82.5 96.5t-118.5 40.5
q-94 0 -155 -89t-61 -238q0 -174 60 -272q59 -98 157 -98q29 0 84.5 12.5t87.5 32.5z" />
    <glyph glyph-name="r" unicode="r" horiz-adv-x="718" 
d="M637 674q-58 49 -110 49q-47 0 -96 -57.5t-64 -160.5v-384l231 -34l-10 -87h-552l12 74l152 40v614l-162 48l13 76l286 38l20 -23l-16 -231h19q38 130 103 200t132 70q53 0 86.5 -33.5t33.5 -79.5q-1 -66 -78 -119z" />
    <glyph glyph-name="s" unicode="s" horiz-adv-x="690" 
d="M474 588l-8 43q-36 185 -149 185q-51 0 -81.5 -34.5t-30.5 -84.5q0 -38 24 -71.5t63 -59.5t85.5 -51.5t93.5 -54.5t85.5 -61.5t63 -78.5t24.5 -100q0 -108 -94 -181.5t-214 -73.5q-129 0 -209.5 52.5t-80.5 123.5q0 52 36 89t96 42q31 -103 80.5 -155.5t108 -52.5t95 25
t36.5 76q0 32 -23.5 61t-61.5 53t-83.5 48t-91.5 53.5t-83.5 62t-61.5 79.5t-24 102q0 35 11.5 73t36 75t59 65.5t84.5 46t108 17.5q104 0 174.5 -43.5t70.5 -123.5q0 -63 -37 -102t-102 -44z" />
    <glyph glyph-name="t" unicode="t" horiz-adv-x="634" 
d="M274 1088h53v-219h282l-8 -88h-275l-4 -455v-7q0 -110 34.5 -153t112.5 -43q33 0 69 14t56 27l19 14l21 -54q-47 -68 -117 -107.5t-153 -39.5q-49 0 -86 13t-66.5 44t-45 87.5t-15.5 137.5v31l3 493h-128v54q126 99 248 251z" />
    <glyph glyph-name="u" unicode="u" 
d="M682 131h-12q-104 -154 -287 -154q-223 0 -223 290v461l-137 55l13 79l269 21l24 -24v-542q0 -203 155 -203q112 0 186 78v531l-160 42l10 90l294 28l22 -24v-644q0 -36 6.5 -59.5t23.5 -36.5t32 -18.5t46 -11.5l45 -10l-8 -84q-76 -18 -152 -18q-72 0 -109.5 40.5
t-37.5 105.5v8z" />
    <glyph glyph-name="v" unicode="v" horiz-adv-x="926" 
d="M400 -28l-279 785l-121 41l10 75h447l-8 -74l-146 -41l189 -565l191 564l-160 41l14 75h383l-12 -74l-109 -41l-272 -768z" />
    <glyph glyph-name="w" unicode="w" horiz-adv-x="1242" 
d="M707 829l137 -484l21 -111l136 524l-151 41l10 76h384l-12 -74l-108 -41l-213 -770l-118 -18l-174 614l-157 -596l-118 -18l-228 786l-116 41l10 76h416l-10 -74l-136 -41l113 -400l23 -119l152 570z" />
    <glyph glyph-name="x" unicode="x" horiz-adv-x="914" 
d="M801 114l114 -40l-9 -74h-445l13 72l127 42l-165 236l-180 -236l142 -40l-10 -74h-388l10 72l108 42l244 322l-230 329l-117 41l10 76h434l-13 -74l-115 -41l156 -218l167 216l-137 41l14 76h375l-13 -74l-105 -41l-230 -300z" />
    <glyph glyph-name="y" unicode="y" horiz-adv-x="944" 
d="M127 758l-124 38l12 77h419l-8 -74l-127 -37l204 -540l215 535l-130 41l13 75h343l-8 -74l-100 -41l-331 -811q-77 -190 -148.5 -258.5t-187.5 -68.5q-66 0 -110 36.5t-44 82.5q0 72 56 120q78 -54 150 -54q23 0 41 4.5t42 17.5t47 44.5t42 79.5l20 49z" />
    <glyph glyph-name="z" unicode="z" horiz-adv-x="901" 
d="M118 873h672v-74l-503 -700h360l95 177l67 -9l-41 -267h-671l-5 87l491 693h-337l-59 -185l-78 13z" />
    <glyph glyph-name="braceleft" unicode="{" horiz-adv-x="667" 
d="M543 -272l75 -5l8 -101h-103q-84 0 -135.5 39.5t-70 103t-24 141.5t-7 157.5t-8.5 147t-38.5 115t-88.5 56.5l-52 8v99l48 8q52 9 83.5 47t40.5 93t14 122.5t4.5 136t9.5 133.5t30.5 115t69 80.5t121.5 30.5h101l-8 -99l-82 -7q-46 -4 -59 -60t-13 -169v-58
q0 -53 -1.5 -89.5t-6.5 -85.5t-16.5 -83.5t-29.5 -68.5t-47.5 -56.5t-68.5 -34.5v-6q61 -17 98 -65.5t51 -111.5t18 -135t4 -141t4 -125.5t23 -93t56 -38.5z" />
    <glyph glyph-name="bar" unicode="|" horiz-adv-x="569" 
d="M349 -380l-116 13v1627l116 -11v-1629z" />
    <glyph glyph-name="braceright" unicode="}" horiz-adv-x="667" 
d="M124 -272q37 2 56 38.5t23 93t4 125.5t4 141t18 135t51 111t98 66v6q-39 12 -68.5 34.5t-47.5 56.5t-29.5 68.5t-16.5 83.5t-6.5 85.5t-1.5 89.5v58q0 113 -13 169t-59 60l-82 7l-8 99h101q73 0 121.5 -30.5t69 -80.5t30.5 -115t9.5 -133.5t4.5 -136t14 -122.5t40.5 -93
t83.5 -47l48 -8v-99l-51 -8q-58 -9 -89.5 -56.5t-38.5 -115t-8.5 -147t-7 -157.5t-24 -141.5t-70 -103t-135.5 -39.5h-103l8 101z" />
    <glyph glyph-name="asciitilde" unicode="~" horiz-adv-x="950" 
d="M82 413q2 8 6 21t19 48t33.5 61t50 47.5t68.5 21.5q9 0 13 -1l446 -44h4q16 0 37 15t33 30l12 16l65 -2q-1 -4 -3.5 -11.5t-10.5 -28.5t-17.5 -40t-25.5 -42.5t-33.5 -40t-42.5 -28t-51 -11.5h-15l-445 45h-5q-18 0 -39 -17.5t-32 -34.5l-12 -17z" />
    <glyph glyph-name="nbspace" unicode="&#xa0;" horiz-adv-x="1691" 
 />
    <glyph glyph-name="exclamdown" unicode="&#xa1;" horiz-adv-x="485" 
d="M200 534v6l89 -20v-3q20 -255 36.5 -534t16.5 -358v-3q-6 -19 -50.5 -29.5t-81.5 -10.5q-25 0 -44.5 9t-19.5 31q0 247 54 912zM119 785q0 53 36.5 89.5t88.5 36.5t88 -37.5t36 -90.5q0 -49 -37 -83.5t-87 -34.5q-51 0 -88 35t-37 85z" />
    <glyph glyph-name="cent" unicode="&#xa2;" horiz-adv-x="801" 
d="M543 90q46 0 86.5 10.5t62.5 21t53 30.5l25 -58q-41 -50 -128.5 -87t-180.5 -37q-54 0 -104 14l-38 -130l-129 -9l54 193q-84 59 -131 160t-47 218q0 108 35.5 200.5t95.5 153.5t136 95.5t157 34.5l37 130l133 8l-46 -155q58 -19 87.5 -56t29.5 -80q0 -45 -32.5 -72.5
t-93.5 -32.5q-26 65 -55 102l-169 -590q70 -64 162 -64zM322 225l164 573q-20 8 -44 8q-90 0 -143 -82t-53 -217q0 -70 19 -145.5t57 -136.5z" />
    <glyph glyph-name="sterling" unicode="&#xa3;" horiz-adv-x="1065" 
d="M901 1211l-31 -316l-85 13l-41 213q-43 23 -85 23q-51 0 -85 -14.5t-57.5 -43.5t-37 -84t-19 -124t-8.5 -175v-47l220 13l-12 -101l-209 -13l-2 -40q-3 -143 -15.5 -247t-45.5 -169l461 -4l131 254l85 -18l-38 -331h-989l8 74l167 47q21 70 29 142.5t11 197.5l1 88
l-178 -10l11 100l170 10l4 137q7 232 118 348t290 116q137 0 232 -39z" />
    <glyph glyph-name="currency" unicode="&#xa4;" horiz-adv-x="777" 
d="M388 670q-69 0 -111.5 -48.5t-42.5 -128.5q0 -81 43.5 -130.5t112.5 -49.5q72 0 116 48.5t44 125.5q0 83 -44.5 133t-117.5 50zM174 332q-20 31 -32.5 74t-12.5 83q0 80 38 139l-90 85l85 83l77 -88q32 27 74.5 43.5t79.5 16.5q40 0 84 -14t73 -36l78 80l75 -88l-84 -74
q36 -64 37 -146q0 -86 -43 -148l94 -86l-88 -82l-79 90q-79 -48 -155 -48q-66 0 -134 41l-77 -88l-85 85z" />
    <glyph glyph-name="yen" unicode="&#xa5;" horiz-adv-x="1209" 
d="M524 480h-307l12 98h267l-247 548l-136 42l13 76h460l-12 -76l-132 -39l217 -493l218 490l-157 42l10 76h396l-10 -76l-123 -39l-254 -551h300l-12 -98h-316v-143h325l-12 -97h-313v-128l164 -34l-10 -78h-501l10 72l150 46v122h-310l11 97h299v143z" />
    <glyph glyph-name="brokenbar" unicode="&#xa6;" horiz-adv-x="569" 
d="M229 -367v789l119 -12v-790zM229 540v720l117 -11l-1 -720z" />
    <glyph glyph-name="section" unicode="&#xa7;" horiz-adv-x="734" 
d="M718 887l-99 11l-26 192q-16 32 -64.5 63t-104.5 31q-81 0 -132 -47.5t-51 -140.5q0 -46 20 -85t54 -68.5t78 -56.5t92 -52t96.5 -51.5t92.5 -59t77.5 -69.5t54 -88.5t20.5 -111.5q0 -27 -4 -54l-407 227l-21 12q-39 21 -59.5 32t-56 33t-56 38t-48.5 40.5t-44 48
t-31.5 53t-22.5 62.5t-7 70q0 109 57 191t144 122.5t187 40.5q163 0 283 -100zM426 405q24 -13 66 -35t69 -36.5t65.5 -38t63.5 -43.5t52.5 -49t43.5 -58.5t26.5 -68t10.5 -81.5q0 -84 -37.5 -156t-99 -120t-141.5 -75t-166 -27q-104 0 -195 42t-142 105l13 267l103 -15
l38 -188q29 -46 84.5 -77.5t121.5 -31.5q42 0 82.5 12t76 36t57.5 66t22 95t-31.5 97t-82.5 77t-111.5 65t-122 68.5t-112 79.5t-82 105t-31.5 138q0 28 3 48z" />
    <glyph glyph-name="dieresis" unicode="&#xa8;" horiz-adv-x="686" 
d="M475 1542q35 0 61.5 -21.5t26.5 -55.5q0 -35 -26 -58t-62 -23q-34 0 -58.5 22.5t-24.5 58.5q0 35 25 56t58 21zM208 1542q35 0 60.5 -21.5t25.5 -55.5q0 -35 -25.5 -58t-60.5 -23q-34 0 -59 22.5t-25 58.5q0 35 25.5 56t58.5 21z" />
    <glyph glyph-name="copyright" unicode="&#xa9;" horiz-adv-x="1381" 
d="M127 657q0 -162 65 -290.5t180.5 -201t261.5 -72.5q107 0 203.5 41.5t166.5 113.5t111.5 174t41.5 217q0 232 -123 400q-63 84 -167 131.5t-231 47.5q-141 0 -258.5 -76.5t-184 -205t-66.5 -279.5zM626 -14q-135 0 -251.5 50.5t-197.5 138t-127 210t-46 261.5
q0 140 51.5 265.5t138 215t202 141.5t240.5 52q151 0 274.5 -53t203.5 -148q164 -195 165 -470q0 -132 -51 -254t-137.5 -211.5t-208 -143.5t-256.5 -54zM697 358q123 0 210 71q14 -14 30 -48q-118 -114 -290 -114q-103 0 -187.5 45.5t-136 133t-51.5 201.5q0 225 176 354
q97 67 229 67q138 0 220 -62l-16 -199l-53 6l-23 132q-43 53 -164 53q-101 0 -161.5 -82.5t-60.5 -227.5q0 -163 75.5 -246.5t202.5 -83.5z" />
    <glyph glyph-name="ordfeminine" unicode="&#xaa;" horiz-adv-x="403" 
d="M35 345h338l-6 -58h-339zM231 577q-68 -11 -90.5 -29.5t-22.5 -50.5q0 -48 44 -48q22 0 41 13.5t28 29.5v85zM302 408q-32 0 -47.5 16.5t-15.5 37.5v5h-5q-11 -23 -41 -42t-67 -19q-33 0 -55.5 18.5t-22.5 54.5q0 46 40 76.5t143 49.5v26q0 105 -66 105q-25 0 -32.5 -15
t-12.5 -55q-1 -5 -1 -7q-55 0 -55 41q0 30 44.5 53t89.5 23q53 0 76 -30t23 -94v-145q0 -28 8.5 -39t36.5 -14l20 -3l-5 -35q-49 -8 -55 -8z" />
    <glyph glyph-name="guillemotleft" unicode="&#xab;" horiz-adv-x="721" 
d="M79 469l268 352l45 -59l-166 -301l169 -320l-53 -64l-261 372zM327 469l268 352l44 -59l-165 -301l168 -320l-52 -64l-262 372z" />
    <glyph glyph-name="logicalnot" unicode="&#xac;" horiz-adv-x="955" 
d="M94 664h745l2 -314l-107 -18v226h-652z" />
    <glyph glyph-name="softhyphen" unicode="&#xad;" horiz-adv-x="569" 
d="M87 521l408 61l-8 -116l-408 -60z" />
    <glyph glyph-name="registered" unicode="&#xae;" horiz-adv-x="468" 
d="M461 1070q0 -105 -65 -169t-170 -64q-98 0 -158 63.5t-60 167.5q0 108 61.5 174t161.5 66q103 0 166.5 -65.5t63.5 -172.5zM231 1277q-83 0 -133 -56t-50 -146q0 -92 49.5 -148.5t131.5 -56.5q86 0 140 53.5t54 141.5q0 95 -53.5 153.5t-138.5 58.5zM234 1085
q16 0 25.5 14.5t9.5 38t-15 36t-39 12.5l-15 -2v-99h34zM319 1146q0 -42 -55 -66l39 -54q28 -40 59 -53l6 -2l-4 -18q-10 -3 -25 -3q-44 0 -75 54l-33 56h-31v-79l34 -10l-1 -18h-115l1 18l36 9v198l-36 6l2 18q66 7 89 7q109 0 109 -63z" />
    <glyph glyph-name="macron" unicode="&#xaf;" horiz-adv-x="701" 
d="M137 1480h441l-13 -101h-441z" />
    <glyph glyph-name="degree" unicode="&#xb0;" horiz-adv-x="403" 
d="M193 1237q-42 0 -63.5 -33.5t-21.5 -79.5q0 -50 25 -89t70 -39q41 0 63.5 29.5t22.5 84.5q0 51 -26 89t-70 38zM205 1285q71 0 113 -45.5t42 -116.5t-47 -123t-121 -52q-70 0 -113 44.5t-43 120.5q0 70 49.5 121t119.5 51z" />
    <glyph glyph-name="plusminus" unicode="&#xb1;" horiz-adv-x="792" 
d="M99 117l611 6l-17 -103l-611 -7zM438 475l1 -236l-111 12v224h-221l11 101h210v232l108 -13l2 -219h219l-11 -101h-208z" />
    <glyph glyph-name="twosuperior" unicode="&#xb2;" horiz-adv-x="259" 
d="M79 1196q-23 2 -33 10t-10 26q0 25 32.5 47t62.5 22q32 0 54.5 -22t22.5 -57q0 -39 -18 -64t-69 -70l-40 -34h132l-7 -43h-176l-2 31l86 86q39 37 40 81q0 26 -11 42.5t-32 16.5q-32 0 -32 -72z" />
    <glyph glyph-name="threesuperior" unicode="&#xb3;" horiz-adv-x="600" 
d="M165 1217q0 21 -12 36t-32 15q-16 0 -27.5 -16.5t-11.5 -52.5q-41 2 -41 30q0 31 34 51.5t64 20.5q32 0 54 -21.5t22 -49.5q0 -29 -16 -55.5t-42 -40.5v-5q35 -10 54.5 -34.5t19.5 -54.5q0 -40 -29 -71t-73 -31q-49 0 -70 17t-21 39q0 15 13 24t26 11q3 -20 6.5 -30.5
t13.5 -20.5t27 -10q26 0 40 18.5t14 45.5t-18.5 50t-45.5 23q-5 0 -18 -1t-19 -1q-5 25 -5 26v2l9 2q7 2 14 4.5t17.5 7t19.5 11t16.5 15t12 20.5t4.5 26z" />
    <glyph glyph-name="acute" unicode="&#xb4;" horiz-adv-x="618" 
d="M464 1666l-184 -317l-51 32l123 325z" />
    <glyph glyph-name="paragraph" unicode="&#xb6;" horiz-adv-x="1385" 
d="M869 1134l-23 -5v-1015l21 -3l38 10v1005zM1237 1244l-10 -76l-170 -39v-1015l182 -33l-10 -81h-726l9 74l167 47v364q-64 -5 -130 -5q-501 0 -501 364q0 116 60.5 208.5t161.5 142.5t222 50zM679 1152q-41 2 -106 2q-319 0 -319 -274q0 -136 78 -219t235 -83l105 7l7 -5
v572z" />
    <glyph glyph-name="periodcentered" unicode="&#xb7;" horiz-adv-x="403" 
d="M202 618q49 0 84.5 -33.5t35.5 -81.5q0 -50 -35.5 -85.5t-85 -35.5t-84.5 36t-35 87q0 48 35.5 80.5t84.5 32.5z" />
    <glyph glyph-name="cedilla" unicode="&#xb8;" horiz-adv-x="384" 
d="M213 -76q89 -77 89 -150q0 -104 -200 -164l-20 59q41 14 64 37t23 46q0 40 -74 111l98 140h74z" />
    <glyph glyph-name="onesuperior" unicode="&#xb9;" horiz-adv-x="221" 
d="M134 1290v-246l54 -10l-3 -25h-154l4 23l49 13v199h-46l1 23l87 23h8z" />
    <glyph glyph-name="ordmasculine" unicode="&#xba;" horiz-adv-x="403" 
d="M35 345h338l-6 -58h-339zM111 601q0 -72 26 -116t66 -44q77 0 77 134q0 69 -24.5 112.5t-67.5 43.5q-77 0 -77 -130zM354 588q0 -82 -45.5 -134.5t-115.5 -52.5q-76 0 -115.5 50.5t-39.5 131.5q0 89 48 139.5t117 50.5q72 0 111.5 -49.5t39.5 -135.5z" />
    <glyph glyph-name="guillemotright" unicode="&#xbb;" horiz-adv-x="721" 
d="M395 469l-2 -20l-261 -372l-53 64l169 320l-166 301l45 59zM642 469l-1 -20l-262 -372l-52 64l168 320l-165 301l44 59z" />
    <glyph glyph-name="onequarter" unicode="&#xbc;" horiz-adv-x="1044" 
d="M778 -5v148h-195l-9 30l247 305l26 -8q-3 -63 -3 -197v-81h102l-7 -51h-95v-135zM776 192v172l-134 -172h134zM270 975v-427l109 -13l-4 -33h-290l2 29l114 19v364h-108l2 31l164 30h11zM844 960l80 8l-686 -989l-84 -9z" />
    <glyph glyph-name="onehalf" unicode="&#xbd;" horiz-adv-x="1047" 
d="M942 0h-312l-2 41l97 82q40 35 66 61.5t49 66t23 77.5q0 101 -82 101q-65 0 -106 -102l-33 13q13 55 59 99.5t104 44.5q65 0 98 -35.5t33 -102.5q0 -32 -13 -63t-37 -60.5t-45 -50t-53 -48t-44 -38.5l-38 -30h192l38 69l28 -4zM290 975v-427l109 -13l-4 -33h-291l3 29
l113 19v364h-107l2 31l164 30h11zM844 960l80 8l-686 -989l-84 -9z" />
    <glyph glyph-name="threequarters" unicode="&#xbe;" horiz-adv-x="1044" 
d="M139 584q2 -16 26 -39t50 -23q95 0 95 96q0 38 -34.5 70.5t-87.5 32.5h-6l-4 26q10 3 25 10.5t37 21.5t36.5 36t14.5 47q0 30 -16.5 49.5t-52.5 19.5q-55 0 -80 -61l-29 11q7 36 45.5 69.5t88.5 33.5q47 0 81.5 -29t34.5 -72q0 -45 -27 -75.5t-68 -45.5v-4
q52 -7 82.5 -41t30.5 -75q0 -65 -54.5 -110t-133.5 -45q-49 0 -76.5 17t-27.5 39q0 16 13 27.5t37 13.5zM778 -5v148h-195l-9 30l247 305l26 -8q-3 -63 -3 -197v-81h102l-7 -51h-95v-135zM776 192v172l-134 -172h134zM844 960l80 8l-686 -989l-84 -9z" />
    <glyph glyph-name="questiondown" unicode="&#xbf;" horiz-adv-x="600" 
d="M573 -253q0 -22 -9 -43.5t-29.5 -43t-61 -35t-96.5 -13.5q-58 0 -119 31.5t-111.5 86.5t-82 136.5t-31.5 172.5q0 49 16 87t41 61.5t56 43t62 35t56 32t41 40.5t16 54q0 53 -22 125l74 16q27 -40 52.5 -102.5t25.5 -115.5q0 -45 -17 -79t-44 -54t-59.5 -36t-65.5 -31
t-60 -33.5t-44 -49t-17 -71.5q0 -65 57 -119.5t107 -54.5q58 0 109 18.5t82 52.5q28 -12 51 -42.5t23 -68.5zM213 809q0 53 37 90t89 37t87.5 -37.5t35.5 -90.5q0 -50 -36.5 -84t-86.5 -34q-51 0 -88.5 34.5t-37.5 84.5z" />
    <glyph glyph-name="Agrave" unicode="&#xc0;" horiz-adv-x="1278" 
d="M476 1665l115 38l133 -334l-58 -35zM750 1268l389 -1144l138 -43l-9 -81h-515l12 74l171 55l-109 304h-419l-113 -309l187 -43l-12 -81h-468l10 74l148 55l438 1108zM446 534h352l-167 500z" />
    <glyph glyph-name="Aacute" unicode="&#xc1;" horiz-adv-x="1278" 
d="M867 1671l-184 -317l-51 32l123 325zM750 1268l389 -1144l138 -43l-9 -81h-515l12 74l171 55l-109 304h-419l-113 -309l187 -43l-12 -81h-468l10 74l148 55l438 1108zM446 534h352l-167 500z" />
    <glyph glyph-name="Acircumflex" unicode="&#xc2;" horiz-adv-x="1278" 
d="M706 1586l177 -185l-49 -37l-164 109h-10l-139 -111l-38 30l168 180zM750 1268l389 -1144l138 -43l-9 -81h-515l12 74l171 55l-109 304h-419l-113 -309l187 -43l-12 -81h-468l10 74l148 55l438 1108zM446 534h352l-167 500z" />
    <glyph glyph-name="Atilde" unicode="&#xc3;" horiz-adv-x="1278" 
d="M447 1384q2 6 4 15.5t13 34t23.5 43.5t34.5 34.5t46 15.5q10 0 14 -1l222 -30h5q12 0 25.5 10.5t21.5 20.5l8 10l48 -1q-2 -6 -4.5 -16t-14 -34.5t-25 -43.5t-36.5 -34.5t-50 -15.5h-12l-223 32h-3q-13 0 -27.5 -12t-23.5 -24l-9 -12zM750 1268l389 -1144l138 -43l-9 -81
h-515l12 74l171 55l-109 304h-419l-113 -309l187 -43l-12 -81h-468l10 74l148 55l438 1108zM446 534h352l-167 500z" />
    <glyph glyph-name="Adieresis" unicode="&#xc4;" horiz-adv-x="1278" 
d="M813 1531q35 0 61.5 -22t26.5 -56q0 -35 -26.5 -57.5t-61.5 -22.5q-34 0 -59 22.5t-25 57.5t25.5 56.5t58.5 21.5zM545 1531q35 0 60.5 -22t25.5 -56q0 -35 -25.5 -57.5t-60.5 -22.5q-34 0 -59 22.5t-25 57.5t25.5 56.5t58.5 21.5zM750 1268l389 -1144l138 -43l-9 -81
h-515l12 74l171 55l-109 304h-419l-113 -309l187 -43l-12 -81h-468l10 74l148 55l438 1108zM446 534h352l-167 500z" />
    <glyph glyph-name="Aring" unicode="&#xc5;" horiz-adv-x="1278" 
d="M677 1656q-42 0 -64 -33t-22 -79q0 -50 25.5 -89t70.5 -39q41 0 63.5 29.5t22.5 83.5q0 51 -26 89t-70 38zM688 1704q71 0 113.5 -45t42.5 -117q0 -71 -47.5 -123t-121.5 -52q-70 0 -112 45t-42 120q0 70 48.5 121t118.5 51zM750 1268l389 -1144l138 -43l-9 -81h-515
l12 74l171 55l-109 304h-419l-113 -309l187 -43l-12 -81h-468l10 74l148 55l438 1108zM446 534h352l-167 500z" />
    <glyph glyph-name="AE" unicode="&#xc6;" horiz-adv-x="1692" 
d="M867 1059l-309 -491h307zM865 472h-360l-216 -346l186 -44l-11 -80h-457l10 74l136 55l713 1113h777l-31 -316l-86 13l-41 211h-438v-472h257l43 123l95 6l-33 -385l-86 -14l-33 176h-243v-491h464l99 234l81 -16l-30 -313h-477h-440h-54l8 74l164 47h3v351z" />
    <glyph glyph-name="Ccedilla" unicode="&#xc7;" horiz-adv-x="1111" 
d="M692 -76q89 -77 89 -150q0 -104 -200 -164l-20 59q41 14 63.5 37t22.5 46q0 40 -73 111l78 112h-11q-117 0 -222.5 41t-188.5 116t-132 194t-49 264q0 65 11.5 130.5t37 133t61.5 128t89 113.5t117 92t148.5 61t179.5 22q229 0 362 -100l-31 -333l-88 13l-41 220
q-81 104 -259 105q-160 0 -266 -140t-106 -376q0 -130 37.5 -236t101 -173t144.5 -103t171 -36q95 0 187 42.5t162 107.5l36 -76q-57 -68 -155.5 -126t-215.5 -76z" />
    <glyph glyph-name="Egrave" unicode="&#xc8;" horiz-adv-x="1074" 
d="M418 1665l115 38l132 -334l-57 -35zM35 1244h996l-32 -320l-86 14l-41 214h-472v-475h290l43 119l94 13l-32 -388l-87 -13l-33 175h-275v-488h497l97 231l83 -13l-30 -313h-1016l8 74l167 47v1005l-181 42z" />
    <glyph glyph-name="Eacute" unicode="&#xc9;" horiz-adv-x="1074" 
d="M726 1671l-183 -317l-51 32l122 325zM35 1244h996l-32 -320l-86 14l-41 214h-472v-475h290l43 119l94 13l-32 -388l-87 -13l-33 175h-275v-488h497l97 231l83 -13l-30 -313h-1016l8 74l167 47v1005l-181 42z" />
    <glyph glyph-name="Ecircumflex" unicode="&#xca;" horiz-adv-x="1074" 
d="M634 1581l178 -185l-50 -37l-163 109h-10l-140 -111l-38 31l168 179zM35 1244h996l-32 -320l-86 14l-41 214h-472v-475h290l43 119l94 13l-32 -388l-87 -13l-33 175h-275v-488h497l97 231l83 -13l-30 -313h-1016l8 74l167 47v1005l-181 42z" />
    <glyph glyph-name="Edieresis" unicode="&#xcb;" horiz-adv-x="1074" 
d="M705 1531q35 0 61.5 -22t26.5 -56q0 -35 -26.5 -57.5t-61.5 -22.5q-34 0 -59 22.5t-25 57.5t25.5 56.5t58.5 21.5zM438 1531q35 0 60 -22t25 -56q0 -35 -25.5 -57.5t-59.5 -22.5t-59 22.5t-25 57.5t25.5 56.5t58.5 21.5zM35 1244h996l-32 -320l-86 14l-41 214h-472v-475
h290l43 119l94 13l-32 -388l-87 -13l-33 175h-275v-488h497l97 231l83 -13l-30 -313h-1016l8 74l167 47v1005l-181 42z" />
    <glyph glyph-name="Igrave" unicode="&#xcc;" horiz-adv-x="600" 
d="M108 1665l115 38l132 -334l-57 -35zM572 0h-541l8 74l167 47v1005l-181 42l10 76h545l-10 -76l-170 -39v-1015l182 -33z" />
    <glyph glyph-name="Iacute" unicode="&#xcd;" horiz-adv-x="600" 
d="M498 1671l-183 -317l-51 32l123 325zM572 0h-541l8 74l167 47v1005l-181 42l10 76h545l-10 -76l-170 -39v-1015l182 -33z" />
    <glyph glyph-name="Icircumflex" unicode="&#xce;" horiz-adv-x="600" 
d="M329 1586l178 -185l-50 -37l-163 109h-10l-140 -111l-38 30l168 180zM572 0h-541l8 74l167 47v1005l-181 42l10 76h545l-10 -76l-170 -39v-1015l182 -33z" />
    <glyph glyph-name="Idieresis" unicode="&#xcf;" horiz-adv-x="600" 
d="M436 1531q35 0 61.5 -22t26.5 -56q0 -35 -26.5 -57.5t-61.5 -22.5q-34 0 -59 22.5t-25 57.5t25.5 56.5t58.5 21.5zM169 1531q35 0 60 -22t25 -56q0 -35 -25.5 -57.5t-59.5 -22.5t-59 22.5t-25 57.5t25.5 56.5t58.5 21.5zM572 0h-541l8 74l167 47v1005l-181 42l10 76h545
l-10 -76l-170 -39v-1015l182 -33z" />
    <glyph glyph-name="Eth" unicode="&#xd0;" horiz-adv-x="1320" 
d="M1288 659q0 -99 -31 -194t-94 -179t-152 -148t-213 -101t-267 -37h-513l13 74l172 55v441l-180 -15l12 92l168 13v445l-172 29l8 77q310 49 515 49q164 0 291.5 -33.5t210 -89t135.5 -134.5t75 -163t22 -181zM395 582v-478h211q119 0 211 40.5t146.5 111t82 157
t27.5 185.5q0 117 -35 217t-102.5 177t-175 121t-243.5 44q-67 0 -122 -6v-479l257 21l-11 -92z" />
    <glyph glyph-name="Ntilde" unicode="&#xd1;" horiz-adv-x="1337" 
d="M419 1384q2 6 4.5 15.5t13 34t23.5 43.5t35 34.5t46 15.5q9 0 13 -1l223 -30h4q12 0 26 10.5t22 20.5l8 10l48 -1q-2 -6 -4.5 -16t-14 -34.5t-25.5 -43.5t-37 -34.5t-49 -15.5h-12l-223 32h-3q-13 0 -27.5 -12t-23.5 -24l-9 -12zM998 -30l-664 991v-847l183 -33l-10 -81
h-476l8 74l167 47v997l-181 50l10 76h352l642 -972v854l-185 42l11 76h476l-13 -76l-167 -39v-1127z" />
    <glyph glyph-name="Ograve" unicode="&#xd2;" horiz-adv-x="1322" 
d="M516 1665l115 38l132 -334l-57 -35zM647 1176q-375 0 -375 -499q0 -90 14 -174.5t45.5 -162.5t77 -135.5t114 -91.5t152.5 -34q88 0 155.5 29t108.5 75t66.5 112t35 133t9.5 145q0 88 -14 172t-45.5 163t-77 138t-114.5 94.5t-152 35.5zM1273 619q0 -131 -43 -246.5
t-123.5 -205t-205 -141.5t-275.5 -52q-169 0 -301.5 86t-204 232.5t-71.5 326.5q0 192 78 340t225 231t343 83q106 0 198.5 -34t161.5 -95t118.5 -143t74.5 -179.5t25 -202.5z" />
    <glyph glyph-name="Oacute" unicode="&#xd3;" horiz-adv-x="1322" 
d="M855 1666l-184 -317l-51 32l123 325zM1273 619q0 -131 -43 -246.5t-123.5 -205t-205 -141.5t-275.5 -52q-169 0 -301.5 86t-204 232.5t-71.5 326.5q0 192 78 340t225 231t343 83q106 0 198.5 -34t161.5 -95t118.5 -143t74.5 -179.5t25 -202.5zM647 1176q-375 0 -375 -499
q0 -90 14 -174.5t45.5 -162.5t77 -135.5t114 -91.5t152.5 -34q88 0 155.5 29t108.5 75t66.5 112t35 133t9.5 145q0 88 -14 172t-45.5 163t-77 138t-114.5 94.5t-152 35.5z" />
    <glyph glyph-name="Ocircumflex" unicode="&#xd4;" horiz-adv-x="1322" 
d="M696 1586l177 -185l-49 -37l-164 109h-9l-140 -111l-38 30l168 180zM647 1176q-375 0 -375 -499q0 -90 14 -174.5t45.5 -162.5t77 -135.5t114 -91.5t152.5 -34q88 0 155.5 29t108.5 75t66.5 112t35 133t9.5 145q0 88 -14 172t-45.5 163t-77 138t-114.5 94.5t-152 35.5z
M1273 619q0 -131 -43 -246.5t-123.5 -205t-205 -141.5t-275.5 -52q-169 0 -301.5 86t-204 232.5t-71.5 326.5q0 192 78 340t225 231t343 83q106 0 198.5 -34t161.5 -95t118.5 -143t74.5 -179.5t25 -202.5z" />
    <glyph glyph-name="Otilde" unicode="&#xd5;" horiz-adv-x="1322" 
d="M436 1384q2 6 4 15.5t13 34t23.5 43.5t34.5 34.5t47 15.5q9 0 13 -1l223 -30h4q12 0 25.5 10.5t22.5 20.5l8 10l47 -1q-2 -6 -4.5 -16t-14 -34.5t-25 -43.5t-36.5 -34.5t-50 -15.5h-12l-223 32h-2q-13 0 -28 -12t-24 -24l-8 -12zM647 1176q-375 0 -375 -499
q0 -90 14 -174.5t45.5 -162.5t77 -135.5t114 -91.5t152.5 -34q88 0 155.5 29t108.5 75t66.5 112t35 133t9.5 145q0 88 -14 172t-45.5 163t-77 138t-114.5 94.5t-152 35.5zM1273 619q0 -131 -43 -246.5t-123.5 -205t-205 -141.5t-275.5 -52q-169 0 -301.5 86t-204 232.5
t-71.5 326.5q0 192 78 340t225 231t343 83q106 0 198.5 -34t161.5 -95t118.5 -143t74.5 -179.5t25 -202.5z" />
    <glyph glyph-name="Odieresis" unicode="&#xd6;" horiz-adv-x="1322" 
d="M803 1531q35 0 61.5 -22t26.5 -56q0 -35 -26.5 -57.5t-61.5 -22.5q-34 0 -59 22.5t-25 57.5t25.5 56.5t58.5 21.5zM535 1531q35 0 60.5 -22t25.5 -56q0 -35 -25.5 -57.5t-60.5 -22.5q-34 0 -58.5 22.5t-24.5 57.5t25 56.5t58 21.5zM647 1176q-375 0 -375 -499
q0 -90 14 -174.5t45.5 -162.5t77 -135.5t114 -91.5t152.5 -34q88 0 155.5 29t108.5 75t66.5 112t35 133t9.5 145q0 88 -14 172t-45.5 163t-77 138t-114.5 94.5t-152 35.5zM1273 619q0 -131 -43 -246.5t-123.5 -205t-205 -141.5t-275.5 -52q-169 0 -301.5 86t-204 232.5
t-71.5 326.5q0 192 78 340t225 231t343 83q106 0 198.5 -34t161.5 -95t118.5 -143t74.5 -179.5t25 -202.5z" />
    <glyph glyph-name="multiply" unicode="&#xd7;" horiz-adv-x="569" 
d="M284 388l-165 -160l-66 82l155 152l-155 157l83 66l153 -153l165 160l66 -84l-156 -151l157 -160l-82 -66z" />
    <glyph glyph-name="Oslash" unicode="&#xd8;" horiz-adv-x="1322" 
d="M1273 619q0 -131 -43 -246.5t-123.5 -205t-205 -141.5t-275.5 -52q-105 0 -202 36l-60 -113l-148 -8l96 179q-124 85 -193.5 229.5t-69.5 321.5q0 192 78 340t225 231t343 83q126 0 235 -49l43 80l151 9l-84 -157q111 -90 172 -231.5t61 -305.5zM647 1176
q-375 0 -375 -499q0 -141 34.5 -266.5t105.5 -208.5l470 879q-98 95 -235 95zM936 1015l-467 -869q87 -67 206 -67q88 0 155.5 29t108.5 75t66.5 112t35 133t9.5 145q0 123 -28 239.5t-86 202.5z" />
    <glyph glyph-name="Ugrave" unicode="&#xd9;" horiz-adv-x="1368" 
d="M503 1660l115 38l132 -334l-57 -35zM733 106q155 0 240 92.5t86 283.5l1 644l-182 42l10 76h479l-12 -76l-166 -39l-5 -614q-2 -274 -122.5 -407.5t-378.5 -133.5q-76 0 -139.5 10.5t-131 42.5t-113.5 85t-76 144t-30 213v657l-185 42l13 76h542l-9 -76l-169 -39v-619
q0 -206 93.5 -305t254.5 -99z" />
    <glyph glyph-name="Uacute" unicode="&#xda;" horiz-adv-x="1368" 
d="M733 106q155 0 240 92.5t86 283.5l1 644l-182 42l10 76h479l-12 -76l-166 -39l-5 -614q-2 -274 -122.5 -407.5t-378.5 -133.5q-76 0 -139.5 10.5t-131 42.5t-113.5 85t-76 144t-30 213v657l-185 42l13 76h542l-9 -76l-169 -39v-619q0 -206 93.5 -305t254.5 -99zM799 1706
l111 -40l-183 -317l-51 32z" />
    <glyph glyph-name="Ucircumflex" unicode="&#xdb;" horiz-adv-x="1368" 
d="M745 1586l178 -185l-50 -37l-163 109h-10l-140 -111l-38 30l168 180zM733 106q155 0 240 92.5t86 283.5l1 644l-182 42l10 76h479l-12 -76l-166 -39l-5 -614q-2 -274 -122.5 -407.5t-378.5 -133.5q-76 0 -139.5 10.5t-131 42.5t-113.5 85t-76 144t-30 213v657l-185 42
l13 76h542l-9 -76l-169 -39v-619q0 -206 93.5 -305t254.5 -99z" />
    <glyph glyph-name="Udieresis" unicode="&#xdc;" horiz-adv-x="1368" 
d="M852 1531q35 0 61.5 -22t26.5 -56q0 -35 -26.5 -57.5t-61.5 -22.5q-34 0 -59 22.5t-25 57.5t25.5 56.5t58.5 21.5zM585 1531q35 0 60 -22t25 -56q0 -35 -25.5 -57.5t-59.5 -22.5t-59 22.5t-25 57.5t25.5 56.5t58.5 21.5zM733 106q155 0 240 92.5t86 283.5l1 644l-182 42
l10 76h479l-12 -76l-166 -39l-5 -614q-2 -274 -122.5 -407.5t-378.5 -133.5q-76 0 -139.5 10.5t-131 42.5t-113.5 85t-76 144t-30 213v657l-185 42l13 76h542l-9 -76l-169 -39v-619q0 -206 93.5 -305t254.5 -99z" />
    <glyph glyph-name="Yacute" unicode="&#xdd;" horiz-adv-x="1209" 
d="M799 1666l-184 -317l-51 32l123 325zM715 529v-415l163 -33l-9 -81h-507l10 74l149 47v384l-352 621l-138 42l13 76h508l-12 -76l-158 -39l277 -488l264 485l-183 42l10 76h444l-10 -76l-124 -39z" />
    <glyph glyph-name="Thorn" unicode="&#xde;" horiz-adv-x="1016" 
d="M202 119v1007l-182 42l10 76h543l-10 -76l-170 -39v-108q82 3 124 3q501 0 500 -364q0 -116 -60 -208.5t-161.5 -142.5t-222.5 -50q-61 0 -116 7q-16 49 -16 84q12 -1 17.5 -0.5t16.5 0.5h17q319 0 319 274q0 136 -78 219t-235 83l-105 -6v-799l236 -39l-13 -84h-593
l10 74z" />
    <glyph glyph-name="germandbls" unicode="&#xdf;" horiz-adv-x="1149" 
d="M372 0h-333l12 72l152 44v669h-145l9 64l138 23q7 112 58 210t142 161t201 63q119 0 192.5 -72.5t73.5 -179.5q0 -54 -22.5 -101.5t-53.5 -80t-62.5 -62t-54 -62t-22.5 -65.5q0 -35 25 -65t64 -54t86 -47.5t94.5 -51.5t86.5 -60.5t63.5 -79t24.5 -102.5q0 -108 -93 -181
t-213 -73q-129 0 -210.5 51.5t-81.5 121.5q0 61 37 95t94 39q23 -95 78 -152t114 -57q61 0 96 21.5t35 78.5q0 28 -23.5 54.5t-61.5 49t-83.5 46.5t-91.5 53t-83.5 62.5t-61 80.5t-23.5 101q0 51 19.5 95.5t47 77.5t55 64t46.5 68t19 75q0 89 -49.5 146.5t-132.5 57.5
q-80 0 -122 -67.5t-42 -220.5z" />
    <glyph glyph-name="agrave" unicode="&#xe0;" horiz-adv-x="866" 
d="M219 1291l115 38l132 -334l-57 -34zM702 -18q-79 0 -117 40.5t-38 93.5v15h-12q-12 -23 -31.5 -47t-52 -50t-82 -42.5t-107.5 -16.5q-83 0 -139.5 52.5t-56.5 141.5q0 57 26.5 108.5t80.5 95.5t145 74t209 38v55q0 54 -8 99t-27.5 84t-55 60t-86.5 21q-31 0 -51 -12
t-30.5 -39t-15.5 -55.5t-10 -74.5q-2 -21 -4 -32q-21 0 -35.5 1.5t-35.5 7t-34.5 16t-23.5 31t-10 48.5q0 52 57 101.5t137 77.5q78 27 148 27q132 0 190 -74t58 -234v-364q0 -70 21 -96t90 -38l49 -8l-11 -85q-16 -2 -41 -8t-47.5 -9t-48.5 -3zM527 428
q-155 -30 -220.5 -83.5t-65.5 -129.5q0 -43 30.5 -79.5t82.5 -36.5q47 0 95.5 28t77.5 61v240z" />
    <glyph glyph-name="aacute" unicode="&#xe1;" horiz-adv-x="866" 
d="M582 1303l-184 -318l-51 32l123 325zM527 428q-155 -30 -220.5 -83.5t-65.5 -129.5q0 -43 30.5 -79.5t82.5 -36.5q47 0 95.5 28t77.5 61v240zM702 -18q-79 0 -117 40.5t-38 93.5v15h-12q-12 -23 -31.5 -47t-52 -50t-82 -42.5t-107.5 -16.5q-83 0 -139.5 52.5t-56.5 141.5
q0 57 26.5 108.5t80.5 95.5t145 74t209 38v55q0 54 -8 99t-27.5 84t-55 60t-86.5 21q-31 0 -51 -12t-30.5 -39t-15.5 -55.5t-10 -74.5q-2 -21 -4 -32q-21 0 -35.5 1.5t-35.5 7t-34.5 16t-23.5 31t-10 48.5q0 52 57 101.5t137 77.5q78 27 148 27q132 0 190 -74t58 -234v-364
q0 -70 21 -96t90 -38l49 -8l-11 -85q-16 -2 -41 -8t-47.5 -9t-48.5 -3z" />
    <glyph glyph-name="acircumflex" unicode="&#xe2;" horiz-adv-x="866" 
d="M453 1217l178 -185l-49 -37l-164 110h-10l-140 -111l-38 30l168 179zM527 428q-155 -30 -220.5 -83.5t-65.5 -129.5q0 -43 30.5 -79.5t82.5 -36.5q47 0 95.5 28t77.5 61v240zM702 -18q-79 0 -117 40.5t-38 93.5v15h-12q-12 -23 -31.5 -47t-52 -50t-82 -42.5t-107.5 -16.5
q-83 0 -139.5 52.5t-56.5 141.5q0 57 26.5 108.5t80.5 95.5t145 74t209 38v55q0 54 -8 99t-27.5 84t-55 60t-86.5 21q-31 0 -51 -12t-30.5 -39t-15.5 -55.5t-10 -74.5q-2 -21 -4 -32q-21 0 -35.5 1.5t-35.5 7t-34.5 16t-23.5 31t-10 48.5q0 52 57 101.5t137 77.5
q78 27 148 27q132 0 190 -74t58 -234v-364q0 -70 21 -96t90 -38l49 -8l-11 -85q-16 -2 -41 -8t-47.5 -9t-48.5 -3z" />
    <glyph glyph-name="atilde" unicode="&#xe3;" horiz-adv-x="866" 
d="M193 1016q2 6 4.5 15t13 34t23.5 44t34.5 34t46.5 15q9 0 13 -1l223 -29h4q12 0 26 10t22 20l8 11l48 -2q-2 -6 -5 -15.5t-14.5 -34.5t-25 -44t-36.5 -34.5t-49 -15.5q-8 0 -12 1l-223 31h-3q-13 0 -28 -12t-23 -23l-9 -12zM527 428q-155 -30 -220.5 -83.5t-65.5 -129.5
q0 -43 30.5 -79.5t82.5 -36.5q47 0 95.5 28t77.5 61v240zM702 -18q-79 0 -117 40.5t-38 93.5v15h-12q-12 -23 -31.5 -47t-52 -50t-82 -42.5t-107.5 -16.5q-83 0 -139.5 52.5t-56.5 141.5q0 57 26.5 108.5t80.5 95.5t145 74t209 38v55q0 54 -8 99t-27.5 84t-55 60t-86.5 21
q-31 0 -51 -12t-30.5 -39t-15.5 -55.5t-10 -74.5q-2 -21 -4 -32q-21 0 -35.5 1.5t-35.5 7t-34.5 16t-23.5 31t-10 48.5q0 52 57 101.5t137 77.5q78 27 148 27q132 0 190 -74t58 -234v-364q0 -70 21 -96t90 -38l49 -8l-11 -85q-16 -2 -41 -8t-47.5 -9t-48.5 -3z" />
    <glyph glyph-name="adieresis" unicode="&#xe4;" horiz-adv-x="866" 
d="M559 1162q35 0 61.5 -21.5t26.5 -55.5q0 -35 -26 -58t-62 -23q-34 0 -59 22.5t-25 58.5q0 35 25.5 56t58.5 21zM292 1162q35 0 60.5 -21.5t25.5 -55.5q0 -35 -25.5 -58t-60.5 -23q-34 0 -59 22.5t-25 58.5q0 35 25.5 56t58.5 21zM527 428q-155 -30 -220.5 -83.5
t-65.5 -129.5q0 -43 30.5 -79.5t82.5 -36.5q47 0 95.5 28t77.5 61v240zM702 -18q-79 0 -117 40.5t-38 93.5v15h-12q-12 -23 -31.5 -47t-52 -50t-82 -42.5t-107.5 -16.5q-83 0 -139.5 52.5t-56.5 141.5q0 57 26.5 108.5t80.5 95.5t145 74t209 38v55q0 54 -8 99t-27.5 84
t-55 60t-86.5 21q-31 0 -51 -12t-30.5 -39t-15.5 -55.5t-10 -74.5q-2 -21 -4 -32q-21 0 -35.5 1.5t-35.5 7t-34.5 16t-23.5 31t-10 48.5q0 52 57 101.5t137 77.5q78 27 148 27q132 0 190 -74t58 -234v-364q0 -70 21 -96t90 -38l49 -8l-11 -85q-16 -2 -41 -8t-47.5 -9
t-48.5 -3z" />
    <glyph glyph-name="aring" unicode="&#xe5;" horiz-adv-x="866" 
d="M527 428q-155 -30 -220.5 -83.5t-65.5 -129.5q0 -43 30.5 -79.5t82.5 -36.5q47 0 95.5 28t77.5 61v240zM702 -18q-79 0 -117 40.5t-38 93.5v15h-12q-12 -23 -31.5 -47t-52 -50t-82 -42.5t-107.5 -16.5q-83 0 -139.5 52.5t-56.5 141.5q0 57 26.5 108.5t80.5 95.5t145 74
t209 38v55q0 54 -8 99t-27.5 84t-55 60t-86.5 21q-31 0 -51 -12t-30.5 -39t-15.5 -55.5t-10 -74.5q-2 -21 -4 -32q-21 0 -35.5 1.5t-35.5 7t-34.5 16t-23.5 31t-10 48.5q0 52 57 101.5t137 77.5q78 27 148 27q132 0 190 -74t58 -234v-364q0 -70 21 -96t90 -38l49 -8l-11 -85
q-16 -2 -41 -8t-47.5 -9t-48.5 -3zM403 1291q-42 0 -64 -33t-22 -79q0 -50 25.5 -89.5t70.5 -39.5q41 0 63.5 30t22.5 84q0 51 -26 89t-70 38zM415 1339q71 0 113 -45t42 -117q0 -71 -47.5 -123t-121.5 -52q-70 0 -112 44.5t-42 120.5q0 70 49 121t119 51z" />
    <glyph glyph-name="ae" unicode="&#xe6;" horiz-adv-x="1260" 
d="M527 410q-91 -14 -150 -35t-87.5 -48.5t-38.5 -55.5t-10 -68q0 -119 113 -119q63 0 118 49t55 110v167zM690 507l314 37q8 27 8 70q0 187 -140 187q-66 0 -120.5 -78.5t-61.5 -215.5zM573 175q-32 -96 -116 -148t-195 -52q-85 0 -140.5 47t-55.5 135q0 46 13 84.5t45 75
t84 66t132 55.5t187 46v56q0 261 -165 261q-18 0 -32 -2.5t-25 -10.5t-18.5 -14.5t-14 -23t-10 -26.5t-7 -34.5t-5.5 -37.5t-6 -44q-20 0 -34.5 1t-35.5 7t-34 16t-22.5 30.5t-9.5 48.5q0 52 55 97.5t131 69.5q76 23 148 23q84 0 132.5 -30.5t69.5 -94.5q58 58 131.5 90
t145.5 32q115 0 191.5 -82t76.5 -234q0 -60 -18 -136l-481 -20q2 -49 14 -96t34.5 -91.5t53 -78t76.5 -54t100 -20.5q55 0 103.5 14t124.5 55l20 -51q-60 -63 -145.5 -98.5t-183.5 -35.5q-88 0 -168 43.5t-133 125.5q-8 13 -13 36z" />
    <glyph glyph-name="ccedilla" unicode="&#xe7;" horiz-adv-x="783" 
d="M474 -76q89 -77 89 -150q0 -104 -200 -164l-20 59q41 14 63.5 37t22.5 46q0 40 -73 111l76 108q-109 7 -193.5 70.5t-128.5 161.5t-44 213q0 108 35.5 200.5t95.5 153.5t136 95.5t157 34.5q118 0 179.5 -44.5t61.5 -108.5q0 -45 -32.5 -72.5t-93.5 -32.5q-13 31 -25.5 55
t-33 51.5t-46.5 42.5t-58 15q-90 0 -143 -82t-53 -217q0 -52 10.5 -107.5t34 -111.5t57.5 -99.5t84.5 -71t110.5 -27.5q46 0 86.5 10.5t62.5 21t53 30.5l25 -58q-35 -44 -108 -78.5t-155 -42.5z" />
    <glyph glyph-name="egrave" unicode="&#xe8;" horiz-adv-x="824" 
d="M256 1291l115 38l132 -334l-57 -34zM241 524l314 21q7 22 7 69q0 187 -139 187q-67 0 -121 -70.5t-61 -206.5zM723 451l-484 -5q3 -62 21.5 -121t51 -110t86.5 -82t120 -31h6q43 0 67 2t65 15t89 38l22 -53q-60 -63 -146 -98.5t-183 -35.5q-72 0 -138.5 30t-120.5 85
t-86 144t-32 199q0 109 37 199.5t96.5 148.5t131.5 90t146 32q115 0 191.5 -82t76.5 -234q0 -58 -17 -131z" />
    <glyph glyph-name="eacute" unicode="&#xe9;" horiz-adv-x="824" 
d="M664 1298l-184 -318l-51 32l123 325zM241 524l314 21q7 22 7 69q0 187 -139 187q-67 0 -121 -70.5t-61 -206.5zM723 451l-484 -5q3 -62 21.5 -121t51 -110t86.5 -82t120 -31h6q43 0 67 2t65 15t89 38l22 -53q-60 -63 -146 -98.5t-183 -35.5q-72 0 -138.5 30t-120.5 85
t-86 144t-32 199q0 109 37 199.5t96.5 148.5t131.5 90t146 32q115 0 191.5 -82t76.5 -234q0 -58 -17 -131z" />
    <glyph glyph-name="ecircumflex" unicode="&#xea;" horiz-adv-x="824" 
d="M465 1217l177 -185l-49 -37l-164 110h-10l-139 -111l-38 30l168 179zM723 451l-484 -5q3 -62 21.5 -121t51 -110t86.5 -82t120 -31h6q43 0 67 2t65 15t89 38l22 -53q-60 -63 -146 -98.5t-183 -35.5q-72 0 -138.5 30t-120.5 85t-86 144t-32 199q0 109 37 199.5t96.5 148.5
t131.5 90t146 32q115 0 191.5 -82t76.5 -234q0 -58 -17 -131zM241 524l314 21q7 22 7 69q0 187 -139 187q-67 0 -121 -70.5t-61 -206.5z" />
    <glyph glyph-name="edieresis" unicode="&#xeb;" horiz-adv-x="824" 
d="M571 1162q35 0 61.5 -21.5t26.5 -55.5q0 -35 -26.5 -58t-61.5 -23q-34 0 -59 22.5t-25 58.5q0 35 25.5 56t58.5 21zM303 1162q35 0 60.5 -21.5t25.5 -55.5q0 -35 -25.5 -58t-60.5 -23q-34 0 -58.5 22.5t-24.5 58.5q0 35 25 56t58 21zM723 451l-484 -5q3 -62 21.5 -121
t51 -110t86.5 -82t120 -31h6q43 0 67 2t65 15t89 38l22 -53q-60 -63 -146 -98.5t-183 -35.5q-72 0 -138.5 30t-120.5 85t-86 144t-32 199q0 109 37 199.5t96.5 148.5t131.5 90t146 32q115 0 191.5 -82t76.5 -234q0 -58 -17 -131zM241 524l314 21q7 22 7 69q0 187 -139 187
q-67 0 -121 -70.5t-61 -206.5z" />
    <glyph glyph-name="igrave" unicode="&#xec;" horiz-adv-x="572" 
d="M72 1291l115 38l132 -334l-57 -34zM61 79l152 37v615l-152 55l13 76l281 23l25 -25v-744l160 -35l-11 -81h-480z" />
    <glyph glyph-name="iacute" unicode="&#xed;" horiz-adv-x="572" 
d="M439 1327l-183 -317l-51 32l122 325zM61 79l152 37v615l-152 55l13 76l281 23l25 -25v-744l160 -35l-11 -81h-480z" />
    <glyph glyph-name="icircumflex" unicode="&#xee;" horiz-adv-x="572" 
d="M311 1242l178 -185l-50 -37l-163 109h-10l-140 -111l-38 31l168 179zM61 79l152 37v615l-152 55l13 76l281 23l25 -25v-744l160 -35l-11 -81h-480z" />
    <glyph glyph-name="idieresis" unicode="&#xef;" horiz-adv-x="572" 
d="M418 1187q35 0 61.5 -22t26.5 -55q0 -35 -26.5 -58t-61.5 -23q-34 0 -59 22.5t-25 58.5q0 35 25.5 56t58.5 21zM151 1187q35 0 60 -22t25 -55q0 -35 -25.5 -58t-59.5 -23t-59 22.5t-25 58.5q0 35 25.5 56t58.5 21zM61 79l152 37v615l-152 55l13 76l281 23l25 -25v-744
l160 -35l-11 -81h-480z" />
    <glyph glyph-name="eth" unicode="&#xf0;" horiz-adv-x="954" 
d="M872 466q0 -113 -31.5 -207t-85.5 -155.5t-125.5 -95.5t-152.5 -34t-147.5 26t-111.5 71.5t-76.5 106.5t-45.5 129.5t-14 143.5q0 144 54 258.5t143.5 176.5t195.5 62q17 0 37.5 -4t44 -13t43.5 -28.5t31 -45.5l6 2q-23 74 -110 213l-215 -41l10 75l168 33
q-73 104 -140 164h117q73 -44 152 -132l151 30l-10 -77l-88 -18q200 -267 200 -640zM261 498q2 -201 67.5 -314t171.5 -113q57 0 96.5 24t61 72.5t31 110.5t9.5 146q0 114 -35 214t-89 158t-112 59h-6q-68 0 -112.5 -46t-63.5 -124t-19 -187z" />
    <glyph glyph-name="ntilde" unicode="&#xf1;" horiz-adv-x="1086" 
d="M311 1016q2 6 4 15t13 34t23.5 44t34.5 34t47 15q9 0 13 -1l223 -29h4q12 0 25.5 10t22.5 20l8 11l47 -2q-2 -6 -4.5 -15.5t-14 -34.5t-25 -44t-36.5 -34.5t-50 -15.5q-8 0 -12 1l-223 31h-2q-13 0 -28 -12t-24 -23l-8 -12zM913 616v-502l144 -35l-10 -79h-451l12 72
l137 42v463q0 93 -47.5 139t-125.5 46q-55 0 -107 -23t-90 -64v-561l148 -35l-13 -79h-464l10 72l150 42v607l-153 52l10 76l297 39l18 -19l-18 -127h10q56 67 135 111.5t167 44.5q117 0 179 -73.5t62 -208.5z" />
    <glyph glyph-name="ograve" unicode="&#xf2;" horiz-adv-x="957" 
d="M326 1296l115 38l132 -334l-57 -34zM241 497q0 -81 15 -154t45 -135.5t83.5 -99.5t123.5 -37q67 0 115.5 43.5t70 107t21.5 137.5q0 79 -14.5 153t-43.5 140t-81 106t-120 40q-72 0 -122 -43.5t-71.5 -109.5t-21.5 -148zM893 441q0 -137 -56 -244t-151.5 -165t-211.5 -58
q-192 0 -301.5 126.5t-109.5 325.5q0 110 36.5 202t97.5 151t139 91.5t162 32.5q183 0 289 -126.5t106 -335.5z" />
    <glyph glyph-name="oacute" unicode="&#xf3;" horiz-adv-x="957" 
d="M634 1303l-183 -318l-51 32l122 325zM241 497q0 -81 15 -154t45 -135.5t83.5 -99.5t123.5 -37q67 0 115.5 43.5t70 107t21.5 137.5q0 79 -14.5 153t-43.5 140t-81 106t-120 40q-72 0 -122 -43.5t-71.5 -109.5t-21.5 -148zM893 441q0 -137 -56 -244t-151.5 -165
t-211.5 -58q-192 0 -301.5 126.5t-109.5 325.5q0 110 36.5 202t97.5 151t139 91.5t162 32.5q183 0 289 -126.5t106 -335.5z" />
    <glyph glyph-name="ocircumflex" unicode="&#xf4;" horiz-adv-x="957" 
d="M506 1217l177 -185l-49 -37l-164 110h-9l-140 -111l-38 30l168 179zM241 497q0 -81 15 -154t45 -135.5t83.5 -99.5t123.5 -37q67 0 115.5 43.5t70 107t21.5 137.5q0 79 -14.5 153t-43.5 140t-81 106t-120 40q-72 0 -122 -43.5t-71.5 -109.5t-21.5 -148zM893 441
q0 -137 -56 -244t-151.5 -165t-211.5 -58q-192 0 -301.5 126.5t-109.5 325.5q0 110 36.5 202t97.5 151t139 91.5t162 32.5q183 0 289 -126.5t106 -335.5z" />
    <glyph glyph-name="otilde" unicode="&#xf5;" horiz-adv-x="957" 
d="M247 1016q2 6 4 15t13 34t23.5 44t34.5 34t46 15q9 0 14 -1l223 -29h4q12 0 25.5 10t21.5 20l9 11l47 -2q-2 -6 -4.5 -15.5t-14 -34.5t-25 -44t-36.5 -34.5t-50 -15.5q-8 0 -12 1l-223 31h-2q-13 0 -28 -12t-24 -23l-8 -12zM241 497q0 -81 15 -154t45 -135.5t83.5 -99.5
t123.5 -37q67 0 115.5 43.5t70 107t21.5 137.5q0 79 -14.5 153t-43.5 140t-81 106t-120 40q-72 0 -122 -43.5t-71.5 -109.5t-21.5 -148zM893 441q0 -137 -56 -244t-151.5 -165t-211.5 -58q-192 0 -301.5 126.5t-109.5 325.5q0 110 36.5 202t97.5 151t139 91.5t162 32.5
q183 0 289 -126.5t106 -335.5z" />
    <glyph glyph-name="odieresis" unicode="&#xf6;" horiz-adv-x="957" 
d="M613 1162q35 0 61.5 -21.5t26.5 -55.5q0 -35 -26.5 -58t-61.5 -23q-34 0 -59 22.5t-25 58.5q0 35 25.5 56t58.5 21zM345 1162q35 0 60.5 -21.5t25.5 -55.5q0 -35 -25.5 -58t-60.5 -23q-34 0 -58.5 22.5t-24.5 58.5q0 35 25 56t58 21zM241 497q0 -81 15 -154t45 -135.5
t83.5 -99.5t123.5 -37q67 0 115.5 43.5t70 107t21.5 137.5q0 79 -14.5 153t-43.5 140t-81 106t-120 40q-72 0 -122 -43.5t-71.5 -109.5t-21.5 -148zM893 441q0 -137 -56 -244t-151.5 -165t-211.5 -58q-192 0 -301.5 126.5t-109.5 325.5q0 110 36.5 202t97.5 151t139 91.5
t162 32.5q183 0 289 -126.5t106 -335.5z" />
    <glyph glyph-name="divide" unicode="&#xf7;" horiz-adv-x="988" 
d="M487 903q50 0 85.5 -33t35.5 -80q0 -50 -36 -86.5t-85 -36.5t-84 36.5t-35 87.5q0 48 35 80t84 32zM487 341q49 0 85 -33.5t36 -81.5q0 -50 -36 -86t-85 -36t-84 36.5t-35 87.5q0 48 35 80.5t84 32.5zM94 560h812l-11 -106h-813z" />
    <glyph glyph-name="oslash" unicode="&#xf8;" horiz-adv-x="957" 
d="M893 441q0 -137 -56 -244t-151.5 -165t-211.5 -58q-79 0 -151 24l-43 -79l-138 -9l78 144q-76 60 -116.5 157t-40.5 215q0 110 36.5 202t97.5 151t139 91.5t162 32.5q80 0 150 -27l33 62l141 8l-71 -133q69 -61 105.5 -156.5t36.5 -215.5zM646 671l-284 -545
q60 -55 146 -55q67 0 115.5 43.5t70 107t21.5 137.5q-1 187 -69 312zM601 734q-61 63 -145 64q-72 0 -122 -43.5t-71.5 -109.5t-21.5 -148q0 -197 75 -316z" />
    <glyph glyph-name="ugrave" unicode="&#xf9;" 
d="M345 1296l116 38l132 -334l-58 -34zM682 131h-12q-104 -154 -287 -154q-223 0 -223 290v461l-137 55l13 79l269 21l24 -24v-542q0 -203 155 -203q112 0 186 78v531l-160 42l10 90l294 28l22 -24v-644q0 -36 6.5 -59.5t23.5 -36.5t32 -18.5t46 -11.5l45 -10l-8 -84
q-76 -18 -152 -18q-72 0 -109.5 40.5t-37.5 105.5v8z" />
    <glyph glyph-name="uacute" unicode="&#xfa;" 
d="M654 1303l-184 -318l-51 32l123 325zM682 131h-12q-104 -154 -287 -154q-223 0 -223 290v461l-137 55l13 79l269 21l24 -24v-542q0 -203 155 -203q112 0 186 78v531l-160 42l10 90l294 28l22 -24v-644q0 -36 6.5 -59.5t23.5 -36.5t32 -18.5t46 -11.5l45 -10l-8 -84
q-76 -18 -152 -18q-72 0 -109.5 40.5t-37.5 105.5v8z" />
    <glyph glyph-name="ucircumflex" unicode="&#xfb;" 
d="M526 1217l177 -185l-49 -37l-164 110h-10l-139 -111l-38 30l167 179zM682 131h-12q-104 -154 -287 -154q-223 0 -223 290v461l-137 55l13 79l269 21l24 -24v-542q0 -203 155 -203q112 0 186 78v531l-160 42l10 90l294 28l22 -24v-644q0 -36 6.5 -59.5t23.5 -36.5
t32 -18.5t46 -11.5l45 -10l-8 -84q-76 -18 -152 -18q-72 0 -109.5 40.5t-37.5 105.5v8z" />
    <glyph glyph-name="udieresis" unicode="&#xfc;" 
d="M632 1162q35 0 62 -21.5t27 -55.5q0 -35 -26.5 -58t-62.5 -23q-34 0 -58.5 22.5t-24.5 58.5q0 35 25 56t58 21zM365 1162q35 0 60.5 -21.5t25.5 -55.5q0 -35 -25.5 -58t-60.5 -23q-34 0 -59 22.5t-25 58.5q0 35 25.5 56t58.5 21zM682 131h-12q-104 -154 -287 -154
q-223 0 -223 290v461l-137 55l13 79l269 21l24 -24v-542q0 -203 155 -203q112 0 186 78v531l-160 42l10 90l294 28l22 -24v-644q0 -36 6.5 -59.5t23.5 -36.5t32 -18.5t46 -11.5l45 -10l-8 -84q-76 -18 -152 -18q-72 0 -109.5 40.5t-37.5 105.5v8z" />
    <glyph glyph-name="yacute" unicode="&#xfd;" horiz-adv-x="944" 
d="M707 1298l-184 -318l-51 32l123 325zM127 758l-124 38l12 77h419l-8 -74l-127 -37l204 -540l215 535l-130 41l13 75h343l-8 -74l-100 -41l-331 -811q-77 -190 -148.5 -258.5t-187.5 -68.5q-66 0 -110 36.5t-44 82.5q0 72 56 120q78 -54 150 -54q23 0 41 4.5t42 17.5
t47 44.5t42 79.5l20 49z" />
    <glyph glyph-name="thorn" unicode="&#xfe;" horiz-adv-x="1005" 
d="M178 1118l-152 53l13 76l283 21l25 -23v-396l-15 -104h12q24 27 38 42t43 39t53.5 37t60.5 23.5t74 10.5q132 0 219.5 -115t87.5 -313q0 -103 -32.5 -193t-88 -153t-132 -99.5t-162.5 -36.5q-58 0 -100 15l-4 100q44 -10 88 -10q61 0 105.5 19.5t70 49t41 73t20.5 84.5
t5 90q0 359 -189 359q-110 0 -198 -92v-926l154 -34l-11 -82h-467l8 80l152 36z" />
    <glyph glyph-name="ydieresis" unicode="&#xff;" horiz-adv-x="944" 
d="M378 1174q35 0 60 -22t25 -56q0 -35 -25.5 -57.5t-59.5 -22.5t-59 22.5t-25 57.5t25.5 56.5t58.5 21.5zM645 1174q35 0 61.5 -22t26.5 -56q0 -35 -26.5 -57.5t-61.5 -22.5q-34 0 -59 22.5t-25 57.5t25.5 56.5t58.5 21.5zM127 758l-124 38l12 77h419l-8 -74l-127 -37
l204 -540l215 535l-130 41l13 75h343l-8 -74l-100 -41l-331 -811q-77 -190 -148.5 -258.5t-187.5 -68.5q-66 0 -110 36.5t-44 82.5q0 72 56 120q78 -54 150 -54q23 0 41 4.5t42 17.5t47 44.5t42 79.5l20 49z" />
    <glyph glyph-name="Amacron" unicode="&#x100;" horiz-adv-x="1278" 
d="M468 1485h441l-13 -101h-441zM750 1268l389 -1144l138 -43l-9 -81h-515l12 74l171 55l-109 304h-419l-113 -309l187 -43l-12 -81h-468l10 74l148 55l438 1108zM446 534h352l-167 500z" />
    <glyph glyph-name="amacron" unicode="&#x101;" horiz-adv-x="866" 
d="M215 1116h441l-14 -100h-440zM527 428q-155 -30 -220.5 -83.5t-65.5 -129.5q0 -43 30.5 -79.5t82.5 -36.5q47 0 95.5 28t77.5 61v240zM702 -18q-79 0 -117 40.5t-38 93.5v15h-12q-12 -23 -31.5 -47t-52 -50t-82 -42.5t-107.5 -16.5q-83 0 -139.5 52.5t-56.5 141.5
q0 57 26.5 108.5t80.5 95.5t145 74t209 38v55q0 54 -8 99t-27.5 84t-55 60t-86.5 21q-31 0 -51 -12t-30.5 -39t-15.5 -55.5t-10 -74.5q-2 -21 -4 -32q-21 0 -35.5 1.5t-35.5 7t-34.5 16t-23.5 31t-10 48.5q0 52 57 101.5t137 77.5q78 27 148 27q132 0 190 -74t58 -234v-364
q0 -70 21 -96t90 -38l49 -8l-11 -85q-16 -2 -41 -8t-47.5 -9t-48.5 -3z" />
    <glyph glyph-name="Abreve" unicode="&#x102;" horiz-adv-x="1278" 
d="M491 1557l46 32l8 -17q17 -34 52.5 -59t82.5 -25q90 0 142 85l10 18l41 -29l-6 -20q-23 -69 -71 -116t-116 -47q-74 0 -121 46t-63 112zM750 1268l389 -1144l138 -43l-9 -81h-515l12 74l171 55l-109 304h-419l-113 -309l187 -43l-12 -81h-468l10 74l148 55l438 1108z
M446 534h352l-167 500z" />
    <glyph glyph-name="abreve" unicode="&#x103;" horiz-adv-x="866" 
d="M239 1188l46 33l8 -18q17 -34 52.5 -59t82.5 -25q90 0 142 86l10 17l41 -29l-7 -19q-23 -69 -70.5 -116t-115.5 -47q-74 0 -121 46t-64 112zM527 428q-155 -30 -220.5 -83.5t-65.5 -129.5q0 -43 30.5 -79.5t82.5 -36.5q47 0 95.5 28t77.5 61v240zM702 -18
q-79 0 -117 40.5t-38 93.5v15h-12q-12 -23 -31.5 -47t-52 -50t-82 -42.5t-107.5 -16.5q-83 0 -139.5 52.5t-56.5 141.5q0 57 26.5 108.5t80.5 95.5t145 74t209 38v55q0 54 -8 99t-27.5 84t-55 60t-86.5 21q-31 0 -51 -12t-30.5 -39t-15.5 -55.5t-10 -74.5q-2 -21 -4 -32
q-21 0 -35.5 1.5t-35.5 7t-34.5 16t-23.5 31t-10 48.5q0 52 57 101.5t137 77.5q78 27 148 27q132 0 190 -74t58 -234v-364q0 -70 21 -96t90 -38l49 -8l-11 -85q-16 -2 -41 -8t-47.5 -9t-48.5 -3z" />
    <glyph glyph-name="Aogonek" unicode="&#x104;" horiz-adv-x="1278" 
d="M1126 -149q0 -51 30 -100.5t94 -86.5l-34 -51q-106 11 -172 62t-66 117q0 45 26.5 90.5t107.5 117.5h-359l12 74l171 55l-109 304h-419l-113 -309l187 -43l-12 -81h-468l10 74l148 55l438 1108l152 31l389 -1144l138 -43l-9 -81h-82q-60 -99 -60 -149zM446 534h352
l-167 500z" />
    <glyph glyph-name="aogonek" unicode="&#x105;" horiz-adv-x="866" 
d="M751 -149q0 -51 30 -100.5t94 -86.5l-34 -51q-106 11 -172 62t-66 117q0 42 23 84t92 106h-16q-79 0 -117 40.5t-38 93.5v15h-12q-12 -23 -31.5 -47t-52 -50t-82 -42.5t-107.5 -16.5q-83 0 -139.5 52.5t-56.5 141.5q0 57 26.5 108.5t80.5 95.5t145 74t209 38v55
q0 54 -8 99t-27.5 84t-55 60t-86.5 21q-31 0 -51 -12t-30.5 -39t-15.5 -55.5t-10 -74.5q-2 -21 -4 -32q-21 0 -35.5 1.5t-35.5 7t-34.5 16t-23.5 31t-10 48.5q0 52 57 101.5t137 77.5q78 27 148 27q132 0 190 -74t58 -234v-364q0 -70 21 -96t90 -38l49 -8l-11 -85
q-11 -2 -30 -5q-58 -97 -58 -146zM527 428q-155 -30 -220.5 -83.5t-65.5 -129.5q0 -43 30.5 -79.5t82.5 -36.5q47 0 95.5 28t77.5 61v240z" />
    <glyph glyph-name="Cacute" unicode="&#x106;" horiz-adv-x="1111" 
d="M827 1671l-183 -317l-51 32l123 325zM264 659q0 -130 37.5 -236t101 -173t144.5 -103t171 -36q95 0 187 42.5t162 107.5l36 -76q-68 -82 -193 -146t-269 -64q-117 0 -222.5 41t-188.5 116t-132 194t-49 264q0 65 11.5 130.5t37 133t61.5 128t89 113.5t117 92t148.5 61
t179.5 22q229 0 362 -100l-31 -333l-88 13l-41 220q-81 104 -259 105q-160 0 -266 -140t-106 -376z" />
    <glyph glyph-name="cacute" unicode="&#x107;" horiz-adv-x="783" 
d="M603 1319l-184 -317l-51 32l123 325zM543 90q46 0 86.5 10.5t62.5 21t53 30.5l25 -58q-41 -50 -128.5 -87t-180.5 -37q-117 0 -208.5 62t-139 163t-47.5 221q0 108 35.5 200.5t95.5 153.5t136 95.5t157 34.5q118 0 179.5 -44.5t61.5 -108.5q0 -45 -32.5 -72.5
t-93.5 -32.5q-13 31 -25.5 55t-33 51.5t-46.5 42.5t-58 15q-90 0 -143 -82t-53 -217q0 -52 10.5 -107.5t34 -111.5t57.5 -99.5t84.5 -71t110.5 -27.5z" />
    <glyph glyph-name="Cdotaccent" unicode="&#x10a;" horiz-adv-x="1111" 
d="M691 1592q50 0 86 -33t36 -81q0 -50 -36.5 -86.5t-85.5 -36.5t-84 37t-35 88q0 48 35.5 80t83.5 32zM264 659q0 -130 37.5 -236t101 -173t144.5 -103t171 -36q95 0 187 42.5t162 107.5l36 -76q-68 -82 -193 -146t-269 -64q-117 0 -222.5 41t-188.5 116t-132 194t-49 264
q0 65 11.5 130.5t37 133t61.5 128t89 113.5t117 92t148.5 61t179.5 22q229 0 362 -100l-31 -333l-88 13l-41 220q-81 104 -259 105q-160 0 -266 -140t-106 -376z" />
    <glyph glyph-name="cdotaccent" unicode="&#x10b;" horiz-adv-x="783" 
d="M489 1224q50 0 86 -33.5t36 -80.5q0 -50 -36.5 -86.5t-86 -36.5t-84 36.5t-34.5 87.5q0 48 35.5 80.5t83.5 32.5zM543 90q46 0 86.5 10.5t62.5 21t53 30.5l25 -58q-41 -50 -128.5 -87t-180.5 -37q-117 0 -208.5 62t-139 163t-47.5 221q0 108 35.5 200.5t95.5 153.5
t136 95.5t157 34.5q118 0 179.5 -44.5t61.5 -108.5q0 -45 -32.5 -72.5t-93.5 -32.5q-13 31 -25.5 55t-33 51.5t-46.5 42.5t-58 15q-90 0 -143 -82t-53 -217q0 -52 10.5 -107.5t34 -111.5t57.5 -99.5t84.5 -71t110.5 -27.5z" />
    <glyph glyph-name="Ccaron" unicode="&#x10c;" horiz-adv-x="1111" 
d="M641 1362l-180 165l81 62l149 -144h10l123 141l44 -31l-172 -179zM264 659q0 -130 37.5 -236t101 -173t144.5 -103t171 -36q95 0 187 42.5t162 107.5l36 -76q-68 -82 -193 -146t-269 -64q-117 0 -222.5 41t-188.5 116t-132 194t-49 264q0 65 11.5 130.5t37 133t61.5 128
t89 113.5t117 92t148.5 61t179.5 22q229 0 362 -100l-31 -333l-88 13l-41 220q-81 104 -259 105q-160 0 -266 -140t-106 -376z" />
    <glyph glyph-name="ccaron" unicode="&#x10d;" horiz-adv-x="783" 
d="M416 1010l-179 165l80 62l149 -144h10l124 141l43 -31l-172 -179zM543 90q46 0 86.5 10.5t62.5 21t53 30.5l25 -58q-41 -50 -128.5 -87t-180.5 -37q-117 0 -208.5 62t-139 163t-47.5 221q0 108 35.5 200.5t95.5 153.5t136 95.5t157 34.5q118 0 179.5 -44.5t61.5 -108.5
q0 -45 -32.5 -72.5t-93.5 -32.5q-13 31 -25.5 55t-33 51.5t-46.5 42.5t-58 15q-90 0 -143 -82t-53 -217q0 -52 10.5 -107.5t34 -111.5t57.5 -99.5t84.5 -71t110.5 -27.5z" />
    <glyph glyph-name="Dcaron" unicode="&#x10e;" horiz-adv-x="1324" 
d="M597 1362l-179 165l80 62l149 -144h10l124 141l43 -31l-172 -179zM395 1151v-1047h145q129 0 231 39.5t165 107.5t95 156.5t32 190.5q0 93 -21 175.5t-65 153t-108.5 121.5t-154.5 79.5t-197 28.5q-81 0 -122 -5zM1275 654q0 -104 -29.5 -199.5t-92 -178.5t-151.5 -144
t-215 -96.5t-275 -35.5h-494l13 74l172 55v974l-172 30l8 76q310 49 515 49q118 0 216.5 -17t172 -48t131 -75.5t95 -96t61.5 -113t34.5 -124t10.5 -130.5z" />
    <glyph glyph-name="dcaron" unicode="&#x10f;" horiz-adv-x="1008" 
d="M18 839q92 24 137 72t45 101q0 44 -32.5 75.5t-83.5 31.5q-20 0 -30 -1q-15 39 -15 62q0 56 39.5 88.5t83.5 32.5q28 0 57 -12t56.5 -35.5t44.5 -65t17 -95.5q0 -33 -5 -63.5t-23.5 -70.5t-49 -73t-87 -64.5t-131.5 -51.5zM679 131h-10q-110 -152 -277 -152
q-139 0 -232.5 111.5t-93.5 309.5q0 105 39.5 200t102 160t140.5 103t155 38q49 0 98 -13.5t74 -32.5h8l-13 130v126l-152 55l14 74l277 25l23 -25v-1025q0 -37 6.5 -60t22 -35.5t30 -18t42.5 -11.5q6 -1 8 -1l45 -10l-11 -84q-72 -18 -148 -18q-72 0 -110 40.5t-38 106.5v7
zM669 197v468q-38 63 -99 100.5t-114 37.5q-58 0 -100 -26t-66 -73.5t-35.5 -107t-11.5 -134.5q0 -172 61 -264t160 -92q59 0 117.5 28t87.5 63z" />
    <glyph glyph-name="Dcroat" unicode="&#x110;" horiz-adv-x="1324" 
d="M1288 659q0 -99 -31 -194t-94 -179t-152 -148t-213 -101t-267 -37h-513l13 74l172 55v441l-180 -15l12 92l168 13v445l-172 29l8 77q310 49 515 49q164 0 291.5 -33.5t210 -89t135.5 -134.5t75 -163t22 -181zM395 582v-478h211q119 0 211 40.5t146.5 111t82 157
t27.5 185.5q0 117 -35 217t-102.5 177t-175 121t-243.5 44q-67 0 -122 -6v-479l257 21l-11 -92z" />
    <glyph glyph-name="dcroat" unicode="&#x111;" horiz-adv-x="1008" 
d="M679 131h-10q-110 -152 -277 -152q-139 0 -232.5 111.5t-93.5 309.5q0 105 39.5 200t102 160t140.5 103t155 38q49 0 98 -13.5t74 -32.5h8l-13 130v2h-187l13 76h174v48l-152 55l14 74l277 25l23 -25v-177h105l-13 -76h-92v-772q0 -37 6.5 -60t22 -35.5t30 -18
t42.5 -11.5q6 -1 8 -1l45 -10l-11 -84q-72 -18 -148 -18q-72 0 -110 40.5t-38 106.5v7zM669 197v468q-38 63 -99 100.5t-114 37.5q-58 0 -100 -26t-66 -73.5t-35.5 -107t-11.5 -134.5q0 -172 61 -264t160 -92q59 0 117.5 28t87.5 63z" />
    <glyph glyph-name="Emacron" unicode="&#x112;" horiz-adv-x="1074" 
d="M360 1485h441l-13 -101h-441zM35 1244h996l-32 -320l-86 14l-41 214h-472v-475h290l43 119l94 13l-32 -388l-87 -13l-33 175h-275v-488h497l97 231l83 -13l-30 -313h-1016l8 74l167 47v1005l-181 42z" />
    <glyph glyph-name="emacron" unicode="&#x113;" horiz-adv-x="824" 
d="M226 1116h441l-13 -100h-441zM723 451l-484 -5q3 -62 21.5 -121t51 -110t86.5 -82t120 -31h6q43 0 67 2t65 15t89 38l22 -53q-60 -63 -146 -98.5t-183 -35.5q-72 0 -138.5 30t-120.5 85t-86 144t-32 199q0 109 37 199.5t96.5 148.5t131.5 90t146 32q115 0 191.5 -82
t76.5 -234q0 -58 -17 -131zM241 524l314 21q7 22 7 69q0 187 -139 187q-67 0 -121 -70.5t-61 -206.5z" />
    <glyph glyph-name="Edotaccent" unicode="&#x116;" horiz-adv-x="1074" 
d="M680 1464q0 -45 -31.5 -76.5t-76.5 -31.5q-44 0 -75 32t-31 76t31 75.5t75 31.5t76 -31.5t32 -75.5zM35 1244h996l-32 -320l-86 14l-41 214h-472v-475h290l43 119l94 13l-32 -388l-87 -13l-33 175h-275v-488h497l97 231l83 -13l-30 -313h-1016l8 74l167 47v1005l-181 42z
" />
    <glyph glyph-name="edotaccent" unicode="&#x117;" horiz-adv-x="824" 
d="M436 1229q50 0 86 -33.5t36 -81.5q0 -50 -36.5 -86t-85.5 -36t-84 36.5t-35 87.5q0 48 35.5 80.5t83.5 32.5zM723 451l-484 -5q3 -62 21.5 -121t51 -110t86.5 -82t120 -31h6q43 0 67 2t65 15t89 38l22 -53q-60 -63 -146 -98.5t-183 -35.5q-72 0 -138.5 30t-120.5 85
t-86 144t-32 199q0 109 37 199.5t96.5 148.5t131.5 90t146 32q115 0 191.5 -82t76.5 -234q0 -58 -17 -131zM241 524l314 21q7 22 7 69q0 187 -139 187q-67 0 -121 -70.5t-61 -206.5z" />
    <glyph glyph-name="Eogonek" unicode="&#x118;" horiz-adv-x="1074" 
d="M926 -149q0 -51 30 -100.5t94 -86.5l-34 -51q-106 11 -172 62t-66 117q0 45 26.5 90.5t107.5 117.5h-881l8 74l167 47v1005l-181 42l10 76h996l-32 -320l-86 14l-41 214h-472v-475h290l43 119l94 13l-32 -388l-87 -13l-33 175h-275v-488h497l97 231l83 -13l-30 -313h-61
q-60 -99 -60 -149z" />
    <glyph glyph-name="eogonek" unicode="&#x119;" horiz-adv-x="824" 
d="M551 -149q0 -51 30 -100.5t94 -86.5l-34 -51q-106 11 -172 62t-66 117q0 41 21.5 81.5t86.5 101.5q-35 -5 -73 -5q-72 0 -138.5 30t-120.5 85t-86 144t-32 199q0 109 37 199.5t96.5 148.5t131.5 90t146 32q115 0 191.5 -82t76.5 -234q0 -58 -17 -131l-484 -5
q3 -62 21.5 -121t51 -110t86.5 -82t120 -31h6q43 0 67 2t65 15t89 38l22 -53q-64 -67 -155 -102q-61 -100 -61 -151zM241 524l314 21q7 22 7 69q0 187 -139 187q-67 0 -121 -70.5t-61 -206.5z" />
    <glyph glyph-name="Ecaron" unicode="&#x11a;" horiz-adv-x="1074" 
d="M540 1362l-180 165l81 62l149 -144h10l123 141l44 -31l-172 -179zM35 1244h996l-32 -320l-86 14l-41 214h-472v-475h290l43 119l94 13l-32 -388l-87 -13l-33 175h-275v-488h497l97 231l83 -13l-30 -313h-1016l8 74l167 47v1005l-181 42z" />
    <glyph glyph-name="ecaron" unicode="&#x11b;" horiz-adv-x="824" 
d="M405 994l-179 165l81 62l149 -144h10l123 140l43 -30l-171 -179zM723 451l-484 -5q3 -62 21.5 -121t51 -110t86.5 -82t120 -31h6q43 0 67 2t65 15t89 38l22 -53q-60 -63 -146 -98.5t-183 -35.5q-72 0 -138.5 30t-120.5 85t-86 144t-32 199q0 109 37 199.5t96.5 148.5
t131.5 90t146 32q115 0 191.5 -82t76.5 -234q0 -58 -17 -131zM241 524l314 21q7 22 7 69q0 187 -139 187q-67 0 -121 -70.5t-61 -206.5z" />
    <glyph glyph-name="Gbreve" unicode="&#x11e;" horiz-adv-x="1276" 
d="M550 1557l46 32l9 -17q17 -34 52.5 -59t81.5 -25q90 0 143 85l10 18l41 -29l-7 -20q-23 -69 -70.5 -116t-116.5 -47q-74 0 -120.5 46t-63.5 112zM1129 1163l-24 -322l-88 14l-36 192q-43 43 -130.5 78.5t-193.5 35.5q-61 0 -116.5 -17.5t-106 -58t-88 -98.5t-59 -145.5
t-21.5 -194.5q0 -113 33 -214.5t94 -181t156.5 -127t210.5 -47.5q101 0 173 42v315l-236 38l11 83h557l-12 -75l-124 -41v-360q-98 -58 -214 -84t-268 -26q-118 0 -216.5 30.5t-168.5 85.5t-118.5 131.5t-71.5 167.5t-23 194q0 155 56 286.5t148.5 216.5t210 132t243.5 47
q260 0 422 -97z" />
    <glyph glyph-name="gbreve" unicode="&#x11f;" horiz-adv-x="881" 
d="M250 1188l46 33l8 -18q17 -34 52.5 -59t82.5 -25q91 0 143 86l9 17l41 -29l-6 -19q-23 -69 -71 -116t-116 -47q-74 0 -121 46t-63 112zM249 608q0 -98 53 -163t113 -65q69 0 108 49t39 151q0 57 -18 110.5t-56 92.5t-88 39q-75 0 -113 -56.5t-38 -157.5zM429 151h138
q63 0 107.5 -7.5t85.5 -28t62.5 -62t21.5 -104.5q0 -85 -67 -163t-174.5 -125.5t-219.5 -47.5q-73 0 -134.5 11.5t-114.5 36.5t-83 70t-30 107q0 26 13.5 52t28 43t42.5 37t40 27t37 21v8q-47 22 -71.5 58t-24.5 80q0 39 53.5 89t113.5 74v9q-49 12 -106.5 87t-57.5 167
q0 81 48 152t125.5 113t160.5 42q123 0 211 -63l215 15l20 -23l-38 -111h-17l-124 40v-16q35 -73 35 -139t-31.5 -123.5t-81 -94.5t-109 -58.5t-116.5 -21.5q-55 0 -90 10q-51 -54 -51 -89q0 -23 12.5 -37.5t54 -24.5t116.5 -10zM249 3q-2 -1 -5.5 -2.5t-12 -9.5
t-15.5 -19.5t-12.5 -32.5t-5.5 -47q0 -171 240 -171q51 0 92.5 9.5t74 29.5t51 55.5t18.5 84.5q0 64 -54 83.5t-197 19.5h-174z" />
    <glyph glyph-name="Gdotaccent" unicode="&#x120;" horiz-adv-x="1276" 
d="M703 1592q50 0 86.5 -33t36.5 -81q0 -50 -36.5 -86.5t-86 -36.5t-84 37t-34.5 88q0 48 35 80t83 32zM1129 1163l-24 -322l-88 14l-36 192q-43 43 -130.5 78.5t-193.5 35.5q-61 0 -116.5 -17.5t-106 -58t-88 -98.5t-59 -145.5t-21.5 -194.5q0 -113 33 -214.5t94 -181
t156.5 -127t210.5 -47.5q101 0 173 42v315l-236 38l11 83h557l-12 -75l-124 -41v-360q-98 -58 -214 -84t-268 -26q-118 0 -216.5 30.5t-168.5 85.5t-118.5 131.5t-71.5 167.5t-23 194q0 155 56 286.5t148.5 216.5t210 132t243.5 47q260 0 422 -97z" />
    <glyph glyph-name="gdotaccent" unicode="&#x121;" horiz-adv-x="881" 
d="M438 1224q50 0 86.5 -33.5t36.5 -80.5q0 -50 -36.5 -86.5t-86 -36.5t-84 36.5t-34.5 87.5q0 48 35 80.5t83 32.5zM249 3q-2 -1 -5.5 -2.5t-12 -9.5t-15.5 -19.5t-12.5 -32.5t-5.5 -47q0 -171 240 -171q51 0 92.5 9.5t74 29.5t51 55.5t18.5 84.5q0 64 -54 83.5t-197 19.5
h-174zM429 151h138q63 0 107.5 -7.5t85.5 -28t62.5 -62t21.5 -104.5q0 -85 -67 -163t-174.5 -125.5t-219.5 -47.5q-73 0 -134.5 11.5t-114.5 36.5t-83 70t-30 107q0 26 13.5 52t28 43t42.5 37t40 27t37 21v8q-47 22 -71.5 58t-24.5 80q0 39 53.5 89t113.5 74v9
q-49 12 -106.5 87t-57.5 167q0 81 48 152t125.5 113t160.5 42q123 0 211 -63l215 15l20 -23l-38 -111h-17l-124 40v-16q35 -73 35 -139t-31.5 -123.5t-81 -94.5t-109 -58.5t-116.5 -21.5q-55 0 -90 10q-51 -54 -51 -89q0 -23 12.5 -37.5t54 -24.5t116.5 -10zM249 608
q0 -98 53 -163t113 -65q69 0 108 49t39 151q0 57 -18 110.5t-56 92.5t-88 39q-75 0 -113 -56.5t-38 -157.5z" />
    <glyph glyph-name="Gcommaaccent" unicode="&#x122;" horiz-adv-x="1276" 
d="M706 -85q37 0 69 -29t32 -89q0 -23 -8.5 -48t-28 -52.5t-58 -51t-90.5 -35.5l-18 54q93 23 93 89q0 23 -30.5 50t-49.5 29q7 35 31 59t58 24zM1129 1163l-24 -322l-88 14l-36 192q-43 43 -130.5 78.5t-193.5 35.5q-61 0 -116.5 -17.5t-106 -58t-88 -98.5t-59 -145.5
t-21.5 -194.5q0 -113 33 -214.5t94 -181t156.5 -127t210.5 -47.5q101 0 173 42v315l-236 38l11 83h557l-12 -75l-124 -41v-360q-98 -58 -214 -84t-268 -26q-118 0 -216.5 30.5t-168.5 85.5t-118.5 131.5t-71.5 167.5t-23 194q0 155 56 286.5t148.5 216.5t210 132t243.5 47
q260 0 422 -97z" />
    <glyph glyph-name="gcommaaccent" unicode="&#x123;" horiz-adv-x="881" 
d="M432 992q-37 0 -69 29t-32 89q0 23 8.5 48t28 52.5t57.5 51t91 35.5l18 -53q-93 -23 -93 -90q0 -23 30.5 -50t49.5 -29q-7 -35 -31 -59t-58 -24zM249 608q0 -98 53 -163t113 -65q69 0 108 49t39 151q0 57 -18 110.5t-56 92.5t-88 39q-75 0 -113 -56.5t-38 -157.5z
M429 151h138q63 0 107.5 -7.5t85.5 -28t62.5 -62t21.5 -104.5q0 -85 -67 -163t-174.5 -125.5t-219.5 -47.5q-73 0 -134.5 11.5t-114.5 36.5t-83 70t-30 107q0 26 13.5 52t28 43t42.5 37t40 27t37 21v8q-47 22 -71.5 58t-24.5 80q0 39 53.5 89t113.5 74v9q-49 12 -106.5 87
t-57.5 167q0 81 48 152t125.5 113t160.5 42q123 0 211 -63l215 15l20 -23l-38 -111h-17l-124 40v-16q35 -73 35 -139t-31.5 -123.5t-81 -94.5t-109 -58.5t-116.5 -21.5q-55 0 -90 10q-51 -54 -51 -89q0 -23 12.5 -37.5t54 -24.5t116.5 -10zM249 3q-2 -1 -5.5 -2.5t-12 -9.5
t-15.5 -19.5t-12.5 -32.5t-5.5 -47q0 -171 240 -171q51 0 92.5 9.5t74 29.5t51 55.5t18.5 84.5q0 64 -54 83.5t-197 19.5h-174z" />
    <glyph glyph-name="Hbar" unicode="&#x126;" horiz-adv-x="1416" 
d="M94 870l8 96h104v160l-181 42l10 76h545l-10 -76l-169 -39v-163h628v160l-183 42l11 76h545l-11 -76l-167 -39v-163h104l-8 -96h-96v-756l182 -33l-10 -81h-544l12 74l165 47v470l-628 -1v-476l185 -33l-13 -81h-542l8 74l167 47v749h-112zM1029 870h-628v-178h628v178z
" />
    <glyph glyph-name="hbar" unicode="&#x127;" horiz-adv-x="1066" 
d="M36 943l8 96h154v79l-160 53l11 76l290 23l25 -25v-206h159l-8 -96h-151v-93l-17 -105h12q140 156 293 156q56 0 97.5 -13.5t76 -46t52 -93t17.5 -148.5v-486l145 -35l-11 -79h-449l11 74l135 40l4 459v7q0 51 -16 88.5t-42 57.5t-54.5 29.5t-60.5 9.5q-105 0 -193 -90
v-559l146 -35l-12 -81h-465l11 79l154 37v827h-162z" />
    <glyph glyph-name="Imacron" unicode="&#x12a;" horiz-adv-x="600" 
d="M91 1485h441l-13 -101h-441zM572 0h-541l8 74l167 47v1005l-181 42l10 76h545l-10 -76l-170 -39v-1015l182 -33z" />
    <glyph glyph-name="imacron" unicode="&#x12b;" horiz-adv-x="572" 
d="M73 1141h441l-13 -101h-441zM61 79l152 37v615l-152 55l13 76l281 23l25 -25v-744l160 -35l-11 -81h-480z" />
    <glyph glyph-name="Iogonek" unicode="&#x12e;" horiz-adv-x="600" 
d="M497 -149q0 -51 30 -100.5t94 -86.5l-35 -51q-106 11 -171.5 62t-65.5 117q0 45 26 90.5t108 117.5h-452l8 74l167 47v1005l-181 42l10 76h545l-10 -76l-170 -39v-1015l182 -33l-10 -81h-15q-60 -99 -60 -149z" />
    <glyph glyph-name="iogonek" unicode="&#x12f;" horiz-adv-x="572" 
d="M458 -149q0 -51 30 -100.5t94 -86.5l-34 -51q-106 11 -172 62t-66 117q0 45 26.5 90.5t107.5 117.5h-395l12 79l152 37v615l-152 55l13 76l281 23l25 -25v-744l160 -35l-11 -81h-11q-60 -99 -60 -149zM282 1253q50 0 86.5 -33t36.5 -81q0 -50 -37 -86t-86 -36t-83.5 36.5
t-34.5 87.5q0 48 35 80t83 32z" />
    <glyph glyph-name="Idotaccent" unicode="&#x130;" horiz-adv-x="600" 
d="M300 1597q50 0 86.5 -33t36.5 -81q0 -50 -36.5 -86.5t-86 -36.5t-84 37t-34.5 88q0 48 35 80t83 32zM572 0h-541l8 74l167 47v1005l-181 42l10 76h545l-10 -76l-170 -39v-1015l182 -33z" />
    <glyph glyph-name="dotlessi" unicode="&#x131;" horiz-adv-x="572" 
d="M61 79l152 37v615l-152 55l13 76l281 23l25 -25v-744l160 -35l-11 -81h-480z" />
    <glyph glyph-name="Kcommaaccent" unicode="&#x136;" horiz-adv-x="1214" 
d="M718 -105q37 0 69 -29.5t32 -89.5q0 -23 -8.5 -47.5t-28 -52t-57.5 -51t-91 -35.5l-18 53q93 23 93 90q0 23 -30.5 49.5t-49.5 29.5q7 35 31 59t58 24zM426 605l-2 21q24 24 77.5 83.5t75.5 88.5l245 323l-155 47l8 76h493l-12 -76l-176 -47l-374 -467l228 -269
q57 -67 84 -98t66.5 -72.5t66 -62t61.5 -39.5t72 -31l38 -11l-11 -69q-64 -23 -131 -23q-60 0 -116 21t-106 62t-92 87.5t-89 111.5zM400 124l190 -43l-12 -81h-553l10 74l171 55v989l-188 50l13 76h551l-10 -76l-172 -47v-997z" />
    <glyph glyph-name="kcommaaccent" unicode="&#x137;" horiz-adv-x="986" 
d="M537 -85q37 0 69 -29t32 -89q0 -23 -8.5 -48t-28 -52.5t-57.5 -51t-91 -35.5l-18 54q93 23 93 89q0 23 -30.5 50t-49.5 29q7 35 31 59t58 24zM388 452l259 324l-134 42l12 75h425l-14 -74l-150 -41l-236 -291l79 -100q25 -31 57.5 -74t50 -66t42.5 -53t42 -45t39.5 -31
t45.5 -24t49 -12l39 -5l-11 -77q-59 -20 -119 -20q-49 0 -89.5 15.5t-86 57.5t-85.5 91t-110 143l-105 146v19zM44 79l153 37v992l-158 53l12 76l288 23l25 -25v-57v-1062l159 -35l-11 -81h-479z" />
    <glyph glyph-name="Lacute" unicode="&#x139;" horiz-adv-x="1065" 
d="M474 1671l-184 -317l-51 32l123 325zM588 1244l-10 -76l-172 -47v-1026h443l131 249l85 -13l-38 -331h-989l8 74l167 47v997l-188 50l13 76h550z" />
    <glyph glyph-name="lacute" unicode="&#x13a;" horiz-adv-x="556" 
d="M418 1671l-184 -317l-51 32l123 325zM364 116l159 -35l-11 -81h-479l11 79l153 37v1002l-158 53l12 76l288 23l25 -25v-1129z" />
    <glyph glyph-name="Lcommaaccent" unicode="&#x13b;" horiz-adv-x="1065" 
d="M546 -68q37 0 69 -29.5t32 -89.5q0 -23 -8.5 -47.5t-28 -52t-57.5 -51t-91 -35.5l-18 53q93 23 93 90q0 23 -30.5 49.5t-49.5 29.5q7 35 31 59t58 24zM588 1244l-10 -76l-172 -47v-1026h443l131 249l85 -13l-38 -331h-989l8 74l167 47v997l-188 50l13 76h550z" />
    <glyph glyph-name="lcommaaccent" unicode="&#x13c;" horiz-adv-x="556" 
d="M273 -85q37 0 69 -29t32 -89q0 -23 -8.5 -48t-28 -52.5t-57.5 -51t-91 -35.5l-18 54q93 23 93 89q0 23 -30.5 50t-49.5 29q7 35 31 59t58 24zM364 116l159 -35l-11 -81h-479l11 79l153 37v1002l-158 53l12 76l288 23l25 -25v-1129z" />
    <glyph glyph-name="Lcaron" unicode="&#x13d;" horiz-adv-x="1065" 
d="M642 819q92 24 137 72t45 102q0 44 -32.5 75.5t-83.5 31.5q-20 0 -29 -2q-15 39 -15 63q0 56 39 88t83 32q28 0 57 -11.5t56.5 -35t44.5 -65.5t17 -96q0 -33 -5 -63t-23.5 -70.5t-49 -73.5t-87 -64.5t-131.5 -51.5zM588 1244l-10 -76l-172 -47v-1026h443l131 249l85 -13
l-38 -331h-989l8 74l167 47v997l-188 50l13 76h550z" />
    <glyph glyph-name="lcaron" unicode="&#x13e;" horiz-adv-x="718" 
d="M398 819q92 24 137 72t45 102q0 44 -32.5 75.5t-83.5 31.5q-20 0 -30 -2q-15 39 -15 63q0 56 39.5 88t83.5 32q28 0 57 -11.5t56.5 -35t44.5 -65.5t17 -96q0 -33 -5 -63t-23.5 -70.5t-49 -73.5t-87 -64.5t-131.5 -51.5zM364 116l159 -35l-11 -81h-479l11 79l153 37v1002
l-158 53l12 76l288 23l25 -25v-1129z" />
    <glyph glyph-name="Lslash" unicode="&#x141;" horiz-adv-x="1065" 
d="M588 1244l-10 -76l-172 -47v-296l143 83v-112l-143 -85v-616h443l131 249l85 -13l-38 -331h-989l8 74l167 47v476l-154 -90l-1 115l155 90v406l-188 50l13 76h550z" />
    <glyph glyph-name="lslash" unicode="&#x142;" horiz-adv-x="556" 
d="M364 116l159 -35l-11 -81h-479l11 79l153 37v441l-117 -95l-31 78l148 120v458l-158 53l12 76l288 23l25 -25v-450l116 93l31 -77l-147 -119v-576z" />
    <glyph glyph-name="Nacute" unicode="&#x143;" horiz-adv-x="1337" 
d="M808 1671l-184 -317l-51 32l123 325zM998 -30l-664 991v-847l183 -33l-10 -81h-476l8 74l167 47v997l-181 50l10 76h352l642 -972v854l-185 42l11 76h476l-13 -76l-167 -39v-1127z" />
    <glyph glyph-name="nacute" unicode="&#x144;" horiz-adv-x="1086" 
d="M698 1303l-183 -318l-51 32l122 325zM913 616v-502l144 -35l-10 -79h-451l12 72l137 42v463q0 93 -47.5 139t-125.5 46q-55 0 -107 -23t-90 -64v-561l148 -35l-13 -79h-464l10 72l150 42v607l-153 52l10 76l297 39l18 -19l-18 -127h10q56 67 135 111.5t167 44.5
q117 0 179 -73.5t62 -208.5z" />
    <glyph glyph-name="Ncommaaccent" unicode="&#x145;" horiz-adv-x="1337" 
d="M679 -85q37 0 69.5 -29t32.5 -89q0 -23 -9 -48t-28 -52.5t-57.5 -51t-91.5 -35.5l-18 54q93 23 93 89q0 23 -30.5 50t-48.5 29q7 35 30.5 59t57.5 24zM998 -30l-664 991v-847l183 -33l-10 -81h-476l8 74l167 47v997l-181 50l10 76h352l642 -972v854l-185 42l11 76h476
l-13 -76l-167 -39v-1127z" />
    <glyph glyph-name="ncommaaccent" unicode="&#x146;" horiz-adv-x="1086" 
d="M538 -85q37 0 69 -29t32 -89q0 -23 -8.5 -48t-28 -52.5t-57.5 -51t-91 -35.5l-18 54q93 23 93 89q0 23 -30.5 50t-49.5 29q7 35 31 59t58 24zM913 616v-502l144 -35l-10 -79h-451l12 72l137 42v463q0 93 -47.5 139t-125.5 46q-55 0 -107 -23t-90 -64v-561l148 -35
l-13 -79h-464l10 72l150 42v607l-153 52l10 76l297 39l18 -19l-18 -127h10q56 67 135 111.5t167 44.5q117 0 179 -73.5t62 -208.5z" />
    <glyph glyph-name="Ncaron" unicode="&#x147;" horiz-adv-x="1337" 
d="M621 1362l-179 165l80 62l149 -144h10l123 141l44 -31l-172 -179zM998 -30l-664 991v-847l183 -33l-10 -81h-476l8 74l167 47v997l-181 50l10 76h352l642 -972v854l-185 42l11 76h476l-13 -76l-167 -39v-1127z" />
    <glyph glyph-name="ncaron" unicode="&#x148;" horiz-adv-x="1086" 
d="M512 994l-180 165l81 62l149 -144h10l123 140l44 -30l-172 -179zM913 616v-502l144 -35l-10 -79h-451l12 72l137 42v463q0 93 -47.5 139t-125.5 46q-55 0 -107 -23t-90 -64v-561l148 -35l-13 -79h-464l10 72l150 42v607l-153 52l10 76l297 39l18 -19l-18 -127h10
q56 67 135 111.5t167 44.5q117 0 179 -73.5t62 -208.5z" />
    <glyph glyph-name="Eng" unicode="&#x14a;" horiz-adv-x="1337" 
d="M855 1244h476l-13 -76l-167 -39v-978q0 -82 -16.5 -153.5t-44 -123.5t-66.5 -97.5t-79.5 -76.5t-89.5 -59l-45 -24l-49 88q77 57 129.5 128.5t76.5 182.5l-633 945v-847l183 -33l-10 -81h-476l8 74l167 47v997l-181 50l10 76h352l642 -972v854l-185 42z" />
    <glyph glyph-name="eng" unicode="&#x14b;" horiz-adv-x="1005" 
d="M360 742h10q56 67 135 111.5t167 44.5q117 0 179 -73.5t62 -208.5v-465q-3 -345 -296 -510l-45 -24l-49 88q46 35 81 71.5t70 93t53.5 135t18.5 175.5l-1 397q0 93 -47.5 139t-125.5 46q-55 0 -107 -23t-90 -64v-561l148 -35l-13 -79h-464l10 72l150 42v607l-153 52
l10 76l297 39l18 -19z" />
    <glyph glyph-name="Omacron" unicode="&#x14c;" horiz-adv-x="1322" 
d="M458 1485h441l-13 -101h-441zM647 1176q-375 0 -375 -499q0 -90 14 -174.5t45.5 -162.5t77 -135.5t114 -91.5t152.5 -34q88 0 155.5 29t108.5 75t66.5 112t35 133t9.5 145q0 88 -14 172t-45.5 163t-77 138t-114.5 94.5t-152 35.5zM1273 619q0 -131 -43 -246.5
t-123.5 -205t-205 -141.5t-275.5 -52q-169 0 -301.5 86t-204 232.5t-71.5 326.5q0 192 78 340t225 231t343 83q106 0 198.5 -34t161.5 -95t118.5 -143t74.5 -179.5t25 -202.5z" />
    <glyph glyph-name="omacron" unicode="&#x14d;" horiz-adv-x="957" 
d="M268 1116h441l-13 -100h-441zM241 497q0 -81 15 -154t45 -135.5t83.5 -99.5t123.5 -37q67 0 115.5 43.5t70 107t21.5 137.5q0 79 -14.5 153t-43.5 140t-81 106t-120 40q-72 0 -122 -43.5t-71.5 -109.5t-21.5 -148zM893 441q0 -137 -56 -244t-151.5 -165t-211.5 -58
q-192 0 -301.5 126.5t-109.5 325.5q0 110 36.5 202t97.5 151t139 91.5t162 32.5q183 0 289 -126.5t106 -335.5z" />
    <glyph glyph-name="Ohungarumlaut" unicode="&#x150;" horiz-adv-x="1322" 
d="M1024 1531l-290 -167l-28 50l246 200zM822 1536l-300 -172l-28 50l254 208zM647 1176q-375 0 -375 -499q0 -90 14 -174.5t45.5 -162.5t77 -135.5t114 -91.5t152.5 -34q88 0 155.5 29t108.5 75t66.5 112t35 133t9.5 145q0 88 -14 172t-45.5 163t-77 138t-114.5 94.5
t-152 35.5zM1273 619q0 -131 -43 -246.5t-123.5 -205t-205 -141.5t-275.5 -52q-169 0 -301.5 86t-204 232.5t-71.5 326.5q0 192 78 340t225 231t343 83q106 0 198.5 -34t161.5 -95t118.5 -143t74.5 -179.5t25 -202.5z" />
    <glyph glyph-name="ohungarumlaut" unicode="&#x151;" horiz-adv-x="957" 
d="M834 1162l-290 -167l-28 50l246 200zM632 1167l-300 -172l-28 50l254 208zM241 497q0 -81 15 -154t45 -135.5t83.5 -99.5t123.5 -37q67 0 115.5 43.5t70 107t21.5 137.5q0 79 -14.5 153t-43.5 140t-81 106t-120 40q-72 0 -122 -43.5t-71.5 -109.5t-21.5 -148zM893 441
q0 -137 -56 -244t-151.5 -165t-211.5 -58q-192 0 -301.5 126.5t-109.5 325.5q0 110 36.5 202t97.5 151t139 91.5t162 32.5q183 0 289 -126.5t106 -335.5z" />
    <glyph glyph-name="OE" unicode="&#x152;" horiz-adv-x="1652" 
d="M49 619q0 290 151 474q147 180 446 180q106 0 185 -29h778l-32 -320l-86 14l-41 214h-469v-475h287l43 119l95 13l-33 -388l-87 -13l-33 175h-272v-488h494l97 231l83 -13l-30 -313h-840q-105 -26 -208 -26q-100 0 -185 31t-147.5 88.5t-106.5 137.5t-66.5 178t-22.5 210
zM619 79q91 0 169 44v1003q-86 50 -190 50q-326 0 -326 -499q0 -82 11 -162.5t37 -160.5t65 -140t99 -97.5t135 -37.5z" />
    <glyph glyph-name="oe" unicode="&#x153;" horiz-adv-x="1427" 
d="M241 497q0 -80 15 -153.5t44.5 -134t76.5 -97t107 -36.5q52 0 94 41.5t64.5 106t22.5 135.5q0 79 -12.5 153.5t-39 141t-73.5 107t-107 40.5q-54 0 -93 -24.5t-60 -69t-30 -96t-9 -114.5zM846 527l314 22q7 22 6 65q0 187 -139 187q-31 0 -61 -16t-56 -47t-43.5 -86
t-20.5 -125zM1077 898q115 0 191 -82t76 -234q0 -62 -17 -131l-483 -5v-5v-8q3 -49 15.5 -95.5t35.5 -91t54 -78t76 -54t98 -20.5q58 0 104.5 12t119.5 51l24 -53q-60 -63 -146.5 -98.5t-184.5 -35.5q-174 0 -293 161q-67 -84 -137 -121.5t-161 -37.5q-96 0 -171 34.5
t-121.5 96t-70 143.5t-23.5 180q0 111 32.5 202t89 150t131 91t158.5 32q90 0 176.5 -51t112.5 -114q52 69 134 115.5t180 46.5z" />
    <glyph glyph-name="Racute" unicode="&#x154;" horiz-adv-x="1213" 
d="M713 1671l-183 -317l-51 32l122 325zM998 943q0 -102 -75.5 -198.5t-211.5 -144.5v-2l181 -249q39 -53 55 -75t44.5 -58t45 -51t42 -35.5t50 -32t55.5 -20.5l33 -10l-15 -69q-57 -20 -120 -19q-111 0 -197 72t-159 202l-159 284h-174v-411l189 -44l-10 -82h-549l10 74
l169 47v980l-172 30l9 76q294 46 458 46q115 0 204 -16t157 -51.5t104 -96t36 -146.5zM591 628q84 28 142 94t58 165q0 126 -74 204.5t-204 78.5q-31 0 -61 -1.5t-44 -2.5l-15 -1v-537h198z" />
    <glyph glyph-name="racute" unicode="&#x155;" horiz-adv-x="718" 
d="M570 1303l-183 -318l-51 32l122 325zM637 674q-58 49 -110 49q-47 0 -96 -57.5t-64 -160.5v-384l231 -34l-10 -87h-552l12 74l152 40v614l-162 48l13 76l286 38l20 -23l-16 -231h19q38 130 103 200t132 70q53 0 86.5 -33.5t33.5 -79.5q-1 -66 -78 -119z" />
    <glyph glyph-name="Rcommaaccent" unicode="&#x156;" horiz-adv-x="1213" 
d="M714 -85q37 0 69 -29t32 -89q0 -23 -8.5 -48t-28 -52.5t-57.5 -51t-91 -35.5l-18 54q93 23 93 89q0 23 -30.5 50t-49.5 29q7 35 31 59t58 24zM998 943q0 -102 -75.5 -198.5t-211.5 -144.5v-2l181 -249q39 -53 55 -75t44.5 -58t45 -51t42 -35.5t50 -32t55.5 -20.5l33 -10
l-15 -69q-57 -20 -120 -19q-111 0 -197 72t-159 202l-159 284h-174v-411l189 -44l-10 -82h-549l10 74l169 47v980l-172 30l9 76q294 46 458 46q115 0 204 -16t157 -51.5t104 -96t36 -146.5zM591 628q84 28 142 94t58 165q0 126 -74 204.5t-204 78.5q-31 0 -61 -1.5t-44 -2.5
l-15 -1v-537h198z" />
    <glyph glyph-name="rcommaaccent" unicode="&#x157;" horiz-adv-x="718" 
d="M282 -85q37 0 69 -29t32 -89q0 -23 -8.5 -48t-28 -52.5t-57.5 -51t-91 -35.5l-18 54q93 23 93 89q0 23 -30.5 50t-49.5 29q7 35 31 59t58 24zM637 674q-58 49 -110 49q-47 0 -96 -57.5t-64 -160.5v-384l231 -34l-10 -87h-552l12 74l152 40v614l-162 48l13 76l286 38
l20 -23l-16 -231h19q38 130 103 200t132 70q53 0 86.5 -33.5t33.5 -79.5q-1 -66 -78 -119z" />
    <glyph glyph-name="Rcaron" unicode="&#x158;" horiz-adv-x="1213" 
d="M526 1362l-179 165l81 62l149 -144h9l124 141l43 -31l-171 -179zM998 943q0 -102 -75.5 -198.5t-211.5 -144.5v-2l181 -249q39 -53 55 -75t44.5 -58t45 -51t42 -35.5t50 -32t55.5 -20.5l33 -10l-15 -69q-57 -20 -120 -19q-111 0 -197 72t-159 202l-159 284h-174v-411
l189 -44l-10 -82h-549l10 74l169 47v980l-172 30l9 76q294 46 458 46q115 0 204 -16t157 -51.5t104 -96t36 -146.5zM591 628q84 28 142 94t58 165q0 126 -74 204.5t-204 78.5q-31 0 -61 -1.5t-44 -2.5l-15 -1v-537h198z" />
    <glyph glyph-name="rcaron" unicode="&#x159;" horiz-adv-x="718" 
d="M382 994l-179 165l81 62l149 -144h9l124 140l43 -30l-171 -179zM637 674q-58 49 -110 49q-47 0 -96 -57.5t-64 -160.5v-384l231 -34l-10 -87h-552l12 74l152 40v614l-162 48l13 76l286 38l20 -23l-16 -231h19q38 130 103 200t132 70q53 0 86.5 -33.5t33.5 -79.5
q-1 -66 -78 -119z" />
    <glyph glyph-name="Sacute" unicode="&#x15a;" horiz-adv-x="863" 
d="M600 1670l-184 -318l-51 32l123 325zM718 887l-99 11l-26 192q-16 32 -64.5 63t-104.5 31q-81 0 -132 -47.5t-51 -140.5q0 -46 20 -85t54 -68.5t78 -56.5t92 -52t96.5 -51.5t92.5 -59t77.5 -69.5t54 -88.5t20.5 -111.5q0 -84 -37.5 -156t-99 -120t-142 -75.5
t-165.5 -27.5q-104 0 -195.5 42.5t-142.5 105.5l14 267l102 -15l38 -188q29 -46 84.5 -78t122.5 -32q42 0 82 12.5t76 36.5t57.5 66t21.5 95t-31.5 97t-82 76.5t-111.5 65t-122 69t-112 79t-82.5 105t-31.5 137.5q0 109 57 191t144 122.5t187 40.5q163 0 283 -100z" />
    <glyph glyph-name="sacute" unicode="&#x15b;" horiz-adv-x="690" 
d="M500 1303l-183 -318l-51 32l122 325zM474 588l-8 43q-36 185 -149 185q-51 0 -81.5 -34.5t-30.5 -84.5q0 -38 24 -71.5t63 -59.5t85.5 -51.5t93.5 -54.5t85.5 -61.5t63 -78.5t24.5 -100q0 -108 -94 -181.5t-214 -73.5q-129 0 -209.5 52.5t-80.5 123.5q0 52 36 89t96 42
q31 -103 80.5 -155.5t108 -52.5t95 25t36.5 76q0 32 -23.5 61t-61.5 53t-83.5 48t-91.5 53.5t-83.5 62t-61.5 79.5t-24 102q0 35 11.5 73t36 75t59 65.5t84.5 46t108 17.5q104 0 174.5 -43.5t70.5 -123.5q0 -63 -37 -102t-102 -44z" />
    <glyph glyph-name="Scedilla" unicode="&#x15e;" horiz-adv-x="863" 
d="M429 -76q89 -77 89 -150q0 -104 -200 -164l-19 59q41 14 63.5 37t22.5 46q0 40 -73 111l78 112h-8q-104 0 -195.5 42.5t-142.5 105.5l14 267l102 -15l38 -188q29 -46 84.5 -78t122.5 -32q42 0 82 12.5t76 36.5t57.5 66t21.5 95t-31.5 97t-82 76.5t-111.5 65t-122 69
t-112 79t-82.5 105t-31.5 137.5q0 109 57 191t144 122.5t187 40.5q163 0 283 -100l-22 -283l-99 11l-26 192q-16 32 -64.5 63t-104.5 31q-81 0 -132 -47.5t-51 -140.5q0 -46 20 -85t54 -68.5t78 -56.5t92 -52t96.5 -51.5t92.5 -59t77.5 -69.5t54 -88.5t20.5 -111.5
q0 -97 -49.5 -177t-129 -129t-177.5 -65z" />
    <glyph glyph-name="scedilla" unicode="&#x15f;" horiz-adv-x="690" 
d="M368 -76q89 -77 89 -150q0 -104 -200 -164l-19 59q41 14 63.5 37t22.5 46q0 40 -73 111l71 102q-123 3 -199.5 55t-76.5 121q0 52 36 89t96 42q31 -103 80.5 -155.5t108 -52.5t95 25t36.5 76q0 32 -23.5 61t-61.5 53t-83.5 48t-91.5 53.5t-83.5 62t-61.5 79.5t-24 102
q0 35 11.5 73t36 75t59 65.5t84.5 46t108 17.5q104 0 174.5 -43.5t70.5 -123.5q0 -63 -37 -102t-102 -44l-8 43q-36 185 -149 185q-51 0 -81.5 -34.5t-30.5 -84.5q0 -38 24 -71.5t63 -59.5t85.5 -51.5t93.5 -54.5t85.5 -61.5t63 -78.5t24.5 -100q0 -92 -70.5 -160
t-172.5 -88z" />
    <glyph glyph-name="Scaron" unicode="&#x160;" horiz-adv-x="863" 
d="M413 1360l-179 166l80 61l149 -144h10l123 141l44 -30l-172 -180zM718 887l-99 11l-26 192q-16 32 -64.5 63t-104.5 31q-81 0 -132 -47.5t-51 -140.5q0 -46 20 -85t54 -68.5t78 -56.5t92 -52t96.5 -51.5t92.5 -59t77.5 -69.5t54 -88.5t20.5 -111.5q0 -84 -37.5 -156
t-99 -120t-142 -75.5t-165.5 -27.5q-104 0 -195.5 42.5t-142.5 105.5l14 267l102 -15l38 -188q29 -46 84.5 -78t122.5 -32q42 0 82 12.5t76 36.5t57.5 66t21.5 95t-31.5 97t-82 76.5t-111.5 65t-122 69t-112 79t-82.5 105t-31.5 137.5q0 109 57 191t144 122.5t187 40.5
q163 0 283 -100z" />
    <glyph glyph-name="scaron" unicode="&#x161;" horiz-adv-x="690" 
d="M313 994l-179 165l81 62l149 -144h9l124 140l43 -30l-172 -179zM474 588l-8 43q-36 185 -149 185q-51 0 -81.5 -34.5t-30.5 -84.5q0 -38 24 -71.5t63 -59.5t85.5 -51.5t93.5 -54.5t85.5 -61.5t63 -78.5t24.5 -100q0 -108 -94 -181.5t-214 -73.5q-129 0 -209.5 52.5
t-80.5 123.5q0 52 36 89t96 42q31 -103 80.5 -155.5t108 -52.5t95 25t36.5 76q0 32 -23.5 61t-61.5 53t-83.5 48t-91.5 53.5t-83.5 62t-61.5 79.5t-24 102q0 35 11.5 73t36 75t59 65.5t84.5 46t108 17.5q104 0 174.5 -43.5t70.5 -123.5q0 -63 -37 -102t-102 -44z" />
    <glyph glyph-name="Tcedilla" unicode="&#x162;" horiz-adv-x="1119" 
d="M580 -76q89 -77 89 -150q0 -104 -200 -164l-20 59q41 14 63.5 37t22.5 46q0 40 -73 111l96 137h-279l8 74l169 47v1031h-296l-52 -242l-92 13l-8 321h1111l-34 -338l-94 15l-39 231h-305v-1038l185 -33l-13 -81h-187z" />
    <glyph glyph-name="tcedilla" unicode="&#x163;" horiz-adv-x="634" 
d="M354 -76q88 -77 88 -150q0 -104 -199 -164l-20 59q41 14 63.5 37t22.5 46q0 40 -73 111l81 117q-52 8 -87.5 35.5t-57 88.5t-21.5 155v31l3 493h-128v54q126 99 248 251h53v-219h282l-8 -88h-275l-4 -455v-7q0 -110 34.5 -153t112.5 -43q33 0 69 14t56 27l19 14l21 -54
q-43 -63 -105.5 -101.5t-137.5 -44.5z" />
    <glyph glyph-name="Tcaron" unicode="&#x164;" horiz-adv-x="1119" 
d="M512 1362l-180 165l81 62l149 -144h10l123 141l44 -31l-172 -179zM8 1244h1111l-34 -338l-94 15l-39 231h-305v-1038l185 -33l-13 -81h-540l8 74l169 47v1031h-296l-52 -242l-92 13z" />
    <glyph glyph-name="tcaron" unicode="&#x165;" horiz-adv-x="985" 
d="M642 819q92 24 137 72t45 102q0 44 -32.5 75.5t-83.5 31.5q-20 0 -29 -2q-15 39 -15 63q0 56 39 88t83 32q28 0 57 -11.5t56.5 -35t44.5 -65.5t17 -96q0 -33 -5 -63t-23.5 -70.5t-49 -73.5t-87 -64.5t-131.5 -51.5zM274 1088h53v-219h282l-8 -88h-275l-4 -455v-7
q0 -110 34.5 -153t112.5 -43q33 0 69 14t56 27l19 14l21 -54q-47 -68 -117 -107.5t-153 -39.5q-49 0 -86 13t-66.5 44t-45 87.5t-15.5 137.5v31l3 493h-128v54q126 99 248 251z" />
    <glyph glyph-name="Tbar" unicode="&#x166;" horiz-adv-x="1119" 
d="M346 1480h441l-13 -101h-441zM8 1244h1111l-34 -338l-94 15l-39 231h-305v-1038l185 -33l-13 -81h-540l8 74l169 47v1031h-296l-52 -242l-92 13z" />
    <glyph glyph-name="tbar" unicode="&#x167;" horiz-adv-x="634" 
d="M274 1088h53v-219h282l-8 -88h-275l-2 -200h274l-7 -84h-267l-2 -171v-7q0 -110 34.5 -153t112.5 -43q33 0 69 14t56 27l19 14l21 -54q-47 -68 -117 -107.5t-153 -39.5q-49 0 -86 13t-66.5 44t-45 87.5t-15.5 137.5v31l1 207h-115l7 84h108l2 202h-128v54q126 99 248 251
z" />
    <glyph glyph-name="Umacron" unicode="&#x16a;" horiz-adv-x="1368" 
d="M503 1480h441l-13 -101h-441zM733 106q155 0 240 92.5t86 283.5l1 644l-182 42l10 76h479l-12 -76l-166 -39l-5 -614q-2 -274 -122.5 -407.5t-378.5 -133.5q-76 0 -139.5 10.5t-131 42.5t-113.5 85t-76 144t-30 213v657l-185 42l13 76h542l-9 -76l-169 -39v-619
q0 -206 93.5 -305t254.5 -99z" />
    <glyph glyph-name="umacron" unicode="&#x16b;" 
d="M273 1116h441l-13 -100h-441zM682 131h-12q-104 -154 -287 -154q-223 0 -223 290v461l-137 55l13 79l269 21l24 -24v-542q0 -203 155 -203q112 0 186 78v531l-160 42l10 90l294 28l22 -24v-644q0 -36 6.5 -59.5t23.5 -36.5t32 -18.5t46 -11.5l45 -10l-8 -84
q-76 -18 -152 -18q-72 0 -109.5 40.5t-37.5 105.5v8z" />
    <glyph glyph-name="Uring" unicode="&#x16e;" horiz-adv-x="1368" 
d="M733 106q155 0 240 92.5t86 283.5l1 644l-182 42l10 76h479l-12 -76l-166 -39l-5 -614q-2 -274 -122.5 -407.5t-378.5 -133.5q-76 0 -139.5 10.5t-131 42.5t-113.5 85t-76 144t-30 213v657l-185 42l13 76h542l-9 -76l-169 -39v-619q0 -206 93.5 -305t254.5 -99zM717 1627
q-42 0 -63.5 -33.5t-21.5 -79.5q0 -50 25 -89t70 -39q41 0 63.5 29.5t22.5 83.5q0 51 -26 89.5t-70 38.5zM729 1675q71 0 113 -45.5t42 -116.5t-47 -123.5t-121 -52.5q-70 0 -112.5 45t-42.5 121q0 70 49 121t119 51z" />
    <glyph glyph-name="uring" unicode="&#x16f;" 
d="M682 131h-12q-104 -154 -287 -154q-223 0 -223 290v461l-137 55l13 79l269 21l24 -24v-542q0 -203 155 -203q112 0 186 78v531l-160 42l10 90l294 28l22 -24v-644q0 -36 6.5 -59.5t23.5 -36.5t32 -18.5t46 -11.5l45 -10l-8 -84q-76 -18 -152 -18q-72 0 -109.5 40.5
t-37.5 105.5v8zM502 1250q-42 0 -64 -33t-22 -79q0 -50 25 -89.5t71 -39.5q41 0 63.5 29.5t22.5 84.5q0 51 -26 89t-70 38zM513 1298q71 0 113.5 -45.5t42.5 -116.5t-47.5 -123t-121.5 -52q-70 0 -112.5 44.5t-42.5 120.5q0 70 49 121t119 51z" />
    <glyph glyph-name="Uhungarumlaut" unicode="&#x170;" horiz-adv-x="1368" 
d="M1073 1531l-290 -167l-28 50l246 200zM872 1536l-300 -172l-28 50l254 208zM733 106q155 0 240 92.5t86 283.5l1 644l-182 42l10 76h479l-12 -76l-166 -39l-5 -614q-2 -274 -122.5 -407.5t-378.5 -133.5q-76 0 -139.5 10.5t-131 42.5t-113.5 85t-76 144t-30 213v657
l-185 42l13 76h542l-9 -76l-169 -39v-619q0 -206 93.5 -305t254.5 -99z" />
    <glyph glyph-name="uhungarumlaut" unicode="&#x171;" 
d="M841 1154l-290 -167l-28 50l246 200zM640 1159l-300 -172l-28 50l254 208zM682 131h-12q-104 -154 -287 -154q-223 0 -223 290v461l-137 55l13 79l269 21l24 -24v-542q0 -203 155 -203q112 0 186 78v531l-160 42l10 90l294 28l22 -24v-644q0 -36 6.5 -59.5t23.5 -36.5
t32 -18.5t46 -11.5l45 -10l-8 -84q-76 -18 -152 -18q-72 0 -109.5 40.5t-37.5 105.5v8z" />
    <glyph glyph-name="Uogonek" unicode="&#x172;" horiz-adv-x="1368" 
d="M800 -149q0 -51 30 -100.5t94 -86.5l-34 -51q-106 11 -172 62t-66 117q0 41 22 82t88 103q-33 -3 -79 -3q-76 0 -139.5 10.5t-131 42.5t-113.5 85t-76 144t-30 213v657l-185 42l13 76h542l-9 -76l-169 -39v-619q0 -206 93.5 -305t254.5 -99q155 0 240 92.5t86 283.5
l1 644l-182 42l10 76h479l-12 -76l-166 -39l-5 -614q-2 -224 -82 -353.5t-247 -169.5q-55 -93 -55 -141z" />
    <glyph glyph-name="uogonek" unicode="&#x173;" 
d="M903 -149q0 -51 30 -100.5t94 -86.5l-34 -51q-106 11 -172 62t-66 117q0 42 22 83t87 103q-5 0 -16.5 -0.5t-18.5 -0.5q-72 0 -109.5 40.5t-37.5 105.5v8h-12q-104 -154 -287 -154q-223 0 -223 290v461l-137 55l13 79l269 21l24 -24v-542q0 -203 155 -203q112 0 186 78
v531l-160 42l10 90l294 28l22 -24v-644q0 -36 6.5 -59.5t23.5 -36.5t32 -18.5t46 -11.5l45 -10l-8 -84q-6 -2 -24 -6q-54 -91 -54 -138z" />
    <glyph glyph-name="Wcircumflex" unicode="&#x174;" horiz-adv-x="1844" 
d="M1183 -25l-262 977l-285 -947l-162 -30l-327 1151l-139 42l8 76h515l-14 -76l-168 -39l242 -857l281 922l177 25l247 -932l261 839l-181 42l12 76h449l-12 -76l-122 -39l-366 -1124zM987 1525l178 -185l-50 -37l-163 109h-10l-140 -111l-38 31l168 179z" />
    <glyph glyph-name="wcircumflex" unicode="&#x175;" horiz-adv-x="1242" 
d="M665 1217l177 -185l-49 -37l-164 110h-10l-139 -111l-38 30l167 179zM707 829l137 -484l21 -111l136 524l-151 41l10 76h384l-12 -74l-108 -41l-213 -770l-118 -18l-174 614l-157 -596l-118 -18l-228 786l-116 41l10 76h416l-10 -74l-136 -41l113 -400l23 -119l152 570z
" />
    <glyph glyph-name="Ycircumflex" unicode="&#x176;" horiz-adv-x="1209" 
d="M628 1581l177 -185l-49 -37l-164 109h-10l-140 -111l-37 31l167 179zM715 529v-415l163 -33l-9 -81h-507l10 74l149 47v384l-352 621l-138 42l13 76h508l-12 -76l-158 -39l277 -488l264 485l-183 42l10 76h444l-10 -76l-124 -39z" />
    <glyph glyph-name="ycircumflex" unicode="&#x177;" horiz-adv-x="944" 
d="M535 1212l178 -185l-49 -37l-164 110h-10l-140 -111l-37 30l167 179zM127 758l-124 38l12 77h419l-8 -74l-127 -37l204 -540l215 535l-130 41l13 75h343l-8 -74l-100 -41l-331 -811q-77 -190 -148.5 -258.5t-187.5 -68.5q-66 0 -110 36.5t-44 82.5q0 72 56 120
q78 -54 150 -54q23 0 41 4.5t42 17.5t47 44.5t42 79.5l20 49z" />
    <glyph glyph-name="Ydieresis" unicode="&#x178;" horiz-adv-x="1209" 
d="M470 1542q35 0 60 -21.5t25 -55.5q0 -35 -25.5 -58t-59.5 -23t-59 22.5t-25 58.5q0 35 25.5 56t58.5 21zM737 1542q35 0 61.5 -21.5t26.5 -55.5q0 -35 -26.5 -58t-61.5 -23q-34 0 -59 22.5t-25 58.5q0 35 25.5 56t58.5 21zM715 529v-415l163 -33l-9 -81h-507l10 74
l149 47v384l-352 621l-138 42l13 76h508l-12 -76l-158 -39l277 -488l264 485l-183 42l10 76h444l-10 -76l-124 -39z" />
    <glyph glyph-name="Zacute" unicode="&#x179;" horiz-adv-x="1008" 
d="M660 1671l-183 -317l-51 32l123 325zM51 1244h929v-76l-765 -1068h570l123 250l93 -14l-57 -336h-936l-8 104l745 1045h-537l-77 -246l-90 18z" />
    <glyph glyph-name="zacute" unicode="&#x17a;" horiz-adv-x="901" 
d="M606 1303l-183 -318l-51 32l122 325zM118 873h672v-74l-503 -700h360l95 177l67 -9l-41 -267h-671l-5 87l491 693h-337l-59 -185l-78 13z" />
    <glyph glyph-name="Zdotaccent" unicode="&#x17b;" horiz-adv-x="1008" 
d="M503 1597q50 0 86.5 -33t36.5 -81q0 -50 -36.5 -86.5t-86 -36.5t-84 37t-34.5 88q0 48 35 80t83 32zM51 1244h929v-76l-765 -1068h570l123 250l93 -14l-57 -336h-936l-8 104l745 1045h-537l-77 -246l-90 18z" />
    <glyph glyph-name="zdotaccent" unicode="&#x17c;" horiz-adv-x="901" 
d="M449 1229q50 0 86.5 -33.5t36.5 -81.5q0 -50 -37 -86t-86 -36t-83.5 36.5t-34.5 87.5q0 48 35 80.5t83 32.5zM118 873h672v-74l-503 -700h360l95 177l67 -9l-41 -267h-671l-5 87l491 693h-337l-59 -185l-78 13z" />
    <glyph glyph-name="Zcaron" unicode="&#x17d;" horiz-adv-x="1008" 
d="M474 1362l-180 165l81 62l149 -144h10l123 141l44 -31l-172 -179zM51 1244h929v-76l-765 -1068h570l123 250l93 -14l-57 -336h-936l-8 104l745 1045h-537l-77 -246l-90 18z" />
    <glyph glyph-name="zcaron" unicode="&#x17e;" horiz-adv-x="901" 
d="M419 994l-179 165l81 62l149 -144h10l123 140l43 -30l-171 -179zM118 873h672v-74l-503 -700h360l95 177l67 -9l-41 -267h-671l-5 87l491 693h-337l-59 -185l-78 13z" />
    <glyph glyph-name="Acaron" unicode="&#x1cd;" horiz-adv-x="1278" 
d="M647 1362l-179 165l81 62l148 -144h10l124 141l43 -31l-172 -179zM750 1268l389 -1144l138 -43l-9 -81h-515l12 74l171 55l-109 304h-419l-113 -309l187 -43l-12 -81h-468l10 74l148 55l438 1108zM446 534h352l-167 500z" />
    <glyph glyph-name="acaron" unicode="&#x1ce;" horiz-adv-x="866" 
d="M394 994l-179 165l80 62l149 -144h10l123 140l44 -30l-172 -179zM527 428q-155 -30 -220.5 -83.5t-65.5 -129.5q0 -43 30.5 -79.5t82.5 -36.5q47 0 95.5 28t77.5 61v240zM702 -18q-79 0 -117 40.5t-38 93.5v15h-12q-12 -23 -31.5 -47t-52 -50t-82 -42.5t-107.5 -16.5
q-83 0 -139.5 52.5t-56.5 141.5q0 57 26.5 108.5t80.5 95.5t145 74t209 38v55q0 54 -8 99t-27.5 84t-55 60t-86.5 21q-31 0 -51 -12t-30.5 -39t-15.5 -55.5t-10 -74.5q-2 -21 -4 -32q-21 0 -35.5 1.5t-35.5 7t-34.5 16t-23.5 31t-10 48.5q0 52 57 101.5t137 77.5
q78 27 148 27q132 0 190 -74t58 -234v-364q0 -70 21 -96t90 -38l49 -8l-11 -85q-16 -2 -41 -8t-47.5 -9t-48.5 -3z" />
    <glyph glyph-name="Icaron" unicode="&#x1cf;" horiz-adv-x="600" 
d="M271 1362l-180 165l81 62l149 -144h10l123 141l44 -31l-172 -179zM572 0h-541l8 74l167 47v1005l-181 42l10 76h545l-10 -76l-170 -39v-1015l182 -33z" />
    <glyph glyph-name="icaron" unicode="&#x1d0;" horiz-adv-x="572" 
d="M253 1018l-180 166l81 61l149 -144h10l123 141l44 -30l-172 -180zM61 79l152 37v615l-152 55l13 76l281 23l25 -25v-744l160 -35l-11 -81h-480z" />
    <glyph glyph-name="Ocaron" unicode="&#x1d1;" horiz-adv-x="1322" 
d="M637 1362l-179 165l81 62l149 -144h9l124 141l43 -31l-171 -179zM647 1176q-375 0 -375 -499q0 -90 14 -174.5t45.5 -162.5t77 -135.5t114 -91.5t152.5 -34q88 0 155.5 29t108.5 75t66.5 112t35 133t9.5 145q0 88 -14 172t-45.5 163t-77 138t-114.5 94.5t-152 35.5z
M1273 619q0 -131 -43 -246.5t-123.5 -205t-205 -141.5t-275.5 -52q-169 0 -301.5 86t-204 232.5t-71.5 326.5q0 192 78 340t225 231t343 83q106 0 198.5 -34t161.5 -95t118.5 -143t74.5 -179.5t25 -202.5z" />
    <glyph glyph-name="ocaron" unicode="&#x1d2;" horiz-adv-x="957" 
d="M447 994l-179 165l81 62l149 -144h9l124 140l43 -30l-171 -179zM241 497q0 -81 15 -154t45 -135.5t83.5 -99.5t123.5 -37q67 0 115.5 43.5t70 107t21.5 137.5q0 79 -14.5 153t-43.5 140t-81 106t-120 40q-72 0 -122 -43.5t-71.5 -109.5t-21.5 -148zM893 441
q0 -137 -56 -244t-151.5 -165t-211.5 -58q-192 0 -301.5 126.5t-109.5 325.5q0 110 36.5 202t97.5 151t139 91.5t162 32.5q183 0 289 -126.5t106 -335.5z" />
    <glyph glyph-name="Ucaron" unicode="&#x1d3;" horiz-adv-x="1368" 
d="M687 1362l-180 165l81 62l149 -144h10l123 141l44 -31l-172 -179zM733 106q155 0 240 92.5t86 283.5l1 644l-182 42l10 76h479l-12 -76l-166 -39l-5 -614q-2 -274 -122.5 -407.5t-378.5 -133.5q-76 0 -139.5 10.5t-131 42.5t-113.5 85t-76 144t-30 213v657l-185 42l13 76
h542l-9 -76l-169 -39v-619q0 -206 93.5 -305t254.5 -99z" />
    <glyph glyph-name="ucaron" unicode="&#x1d4;" 
d="M467 994l-179 165l80 62l149 -144h10l124 140l43 -30l-172 -179zM682 131h-12q-104 -154 -287 -154q-223 0 -223 290v461l-137 55l13 79l269 21l24 -24v-542q0 -203 155 -203q112 0 186 78v531l-160 42l10 90l294 28l22 -24v-644q0 -36 6.5 -59.5t23.5 -36.5t32 -18.5
t46 -11.5l45 -10l-8 -84q-76 -18 -152 -18q-72 0 -109.5 40.5t-37.5 105.5v8z" />
    <glyph glyph-name="Udieresismacron" unicode="&#x1d5;" horiz-adv-x="1368" 
d="M733 106q155 0 240 92.5t86 283.5l1 644l-182 42l10 76h479l-12 -76l-166 -39l-5 -614q-2 -274 -122.5 -407.5t-378.5 -133.5q-76 0 -139.5 10.5t-131 42.5t-113.5 85t-76 144t-30 213v657l-185 42l13 76h542l-9 -76l-169 -39v-619q0 -206 93.5 -305t254.5 -99zM852 1480
q35 0 61.5 -22t26.5 -56q0 -35 -26.5 -57.5t-61.5 -22.5q-34 0 -59 22.5t-25 57.5t25.5 56.5t58.5 21.5zM585 1480q35 0 60 -22t25 -56q0 -35 -25.5 -57.5t-59.5 -22.5t-59 22.5t-25 57.5t25.5 56.5t58.5 21.5zM507 1624h441l-13 -101h-441z" />
    <glyph glyph-name="udieresismacron" unicode="&#x1d6;" 
d="M291 1311h441l-13 -100h-441zM632 1146q35 0 62 -22t27 -56q0 -35 -26.5 -57.5t-62.5 -22.5q-34 0 -58.5 22.5t-24.5 57.5t25 56.5t58 21.5zM365 1146q35 0 60.5 -22t25.5 -56q0 -35 -25.5 -57.5t-60.5 -22.5q-34 0 -59 22.5t-25 57.5t25.5 56.5t58.5 21.5zM682 131h-12
q-104 -154 -287 -154q-223 0 -223 290v461l-137 55l13 79l269 21l24 -24v-542q0 -203 155 -203q112 0 186 78v531l-160 42l10 90l294 28l22 -24v-644q0 -36 6.5 -59.5t23.5 -36.5t32 -18.5t46 -11.5l45 -10l-8 -84q-76 -18 -152 -18q-72 0 -109.5 40.5t-37.5 105.5v8z" />
    <glyph glyph-name="Udieresisacute" unicode="&#x1d7;" horiz-adv-x="1368" 
d="M733 106q155 0 240 92.5t86 283.5l1 644l-182 42l10 76h479l-12 -76l-166 -39l-5 -614q-2 -274 -122.5 -407.5t-378.5 -133.5q-76 0 -139.5 10.5t-131 42.5t-113.5 85t-76 144t-30 213v657l-185 42l13 76h542l-9 -76l-169 -39v-619q0 -206 93.5 -305t254.5 -99zM852 1514
q35 0 61.5 -21.5t26.5 -55.5q0 -35 -26.5 -58t-61.5 -23q-34 0 -59 23t-25 58t25.5 56t58.5 21zM585 1514q35 0 60 -21.5t25 -55.5q0 -35 -25.5 -58t-59.5 -23t-59 23t-25 58t25.5 56t58.5 21zM906 1827l-183 -318l-51 32l123 325z" />
    <glyph glyph-name="udieresisacute" unicode="&#x1d8;" 
d="M690 1485l-183 -318l-51 32l122 325zM632 1162q35 0 62 -21.5t27 -55.5q0 -35 -26.5 -58t-62.5 -23q-34 0 -58.5 22.5t-24.5 58.5q0 35 25 56t58 21zM365 1162q35 0 60.5 -21.5t25.5 -55.5q0 -35 -25.5 -58t-60.5 -23q-34 0 -59 22.5t-25 58.5q0 35 25.5 56t58.5 21z
M682 131h-12q-104 -154 -287 -154q-223 0 -223 290v461l-137 55l13 79l269 21l24 -24v-542q0 -203 155 -203q112 0 186 78v531l-160 42l10 90l294 28l22 -24v-644q0 -36 6.5 -59.5t23.5 -36.5t32 -18.5t46 -11.5l45 -10l-8 -84q-76 -18 -152 -18q-72 0 -109.5 40.5
t-37.5 105.5v8z" />
    <glyph glyph-name="Udieresiscaron" unicode="&#x1d9;" horiz-adv-x="1368" 
d="M733 106q155 0 240 92.5t86 283.5l1 644l-182 42l10 76h479l-12 -76l-166 -39l-5 -614q-2 -274 -122.5 -407.5t-378.5 -133.5q-76 0 -139.5 10.5t-131 42.5t-113.5 85t-76 144t-30 213v657l-185 42l13 76h542l-9 -76l-169 -39v-619q0 -206 93.5 -305t254.5 -99zM852 1494
q35 0 61.5 -21.5t26.5 -55.5q0 -35 -26.5 -57.5t-61.5 -22.5q-34 0 -59 22.5t-25 57.5t25.5 56t58.5 21zM585 1494q35 0 60 -21.5t25 -55.5q0 -35 -25.5 -57.5t-59.5 -22.5t-59 22.5t-25 57.5t25.5 56t58.5 21zM696 1490l-179 165l80 62l149 -144h10l123 140l44 -30
l-172 -179z" />
    <glyph glyph-name="udieresiscaron" unicode="&#x1da;" 
d="M479 1147l-180 166l81 61l149 -144h10l123 141l44 -30l-172 -180zM632 1162q35 0 62 -21.5t27 -55.5q0 -35 -26.5 -58t-62.5 -23q-34 0 -58.5 22.5t-24.5 58.5q0 35 25 56t58 21zM365 1162q35 0 60.5 -21.5t25.5 -55.5q0 -35 -25.5 -58t-60.5 -23q-34 0 -59 22.5
t-25 58.5q0 35 25.5 56t58.5 21zM682 131h-12q-104 -154 -287 -154q-223 0 -223 290v461l-137 55l13 79l269 21l24 -24v-542q0 -203 155 -203q112 0 186 78v531l-160 42l10 90l294 28l22 -24v-644q0 -36 6.5 -59.5t23.5 -36.5t32 -18.5t46 -11.5l45 -10l-8 -84
q-76 -18 -152 -18q-72 0 -109.5 40.5t-37.5 105.5v8z" />
    <glyph glyph-name="Udieresisgrave" unicode="&#x1db;" horiz-adv-x="1368" 
d="M733 106q155 0 240 92.5t86 283.5l1 644l-182 42l10 76h479l-12 -76l-166 -39l-5 -614q-2 -274 -122.5 -407.5t-378.5 -133.5q-76 0 -139.5 10.5t-131 42.5t-113.5 85t-76 144t-30 213v657l-185 42l13 76h542l-9 -76l-169 -39v-619q0 -206 93.5 -305t254.5 -99zM852 1496
q35 0 61.5 -21.5t26.5 -55.5q0 -35 -26.5 -58t-61.5 -23q-34 0 -59 22.5t-25 58.5q0 35 25.5 56t58.5 21zM585 1496q35 0 60 -21.5t25 -55.5q0 -35 -25.5 -58t-59.5 -23t-59 22.5t-25 58.5q0 35 25.5 56t58.5 21zM516 1801l115 38l132 -334l-57 -34z" />
    <glyph glyph-name="udieresisgrave" unicode="&#x1dc;" 
d="M299 1486l116 38l132 -334l-58 -34zM632 1162q35 0 62 -21.5t27 -55.5q0 -35 -26.5 -58t-62.5 -23q-34 0 -58.5 22.5t-24.5 58.5q0 35 25 56t58 21zM365 1162q35 0 60.5 -21.5t25.5 -55.5q0 -35 -25.5 -58t-60.5 -23q-34 0 -59 22.5t-25 58.5q0 35 25.5 56t58.5 21z
M682 131h-12q-104 -154 -287 -154q-223 0 -223 290v461l-137 55l13 79l269 21l24 -24v-542q0 -203 155 -203q112 0 186 78v531l-160 42l10 90l294 28l22 -24v-644q0 -36 6.5 -59.5t23.5 -36.5t32 -18.5t46 -11.5l45 -10l-8 -84q-76 -18 -152 -18q-72 0 -109.5 40.5
t-37.5 105.5v8z" />
    <glyph glyph-name="Scommaaccent" unicode="&#x218;" horiz-adv-x="863" 
d="M410 -81q37 0 69 -29t32 -89q0 -23 -9 -47.5t-28 -52.5t-57.5 -51t-90.5 -36l-18 54q93 23 93 89q0 23 -30.5 50t-49.5 29q7 35 31 59t58 24zM718 887l-99 11l-26 192q-16 32 -64.5 63t-104.5 31q-81 0 -132 -47.5t-51 -140.5q0 -46 20 -85t54 -68.5t78 -56.5t92 -52
t96.5 -51.5t92.5 -59t77.5 -69.5t54 -88.5t20.5 -111.5q0 -84 -37.5 -156t-99 -120t-142 -75.5t-165.5 -27.5q-104 0 -195.5 42.5t-142.5 105.5l14 267l102 -15l38 -188q29 -46 84.5 -78t122.5 -32q42 0 82 12.5t76 36.5t57.5 66t21.5 95t-31.5 97t-82 76.5t-111.5 65
t-122 69t-112 79t-82.5 105t-31.5 137.5q0 109 57 191t144 122.5t187 40.5q163 0 283 -100z" />
    <glyph glyph-name="scommaaccent" unicode="&#x219;" horiz-adv-x="690" 
d="M318 -85q37 0 69 -29t32 -89q0 -23 -8.5 -48t-27.5 -52.5t-57.5 -51t-91.5 -35.5l-18 54q93 23 93 89q0 23 -30.5 50t-49.5 29q7 35 31 59t58 24zM474 588l-8 43q-36 185 -149 185q-51 0 -81.5 -34.5t-30.5 -84.5q0 -38 24 -71.5t63 -59.5t85.5 -51.5t93.5 -54.5
t85.5 -61.5t63 -78.5t24.5 -100q0 -108 -94 -181.5t-214 -73.5q-129 0 -209.5 52.5t-80.5 123.5q0 52 36 89t96 42q31 -103 80.5 -155.5t108 -52.5t95 25t36.5 76q0 32 -23.5 61t-61.5 53t-83.5 48t-91.5 53.5t-83.5 62t-61.5 79.5t-24 102q0 35 11.5 73t36 75t59 65.5
t84.5 46t108 17.5q104 0 174.5 -43.5t70.5 -123.5q0 -63 -37 -102t-102 -44z" />
    <glyph glyph-name="Tcommaaccent" unicode="&#x21a;" horiz-adv-x="1119" 
d="M537 -85q37 0 69 -29t32 -89q0 -23 -8.5 -48t-28 -52.5t-57.5 -51t-91 -35.5l-18 54q93 23 93 89q0 23 -30.5 50t-49.5 29q7 35 31 59t58 24zM8 1244h1111l-34 -338l-94 15l-39 231h-305v-1038l185 -33l-13 -81h-540l8 74l169 47v1031h-296l-52 -242l-92 13z" />
    <glyph glyph-name="tcommaaccent" unicode="&#x21b;" horiz-adv-x="634" 
d="M355 -85q37 0 69 -29t32 -89q0 -23 -8.5 -48t-27.5 -52.5t-57.5 -51t-91.5 -35.5l-18 54q93 23 93 89q0 23 -30.5 50t-49.5 29q7 35 31 59t58 24zM274 1088h53v-219h282l-8 -88h-275l-4 -455v-7q0 -110 34.5 -153t112.5 -43q33 0 69 14t56 27l19 14l21 -54
q-47 -68 -117 -107.5t-153 -39.5q-49 0 -86 13t-66.5 44t-45 87.5t-15.5 137.5v31l3 493h-128v54q126 99 248 251z" />
    <glyph glyph-name="circumflex" unicode="&#x2c6;" horiz-adv-x="648" 
d="M344 1581l177 -185l-49 -37l-164 109h-9l-140 -111l-38 31l168 179z" />
    <glyph glyph-name="caron" unicode="&#x2c7;" horiz-adv-x="653" 
d="M303 1357l-179 165l81 62l149 -144h10l123 141l44 -31l-172 -179z" />
    <glyph glyph-name="breve" unicode="&#x2d8;" horiz-adv-x="630" 
d="M121 1552l46 32l8 -17q17 -34 52.5 -59t82.5 -25q90 0 142 85l10 18l41 -29l-6 -20q-23 -69 -71 -116t-116 -47q-74 0 -121 46t-63 112z" />
    <glyph glyph-name="dotaccent" unicode="&#x2d9;" horiz-adv-x="488" 
d="M243 1592q50 0 86 -33t36 -81q0 -50 -36.5 -86.5t-86 -36.5t-84 37t-34.5 88q0 48 35.5 80t83.5 32z" />
    <glyph glyph-name="ring" unicode="&#x2da;" horiz-adv-x="549" 
d="M276 1652q-42 0 -64 -33.5t-22 -79.5q0 -50 25 -89t70 -39q41 0 64 29.5t23 83.5q0 51 -26 89.5t-70 38.5zM287 1699q71 0 113 -45t42 -117q0 -71 -47 -123t-121 -52q-70 0 -112.5 45t-42.5 120q0 70 49 121t119 51z" />
    <glyph glyph-name="ogonek" unicode="&#x2db;" horiz-adv-x="519" 
d="M272 -149q0 -51 30 -100.5t94 -86.5l-34 -51q-106 11 -172 62t-66 117q0 45 27 91.5t111 119.5h72q-62 -101 -62 -152z" />
    <glyph glyph-name="tilde" unicode="&#x2dc;" horiz-adv-x="713" 
d="M124 1379q2 6 4.5 15.5t13 34t23.5 43.5t34.5 34.5t46.5 15.5q9 0 13 -1l223 -30h4q12 0 26 10.5t22 20.5l8 10l48 -1q-2 -6 -5 -16t-14.5 -34.5t-25 -43.5t-36.5 -34.5t-49 -15.5q-8 0 -13 1l-222 31h-3q-13 0 -28 -12t-23 -24l-9 -12z" />
    <glyph glyph-name="hungarumlaut" unicode="&#x2dd;" horiz-adv-x="777" 
d="M654 1526l-290 -167l-28 50l246 200zM452 1531l-300 -172l-28 50l254 208z" />
    <glyph glyph-name="dotaccentcomb" unicode="&#x307;" horiz-adv-x="0" 
d="M336 1450q0 -45 -32 -76.5t-77 -31.5q-44 0 -75 32t-31 76t31 75.5t75 31.5t76.5 -31.5t32.5 -75.5z" />
    <glyph glyph-name="dieresiscomb" unicode="&#x308;" horiz-adv-x="0" 
d="M475 1542q35 0 61.5 -21.5t26.5 -55.5q0 -35 -26 -58t-62 -23q-34 0 -58.5 22.5t-24.5 58.5q0 35 25 56t58 21zM208 1542q35 0 60.5 -21.5t25.5 -55.5q0 -35 -25.5 -58t-60.5 -23q-34 0 -59 22.5t-25 58.5q0 35 25.5 56t58.5 21z" />
    <glyph glyph-name="dotbelowcomb" unicode="&#x323;" horiz-adv-x="0" 
d="M215 -272q0 -45 -32 -76.5t-77 -31.5q-44 0 -75 31.5t-31 76.5q0 44 31.5 75.5t74.5 31.5q44 0 76.5 -31.5t32.5 -75.5z" />
    <glyph glyph-name="commaaccent" unicode="&#x326;" horiz-adv-x="986" 
d="M105 -85q37 0 69 -29t32 -89q0 -23 -8.5 -48t-27.5 -52.5t-57.5 -51t-91.5 -35.5l-18 54q93 23 93 89q0 23 -30.5 50t-49.5 29q7 35 31 59t58 24z" />
    <glyph glyph-name="mu" unicode="&#x3bc;" 
d="M160 493v243l-137 55l13 79l269 22l24 -25v-552q0 -108 41.5 -158.5t113.5 -50.5q16 0 32 2.5t27.5 4.5t26 9t22 10t22 13t18.5 13t20 16t18 14v543l-160 42l10 91l294 28l22 -25v-654q0 -37 6 -60t21.5 -35.5t30 -17.5t42.5 -11q6 -1 8 -2l45 -10l-8 -84
q-76 -18 -152 -18q-72 0 -109.5 40.5t-37.5 105.5v8h-12q-71 -79 -138 -116.5t-149 -37.5q-93 0 -140 63h-9q9 -51 15 -124l18 -302l-133 26q2 28 7.5 165t12 348t6.5 342z" />
    <glyph glyph-name="alef-hb" unicode="&#x5d0;" horiz-adv-x="970" 
d="M216 980l60 -27l-9 -78l305 -400h3l90 149q17 32 18 49q0 10 -6 14l-125 103l-8 28l88 163l51 -10l4 -60l75 -70q40 -39 40 -79q0 -50 -50 -128l-144 -206l208 -274l-33 -187h-30l-451 588q-54 -71 -54 -132q0 -30 19 -69.5t42.5 -72.5t43 -80t19.5 -92q0 -49 -23 -109
h-208l-17 64l61 30q5 12 5 24q0 24 -25.5 104.5t-25.5 127.5q0 53 38 121.5t90 128.5l-149 195v21z" />
    <glyph glyph-name="bet-hb" unicode="&#x5d1;" horiz-adv-x="834" 
d="M87 718l-24 37l14 221l74 10l42 -106h463q55 0 80 -43t27 -154l11 -498l29 -28l-27 -141l-704 -32l-26 29l33 133l612 31q2 58 2 93q0 41 -1 57l-15 315q-2 46 -14.5 62t-41.5 16z" />
    <glyph glyph-name="gimel-hb" unicode="&#x5d2;" horiz-adv-x="577" 
d="M469 665l13 -301q3 -62 16.5 -135.5t31 -140t19.5 -76.5l-93 -17l-23 25l-18 237h-12q-46 -204 -139 -257h-180q-21 46 -21 99q0 55 19 83q47 -16 92 -17q81 0 136 50.5t85 121.5l1 272q0 35 -13 52t-42 26l-192 57l-18 23l16 211l68 7l34 -92l113 -33q23 -7 38.5 -16.5
t31.5 -29.5t25.5 -57.5t11.5 -91.5z" />
    <glyph glyph-name="dalet-hb" unicode="&#x5d3;" horiz-adv-x="788" 
d="M698 880l27 -31l-28 -129l-50 -13l17 -466l29 -234l-95 -17l-35 25l18 705h-546l-27 30l17 226l74 10l35 -106h564z" />
    <glyph glyph-name="he-hb" unicode="&#x5d4;" horiz-adv-x="777" 
d="M698 880l27 -31l-28 -129l-50 -13l20 -436q7 -150 26 -264l-95 -17l-35 25l18 705h-546l-27 30l17 226l74 10l35 -106h564zM54 8l28 560l69 9l14 -306q7 -114 23 -271l-99 -16z" />
    <glyph glyph-name="vav-hb" unicode="&#x5d5;" horiz-adv-x="426" 
d="M287 609q1 6 1 16q0 27 -14 40.5t-43 21.5l-192 57l-18 23l17 211l68 7l35 -92l112 -33q23 -7 39 -16t33 -29.5t25.5 -58t9.5 -91.5l4 -398q2 -149 16 -267l-96 -16l-36 24z" />
    <glyph glyph-name="zayin-hb" unicode="&#x5d6;" horiz-adv-x="434" 
d="M221 706l-139 38l-26 29l20 208l66 5l33 -86l197 -54l26 -32l-5 -147l-10 -3l-110 28q-34 -50 -34 -138q0 -30 7 -92l21 -195q19 -148 46 -270l-103 -17l-35 25l-23 428q-2 20 -1 44q0 167 70 218v11z" />
    <glyph glyph-name="het-hb" unicode="&#x5d7;" horiz-adv-x="777" 
d="M157 720l10 -417q5 -178 21 -303l-99 -16l-35 24l32 742l9 226l75 10l35 -106h542l26 -31l-28 -129l-50 -13l20 -436q7 -142 27 -264l-96 -17l-35 25l17 705h-471z" />
    <glyph glyph-name="tet-hb" unicode="&#x5d8;" horiz-adv-x="831" 
d="M542 720q-39 -21 -62.5 -101t-33.5 -157l-71 -8l74 456q19 8 40 8q138 0 236.5 -92.5t98.5 -227.5q0 -84 -14.5 -170.5t-43 -171t-47.5 -132.5t-50 -119l-504 -21l-26 29q-44 264 -44 434q0 78 21 147t58 103v10l-85 33l-26 30l29 206l67 5l33 -86l149 -66l13 -31
l-23 -144l-10 -3l-91 38q-55 -63 -55 -177q0 -62 22.5 -177t46.5 -189l352 16q49 38 98.5 146.5t49.5 216.5q0 79 -63.5 137t-138.5 58z" />
    <glyph glyph-name="yod-hb" unicode="&#x5d9;" horiz-adv-x="501" 
d="M234 408q10 14 24.5 37t38.5 73t24 75q0 60 -57 77l-192 74l-18 23l17 211l68 7l35 -92l111 -49q40 -12 74 -71.5t34 -123.5q0 -25 -5 -62t-10 -61l-5 -23q-2 -22 -26 -130l-94 5z" />
    <glyph glyph-name="kaf-hb" unicode="&#x5db;" horiz-adv-x="891" 
d="M108 -13l-27 29l33 133l453 28q74 2 126 63t52 178q0 129 -53.5 194.5t-179.5 79.5l-394 42l-26 37l16 223l72 10l43 -106l324 -36q146 -16 217.5 -113.5t71.5 -279.5q0 -164 -39 -275t-120 -179z" />
    <glyph glyph-name="lamed-hb" unicode="&#x5dc;" horiz-adv-x="891" 
d="M416 -16l-175 19l-20 27l126 89q55 39 98.5 73t99.5 84.5t93 96t63.5 99.5t26.5 101q0 92 -36 121t-143 29h-428l-26 37l16 553l153 1l26 -23l-6 -135l-97 -9l18 -264h406q67 0 107 -12.5t63 -45.5t30.5 -78.5t7.5 -122.5q0 -40 -7.5 -80.5t-18.5 -72.5t-31.5 -69
t-36 -61t-43 -58.5t-42.5 -51t-44.5 -48.5t-38.5 -42z" />
    <glyph glyph-name="mem-hb" unicode="&#x5de;" horiz-adv-x="836" 
d="M106 921q114 -67 181 -218q5 7 13.5 19.5t36 44.5t54 56t64 44t70.5 20q72 0 127.5 -37t88 -99.5t50 -135t18.5 -153.5q0 -124 -36 -259.5t-71 -195.5l-361 -17l-28 22l34 140l351 15q13 30 20 152l5 102q-3 71 -35 137.5t-92.5 112t-133.5 45.5q-74 0 -128 -42
t-81.5 -113.5t-40 -148t-12.5 -161.5q0 -159 11 -251l-95 -16l-37 24q2 196 33 347.5t109 265.5l-149 123l7 157z" />
    <glyph glyph-name="finalnun-hb" unicode="&#x5df;" horiz-adv-x="493" 
d="M347 -31q12 -248 25 -351l-96 -16l-37 25l12 773q0 44 6 87l14 122v9q0 33 -23 53.5t-56 28.5l-90 25l-20 23l20 202l58 5l32 -83l67 -22q42 -13 62 -43.5t20 -106.5v-31l-10 -190q-2 -41 -2 -69q0 -53 3 -124t8 -166.5t7 -150.5z" />
    <glyph glyph-name="nun-hb" unicode="&#x5e0;" horiz-adv-x="462" 
d="M271 609v9q0 33 -23 53.5t-56 28.5l-90 25l-20 23l20 202l58 5l32 -83l67 -22q42 -13 62 -43.5t20 -106.5v-31l-10 -190q-1 -9 -1 -28q0 -63 17 -173t17 -146q0 -48 -5 -73t-25 -59h-258l-27 30l33 132h96q29 0 51 19.5t22 54.5v164q0 44 6 87z" />
    <glyph glyph-name="samekh-hb" unicode="&#x5e1;" horiz-adv-x="834" 
d="M332 0q-98 52 -157 166t-59 250q0 96 19.5 171t52.5 116v13h-62l-18 18l10 242l74 10l34 -106h326q137 0 210.5 -96.5t73.5 -262.5q0 -373 -284 -521h-220zM392 162h133q52 15 88.5 34.5t68 54t47.5 88.5t16 130q0 147 -54 199t-202 52h-233q-51 -61 -51 -241
q0 -106 62 -200.5t125 -116.5z" />
    <glyph glyph-name="ayin-hb" unicode="&#x5e2;" horiz-adv-x="970" 
d="M482 215q25 5 45.5 21.5t27.5 37.5l109 340q12 35 11 56q0 17 -7.5 25t-23.5 12l-139 38l-13 26l47 197l59 3l15 -73l94 -33q24 -8 35 -27t11 -56q0 -42 -17 -122l-105 -458q-16 -65 -49 -102t-93 -47l-417 -73l-26 30l33 142l179 28l-17 193q-7 75 -7 154q0 24 9.5 69.5
t9.5 59.5q0 21 -18 32t-53 22l-92 24l-18 24l17 202l58 6l33 -83l68 -21q24 -7 32.5 -11t25 -15t23 -29.5t6.5 -45.5q0 -33 -11 -79l-22 -91q-3 -21 -3 -37q0 -108 67 -357z" />
    <glyph glyph-name="finalpe-hb" unicode="&#x5e3;" horiz-adv-x="836" 
d="M674 609q0 38 -14.5 55.5t-48.5 22.5l-390 58q-3 -19 -3 -40q0 -182 274 -210q1 -5 1 -15q0 -42 -22 -81.5t-53 -64.5q-157 7 -228.5 72.5t-71.5 175.5q0 83 39 193l79 214l69 5l8 -101l333 -46q44 -6 62 -20t26.5 -47.5t12.5 -114.5l36 -681q1 -18 3.5 -99t5.5 -148.5
t7 -103.5l-96 -16l-36 24z" />
    <glyph glyph-name="pe-hb" unicode="&#x5e4;" horiz-adv-x="836" 
d="M124 775l79 214l69 5l8 -101l399 -49q56 -7 80 -47.5t27 -149.5l17 -375v-9q0 -74 -45.5 -147.5t-90.5 -102.5l-578 -26l-26 21l32 141l608 28q16 39 17 106q0 12 -2 36l-18 287q-2 45 -14 59t-42 18l-456 62q-3 -19 -3 -40q0 -182 274 -210q1 -5 1 -15q0 -42 -22 -81.5
t-53 -64.5q-157 7 -228.5 72.5t-71.5 175.5q0 84 39 193z" />
    <glyph glyph-name="finaltsadi-hb" unicode="&#x5e5;" horiz-adv-x="728" 
d="M347 -31q15 -269 25 -351l-96 -16l-37 25l12 649l20 338v9q0 33 -23 52.5t-56 27.5l-90 27l-20 23l20 202l58 6l32 -83l67 -23q28 -8 44 -20.5t27 -44.5t11 -85v-31l-10 -190q-2 -30 -2 -81q0 -13 0.5 -35.5t0.5 -31.5h-16q1 -25 7 -91t7 -93l8 26q0 -6 0.5 -16.5
t0.5 -15.5zM552 631l-210 -295h-12q1 -34 3.5 -86t2.5 -72q30 88 67 137l234 326q54 76 55 130q0 51 -45 76l-89 51l-3 60l-53 10l-84 -172l8 -28l137 -75q7 -4 8 -16q0 -20 -19 -46z" />
    <glyph glyph-name="tsadi-hb" unicode="&#x5e6;" horiz-adv-x="970" 
d="M660 654q18 28 19 48q0 11 -7 14l-137 75l-8 28l84 172l53 -10l3 -60l90 -51q44 -25 43 -74q0 -53 -53 -132l-162 -255l145 -129q42 -35 62.5 -71t20.5 -90q0 -48 -46 -103l-695 -32l-26 29l33 133l542 26l2 8l-217 223q-57 59 -75 97.5t-18 104.5q0 67 -19.5 91
t-55.5 24l-151 -2l-24 37l14 221l74 10l42 -106h63q51 0 86 -43.5t35 -100.5q0 -85 11 -121q10 -36 54 -80l92 -81h15z" />
    <glyph glyph-name="qof-hb" unicode="&#x5e7;" horiz-adv-x="828" 
d="M141 -357l16 925l64 9l28 -592q12 -261 23 -350l-95 -17zM608 136l-74 -124l-159 19l-20 27l91 94q18 19 53.5 55.5t54.5 56.5t47.5 52.5t43.5 57.5t31.5 57t23.5 65t7 69q0 31 -8.5 56.5t-27.5 49.5t-55 37t-87 13l-411 -1l-26 37l16 223l72 9l43 -106h324
q146 0 209 -64t63 -185q0 -43 -9 -85t-21 -77.5t-43.5 -95.5t-57 -103.5t-80.5 -136.5z" />
    <glyph glyph-name="resh-hb" unicode="&#x5e8;" horiz-adv-x="834" 
d="M657 8l20 634v7q0 41 -13.5 56t-42.5 15l-534 -2l-24 37l14 221l74 10l42 -106h463q55 0 80 -43t27 -154l10 -416q4 -166 17 -267l-97 -16z" />
    <glyph glyph-name="shin-hb" unicode="&#x5e9;" horiz-adv-x="917" 
d="M233 164q1 -4 1 -10.5t1 -10.5l61 5l3 8l315 26q60 51 134 216t74 228q0 53 -65 77l-90 31l-18 24l26 210l59 10l36 -91l36 -17q49 -23 70.5 -50.5t21.5 -77.5q0 -101 -48.5 -255t-99.5 -265.5t-98 -196.5l-487 -35q-12 12 -26 30q-44 259 -44 427q0 78 21 147t58 103v10
l-85 33l-26 30l29 206l67 5l33 -86l103 -43l26 -31l-37 -144l-8 -3l-44 16q-57 -63 -57 -178q0 -30 20 -144.5t41 -188.5zM236 179q2 -6 5 -16t3 -11l55 4l140 567l129 -41l12 1l29 141l-18 35l-79 31l-33 90l-68 -5z" />
    <glyph glyph-name="tav-hb" unicode="&#x5ea;" horiz-adv-x="834" 
d="M677 16v626q0 45 -13 61.5t-43 16.5l-399 -1q-19 -35 -35.5 -95t-16.5 -106q0 -36 13 -76.5t31.5 -79.5l37 -78t31 -84t12.5 -87q0 -12 -1 -22.5t-5 -24t-5.5 -18t-9.5 -23.5t-10 -23l-205 -2l-18 71l80 38q7 16 6 47q0 39 -19 142q-19 102 -19 144q0 154 70 268v8h-72
l-24 37l14 221l74 10l42 -106h463q53 0 77 -42.5t30 -154.5l23 -393q9 -150 18 -282l-93 -16z" />
    <glyph glyph-name="Wgrave" unicode="&#x1e80;" horiz-adv-x="1844" 
d="M740 1665l115 38l133 -334l-58 -35zM1183 -25l-262 977l-285 -947l-162 -30l-327 1151l-139 42l8 76h515l-14 -76l-168 -39l242 -857l281 922l177 25l247 -932l261 839l-181 42l12 76h449l-12 -76l-122 -39l-366 -1124z" />
    <glyph glyph-name="wgrave" unicode="&#x1e81;" horiz-adv-x="1242" 
d="M407 1291l115 38l133 -334l-58 -34zM707 829l137 -484l21 -111l136 524l-151 41l10 76h384l-12 -74l-108 -41l-213 -770l-118 -18l-174 614l-157 -596l-118 -18l-228 786l-116 41l10 76h416l-10 -74l-136 -41l113 -400l23 -119l152 570z" />
    <glyph glyph-name="Wacute" unicode="&#x1e82;" horiz-adv-x="1844" 
d="M1156 1671l-184 -317l-51 32l123 325zM1183 -25l-262 977l-285 -947l-162 -30l-327 1151l-139 42l8 76h515l-14 -76l-168 -39l242 -857l281 922l177 25l247 -932l261 839l-181 42l12 76h449l-12 -76l-122 -39l-366 -1124z" />
    <glyph glyph-name="wacute" unicode="&#x1e83;" horiz-adv-x="1242" 
d="M815 1298l-183 -318l-51 32l122 325zM707 829l137 -484l21 -111l136 524l-151 41l10 76h384l-12 -74l-108 -41l-213 -770l-118 -18l-174 614l-157 -596l-118 -18l-228 786l-116 41l10 76h416l-10 -74l-136 -41l113 -400l23 -119l152 570z" />
    <glyph glyph-name="Wdieresis" unicode="&#x1e84;" horiz-adv-x="1844" 
d="M1093 1531q35 0 61.5 -22t26.5 -56q0 -35 -26.5 -57.5t-61.5 -22.5q-34 0 -59 22.5t-25 57.5t25.5 56.5t58.5 21.5zM826 1531q35 0 60 -22t25 -56q0 -35 -25.5 -57.5t-59.5 -22.5t-59 22.5t-25 57.5t25.5 56.5t58.5 21.5zM1183 -25l-262 977l-285 -947l-162 -30
l-327 1151l-139 42l8 76h515l-14 -76l-168 -39l242 -857l281 922l177 25l247 -932l261 839l-181 42l12 76h449l-12 -76l-122 -39l-366 -1124z" />
    <glyph glyph-name="wdieresis" unicode="&#x1e85;" horiz-adv-x="1242" 
d="M771 1162q35 0 61.5 -21.5t26.5 -55.5q0 -35 -26.5 -58t-61.5 -23q-34 0 -59 22.5t-25 58.5q0 35 25.5 56t58.5 21zM503 1162q35 0 60.5 -21.5t25.5 -55.5q0 -35 -25.5 -58t-60.5 -23q-34 0 -59 22.5t-25 58.5q0 35 25.5 56t58.5 21zM707 829l137 -484l21 -111l136 524
l-151 41l10 76h384l-12 -74l-108 -41l-213 -770l-118 -18l-174 614l-157 -596l-118 -18l-228 786l-116 41l10 76h416l-10 -74l-136 -41l113 -400l23 -119l152 570z" />
    <glyph glyph-name="Germandbls" unicode="&#x1e9e;" horiz-adv-x="1288" 
d="M878 1129q-66 0 -119.5 -56t-53.5 -130q0 -47 19 -86.5t50.5 -69t73 -55t87 -49t91 -48t87 -55t73 -65.5t50.5 -85t19 -109q0 -84 -32.5 -150.5t-89 -108.5t-130.5 -64.5t-161 -22.5q-110 0 -203 39.5t-134 108.5l13 259l96 -15l37 -180q29 -45 88 -77.5t126 -32.5
q205 0 205 177q0 52 -29.5 94t-77 71.5t-105 58t-115 61t-105 71.5t-77 98.5t-29.5 133.5q0 123 68.5 214.5t175.5 116.5l2 3q-39 3 -88 3q-294 0 -294 -393l2 -786h-368l8 74l167 47v642q0 132 35.5 230t101.5 158.5t156.5 89.5t204.5 29q62 0 123.5 -6t129 -21t118 -39
t84 -64t33.5 -91q0 -55 -29.5 -85.5t-93.5 -52.5q-12 36 -18.5 54.5t-20 49t-26.5 46.5t-31.5 34.5t-42 26t-51.5 7.5z" />
    <glyph glyph-name="Ygrave" unicode="&#x1ef2;" horiz-adv-x="1209" 
d="M391 1660l115 38l132 -334l-57 -35zM715 529v-415l163 -33l-9 -81h-507l10 74l149 47v384l-352 621l-138 42l13 76h508l-12 -76l-158 -39l277 -488l264 485l-183 42l10 76h444l-10 -76l-124 -39z" />
    <glyph glyph-name="ygrave" unicode="&#x1ef3;" horiz-adv-x="944" 
d="M299 1291l115 38l132 -334l-57 -34zM127 758l-124 38l12 77h419l-8 -74l-127 -37l204 -540l215 535l-130 41l13 75h343l-8 -74l-100 -41l-331 -811q-77 -190 -148.5 -258.5t-187.5 -68.5q-66 0 -110 36.5t-44 82.5q0 72 56 120q78 -54 150 -54q23 0 41 4.5t42 17.5
t47 44.5t42 79.5l20 49z" />
    <glyph glyph-name="endash" unicode="&#x2013;" horiz-adv-x="792" 
d="M99 513l611 7l-17 -104l-611 -6z" />
    <glyph glyph-name="emdash" unicode="&#x2014;" horiz-adv-x="1301" 
d="M99 513l1120 7l-17 -104l-1120 -6z" />
    <glyph glyph-name="quoteleft" unicode="&#x2018;" horiz-adv-x="379" 
d="M347 1216q-92 -24 -137 -72t-45 -102q0 -44 32.5 -75.5t83.5 -31.5q20 0 30 2q15 -39 15 -63q0 -56 -39.5 -88.5t-83.5 -32.5q-28 0 -56.5 12t-56 35.5t-45 65.5t-17.5 95q0 33 5.5 63.5t24 71t49 73.5t86.5 64.5t131 51.5z" />
    <glyph glyph-name="quoteright" unicode="&#x2019;" horiz-adv-x="379" 
d="M35 819q92 24 136.5 72t44.5 102q0 44 -32.5 75.5t-83.5 31.5q-20 0 -29 -2q-15 39 -15 63q0 56 39.5 88t82.5 32q28 0 57 -11.5t56.5 -35t45 -65.5t17.5 -96q0 -33 -5.5 -63t-24 -70.5t-49 -73.5t-87 -64.5t-130.5 -51.5z" />
    <glyph glyph-name="quotesinglbase" unicode="&#x201a;" horiz-adv-x="379" 
d="M20 -244q92 24 137 72t45 101q0 44 -32.5 75.5t-83.5 31.5q-20 0 -30 -1q-15 39 -15 62q0 56 39.5 88.5t83.5 32.5q28 0 56.5 -12t56 -35.5t45 -65.5t17.5 -95q0 -33 -5.5 -63.5t-24 -70.5t-49 -73t-86.5 -65t-131 -51z" />
    <glyph glyph-name="quotereversed" unicode="&#x201b;" horiz-adv-x="370" 
d="M341 827l-24 -69q-75 20 -131 51.5t-86.5 64.5t-49 73.5t-24 71t-5.5 63.5q0 53 17.5 95t45 65.5t56.5 35.5t57 12q44 0 83 -32.5t39 -86.5q0 -25 -16 -61q-65 -5 -104.5 -33.5t-39.5 -75.5q0 -53 45 -101.5t137 -72.5z" />
    <glyph glyph-name="quotedblleft" unicode="&#x201c;" horiz-adv-x="686" 
d="M349 1219q-92 -24 -137 -72t-45 -102q0 -44 32.5 -75.5t83.5 -31.5q20 0 30 2q15 -39 14 -62q0 -56 -39.5 -88.5t-82.5 -32.5q-28 0 -57 12t-56.5 35t-44.5 65t-17 96q0 33 5 63.5t23.5 70.5t49 73t87 64.5t131.5 51.5zM664 1219q-92 -24 -137 -72t-45 -102
q0 -44 32.5 -75.5t83.5 -31.5q20 0 30 2q15 -39 14 -62q0 -56 -39 -88.5t-83 -32.5q-28 0 -57 12t-56.5 35t-44.5 65t-17 96q0 33 5 63.5t23.5 70.5t49 73t87 64.5t131.5 51.5z" />
    <glyph glyph-name="quotedblright" unicode="&#x201d;" horiz-adv-x="688" 
d="M341 824q92 24 136.5 72t44.5 102q0 44 -32.5 75.5t-83.5 31.5q-20 0 -29 -2q-15 39 -15 62q0 56 39.5 88.5t82.5 32.5q28 0 57 -11.5t56.5 -35t45 -65.5t17.5 -96q0 -33 -5.5 -63t-24 -70.5t-49 -73.5t-87 -64.5t-130.5 -51.5zM23 824q92 24 137 72t45 102
q0 44 -32.5 75.5t-83.5 31.5q-20 0 -30 -2q-15 39 -15 62q0 56 39.5 88.5t83.5 32.5q28 0 57 -11.5t56.5 -35t44.5 -65.5t17 -96q0 -33 -5.5 -63t-24 -70.5t-48.5 -73.5t-86.5 -64.5t-131.5 -51.5z" />
    <glyph glyph-name="quotedblbase" unicode="&#x201e;" horiz-adv-x="716" 
d="M341 -254q92 24 136.5 72t44.5 101q0 44 -32.5 75.5t-83.5 31.5q-20 0 -29 -1q-15 39 -15 62q0 56 39.5 88.5t82.5 32.5q28 0 57 -12t56.5 -35.5t45 -65.5t17.5 -95q0 -33 -5.5 -63.5t-24 -70.5t-49 -73t-87 -64.5t-130.5 -51.5zM23 -254q92 24 137 72t45 101
q0 44 -32.5 75.5t-83.5 31.5q-20 0 -30 -1q-15 39 -15 62q0 56 39.5 88.5t83.5 32.5q28 0 57 -12t56.5 -35.5t44.5 -65.5t17 -95q0 -33 -5.5 -63.5t-24 -70.5t-48.5 -73t-86.5 -64.5t-131.5 -51.5z" />
    <glyph glyph-name="dagger" unicode="&#x2020;" horiz-adv-x="922" 
d="M518 819l306 8l-6 -122l-300 11l16 -1080l-146 14l15 1068l-304 -7l7 116l297 -8l-8 436l134 -11z" />
    <glyph glyph-name="daggerdbl" unicode="&#x2021;" horiz-adv-x="922" 
d="M508 429l4 -255l312 6l-6 -116l-306 8l8 -436l-133 12l9 424l-287 -8l7 123l280 -12l9 323l-4 220l-302 -7l7 116l295 -8l-8 436l134 -11l-10 -425l304 8l-7 -122l-297 11z" />
    <glyph glyph-name="bullet" unicode="&#x2022;" horiz-adv-x="547" 
d="M274 741q72 0 124.5 -49t52.5 -119q0 -74 -52.5 -126t-124.5 -52t-123.5 53.5t-51.5 127.5q0 69 51.5 117t123.5 48z" />
    <glyph glyph-name="ellipsis" unicode="&#x2026;" horiz-adv-x="1537" 
d="M309 205q49 0 85 -33.5t36 -81.5q0 -50 -35.5 -85.5t-85 -35.5t-84.5 36t-35 87q0 48 35 80.5t84 32.5zM1227 205q49 0 85 -33.5t36 -81.5q0 -50 -35.5 -85.5t-85 -35.5t-84.5 36t-35 87q0 48 35 80.5t84 32.5zM755 205q49 0 85 -33.5t36 -81.5q0 -50 -36 -85.5
t-85 -35.5t-84 36t-35 87q0 48 35 80.5t84 32.5z" />
    <glyph glyph-name="perthousand" unicode="&#x2030;" horiz-adv-x="1689" 
d="M748 211q0 -72 29.5 -118.5t82.5 -46.5q108 0 108 167q0 75 -27.5 122t-81.5 47q-111 -1 -111 -171zM1093 211q0 -98 -71.5 -172t-161.5 -74q-99 0 -168 69.5t-69 178.5q0 99 72 174t164 75q104 0 169 -71.5t65 -179.5zM174 721q0 -72 29 -117.5t82 -45.5q108 0 108 165
q0 75 -27.5 122t-81.5 47q-110 -1 -110 -171zM518 723q0 -99 -71.5 -173.5t-161.5 -74.5q-99 0 -167.5 69.5t-68.5 180.5q0 99 71.5 173.5t163.5 74.5q105 0 169.5 -71t64.5 -179zM842 976l113 -8l-656 -1006l-121 10zM1295 211q0 -72 29.5 -118.5t82.5 -46.5q59 0 83 44
t24 123q0 75 -27 122t-81 47q-59 0 -85 -48t-26 -123zM1640 211q0 -98 -71.5 -172t-161.5 -74q-99 0 -168 69.5t-69 178.5q0 99 72 174t164 75q104 0 169 -71.5t65 -179.5z" />
    <glyph glyph-name="guilsinglleft" unicode="&#x2039;" horiz-adv-x="473" 
d="M79 469l268 352l45 -59l-166 -301l169 -320l-53 -64l-261 372z" />
    <glyph glyph-name="guilsinglright" unicode="&#x203a;" horiz-adv-x="473" 
d="M395 469l-2 -20l-261 -372l-53 64l169 320l-166 301l45 59z" />
    <glyph glyph-name="overline" unicode="&#x203e;" horiz-adv-x="569" 
d="M72 1403h441l-13 -100h-441z" />
    <glyph glyph-name="fraction" unicode="&#x2044;" horiz-adv-x="1047" 
d="M844 960l80 8l-686 -989l-84 -9z" />
    <glyph glyph-name="Euro" unicode="&#x20ac;" horiz-adv-x="1111" 
d="M846 174l41 219l88 13l31 -295q-95 -74 -183.5 -105t-211.5 -31q-141 0 -258.5 57.5t-197.5 174.5t-99 278h-102l18 106h77q0 23 4 69h-92l18 107h88q16 79 45.5 149.5t79.5 136.5t114.5 113t155.5 75.5t198 28.5q101 0 180 -23.5t149 -76.5l-31 -333l-88 13l-41 220
q-40 52 -88.5 78.5t-137.5 26.5q-137 0 -225.5 -108t-108.5 -300h545l-29 -107h-521v-1q0 -46 2 -68h502l-29 -106h-462q30 -195 131 -298t252 -103q52 0 102 22t84 68z" />
    <glyph glyph-name="trademark" unicode="&#x2122;" horiz-adv-x="793" 
d="M0 1318h294l-10 -92l-30 3l-10 61h-67v-264l49 -9l-3 -26h-159l2 25l45 11v263h-65l-15 -64l-28 3zM502 999l-91 246l-16 -219l47 -9l-3 -26h-132l1 25l46 11l19 256l-49 10l3 25h124l21 -51l68 -195l83 205l18 41h122l-3 -25l-45 -10l15 -257l48 -9l-3 -26h-152l3 25
l43 11l-15 228l-100 -251z" />
    <glyph glyph-name="partialdiff" unicode="&#x2202;" horiz-adv-x="990" 
d="M872 466q0 -113 -31.5 -207t-85.5 -155.5t-125.5 -95.5t-152.5 -34t-147.5 26t-111.5 71.5t-76.5 106.5t-45.5 129.5t-14 143.5q0 144 54 258.5t143.5 176.5t195.5 62q17 0 37.5 -4t44 -13t43.5 -28.5t31 -45.5l6 2q-17 84 -103 222.5t-184 221.5h117q102 -58 181 -151
t127 -204.5t72.5 -233t24.5 -248.5zM261 498q2 -201 67.5 -314t171.5 -113q57 0 96.5 24t61 72.5t31 110.5t9.5 146q0 114 -35 214t-89 158t-112 59h-6q-68 0 -112.5 -46t-63.5 -124t-19 -187z" />
    <glyph glyph-name="emptyset" unicode="&#x2205;" horiz-adv-x="990" 
d="M707 730q-91 93 -225 92q-144 0 -237.5 -104t-93.5 -276q0 -100 36 -179zM767 642l-522 -469q47 -52 110 -79.5t129 -27.5q146 0 235.5 97.5t89.5 280.5q0 112 -42 198zM938 442q0 -129 -55 -238t-159.5 -175.5t-239.5 -66.5q-95 0 -179.5 34t-147.5 98l-99 -89l-58 90
l92 83q-69 116 -69 266q0 93 39 182.5t102.5 156t147.5 106.5t170 40q188 0 313 -120l90 81l58 -91l-83 -73q78 -123 78 -284z" />
    <glyph glyph-name="product" unicode="&#x220f;" horiz-adv-x="1416" 
d="M573 0h-542l8 74l167 47v1005l-181 42l10 76h1367l-11 -76l-167 -39v-1015l182 -33l-10 -81h-544l12 74l165 47v1020l-628 -2v-1025l185 -33z" />
    <glyph glyph-name="summation" unicode="&#x2211;" horiz-adv-x="1074" 
d="M41 1244h990l-32 -320l-86 14l-41 214h-605l416 -472l-3 -46l-424 -472h624l98 230l82 -12l-29 -380h-992v74l479 532v12l-488 566z" />
    <glyph glyph-name="minus" unicode="&#x2212;" horiz-adv-x="792" 
d="M99 513l611 7l-17 -104l-611 -6z" />
    <glyph glyph-name="radical" unicode="&#x221a;" horiz-adv-x="1049" 
d="M392 -132l-205 545l-121 28l10 76l261 15l147 -443l447 1207l119 7l-532 -1417z" />
    <glyph glyph-name="infinity" unicode="&#x221e;" horiz-adv-x="1393" 
d="M341 721q-94 0 -143 -49t-49 -132q0 -74 69.5 -126t158.5 -52q74 0 147 30.5t105 71.5q-35 49 -59 82t-55 69t-57.5 57t-56.5 35t-60 14zM59 497q0 163 94.5 269.5t228.5 106.5q93 0 166 -44.5t139 -151.5l10 2q141 190 324 190q123 0 201 -88t78 -229t-100.5 -244
t-238.5 -103q-172 0 -289 201h-8q-65 -104 -144.5 -153.5t-164.5 -49.5q-137 0 -216.5 80t-79.5 214zM1057 362q66 0 113 49t47 114q0 81 -72 133t-164 52q-49 0 -89.5 -8.5t-71 -27t-48 -31.5t-41.5 -35q66 -116 152 -181t174 -65z" />
    <glyph glyph-name="integral" unicode="&#x222b;" horiz-adv-x="960" 
d="M395 -61l5 847q1 109 26.5 199t65 147.5t90 98t99.5 57t94 16.5q84 0 135 -28.5t51 -86.5q0 -34 -30 -67.5t-59 -44.5q-38 48 -85.5 85t-89.5 37q-60 0 -93.5 -48t-38.5 -170l-2 -863q0 -110 -25.5 -199.5t-65.5 -144.5t-91.5 -92t-99.5 -52t-94 -15q-84 0 -135.5 29
t-51.5 87q1 34 30.5 67t58.5 45q38 -47 85.5 -84.5t89.5 -37.5q61 0 94.5 48t36.5 170z" />
    <glyph glyph-name="approxequal" unicode="&#x2248;" horiz-adv-x="990" 
d="M82 540q2 8 6 21.5t19 48t33.5 61t50 47.5t68.5 21h13l446 -45h4q16 0 37 15.5t33 30.5l12 15l65 -2q-1 -4 -3.5 -11.5t-10.5 -28t-17.5 -39.5t-25.5 -42.5t-33.5 -40.5t-42.5 -28.5t-51 -11.5q-10 0 -15 1l-445 44h-5q-18 0 -39 -17t-32 -35l-12 -17zM82 284q2 8 6 21
t19 47.5t33.5 61t50 48t68.5 21.5q9 0 13 -1l446 -44h4q16 0 37 15t33 31l12 14l65 -1q-1 -4 -3.5 -11.5t-10.5 -28.5t-17.5 -40t-25.5 -42.5t-33.5 -40.5t-42.5 -28.5t-51 -11.5q-10 0 -15 1l-445 45h-5q-18 0 -39 -17.5t-32 -34.5l-12 -17z" />
    <glyph glyph-name="notequal" unicode="&#x2260;" horiz-adv-x="793" 
d="M362 319l-132 -187l-131 -5l134 192h-151l12 105h224l101 134h-333l11 106h376l90 130l132 2l-92 -132h108l-11 -106h-185l-100 -134h293l-11 -105h-335z" />
    <glyph glyph-name="lessequal" unicode="&#x2264;" horiz-adv-x="716" 
d="M33 428l2 28l539 517l57 -72l-362 -447l382 -467l-63 -69zM72 -164l611 7l-16 -104l-611 -6z" />
    <glyph glyph-name="greaterequal" unicode="&#x2265;" horiz-adv-x="716" 
d="M49 -164l611 7l-16 -104l-611 -6zM683 428l-555 -510l-62 69l381 467l-361 447l56 72l540 -517z" />
    <glyph glyph-name="lozenge" unicode="&#x25ca;" horiz-adv-x="944" 
d="M796 472l-322 -336l-325 338l323 325z" />
    <glyph glyph-name="uniF001" unicode="&#xf001;" horiz-adv-x="1185" 
d="M372 981l-2 -108h258l-14 -88h-244v-664l246 -37l-8 -84h-569l12 72l152 44v669h-149l12 72l139 23q12 104 50.5 187.5t91.5 134t110.5 76.5t112.5 26q83 0 131.5 -28t48.5 -87q0 -34 -30 -67.5t-60 -44.5q-76 123 -162 122q-60 0 -91.5 -48t-34.5 -170zM674 79l152 37
v615l-152 55l13 76l281 23l25 -25v-744l160 -35l-11 -81h-480zM900 1307q50 0 86 -33.5t36 -80.5q0 -50 -36.5 -86.5t-86 -36.5t-84 36.5t-34.5 87.5q0 48 35.5 80.5t83.5 32.5z" />
    <glyph glyph-name="uniF002" unicode="&#xf002;" horiz-adv-x="1168" 
d="M367 948l3 -75h258l-14 -88h-244v-664l246 -37l-8 -84h-569l12 72l152 44v669h-149l12 72l139 23q1 78 22.5 148.5t55 119.5t73 84.5t77 53t65.5 17.5q70 0 107 -20t37 -69q0 -28 -19.5 -54.5t-44.5 -40.5q-21 21 -66 44t-76 23q-71 0 -71 -180q0 -38 2 -58zM976 116
l160 -35l-12 -81h-478l11 79l152 37v1002l-157 53l12 76l288 23l24 -25v-1129z" />
    <glyph glyph-name="Germandbls.alt" horiz-adv-x="1288" 
d="M852 763q17 -12 60.5 -34.5t84.5 -44t89.5 -57.5t84.5 -74.5t60 -95t24 -120.5q0 -112 -56 -195t-149 -125t-208 -42q-108 0 -201.5 43.5t-135.5 112.5l13 267l103 -15l39 -188q30 -49 84.5 -83.5t120.5 -34.5q88 0 146.5 47t58.5 147q0 40 -23 80.5t-55 70.5t-84.5 65.5
t-94 58t-102 54.5t-88.5 49l-23 49l324 444v5q-28 12 -117.5 22t-116.5 10q-103 0 -165.5 -41.5t-95.5 -145.5t-33 -281l2 -711h-368l8 74l167 47v567q0 131 23.5 231t65.5 166t104.5 108t137 59.5t167.5 17.5q126 0 267.5 -11.5t185.5 -26.5l1 -72z" />
    <glyph glyph-name="Germandbls.alt2" horiz-adv-x="1288" 
d="M1021 1080q-66 51 -151 51q-59 0 -112 -49.5t-53 -121.5q0 -60 30.5 -108.5t79 -83t107 -66.5t117 -67.5t107 -76.5t79 -101.5t30.5 -135.5q0 -84 -32.5 -150.5t-89 -108.5t-130.5 -64.5t-161 -22.5q-110 0 -203 39.5t-134 108.5l13 267l103 -15l39 -188
q30 -47 84.5 -78.5t120.5 -31.5q205 0 205 177q0 41 -18.5 76t-49.5 62t-71.5 51.5t-85 48t-89 48.5t-85 56.5t-71.5 67.5t-49.5 86t-18.5 109q0 121 67.5 204.5t176.5 109.5l2 3q-39 3 -88 3q-294 0 -294 -393l2 -786h-368l8 74l167 47v642q0 132 35.5 230t101.5 158.5
t156.5 89.5t204.5 29q141 0 266.5 -27t196.5 -73l-20 -283l-99 11z" />
    <glyph glyph-name="eight.osf" horiz-adv-x="828" 
d="M341 555q-43 -33 -76.5 -104.5t-33.5 -147.5q0 -92 54 -164.5t131 -72.5q87 0 138 51t51 149q0 74 -68.5 142t-195.5 147zM66 280q0 174 216 310v8q-65 39 -118 118t-53 171q0 127 93 220.5t224 93.5q127 0 204.5 -72t77.5 -186q0 -90 -39.5 -162t-125.5 -135l-1 -10
q220 -137 219 -328q0 -140 -111 -237t-280 -97q-139 0 -222.5 82t-83.5 224zM477 677q25 28 41.5 51.5t30.5 71t14 106.5q0 56 -17.5 104.5t-55.5 81t-89 32.5q-59 0 -99.5 -42.5t-40.5 -103.5q0 -83 56 -162t160 -139z" />
    <glyph glyph-name="f.alt2" horiz-adv-x="611" 
d="M372 981l-2 -108h258l-14 -88h-244v-664l246 -37l-8 -84h-569l12 72l152 44v669h-149l12 72l139 23q9 83 34 154.5t57.5 119.5t70 83t72 50.5t63.5 15.5q69 0 104.5 -20t35.5 -69q0 -28 -19.5 -54.5t-44.5 -40.5q-23 25 -57.5 46t-64.5 21q-46 0 -63.5 -39.5
t-20.5 -165.5z" />
    <glyph glyph-name="five.osf" horiz-adv-x="785" 
d="M647 950l-24 -164l-343 -23l-44 -218q219 -38 335 -142t116 -274q0 -76 -35.5 -152.5t-95.5 -137t-147 -98.5t-183 -38q-132 0 -195.5 38.5t-63.5 91.5q0 37 28 67.5t72 38.5q15 -21 24 -32t32 -36t43.5 -39t51 -26t61.5 -12q95 0 159.5 80t64.5 190q0 151 -92.5 232.5
t-294.5 104.5l87 510z" />
    <glyph glyph-name="four.osf" horiz-adv-x="952" 
d="M558 -303v392h-486l-23 75l620 822l64 -18q-10 -179 -10 -535v-222h255l-17 -125h-236v-353zM557 211v466l-337 -466h337z" />
    <glyph glyph-name="kaf-hb.fina" horiz-adv-x="788" 
d="M698 880l27 -31l-28 -129l-50 -13l36 -722q1 -18 3.5 -98.5t6 -148.5t7.5 -103l-95 -17l-37 25l14 1077h-547l-27 30l17 226l74 10l35 -106h564z" />
    <glyph glyph-name="mem-hb.fina" horiz-adv-x="834" 
d="M806 192q0 -192 -116 -192h-541l-26 30q-12 390 -12 468q0 28 8 60.5t34.5 74.5t67.5 70v13h-95l-18 18l10 242l74 10l34 -106h472q55 0 81.5 -44t26.5 -153v-491zM229 162h478q8 19 13.5 59.5t5.5 77.5v11l-6 332q-1 46 -14 62t-42 16h-375q-84 -82 -84 -191
q-1 -258 24 -367z" />
    <glyph glyph-name="nine.osf" horiz-adv-x="816" 
d="M560 337h-13q-37 -50 -98 -79t-127 -29q-94 0 -160.5 49t-97.5 125.5t-31 169.5q0 100 51 187t135 137.5t179 50.5q76 0 137 -23.5t101 -64.5t66.5 -98t38 -120.5t11.5 -136.5q0 -164 -78 -321t-212.5 -273t-297.5 -168l-23 74q85 36 151.5 83t110.5 95.5t76.5 108.5
t50 114t30.5 119zM390 867q-88 0 -135 -73.5t-47 -193.5q0 -53 9.5 -98.5t30 -83.5t58.5 -59.5t89 -21.5q52 0 99 24.5t71 62.5q8 46 8 125q0 83 -21 154.5t-63.5 117.5t-98.5 46z" />
    <glyph glyph-name="one.osf" horiz-adv-x="632" 
d="M410 941v-827l190 -33l-10 -81h-541l9 74l185 47v665l-174 2l8 77l305 76h28z" />
    <glyph glyph-name="seven.osf" horiz-adv-x="741" 
d="M111 -51q54 123 126.5 253.5t179 309.5t151.5 258h-419l-47 -124l-69 13l25 262h637l13 -95q-42 -75 -103 -182.5t-94.5 -167.5t-75 -139.5t-72.5 -152.5t-58 -153q-25 -76 -46 -171.5t-21 -154.5q-3 -1 -22 -4.5t-24 -3.5q-49 0 -83.5 30t-34.5 78q0 61 37 144z" />
    <glyph glyph-name="six.osf" horiz-adv-x="821" 
d="M262 601h10q86 99 225 99q94 0 161.5 -49.5t99.5 -126.5t32 -170q0 -100 -50.5 -187t-135 -137.5t-183.5 -50.5q-93 0 -163 35.5t-111 98t-61 140t-20 168.5q0 164 79.5 327.5t213 285.5t288.5 172l36 -59q-76 -35 -139.5 -83.5t-109.5 -102.5t-81.5 -116.5t-57 -121.5
t-33.5 -122zM429 61q79 0 129 75t50 191q0 54 -9 100t-29 86t-57.5 62.5t-88.5 22.5q-52 0 -98 -24.5t-67 -55.5q-7 -66 -6 -112q0 -88 18.5 -165t60 -128.5t97.5 -51.5z" />
    <glyph glyph-name="three.osf" horiz-adv-x="745" 
d="M127 -54q3 -19 12.5 -43t26 -50.5t44 -44.5t61.5 -18q67 0 114 20.5t71 56.5t35 75.5t11 87.5q0 88 -82 172.5t-172 84.5h-17l-10 67q15 5 40.5 19t61.5 42.5t66 62.5t51.5 83.5t21.5 100.5q0 72 -30.5 121t-94.5 49q-39 0 -69 -10t-52.5 -31.5t-37.5 -46.5t-31 -62
l-78 26q7 41 34.5 85.5t68.5 83.5t100 64t123 25q112 0 175.5 -69.5t63.5 -181.5q0 -45 -13.5 -89t-34.5 -77t-49 -64t-53 -51.5t-51 -37.5v-11q117 -32 182 -114t65 -182q0 -65 -30.5 -132.5t-84 -124.5t-137 -93t-177.5 -36q-121 0 -186 41.5t-65 96.5q0 39 34 69t93 36z
" />
    <glyph glyph-name="two.osf" horiz-adv-x="818" 
d="M733 0h-664l-6 102l254 198q202 159 203 359q0 82 -39.5 129.5t-110.5 47.5q-39 0 -76 -20.5t-64.5 -52.5t-44.5 -59t-30 -53l-74 29q5 30 23 66.5t50.5 75.5t73 71t96.5 52.5t115 20.5q112 0 186.5 -73.5t74.5 -189.5q0 -71 -26.5 -138.5t-77 -130t-109 -116.5
t-137.5 -112l-93 -67h372l78 138l71 -10z" />
    <glyph glyph-name="zero.osf" horiz-adv-x="1005" 
d="M239 467q0 -99 30.5 -184.5t93.5 -142t145 -56.5q87 0 146 52t85 137t26 197q0 101 -29.5 189t-90 144.5t-140.5 56.5q-67 0 -118 -30.5t-83 -84t-48.5 -124t-16.5 -154.5zM939 467q0 -132 -53.5 -244.5t-153.5 -180.5t-225 -68q-207 0 -324 134.5t-117 361.5
q0 132 54.5 245.5t156 183t226.5 69.5q137 0 237.5 -67.5t149.5 -179.5t49 -254z" />
  </font>
</defs>
</svg>
