<?xml version="1.0" standalone="no"?>
<!DOCTYPE svg PUBLIC "-//W3C//DTD SVG 1.1//EN" "http://www.w3.org/Graphics/SVG/1.1/DTD/svg11.dtd" >
<svg>
<metadata>
Created by FontForge 20120731 at Tue Jan  5 21:21:53 2016
 By ,,,
Copyright 2004, SUDTIPOS. Disenada por Alejandro Paul y Alfredo Graziani. Todos los derechos reservados.
</metadata>
<defs>
<font id="Politica-Italic" horiz-adv-x="403" >
  <font-face 
    font-family="Politica"
    font-weight="400"
    font-style="italic"
    font-stretch="normal"
    units-per-em="1000"
    panose-1="2 0 5 6 6 0 0 9 0 4"
    ascent="800"
    descent="-200"
    x-height="558"
    cap-height="800"
    bbox="-55 -257 1059 1016"
    underline-thickness="20"
    underline-position="-113"
    slope="-12"
    unicode-range="U+000D-FB02"
  />
<missing-glyph horiz-adv-x="182" 
d="M91 0q-5 0 -8 3.5t-2 7.5q2 11 13 11t9 -11t-12 -11zM165 470q-11 0 -9 11t12 11q5 0 8 -3.5t2 -7.5q-2 -11 -13 -11z" />
    <glyph glyph-name=".notdef" horiz-adv-x="182" 
d="M91 0q-5 0 -8 3.5t-2 7.5q2 11 13 11t9 -11t-12 -11zM165 470q-11 0 -9 11t12 11q5 0 8 -3.5t2 -7.5q-2 -11 -13 -11z" />
    <glyph glyph-name=".null" horiz-adv-x="0" 
 />
    <glyph glyph-name="nonmarkingreturn" horiz-adv-x="333" 
 />
    <glyph glyph-name="CR" unicode="&#xd;" horiz-adv-x="500" 
 />
    <glyph glyph-name="space" unicode=" " horiz-adv-x="160" 
 />
    <glyph glyph-name="exclam" unicode="!" horiz-adv-x="272" 
d="M160 0l16 106h-50l-16 -106h50zM192 206l94 590h-50l-94 -590h50z" />
    <glyph glyph-name="quotedbl" unicode="&#x22;" horiz-adv-x="280" 
d="M236 764l-41 -258h-50l41 258h50zM336 764l-41 -258h-50l41 258h50z" />
    <glyph glyph-name="numbersign" unicode="#" horiz-adv-x="586" 
d="M612 457h-108l-63 -133h115l-8 -49h-130l-83 -175h-50l83 175h-140l-83 -175h-50l83 175h-70l8 49h86l63 133h-93l8 49h108l78 164h50l-78 -164h140l78 164h50l-78 -164h92zM314 457l-63 -133h141l63 133h-141z" />
    <glyph glyph-name="dollar" unicode="$" horiz-adv-x="368" 
d="M280 770l-14 -91q-52 -5 -92 -42.5t-48 -89.5l-3 -20q-4 -27 8 -53.5t34 -46.5t33 -29t21 -15l-37 -232q-29 4 -45 27.5t-11 54.5l14 89h-50l-14 -89q-8 -51 20 -89t78 -43l-15 -101h50l15 101q52 5 92 42.5t48 89.5l6 34q4 25 -7 50.5t-31 46t-33 31t-25 18.5l34 216
q29 -5 45 -28.5t11 -53.5l-3 -20h50l3 20q8 51 -20 89t-78 43l14 91h-50zM314 233q-4 -31 -28 -54t-54 -28l32 199q61 -52 56 -83zM173 527l3 20q5 31 28 54t54 28l-29 -184q-61 48 -56 82z" />
    <glyph glyph-name="percent" unicode="%" horiz-adv-x="675" 
d="M324 496l24 149q5 35 -9.5 59t-40.5 24h-10q-26 0 -48.5 -24.5t-27.5 -58.5l-24 -149q-5 -35 9.5 -59t40.5 -24h10q26 0 48.5 24.5t27.5 58.5zM398 645l-24 -149q-9 -55 -48 -94t-86 -39h-10q-47 0 -74 39t-18 94l24 149q8 55 47.5 94t86.5 39h10q47 0 73.5 -38.5
t18.5 -94.5zM584 123l24 149q5 35 -9.5 59t-40.5 24h-10q-26 0 -48.5 -24.5t-27.5 -58.5l-24 -149q-5 -35 9.5 -59t40.5 -24h10q26 0 48.5 24.5t27.5 58.5zM658 272l-24 -149q-9 -55 -48 -94t-86 -39h-10q-47 0 -74 39t-18 94l24 149q8 55 47.5 94t86.5 39h10
q47 0 73.5 -38.5t18.5 -94.5zM240 0l378 798h-50l-378 -798h50z" />
    <glyph glyph-name="ampersand" unicode="&#x26;" horiz-adv-x="514" 
d="M304 359l8 50h-64q-23 0 -44.5 34t-17.5 59l23 144q11 71 96 71h16q40 0 57 -16.5t11 -54.5l-13 -79h50l13 79q9 59 -20 90t-90 31h-16q-62 0 -103.5 -31.5t-50.5 -89.5l-23 -144q-6 -39 10 -71t48 -47q-39 -13 -67.5 -47t-35.5 -73l-23 -149q-9 -58 25 -89t97 -31h17
q61 0 99.5 30.5t48.5 89.5l38 243h127l8 50h-127l6 36h-50l-52 -329q-7 -38 -28.5 -54t-61.5 -16h-16q-42 0 -64.5 16.5t-16.5 53.5l23 149q4 25 40 60t59 35h64z" />
    <glyph glyph-name="quotesingle" unicode="'" horiz-adv-x="180" 
d="M236 764l-41 -258h-50l41 258h50z" />
    <glyph glyph-name="parenleft" unicode="(" horiz-adv-x="295" 
d="M330 842h58q-202 -210 -241 -462q-40 -252 95 -462h-58q-126 200 -84 462q41 263 230 462z" />
    <glyph glyph-name="parenright" unicode=")" horiz-adv-x="295" 
d="M231 842h-58q134 -207 95 -462q-40 -251 -241 -462h58q188 200 230 462q41 265 -84 462z" />
    <glyph glyph-name="asterisk" unicode="*" horiz-adv-x="436" 
d="M365 775h-50l-21 -134l-128 32l-7 -47l117 -34l-124 -106l32 -31l122 106l90 -106l40 31l-90 106l129 34l7 47l-138 -32z" />
    <glyph glyph-name="plus" unicode="+" horiz-adv-x="430" 
d="M91 327h150l-25 -162h49l25 162h151l8 49h-151l22 139h-49l-22 -139h-150z" />
    <glyph glyph-name="comma" unicode="," horiz-adv-x="206" 
d="M111 -156l49 311h-50l-49 -311h50z" />
    <glyph glyph-name="hyphen" unicode="-" horiz-adv-x="300" 
d="M91 327h220l8 49h-220z" />
    <glyph glyph-name="period" unicode="." horiz-adv-x="159" 
d="M79 0q-12 0 -19.5 8.5t-5.5 20.5t12 21t22 9t19.5 -9t5.5 -21q-1 -12 -11.5 -20.5t-22.5 -8.5z" />
    <glyph glyph-name="slash" unicode="/" horiz-adv-x="320" 
d="M30 -60l436 920h-50l-435 -920h49z" />
    <glyph glyph-name="zero" unicode="0" horiz-adv-x="398" 
d="M394 642l-82 -519q-5 -34 -33 -58.5t-63 -24.5h-22q-34 0 -54.5 24t-15.5 59l82 519q5 34 33 58.5t63 24.5h22q34 0 54.5 -24t15.5 -59zM362 123l82 519q9 55 -23.5 94t-88.5 39h-22q-55 0 -100 -38.5t-54 -94.5l-82 -519q-9 -55 24 -94t88 -39h22q55 0 100 39t54 94z
" />
    <glyph glyph-name="one" unicode="1" horiz-adv-x="219" 
d="M154 0l121 765h-89l-8 -50h39l-113 -715h50z" />
    <glyph glyph-name="two" unicode="2" horiz-adv-x="349" 
d="M87 50h254l-7 -50h-304l7 50q17 102 49.5 155.5t110.5 116.5q54 43 85.5 75t58 82t36.5 112l7 41q6 39 -17.5 66.5t-62.5 27.5h-16q-39 0 -70.5 -27.5t-37.5 -66.5h-50q9 60 57.5 102t108.5 42h16q60 0 95.5 -42t26.5 -102l-7 -41q-15 -97 -65 -167t-131 -134
q-78 -63 -103.5 -104t-40.5 -136z" />
    <glyph glyph-name="three" unicode="3" horiz-adv-x="391" 
d="M382 653l-18 -116q-5 -25 -37 -59t-55 -34h-44l-8 -50h44q23 0 48 -35t21 -60l-29 -184q-12 -70 -103 -70h-16q-40 0 -57.5 16t-10.5 54l26 167h-50l-26 -167q-10 -59 19.5 -89.5t90.5 -30.5h17q63 0 107 31t53 89l29 184q6 39 -12.5 73t-52.5 47q36 15 62.5 47t33.5 71
l18 116q9 58 -25 89t-97 31h-17q-61 0 -99.5 -30.5t-48.5 -89.5l-3 -20h50l3 20q6 38 28 54t62 16h16q42 0 64.5 -16.5t16.5 -53.5z" />
    <glyph glyph-name="four" unicode="4" horiz-adv-x="413" 
d="M365 765h87l-89 -561h52l-8 -50h-52l-25 -160h-50l25 160h-281zM107 204h206l81 511h-10z" />
    <glyph glyph-name="five" unicode="5" horiz-adv-x="367" 
d="M255 394h-132l59 370h266l-8 -49h-216l-43 -271h82q55 0 87.5 -38.5t24.5 -94.5l-31 -196q-9 -58 -53 -89t-107 -31h-17q-61 0 -90.5 30.5t-19.5 89.5l26 167h50l-26 -167q-7 -38 10.5 -54t57.5 -16h16q91 0 103 70l31 196q5 35 -15.5 59t-54.5 24z" />
    <glyph glyph-name="six" unicode="6" horiz-adv-x="393" 
d="M124 124l28 178q6 35 34 58.5t62 23.5h22q34 0 54.5 -24t15.5 -59l-28 -177q-5 -34 -33 -58.5t-63 -24.5h-22q-34 0 -54.5 24t-15.5 59zM394 656l-14 -89h50l14 89q10 59 -21 89.5t-93 30.5h-22q-61 0 -100.5 -30.5t-49.5 -89.5l-84 -532q-8 -55 24.5 -94t87.5 -39h22
q55 0 100.5 39t53.5 94l28 177q9 55 -24 94t-88 39h-22q-22 0 -44 -7.5t-33 -14.5l-11 -8l40 252q12 70 92 70h22q41 0 59.5 -16.5t12.5 -53.5z" />
    <glyph glyph-name="seven" unicode="7" horiz-adv-x="305" 
d="M30 0h50l331 770h-290l-7 -50h227z" />
    <glyph glyph-name="eight" unicode="8" horiz-adv-x="390" 
d="M337 298l-28 -174q-5 -34 -33 -58.5t-63 -24.5h-24q-34 0 -54.5 24t-15.5 59l28 174q5 35 34.5 62.5t63.5 27.5h22q34 0 54.5 -27.5t15.5 -62.5zM191 536l17 106q5 34 33 58.5t63 24.5h10q34 0 54.5 -24t15.5 -59l-17 -106q-5 -33 -36.5 -60.5t-59.5 -27.5h-12
q-34 0 -53.5 26.5t-14.5 61.5zM158 642l-17 -106q-6 -40 10.5 -71.5t48.5 -46.5q-40 -14 -68.5 -46.5t-34.5 -73.5l-28 -174q-8 -55 24.5 -94t87.5 -39h24q55 0 100.5 39t53.5 94l28 174q6 41 -12 73.5t-53 46.5q37 16 63 47t32 71l17 106q9 55 -24 94t-88 39h-10
q-55 0 -100 -39t-54 -94z" />
    <glyph glyph-name="nine" unicode="9" horiz-adv-x="393" 
d="M389 644l-28 -178q-5 -34 -33 -58t-63 -24h-22q-34 0 -54.5 24t-15.5 59l28 177q6 35 34.5 59t62.5 24h22q35 0 55 -24.5t14 -58.5zM119 112l14 89h-50l-14 -89q-9 -59 22 -89.5t92 -30.5h22q61 0 101 30.5t49 89.5l84 532q9 55 -23.5 94t-87.5 39h-22q-55 0 -100.5 -39
t-54.5 -94l-28 -177q-8 -55 24.5 -94t87.5 -39h22q22 0 44 7.5t33 14.5l11 8l-40 -252q-11 -70 -92 -70h-22q-41 0 -59.5 16t-12.5 54z" />
    <glyph glyph-name="colon" unicode=":" horiz-adv-x="159" 
d="M147 434q-12 0 -19 8.5t-5 20.5q1 12 11.5 21t22.5 9t19.5 -9t5.5 -21t-12.5 -20.5t-22.5 -8.5zM79 0q-12 0 -19.5 8.5t-5.5 20.5t12 21t22 9t19.5 -9t5.5 -21q-1 -12 -11.5 -20.5t-22.5 -8.5z" />
    <glyph glyph-name="semicolon" unicode=";" horiz-adv-x="203" 
d="M177 434q-12 0 -19 8.5t-5 20.5q1 12 11.5 21t22.5 9t19.5 -9t5.5 -21t-12.5 -20.5t-22.5 -8.5zM108 -156l49 311h-50l-49 -311h50z" />
    <glyph glyph-name="less" unicode="&#x3c;" horiz-adv-x="308" 
d="M95 415l226 242l27 -32l-195 -210l136 -218l-38 -33z" />
    <glyph glyph-name="equal" unicode="=" horiz-adv-x="430" 
d="M105 416h350l8 50h-350zM77 235h350l8 50h-350z" />
    <glyph glyph-name="greater" unicode="&#x3e;" horiz-adv-x="308" 
d="M343 415l-148 242l-39 -32l129 -210l-204 -218l26 -33z" />
    <glyph glyph-name="question" unicode="?" horiz-adv-x="388" 
d="M216 195h-50l29 183q8 50 47 83t88 33q23 0 38 22t18 44l18 113q5 35 -15.5 59t-54.5 24h-42q-35 0 -63 -24.5t-33 -58.5l-16 -104h-50l16 104q9 56 54 94.5t100 38.5h42q56 0 88.5 -39t23.5 -94l-18 -113q-7 -45 -36.5 -80.5t-77.5 -35.5q-23 0 -47 -15.5t-30 -50.5z
M186 0l16 106h-50l-16 -106h50z" />
    <glyph glyph-name="at" unicode="@" horiz-adv-x="669" 
d="M262 164l34 211q5 34 33 58.5t63 24.5h22q36 0 56 -21.5t14 -61.5l-29 -183q-101 -74 -154 -74q-8 0 -13 1t-13.5 4.5t-11.5 14t-1 26.5zM246 375l-34 -211q-6 -40 17.5 -68t63.5 -28q24 0 62.5 18t64.5 36l27 18l-9 -57h85q49 0 89.5 34.5t47.5 83.5l34 213
q14 91 -40 155.5t-145 64.5h-149q-92 0 -166.5 -64.5t-88.5 -155.5l-41 -258q-14 -91 40 -155.5t145 -64.5h107l8 50h-107q-67 0 -110.5 51t-32.5 119l41 258q10 67 69.5 118.5t127.5 51.5h149q67 0 110.5 -51t32.5 -119l-34 -213q-4 -27 -21 -43.5t-32 -20.5t-30 -4h-31
l38 242q8 55 -24.5 94t-87.5 39h-22q-55 0 -100.5 -39t-53.5 -94z" />
    <glyph glyph-name="A" unicode="A" horiz-adv-x="421" 
d="M411 0h-50l-7 214h-222l-72 -214h-50l261 772q4 13 18.5 23.5t29.5 10.5h34q15 0 26 -10.5t12 -23.5zM312 743l-163 -479h204l-13 479q0 13 -8 13h-8q-6 0 -12 -13z" />
    <glyph glyph-name="B" unicode="B" horiz-adv-x="428" 
d="M347 120l28 178q9 58 -68 95h-125l-55 -343h137q30 0 54 20.5t29 49.5zM190 443h126q79 33 88 91l23 146q5 28 -12 49.5t-46 21.5h-131zM196 800h181q50 0 79.5 -35.5t21.5 -84.5l-23 -144q-6 -38 -32 -70.5t-63 -47.5q35 -14 53 -46.5t12 -73.5l-28 -178q-8 -50 -49 -85
t-90 -35h-188z" />
    <glyph glyph-name="C" unicode="C" horiz-adv-x="413" 
d="M359 292h-2l-25 -158q-7 -39 -37.5 -66.5t-69.5 -27.5h-20q-39 0 -62.5 27.5t-16.5 66.5l83 528q7 39 38.5 66.5t70.5 27.5h20q39 0 62.5 -27.5t16.5 -66.5l-20 -126h50l20 126q10 60 -25.5 102t-95.5 42h-20q-60 0 -108.5 -42t-58.5 -102l-83 -528q-10 -60 25.5 -102
t95.5 -42h20q60 0 108.5 42t58.5 102l25 158h-50z" />
    <glyph glyph-name="D" unicode="D" horiz-adv-x="433" 
d="M238 750h114q39 0 62.5 -25t17.5 -63l-82 -518q-6 -39 -38 -66.5t-71 -27.5h-114zM196 800l-126 -800h164q60 0 108.5 42t57.5 102l82 518q10 59 -25.5 98.5t-96.5 39.5h-164z" />
    <glyph glyph-name="E" unicode="E" horiz-adv-x="338" 
d="M436 750h-198l-45 -284h171l-8 -50h-171l-58 -366h198l-7 -50h-248l126 800h248z" />
    <glyph glyph-name="F" unicode="F" horiz-adv-x="329" 
d="M445 800h-249l-126 -800h50l65 416h171l8 50h-171l45 284h199z" />
    <glyph glyph-name="G" unicode="G" horiz-adv-x="409" 
d="M221 40q39 0 70.5 27.5t38.5 66.5l33 208h-102l8 50h152l-41 -258q-10 -60 -58.5 -102t-108.5 -42h-16q-60 0 -95.5 42t-25.5 102l83 528q10 60 58.5 102t108.5 42h16q60 0 95.5 -42t25.5 -102l-20 -126h-50l20 126q7 39 -16.5 66.5t-62.5 27.5h-16q-39 0 -70.5 -27.5
t-38.5 -66.5l-83 -528q-7 -39 16.5 -66.5t62.5 -27.5h16z" />
    <glyph glyph-name="H" unicode="H" horiz-adv-x="445" 
d="M501 800h-50l-53 -334h-205l53 334h-50l-126 -800h50l66 417h205l-66 -417h50z" />
    <glyph glyph-name="I" unicode="I" horiz-adv-x="200" 
d="M125 0l126 800h-50l-126 -800h50z" />
    <glyph glyph-name="J" unicode="J" horiz-adv-x="389" 
d="M460 800h-50l-105 -666q-7 -39 -38.5 -66.5t-70.5 -27.5h-16q-39 0 -62.5 27.5t-16.5 66.5l25 158h-50l-25 -158q-10 -60 25.5 -102t95.5 -42h16q60 0 108.5 42t58.5 102z" />
    <glyph glyph-name="K" unicode="K" horiz-adv-x="446" 
d="M185 417l-66 -417h-49l126 800h49l-53 -334h75l241 334h54l-253 -354l-1 -9l128 -437h-54l-122 417h-75z" />
    <glyph glyph-name="L" unicode="L" horiz-adv-x="298" 
d="M226 800l-119 -750h198l-7 -50h-247l126 800h49z" />
    <glyph glyph-name="M" unicode="M" horiz-adv-x="614" 
d="M542 800h108l-96 -800h-50l89 750h-20l-240 -740h-50l-5 740h-20l-148 -750h-50l157 800h109l-2 -690z" />
    <glyph glyph-name="N" unicode="N" horiz-adv-x="485" 
d="M307 0h108l126 800h-50l-119 -750h-20l-46 750h-110l-126 -800h50l118 750h20z" />
    <glyph glyph-name="O" unicode="O" horiz-adv-x="418" 
d="M417 662l-83 -528q-7 -39 -38.5 -66.5t-70.5 -27.5h-20q-39 0 -62.5 27.5t-16.5 66.5l83 528q7 39 38.5 66.5t70.5 27.5h20q39 0 62.5 -27.5t16.5 -66.5zM384 134l83 528q10 60 -25.5 102t-95.5 42h-20q-60 0 -108.5 -42t-58.5 -102l-83 -528q-10 -60 25.5 -102t95.5 -42
h20q60 0 108.5 42t58.5 102z" />
    <glyph glyph-name="P" unicode="P" horiz-adv-x="404" 
d="M238 750h110q39 0 62.5 -25t17.5 -63l-28 -176q-6 -39 -37.5 -66.5t-70.5 -27.5h-110zM196 800l-126 -800h50l54 342h110q60 0 108.5 42t57.5 102l28 176q10 59 -25.5 98.5t-96.5 39.5h-160z" />
    <glyph glyph-name="Q" unicode="Q" horiz-adv-x="418" 
d="M384 134l83 528q10 60 -25.5 102t-95.5 42h-20q-60 0 -108.5 -42t-58.5 -102l-83 -528q-9 -56 21.5 -96.5t84.5 -46.5l-22 -141h50l22 141q56 6 99.5 46.5t52.5 96.5zM255 134h-50l-15 -93q-33 5 -51.5 31.5t-12.5 61.5l83 528q7 39 38.5 66.5t70.5 27.5h20
q39 0 62.5 -27.5t16.5 -66.5l-83 -528q-6 -35 -32.5 -61.5t-61.5 -31.5z" />
    <glyph glyph-name="R" unicode="R" horiz-adv-x="418" 
d="M328 0h50l47 298q6 41 -12 73.5t-53 46.5q37 15 63 47.5t32 70.5l23 144q8 49 -21.5 84.5t-79.5 35.5h-181l-126 -800h50l62 393h125q77 -37 68 -95zM316 443h-126l48 308h131q29 0 46 -21.5t12 -49.5l-23 -146q-9 -58 -88 -91z" />
    <glyph glyph-name="S" unicode="S" horiz-adv-x="394" 
d="M382 211l-12 -77q-10 -60 -58.5 -102t-108.5 -42h-16q-60 0 -95.5 42t-25.5 102l23 148h50l-23 -148q-7 -39 16.5 -66.5t62.5 -27.5h16q39 0 70.5 27.5t38.5 66.5l12 77q9 57 -6.5 100t-40 66.5t-68.5 51.5q-48 33 -67 74.5t-9 103.5l8 55q10 60 58.5 102t108.5 42h16
q60 0 95.5 -42t25.5 -102h-50q7 39 -16.5 66.5t-62.5 27.5h-16q-39 0 -70.5 -27.5t-38.5 -66.5l-8 -55q-6 -35 8 -66t35.5 -51.5t57.5 -44.5q57 -38 81 -90.5t9 -143.5z" />
    <glyph glyph-name="T" unicode="T" horiz-adv-x="330" 
d="M448 750h-140l-118 -750h-50l118 750h-140l8 50h330z" />
    <glyph glyph-name="U" unicode="U" horiz-adv-x="428" 
d="M444 800l-105 -666q-7 -39 -38.5 -66.5t-70.5 -27.5h-20q-39 0 -62.5 27.5t-16.5 66.5l105 666h-50l-105 -666q-10 -60 25.5 -102t95.5 -42h20q60 0 108.5 42t58.5 102l105 666h-50z" />
    <glyph glyph-name="V" unicode="V" horiz-adv-x="424" 
d="M235 53l255 747h50l-264 -776q-4 -13 -18.5 -23.5t-29.5 -10.5h-34q-15 0 -26 10.5t-12 23.5l-20 776h50l21 -747q0 -13 8 -13h8q5 0 12 13z" />
    <glyph glyph-name="W" unicode="W" horiz-adv-x="718" 
d="M734 800h50l-105 -666q-10 -60 -58.5 -102t-108.5 -42h-16q-50 0 -83.5 29.5t-38.5 75.5q-21 -46 -63.5 -75.5t-92.5 -29.5h-16q-60 0 -95.5 42t-25.5 102l105 666h50l-105 -666q-7 -39 16.5 -66.5t62.5 -27.5h16q46 0 87.5 49.5t49.5 94.5l97 616h50l-97 -616
q-8 -44 18.5 -94t72.5 -50h16q39 0 70.5 27.5t38.5 66.5z" />
    <glyph glyph-name="X" unicode="X" horiz-adv-x="400" 
d="M418 800l-138 -289l-45 289h-51l62 -345l-226 -455h51l192 399l66 -399h51l-83 455l172 345h-51z" />
    <glyph glyph-name="Y" unicode="Y" horiz-adv-x="424" 
d="M271 283l219 517h50l-227 -546q-4 -11 -16 -21t-26 -13l-34 -220h-50l35 221q-13 3 -21.5 12.5t-7.5 20.5l-57 546h50l57 -517q0 -13 8 -13h8q9 0 12 13z" />
    <glyph glyph-name="Z" unicode="Z" horiz-adv-x="360" 
d="M15 0h330l7 50h-260l379 750h-330l-8 -50h261z" />
    <glyph glyph-name="bracketleft" unicode="[" horiz-adv-x="281" 
d="M197 870h221l-8 -50h-171l-133 -840h171l-8 -50h-221z" />
    <glyph glyph-name="backslash" unicode="\" horiz-adv-x="259" 
d="M259 0l-84 800h-49l83 -800h50z" />
    <glyph glyph-name="bracketright" unicode="]" horiz-adv-x="281" 
d="M358 870h-221l-8 -50h171l-133 -840h-170l-8 -50h220z" />
    <glyph glyph-name="asciicircum" unicode="^" horiz-adv-x="310" 
d="M277 735l61 -98h50l-100 148h-9l-148 -148h50l93 98h3z" />
    <glyph glyph-name="underscore" unicode="_" horiz-adv-x="350" 
d="M-11 -73h349l8 49h-349z" />
    <glyph glyph-name="grave" unicode="`" horiz-adv-x="299" 
d="M231 634l-80 131h57l80 -131h-57z" />
    <glyph glyph-name="a" unicode="a" horiz-adv-x="410" 
d="M299 66l1 2q4 -33 35 -55.5t67 -22.5l8 50q-21 0 -41 15.5t-18 30.5l56 352q8 55 -24.5 94t-87.5 39h-22q-55 0 -100.5 -39t-53.5 -94l-56 -352q-6 -40 17.5 -68t63.5 -28q24 0 62.5 19t65.5 38zM113 86l56 352q5 34 33 58.5t63 24.5h22q34 0 54.5 -24t15.5 -59l-50 -315
q-11 -9 -29.5 -23t-60 -37t-65.5 -23q-18 0 -30 13t-9 33z" />
    <glyph glyph-name="b" unicode="b" 
d="M367 123l56 351q6 40 -17.5 68t-63.5 28q-24 0 -62.5 -18t-65.5 -36l-26 -18l43 267h-50l-102 -642q-9 -55 24 -94t88 -39h22q55 0 100 39t54 94zM373 474l-56 -351q-5 -34 -33 -58.5t-63 -24.5h-22q-34 0 -54.5 24t-15.5 59l50 315q11 9 29.5 22.5t60 36.5t65.5 23
q18 0 30 -13t9 -33z" />
    <glyph glyph-name="c" unicode="c" horiz-adv-x="363" 
d="M318 195l-11 -72q-5 -34 -33 -58.5t-63 -24.5h-22q-34 0 -54.5 24t-15.5 59l50 314q5 34 33 58.5t63 24.5h22q34 0 54.5 -24t15.5 -59l-12 -75h50l12 75q8 56 -24.5 94.5t-87.5 38.5h-22q-56 0 -101 -39t-53 -94l-50 -314q-9 -55 24 -94t88 -39h22q55 0 100 39t54 94
l11 72h-50z" />
    <glyph glyph-name="d" unicode="d" 
d="M363 443l-51 -320q-11 -9 -29.5 -23t-60 -37t-65.5 -23q-18 0 -30 13t-9 33l56 352q5 34 33 58.5t63 24.5h22q34 0 54.5 -23t16.5 -55zM343 0l121 764h-50l-36 -222q-29 29 -78 29h-22q-55 0 -100.5 -39t-53.5 -94l-56 -352q-6 -40 17.5 -68t63.5 -28q24 0 62 18t65 36
l26 18l-9 -62h50z" />
    <glyph glyph-name="e" unicode="e" horiz-adv-x="373" 
d="M311 371l-169 -103l27 169q5 34 33 58.5t63 24.5h22q34 0 54.5 -24t15.5 -59q-3 -19 -14.5 -35.5t-21.5 -23.5zM211 40h-22q-34 0 -54.5 24t-15.5 59l12 81l223 138q5 3 12 9t21.5 30.5t19.5 55.5q8 56 -24.5 94.5t-87.5 38.5h-22q-56 0 -101 -39t-53 -94l-50 -314
q-9 -55 23.5 -94t88.5 -39h22q55 0 100 38.5t54 94.5l11 72h-50l-11 -72q-5 -34 -33 -58.5t-63 -24.5z" />
    <glyph glyph-name="f" unicode="f" horiz-adv-x="242" 
d="M323 515l8 49h-107l16 105q3 16 29 31t45 15l8 50q-42 0 -83.5 -29t-48.5 -67l-16 -105h-80l-8 -49h80l-91 -574q-2 -16 -28 -31t-45 -15l-7 -50q41 0 82.5 29t47.5 67l91 574h107z" />
    <glyph glyph-name="g" unicode="g" horiz-adv-x="388" 
d="M122 141l47 297q5 34 33 58.5t63 24.5h22q34 0 54.5 -24t15.5 -59l-41 -260q-11 -9 -29.5 -23t-60 -37t-65.5 -23q-18 0 -30.5 13t-8.5 33zM308 121l-25 -153q-5 -34 -33 -58.5t-63 -24.5h-22q-34 0 -54.5 24t-15.5 59l4 22h-50l-4 -22q-8 -56 24.5 -94.5t87.5 -38.5h22
q56 0 100 38t53 93l75 472q8 55 -24.5 94t-87.5 39h-22q-55 0 -100.5 -39t-53.5 -94l-47 -297q-7 -40 17 -68t64 -28q24 0 62.5 19t65.5 38z" />
    <glyph glyph-name="h" unicode="h" 
d="M60 0h50l69 438q11 9 29.5 22.5t60 36.5t65.5 23q18 0 30 -13t9 -33l-75 -474h50l75 474q6 40 -17.5 68t-63.5 28q-24 0 -62.5 -18t-65.5 -36l-26 -18l43 267h-50z" />
    <glyph glyph-name="i" unicode="i" horiz-adv-x="196" 
d="M153 560l-75 -474q-6 -38 26.5 -67t74.5 -29l8 50q-21 0 -41 15.5t-18 30.5l75 474h-50zM219 659l17 106h-50l-17 -106h50z" />
    <glyph glyph-name="j" unicode="j" horiz-adv-x="182" 
d="M154 560l-98 -619q-2 -16 -28 -31t-44 -15l-8 -50q41 0 82.5 29t47.5 67l98 619h-50zM221 659l17 106h-50l-17 -106h50z" />
    <glyph glyph-name="k" unicode="k" horiz-adv-x="396" 
d="M376 0l-104 204q48 10 84 46.5t44 84.5l22 139q6 40 -17.5 68t-63.5 28q-24 0 -62.5 -18t-64.5 -36l-27 -18l43 267h-49l-121 -765h49l31 202h75l107 -202h54zM253 252h-105l30 186q11 9 29.5 22.5t60 36.5t65.5 23q18 0 30 -13t9 -33l-22 -139q-6 -35 -34.5 -59
t-62.5 -24z" />
    <glyph glyph-name="l" unicode="l" horiz-adv-x="196" 
d="M186 764l-108 -678q-6 -38 26.5 -67t74.5 -29l8 50q-21 0 -41 15.5t-18 30.5l108 678h-50z" />
    <glyph glyph-name="m" unicode="m" horiz-adv-x="681" 
d="M318 0h50l69 438q122 82 175 82q18 0 30 -13t9 -33l-75 -474h50l75 474q6 40 -17.5 68t-63.5 28q-24 0 -67.5 -18t-74.5 -36l-32 -18h-3q-3 31 -25.5 51.5t-55.5 20.5q-24 0 -67.5 -18t-74.5 -36l-32 -18l10 62h-50l-88 -560h50l69 438q122 82 175 82q18 0 30 -13t9 -33z
" />
    <glyph glyph-name="n" unicode="n" 
d="M60 0h50l69 438q11 9 29.5 22.5t60 36.5t65.5 23q18 0 30 -13t9 -33l-75 -474h50l75 474q6 40 -17.5 68t-63.5 28q-24 0 -62.5 -18t-65.5 -36l-26 -18l10 62h-50z" />
    <glyph glyph-name="o" unicode="o" horiz-adv-x="388" 
d="M307 123q-5 -34 -33 -58.5t-63 -24.5h-22q-34 0 -54.5 24t-15.5 59l50 314q5 34 33 58.5t63 24.5h22q34 0 54.5 -24t15.5 -59zM357 123l50 314q8 56 -24.5 94.5t-87.5 38.5h-22q-56 0 -101 -39t-53 -94l-50 -314q-9 -55 24 -94t88 -39h22q55 0 100 39t54 94z" />
    <glyph glyph-name="p" unicode="p" horiz-adv-x="398" 
d="M362 123l56 351q6 40 -17.5 68t-63.5 28q-24 0 -62.5 -18t-64.5 -36l-27 -18l10 62h-50l-113 -716h50l28 175q31 -29 78 -29h22q55 0 100 39t54 94zM124 123l50 315q11 9 29.5 22.5t60 36.5t65.5 23q18 0 30 -13t9 -33l-56 -351q-5 -34 -33 -58.5t-63 -24.5h-22
q-34 0 -54.5 24t-15.5 59z" />
    <glyph glyph-name="q" unicode="q" horiz-adv-x="393" 
d="M113 87l56 351q5 34 33 58.5t63 24.5h22q34 0 54.5 -24t15.5 -59l-50 -314q-11 -9 -29.5 -23t-60 -37t-65.5 -23q-18 0 -30 13t-9 33zM313 -156l94 594q8 55 -24.5 94t-87.5 39h-22q-55 0 -100.5 -39t-53.5 -94l-56 -351q-6 -40 17.5 -68t63.5 -28q24 0 62 18t64 36
l27 18l-34 -219h50z" />
    <glyph glyph-name="r" unicode="r" horiz-adv-x="363" 
d="M60 0h50l69 438q11 9 29.5 22.5t60 36.5t65.5 23q18 0 30 -13t9 -33l-16 -101h50l16 101q6 40 -17.5 68t-63.5 28q-24 0 -62.5 -18t-65.5 -36l-26 -18l10 62h-50z" />
    <glyph glyph-name="s" unicode="s" horiz-adv-x="368" 
d="M156 417l3 20q5 34 33 58.5t63 24.5h22q34 0 54.5 -24t15.5 -59l-3 -20h50l3 20q8 56 -24.5 94.5t-87.5 38.5h-22q-56 0 -101 -39t-53 -94l-3 -20q-4 -22 5 -45.5t24 -40t30 -30.5t27 -21l11 -7q4 -3 11.5 -8t25.5 -19.5t31 -28t23 -30.5t8 -30l-5 -34q-5 -34 -33 -58.5
t-63 -24.5h-22q-34 0 -54.5 24t-15.5 59l14 89h-50l-14 -89q-9 -55 24 -94t88 -39h22q55 0 100 39t54 94l5 34q4 22 -5 45.5t-24.5 41t-31 32t-27.5 22.5l-11 7q-4 3 -11 7.5t-25 18.5t-31 27t-22.5 29.5t-7.5 29.5z" />
    <glyph glyph-name="t" unicode="t" horiz-adv-x="237" 
d="M80 511h80l-67 -425q-6 -38 26.5 -67t74.5 -29l8 50q-21 0 -41 15.5t-18 30.5l67 425h107l8 49h-107l23 145h-50l-23 -145h-80z" />
    <glyph glyph-name="u" unicode="u" 
d="M431 560h-50l-69 -438q-11 -9 -29.5 -22.5t-60 -36.5t-65.5 -23q-18 0 -30 13t-9 33l75 474h-50l-75 -474q-6 -40 17.5 -68t63.5 -28q24 0 62 18t65 36l26 18l-9 -62h50z" />
    <glyph glyph-name="v" unicode="v" horiz-adv-x="345" 
d="M195 53l173 505h50l-182 -534q-4 -13 -18.5 -23.5t-29.5 -10.5h-34q-15 0 -26 10.5t-12 23.5l-13 534h50l14 -505q0 -13 8 -13h8q5 0 12 13z" />
    <glyph glyph-name="w" unicode="w" horiz-adv-x="676" 
d="M659 560h50l-67 -426q-10 -61 -53.5 -102.5t-102.5 -41.5h-22q-45 0 -76 26.5t-37 71.5q-19 -45 -58 -71.5t-85 -26.5h-22q-59 0 -89.5 41.5t-20.5 102.5l67 426h50l-67 -426q-7 -40 11.5 -67t56.5 -27h22q48 0 82.5 44t43.5 100l59 376h50l-59 -376q-9 -56 11.5 -100
t68.5 -44h22q38 0 64.5 27t33.5 67z" />
    <glyph glyph-name="x" unicode="x" horiz-adv-x="339" 
d="M359 560h50l-165 -265l85 -295h-50l-68 245l-151 -245h-50l184 295l-73 265h50l56 -216z" />
    <glyph glyph-name="y" unicode="y" 
d="M30 -155l8 50h155q35 0 63 24.5t33 58.5l13 84q-100 -72 -153 -72q-40 0 -63.5 28t-17.5 68l75 474h50l-75 -474q-3 -20 9 -33t30 -13q24 0 62.5 20.5t65.5 41.5l27 20l69 438h50l-92 -584q-9 -55 -53.5 -93t-100.5 -38h-155z" />
    <glyph glyph-name="z" unicode="z" horiz-adv-x="334" 
d="M316 49l-7 -49h-284l7 50l305 464h-229l8 50h279l-8 -50l-306 -465h235z" />
    <glyph glyph-name="braceleft" unicode="{" horiz-adv-x="229" 
d="M317 810l8 50q-94 -10 -112 -133l-30 -188q-11 -69 -30 -85t-64 -16l-12 -76q19 0 28.5 -1t20.5 -6t14 -15.5t3.5 -30t-4.5 -48.5l-30 -188q-20 -123 70 -133l8 50q-39 10 -28 83l30 188q12 74 -2 101.5t-55 29.5l2 16q42 2 64.5 30.5t34.5 100.5l30 188q11 73 54 83z
" />
    <glyph glyph-name="bar" unicode="|" horiz-adv-x="170" 
d="M102 -50l142 900h-50l-142 -900h50z" />
    <glyph glyph-name="braceright" unicode="}" horiz-adv-x="229" 
d="M168 810l8 50q88 -10 70 -133l-30 -188q-5 -29 -4.5 -48.5t3.5 -30t14 -15.5t20.5 -6t28.5 -1l-12 -76q-45 0 -64 -16t-30 -85l-30 -188q-20 -123 -112 -133l8 50q43 10 54 83l30 188q12 74 34 101.5t65 29.5l2 16q-40 2 -54.5 30.5t-2.5 100.5l30 188q11 73 -28 83z" />
    <glyph glyph-name="asciitilde" unicode="~" horiz-adv-x="307" 
d="M131 649l3 46q28 31 66 31q25 0 67 -17.5t65 -17.5q30 0 60 28l-2 -46q-32 -32 -66 -32q-25 0 -66.5 17.5t-64.5 17.5q-31 0 -62 -27z" />
    <glyph glyph-name="exclamdown" unicode="&#xa1;" horiz-adv-x="272" 
d="M211 639l-17 -106h50l17 106h-50zM178 433l-93 -590h50l93 590h-50z" />
    <glyph glyph-name="cent" unicode="&#xa2;" horiz-adv-x="363" 
d="M335 303l-11 -72q-4 -31 -28 -54t-54 -28l76 478q29 -5 44.5 -28t11.5 -54l-12 -75h50l12 75q8 51 -20 89t-78 43l14 88h-50l-14 -88q-52 -5 -92 -42.5t-48 -89.5l-50 -314q-8 -52 20 -89.5t78 -42.5l-15 -99h50l15 99q51 5 91.5 43t48.5 89l11 72h-50zM186 545
q4 31 27.5 54t54.5 28l-76 -478q-29 4 -45 27.5t-11 54.5z" />
    <glyph glyph-name="sterling" unicode="&#xa3;" horiz-adv-x="450" 
d="M22 50l-7 -50h395l7 50h-179q-72 40 -65 86l39 245h88l8 50h-88l32 201q6 39 37.5 66.5t70.5 27.5h16q39 0 62.5 -27.5t17.5 -66.5l-16 -96h50l16 96q9 60 -26.5 102t-95.5 42h-16q-60 0 -108.5 -42t-57.5 -102l-32 -201h-87l-8 -50h87l-39 -245q-9 -59 39 -86h-140z" />
    <glyph glyph-name="currency" unicode="&#xa4;" horiz-adv-x="448" 
d="M392 292l-25 -158q-7 -39 -37.5 -66.5t-69.5 -27.5h-20q-39 0 -62.5 27.5t-16.5 66.5l31 196h171l8 50h-171l5 36h171l8 50h-171l27 166q6 39 37.5 66.5t70.5 27.5h20q39 0 62.5 -27.5t17.5 -66.5l-20 -126h50l20 126q9 60 -26.5 102t-95.5 42h-20q-60 0 -108.5 -42
t-57.5 -102l-27 -166h-55l-8 -50h55l-5 -36h-55l-8 -50h55l-31 -196q-10 -60 25.5 -102t95.5 -42h20q60 0 108.5 42t58.5 102l25 158h-52z" />
    <glyph glyph-name="yen" unicode="&#xa5;" horiz-adv-x="424" 
d="M76 195l8 50h141l12 76q-13 3 -21 12.5t-7 20.5l-78 412h50l78 -383q0 -13 8 -13h8q9 0 12 13l198 383h50l-206 -412q-12 -28 -42 -34l-12 -75h135l-8 -50h-135l-5 -36h135l-8 -50h-135l-17 -109h-50l17 109h-141l8 50h141l5 36h-141z" />
    <glyph glyph-name="brokenbar" unicode="&#xa6;" horiz-adv-x="170" 
d="M182 460l62 390h-50l-62 -390h50zM102 -50l61 390h-50l-61 -390h50z" />
    <glyph glyph-name="section" unicode="&#xa7;" horiz-adv-x="368" 
d="M353 162q4 26 -8 51q22 32 26 64l6 34q3 22 -6 45.5t-24 41t-31 32t-28 22.5l-11 7q-4 3 -11 7.5t-24.5 18.5t-30.5 27t-23 29.5t-8 29.5l3 20q5 34 33 58.5t63 24.5h22q34 0 54.5 -24t15.5 -59l-3 -20h50l3 20q9 55 -23.5 94t-88.5 39h-22q-55 0 -100 -38.5t-54 -94.5
l-3 -20q-4 -31 11 -59q-25 -29 -31 -70l-4 -20q-3 -22 5.5 -45.5t23.5 -40t30.5 -30.5t26.5 -21l12 -7q4 -3 11.5 -8t25 -19.5t31 -28t23.5 -30.5t8 -30l-5 -34q-6 -35 -34 -59t-62 -24h-22q-35 0 -55.5 24.5t-14.5 58.5l14 89h-50l-14 -89q-9 -55 24 -94t88 -39h22
q55 0 100 39t54 94zM160 442q1 11 9 31q12 -13 26.5 -24.5t22.5 -16.5l9 -5q4 -3 11.5 -8t25.5 -19.5t31.5 -28t23.5 -30.5t8 -30l-6 -34q-2 -11 -6 -20q-12 14 -27.5 27.5t-24.5 19.5l-9 6q-4 3 -11 7.5t-25 18.5t-31 27t-23 29.5t-8 29.5z" />
    <glyph glyph-name="dieresis" unicode="&#xa8;" horiz-adv-x="252" 
d="M165 631q-12 0 -19 8.5t-5 20.5t12 21t22 9t19.5 -9t5.5 -21t-12.5 -20.5t-22.5 -8.5zM287 631q-12 0 -19.5 8.5t-5.5 20.5t12.5 21t22.5 9t19 -9t5 -21t-12 -20.5t-22 -8.5z" />
    <glyph glyph-name="copyright" unicode="&#xa9;" horiz-adv-x="528" 
d="M491 150l41 258q11 67 -38 113.5t-130 46.5h-22q-81 0 -144 -46.5t-74 -113.5l-41 -258q-11 -67 38 -113.5t130 -46.5h22q81 0 144 46.5t74 113.5zM492 408l-41 -258q-8 -49 -56.5 -84.5t-115.5 -35.5h-22q-67 0 -104.5 35.5t-29.5 84.5l41 258q8 49 56.5 84.5
t115.5 35.5h22q64 0 103.5 -33.5t30.5 -86.5zM400 204h40l-9 -54q-6 -41 -50 -70.5t-99 -29.5h-22q-55 0 -89 29.5t-28 70.5l41 258q7 41 50.5 70.5t98.5 29.5h22q55 0 89.5 -29.5t27.5 -70.5l-9 -56h-40l9 56q4 26 -19.5 43t-63.5 17h-22q-39 0 -69 -16t-34 -44l-41 -258
q-4 -26 20 -43t64 -17h22q40 0 69 17t33 43z" />
    <glyph glyph-name="ordfeminine" unicode="&#xaa;" horiz-adv-x="263" 
d="M195 695l-1 -1q3 20 17 30t30 10h13q16 0 26 -10t7 -30l-29 -188q-55 -40 -82 -40q-19 0 -15 18zM87 330h193l6 39h-193zM154 694l-33 -210q-4 -24 10.5 -41t38.5 -17q12 0 32.5 9t34.5 18l14 9l-5 -30h40l41 262q6 33 -14 56.5t-53 23.5h-13q-34 0 -60.5 -23t-32.5 -57z
" />
    <glyph glyph-name="guillemotleft" unicode="&#xab;" horiz-adv-x="464" 
d="M143 239l176 113l-27 34l-225 -147l178 -147l38 34zM293 239l176 113l-27 34l-225 -147l178 -147l38 34z" />
    <glyph glyph-name="logicalnot" unicode="&#xac;" horiz-adv-x="420" 
d="M88 307h291l-21 -132h49l29 181h-340z" />
    <glyph glyph-name="registered" unicode="&#xae;" horiz-adv-x="450" 
d="M482 647l-37 -232q-10 -61 -59.5 -103t-111.5 -42h-16q-62 0 -98.5 42t-26.5 103l37 232q10 61 59.5 103t111.5 42h16q62 0 98.5 -42t26.5 -103zM405 415l37 232q7 46 -23 75.5t-68 29.5h-16q-39 0 -78.5 -29.5t-46.5 -75.5l-37 -232q-7 -46 23.5 -75.5t68.5 -29.5h16
q39 0 78 29.5t46 75.5zM290 563h20q30 0 34 27l8 48q1 8 -6.5 13t-21.5 5h-20zM260 376h-40l51 320h77q20 0 34.5 -14.5t11.5 -33.5l-9 -58q-5 -33 -38 -47q13 -5 20 -18.5t5 -29.5l-19 -119h-40l19 119q2 13 -6 20.5t-23 7.5h-20z" />
    <glyph glyph-name="macron" unicode="&#xaf;" horiz-adv-x="300" 
d="M142 647h220l8 49h-220z" />
    <glyph glyph-name="degree" unicode="&#xb0;" horiz-adv-x="282" 
d="M289 618l4 24q3 18 -7.5 30.5t-28.5 12.5h-16q-18 0 -32.5 -12.5t-17.5 -30.5l-4 -24q-2 -18 8.5 -30.5t28.5 -12.5h16q18 0 32.5 12.5t16.5 30.5zM343 642l-4 -24q-6 -38 -37.5 -65.5t-69.5 -27.5h-16q-38 0 -61.5 27.5t-17.5 65.5l4 24q6 39 38 66t70 27h16
q38 0 61 -27t17 -66z" />
    <glyph glyph-name="plusminus" unicode="&#xb1;" horiz-adv-x="430" 
d="M101 387h150l-26 -162h49l26 162h151l8 49h-151l22 139h-49l-22 -139h-150zM63 147h350l8 49h-350z" />
    <glyph glyph-name="twosuperior" unicode="&#xb2;" horiz-adv-x="286" 
d="M175 410h115l-7 -50h-166l7 50q6 34 17.5 58t22 36t36.5 35q72 64 82 134l4 22q4 26 -22 26h-9q-26 0 -30 -26h-50q4 31 30 53.5t58 22.5h9q31 0 50 -22t14 -54l-4 -22q-13 -85 -97 -164q-33 -31 -43.5 -47.5t-16.5 -51.5z" />
    <glyph glyph-name="threesuperior" unicode="&#xb3;" horiz-adv-x="281" 
d="M278 702l-9 -57q-3 -19 -16.5 -29.5t-24.5 -11.5l-12 -1h-32l-6 -40h32q17 0 31.5 -12t11.5 -32l-15 -95q-4 -18 -23 -18h-21q-10 0 -14 6.5t-3 11.5l13 86h-50l-14 -91q-4 -26 14.5 -44.5t45.5 -18.5h21q27 0 51.5 18.5t28.5 44.5l16 100q7 49 -30 64q37 16 46 62l9 62
q4 26 -14.5 44.5t-45.5 18.5h-21q-27 0 -51.5 -18.5t-28.5 -44.5l-1 -12h50l1 7q0 5 6.5 11.5t16.5 6.5h21q17 0 17 -18z" />
    <glyph glyph-name="acute" unicode="&#xb4;" horiz-adv-x="299" 
d="M288 634l121 131h-57l-122 -131h58z" />
    <glyph glyph-name="mu" unicode="&#xb5;" horiz-adv-x="614" 
d="M542 800h108l-96 -800h-50l89 750h-20l-240 -740h-50l-5 740h-20l-148 -750h-50l157 800h109l-2 -690z" />
    <glyph glyph-name="paragraph" unicode="&#xb6;" horiz-adv-x="480" 
d="M95 353q-8 -55 24.5 -94t87.5 -39h42l-58 -370h50l142 901h90l-142 -901h50l150 950h-232q-55 0 -100 -38.5t-54 -94.5zM333 751l-76 -481h-42q-34 0 -54.5 24t-15.5 59l50 314q5 35 33.5 59.5t62.5 24.5h42z" />
    <glyph glyph-name="periodcentered" unicode="&#xb7;" horiz-adv-x="159" 
d="M120 260q-12 0 -19.5 8.5t-5.5 20.5t12 21t22 9t19.5 -9t5.5 -21q-1 -12 -11.5 -20.5t-22.5 -8.5z" />
    <glyph glyph-name="cedilla" unicode="&#xb8;" horiz-adv-x="421" 
d="M101 -227l40 35q27 -15 45 -15q33 0 57 19t29 47q4 26 -11 46t-43 20h-33l33 102h52l-21 -54q38 -9 59 -41.5t14 -72.5q-8 -49 -48.5 -82.5t-95.5 -33.5q-35 0 -77 30z" />
    <glyph glyph-name="onesuperior" unicode="&#xb9;" horiz-adv-x="239" 
d="M221 360l64 405h-89l-8 -50h39l-56 -355h50z" />
    <glyph glyph-name="ordmasculine" unicode="&#xba;" horiz-adv-x="284" 
d="M297 694l-29 -188q-3 -20 -17 -30t-30 -10h-13q-16 0 -26 10t-7 30l29 188q3 20 17 30t30 10h13q16 0 26 -10t7 -30zM308 506l29 188q6 33 -14 56.5t-53 23.5h-13q-34 0 -60.5 -23t-32.5 -57l-29 -188q-5 -33 14 -56.5t53 -23.5h13q33 0 60.5 23.5t32.5 56.5zM97 330h194
l6 39h-194z" />
    <glyph glyph-name="guillemotright" unicode="&#xbb;" horiz-adv-x="464" 
d="M395 239l-140 113l39 34l177 -147l-224 -147l-28 34zM245 239l-140 113l39 34l177 -147l-224 -147l-28 34z" />
    <glyph glyph-name="onequarter" unicode="&#xbc;" horiz-adv-x="581" 
d="M221 360l64 405h-89l-8 -50h39l-56 -355h50zM190 0l378 798h-50l-378 -798h50zM487 408h88l-42 -263h20l-7 -50h-20l-15 -95h-50l15 95h-148zM411 145h72l35 215h-10z" />
    <glyph glyph-name="onehalf" unicode="&#xbd;" horiz-adv-x="585" 
d="M221 360l64 405h-89l-8 -50h39l-56 -355h50zM417 50h115l-7 -50h-166l7 50q6 34 17.5 58t22 36t36.5 35q72 64 82 134l4 22q4 26 -22 26h-9q-26 0 -30 -26h-50q4 31 30 53.5t58 22.5h9q31 0 50 -22t14 -54l-4 -22q-13 -85 -97 -164q-33 -31 -43.5 -47.5t-16.5 -51.5z
M190 0l378 798h-50l-378 -798h50z" />
    <glyph glyph-name="threequarters" unicode="&#xbe;" horiz-adv-x="565" 
d="M278 702l-9 -57q-3 -19 -16.5 -29.5t-24.5 -11.5l-12 -1h-32l-6 -40h32q17 0 31.5 -12t11.5 -32l-15 -95q-4 -18 -23 -18h-21q-10 0 -14 6.5t-3 11.5l13 86h-50l-14 -91q-4 -26 14.5 -44.5t45.5 -18.5h21q27 0 51.5 18.5t28.5 44.5l16 100q7 49 -30 64q37 16 46 62l9 62
q4 26 -14.5 44.5t-45.5 18.5h-21q-27 0 -51.5 -18.5t-28.5 -44.5l-1 -12h50l1 7q0 5 6.5 11.5t16.5 6.5h21q17 0 17 -18zM194 0l378 798h-50l-378 -798h50zM461 408h88l-42 -263h20l-7 -50h-20l-15 -95h-50l15 95h-148zM385 145h72l35 215h-10z" />
    <glyph glyph-name="questiondown" unicode="&#xbf;" horiz-adv-x="388" 
d="M272 445h50l-29 -183q-8 -50 -46.5 -83t-87.5 -33q-23 0 -38 -22t-19 -44l-18 -113q-5 -35 15.5 -59t54.5 -24h42q35 0 63 24.5t33 58.5l17 104h50l-17 -104q-8 -55 -53 -94t-101 -39h-42q-55 0 -87.5 38.5t-24.5 94.5l18 113q7 45 37 80.5t78 35.5q23 0 47 15.5t29 50.5
zM303 640l-17 -106h50l17 106h-50z" />
    <glyph glyph-name="Agrave" unicode="&#xc0;" horiz-adv-x="421" 
d="M411 0h-50l-7 214h-222l-72 -214h-50l261 772q4 13 18.5 23.5t29.5 10.5h34q15 0 26 -10.5t12 -23.5zM312 743l-163 -479h204l-13 479q0 13 -8 13h-8q-6 0 -12 -13zM328 834l-81 131h57l81 -131h-57z" />
    <glyph glyph-name="Aacute" unicode="&#xc1;" horiz-adv-x="421" 
d="M411 0h-50l-7 214h-222l-72 -214h-50l261 772q4 13 18.5 23.5t29.5 10.5h34q15 0 26 -10.5t12 -23.5zM312 743l-163 -479h204l-13 479q0 13 -8 13h-8q-6 0 -12 -13zM365 834l120 131h-57l-121 -131h58z" />
    <glyph glyph-name="Acircumflex" unicode="&#xc2;" horiz-adv-x="421" 
d="M411 0h-50l-7 214h-222l-72 -214h-50l261 772q4 13 18.5 23.5t29.5 10.5h34q15 0 26 -10.5t12 -23.5zM312 743l-163 -479h204l-13 479q0 13 -8 13h-8q-6 0 -12 -13zM358 935l61 -98h50l-100 148h-9l-148 -148h50l93 98h3z" />
    <glyph glyph-name="Atilde" unicode="&#xc3;" horiz-adv-x="421" 
d="M411 0h-50l-7 214h-222l-72 -214h-50l261 772q4 13 18.5 23.5t29.5 10.5h34q15 0 26 -10.5t12 -23.5zM312 743l-163 -479h204l-13 479q0 13 -8 13h-8q-6 0 -12 -13zM219 849l2 46q31 31 67 31q25 0 67 -17.5t65 -17.5q30 0 60 28l-2 -46q-32 -32 -66 -32q-25 0 -67 17.5
t-65 17.5q-32 0 -61 -27z" />
    <glyph glyph-name="Adieresis" unicode="&#xc4;" horiz-adv-x="421" 
d="M411 0h-50l-7 214h-222l-72 -214h-50l261 772q4 13 18.5 23.5t29.5 10.5h34q15 0 26 -10.5t12 -23.5zM312 743l-163 -479h204l-13 479q0 13 -8 13h-8q-6 0 -12 -13zM277 831q-12 0 -19 8.5t-5 20.5t11.5 21t21.5 9t20 -9t6 -21t-12.5 -20.5t-22.5 -8.5zM399 831
q-12 0 -19.5 8.5t-5.5 20.5q1 12 11.5 21t22.5 9t19.5 -9t5.5 -21t-12 -20.5t-22 -8.5z" />
    <glyph glyph-name="Aring" unicode="&#xc5;" horiz-adv-x="421" 
d="M411 0h-50l-7 214h-222l-72 -214h-50l261 772q4 13 18.5 23.5t29.5 10.5h34q15 0 26 -10.5t12 -23.5zM312 743l-163 -479h204l-13 479q0 13 -8 13h-8q-6 0 -12 -13zM400 920q-3 -19 -18.5 -32.5t-34.5 -13.5t-30.5 13.5t-8.5 32.5t18.5 32.5t34.5 13.5t30.5 -13.5
t8.5 -32.5zM450 920q7 40 -17 68t-64 28t-72 -28t-39 -68q-6 -40 17.5 -68t63.5 -28t72.5 28t38.5 68z" />
    <glyph glyph-name="AE" unicode="&#xc6;" horiz-adv-x="513" 
d="M612 756h-198l-46 -290h171l-8 -50h-171l-58 -366h198l-7 -50h-248l33 214h-146l-72 -214h-50l261 772q4 13 18.5 23.5t29.5 10.5h301zM312 743l-163 -479h137l78 492h-40q-6 0 -12 -13z" />
    <glyph glyph-name="Ccedilla" unicode="&#xc7;" horiz-adv-x="413" 
d="M85 -192l-40 -35q42 -30 77 -30q55 0 95.5 33.5t48.5 82.5q7 40 -14 72.5t-59 41.5l7 17h17q60 0 108.5 42t58.5 102l25 158h-52l-25 -158q-7 -39 -37.5 -66.5t-69.5 -27.5h-20q-39 0 -62.5 27.5t-16.5 66.5l83 528q7 39 38.5 66.5t70.5 27.5h20q39 0 62.5 -27.5
t16.5 -66.5l-20 -126h50l20 126q10 60 -25.5 102t-95.5 42h-20q-60 0 -108.5 -42t-58.5 -102l-83 -528q-7 -48 14 -85t62 -51l-23 -73h33q28 0 43 -20t11 -46q-5 -28 -29 -47t-57 -19q-18 0 -45 15z" />
    <glyph glyph-name="Egrave" unicode="&#xc8;" horiz-adv-x="338" 
d="M436 750h-198l-45 -284h171l-8 -50h-171l-58 -366h198l-7 -50h-248l126 800h248zM320 834l-81 131h57l81 -131h-57z" />
    <glyph glyph-name="Eacute" unicode="&#xc9;" horiz-adv-x="338" 
d="M436 750h-198l-45 -284h171l-8 -50h-171l-58 -366h198l-7 -50h-248l126 800h248zM317 834l120 131h-57l-121 -131h58z" />
    <glyph glyph-name="Ecircumflex" unicode="&#xca;" horiz-adv-x="347" 
d="M442 750h-198l-45 -284h171l-8 -50h-171l-58 -366h198l-7 -50h-248l126 800h248zM348 935l61 -98h50l-100 148h-9l-148 -148h50l93 98h3z" />
    <glyph glyph-name="Edieresis" unicode="&#xcb;" horiz-adv-x="338" 
d="M436 750h-198l-45 -284h171l-8 -50h-171l-58 -366h198l-7 -50h-248l126 800h248zM264 831q-12 0 -19 8.5t-5 20.5t11.5 21t21.5 9t20 -9t6 -21t-12.5 -20.5t-22.5 -8.5zM386 831q-12 0 -19.5 8.5t-5.5 20.5q1 12 11.5 21t22.5 9t19.5 -9t5.5 -21t-12 -20.5t-22 -8.5z" />
    <glyph glyph-name="Igrave" unicode="&#xcc;" horiz-adv-x="208" 
d="M125 0l126 800h-50l-126 -800h50zM233 834l-81 131h57l81 -131h-57z" />
    <glyph glyph-name="Iacute" unicode="&#xcd;" horiz-adv-x="208" 
d="M125 0l126 800h-50l-126 -800h50zM235 834l120 131h-57l-121 -131h58z" />
    <glyph glyph-name="Icircumflex" unicode="&#xce;" horiz-adv-x="200" 
d="M125 0l126 800h-50l-126 -800h50zM250 935l61 -98h50l-100 148h-9l-148 -148h50l93 98h3z" />
    <glyph glyph-name="Idieresis" unicode="&#xcf;" horiz-adv-x="196" 
d="M125 0l126 800h-50l-126 -800h50zM168 831q-12 0 -19 8.5t-5 20.5t11.5 21t21.5 9t20 -9t6 -21t-12.5 -20.5t-22.5 -8.5zM290 831q-12 0 -19.5 8.5t-5.5 20.5q1 12 11.5 21t22.5 9t19.5 -9t5.5 -21t-12 -20.5t-22 -8.5z" />
    <glyph glyph-name="Eth" unicode="&#xd0;" horiz-adv-x="463" 
d="M114 408h50l-64 -408h164q60 0 108.5 42t57.5 102l82 518q10 59 -25.5 98.5t-96.5 39.5h-164l-54 -343h-50zM268 750h114q39 0 62.5 -25t17.5 -63l-82 -518q-6 -39 -38 -66.5t-71 -27.5h-114l57 358h96l8 49h-96z" />
    <glyph glyph-name="Ntilde" unicode="&#xd1;" horiz-adv-x="485" 
d="M307 0h108l126 800h-50l-119 -750h-20l-46 750h-110l-126 -800h50l118 750h20zM246 849l2 46q31 31 67 31q25 0 67 -17.5t65 -17.5q30 0 60 28l-2 -46q-32 -32 -66 -32q-25 0 -67 17.5t-65 17.5q-32 0 -61 -27z" />
    <glyph glyph-name="Ograve" unicode="&#xd2;" horiz-adv-x="418" 
d="M417 662l-83 -528q-7 -39 -38.5 -66.5t-70.5 -27.5h-20q-39 0 -62.5 27.5t-16.5 66.5l83 528q7 39 38.5 66.5t70.5 27.5h20q39 0 62.5 -27.5t16.5 -66.5zM384 134l83 528q10 60 -25.5 102t-95.5 42h-20q-60 0 -108.5 -42t-58.5 -102l-83 -528q-10 -60 25.5 -102t95.5 -42
h20q60 0 108.5 42t58.5 102zM345 834l-81 131h57l81 -131h-57z" />
    <glyph glyph-name="Oacute" unicode="&#xd3;" horiz-adv-x="418" 
d="M417 662l-83 -528q-7 -39 -38.5 -66.5t-70.5 -27.5h-20q-39 0 -62.5 27.5t-16.5 66.5l83 528q7 39 38.5 66.5t70.5 27.5h20q39 0 62.5 -27.5t16.5 -66.5zM384 134l83 528q10 60 -25.5 102t-95.5 42h-20q-60 0 -108.5 -42t-58.5 -102l-83 -528q-10 -60 25.5 -102t95.5 -42
h20q60 0 108.5 42t58.5 102zM370 834l120 131h-57l-121 -131h58z" />
    <glyph glyph-name="Ocircumflex" unicode="&#xd4;" horiz-adv-x="418" 
d="M417 662l-83 -528q-7 -39 -38.5 -66.5t-70.5 -27.5h-20q-39 0 -62.5 27.5t-16.5 66.5l83 528q7 39 38.5 66.5t70.5 27.5h20q39 0 62.5 -27.5t16.5 -66.5zM384 134l83 528q10 60 -25.5 102t-95.5 42h-20q-60 0 -108.5 -42t-58.5 -102l-83 -528q-10 -60 25.5 -102t95.5 -42
h20q60 0 108.5 42t58.5 102zM356 935l61 -98h50l-100 148h-9l-148 -148h50l93 98h3z" />
    <glyph glyph-name="Otilde" unicode="&#xd5;" horiz-adv-x="418" 
d="M417 662l-83 -528q-7 -39 -38.5 -66.5t-70.5 -27.5h-20q-39 0 -62.5 27.5t-16.5 66.5l83 528q7 39 38.5 66.5t70.5 27.5h20q39 0 62.5 -27.5t16.5 -66.5zM384 134l83 528q10 60 -25.5 102t-95.5 42h-20q-60 0 -108.5 -42t-58.5 -102l-83 -528q-10 -60 25.5 -102t95.5 -42
h20q60 0 108.5 42t58.5 102zM216 849l2 46q31 31 67 31q25 0 67 -17.5t65 -17.5q30 0 60 28l-2 -46q-32 -32 -66 -32q-25 0 -67 17.5t-65 17.5q-32 0 -61 -27z" />
    <glyph glyph-name="Odieresis" unicode="&#xd6;" horiz-adv-x="418" 
d="M417 662l-83 -528q-7 -39 -38.5 -66.5t-70.5 -27.5h-20q-39 0 -62.5 27.5t-16.5 66.5l83 528q7 39 38.5 66.5t70.5 27.5h20q39 0 62.5 -27.5t16.5 -66.5zM384 134l83 528q10 60 -25.5 102t-95.5 42h-20q-60 0 -108.5 -42t-58.5 -102l-83 -528q-10 -60 25.5 -102t95.5 -42
h20q60 0 108.5 42t58.5 102zM275 831q-12 0 -19 8.5t-5 20.5t11.5 21t21.5 9t20 -9t6 -21t-12.5 -20.5t-22.5 -8.5zM397 831q-12 0 -19.5 8.5t-5.5 20.5q1 12 11.5 21t22.5 9t19.5 -9t5.5 -21t-12 -20.5t-22 -8.5z" />
    <glyph glyph-name="multiply" unicode="&#xd7;" horiz-adv-x="458" 
d="M168 455l89 -107l-132 -114l28 -35l133 115l90 -107l40 35l-90 106l114 99l-29 34l-114 -98l-89 106z" />
    <glyph glyph-name="Oslash" unicode="&#xd8;" horiz-adv-x="450" 
d="M95 -60l38 79q32 -29 82 -29h20q60 0 108.5 42t58.5 102l83 528q7 41 -11 79l57 119h-50l-38 -80q-34 26 -79 26h-20q-60 0 -108.5 -42t-58.5 -102l-83 -528q-7 -40 8 -74l-57 -120h50zM223 40q-43 0 -66 31l278 586l-83 -523q-7 -39 -38.5 -66.5t-70.5 -27.5h-20z
M356 756q37 0 62 -28l-271 -573l80 507q7 39 38.5 66.5t70.5 27.5h20z" />
    <glyph glyph-name="Ugrave" unicode="&#xd9;" horiz-adv-x="428" 
d="M444 800l-105 -666q-7 -39 -38.5 -66.5t-70.5 -27.5h-20q-39 0 -62.5 27.5t-16.5 66.5l105 666h-50l-105 -666q-10 -60 25.5 -102t95.5 -42h20q60 0 108.5 42t58.5 102l105 666h-50zM350 834l-81 131h57l81 -131h-57z" />
    <glyph glyph-name="Uacute" unicode="&#xda;" horiz-adv-x="428" 
d="M444 800l-105 -666q-7 -39 -38.5 -66.5t-70.5 -27.5h-20q-39 0 -62.5 27.5t-16.5 66.5l105 666h-50l-105 -666q-10 -60 25.5 -102t95.5 -42h20q60 0 108.5 42t58.5 102l105 666h-50zM375 834l120 131h-57l-121 -131h58z" />
    <glyph glyph-name="Ucircumflex" unicode="&#xdb;" horiz-adv-x="428" 
d="M444 800l-105 -666q-7 -39 -38.5 -66.5t-70.5 -27.5h-20q-39 0 -62.5 27.5t-16.5 66.5l105 666h-50l-105 -666q-10 -60 25.5 -102t95.5 -42h20q60 0 108.5 42t58.5 102l105 666h-50zM364 935l61 -98h50l-100 148h-9l-148 -148h50l93 98h3z" />
    <glyph glyph-name="Udieresis" unicode="&#xdc;" horiz-adv-x="428" 
d="M444 800l-105 -666q-7 -39 -38.5 -66.5t-70.5 -27.5h-20q-39 0 -62.5 27.5t-16.5 66.5l105 666h-50l-105 -666q-10 -60 25.5 -102t95.5 -42h20q60 0 108.5 42t58.5 102l105 666h-50zM281 831q-12 0 -19 8.5t-5 20.5t11.5 21t21.5 9t20 -9t6 -21t-12.5 -20.5t-22.5 -8.5z
M403 831q-12 0 -19.5 8.5t-5.5 20.5q1 12 11.5 21t22.5 9t19.5 -9t5.5 -21t-12 -20.5t-22 -8.5z" />
    <glyph glyph-name="Yacute" unicode="&#xdd;" horiz-adv-x="424" 
d="M271 283l219 517h50l-227 -546q-4 -11 -16 -21t-26 -13l-34 -220h-50l35 221q-13 3 -21.5 12.5t-7.5 20.5l-57 546h50l57 -517q0 -13 8 -13h8q9 0 12 13zM343 834l120 131h-57l-121 -131h58z" />
    <glyph glyph-name="Thorn" unicode="&#xde;" horiz-adv-x="404" 
d="M195 790l-125 -790h50l28 183h110q60 0 109 42t58 102l28 176q10 59 -25.5 98.5t-96.5 39.5h-110l24 149h-50zM213 591h110q39 0 62.5 -25t17.5 -63l-28 -176q-6 -39 -38 -66.5t-71 -27.5h-110z" />
    <glyph glyph-name="germandbls" unicode="&#xdf;" horiz-adv-x="413" 
d="M111 -60l113 713q11 71 90 71h16q41 0 60.5 -17t13.5 -54l-18 -116q-5 -25 -37 -59t-55 -34h-44l-8 -50h44q23 0 48 -35t21 -60l-30 -189q-11 -70 -103 -70h-16l-8 -50h17q63 0 107 31t53 89l30 189q6 39 -12.5 73t-52.5 47q36 15 62.5 47t33.5 71l18 116q10 58 -22 89.5
t-94 31.5h-16q-61 0 -99.5 -31t-48.5 -90l-113 -713q-3 -16 -28.5 -31t-43.5 -15l-8 -50q41 0 82.5 29t47.5 67z" />
    <glyph glyph-name="agrave" unicode="&#xe0;" horiz-adv-x="410" 
d="M332 634l-80 131h57l80 -131h-57zM299 66l1 2q4 -33 35 -55.5t67 -22.5l8 50q-21 0 -41 15.5t-18 30.5l56 352q8 55 -24.5 94t-87.5 39h-22q-55 0 -100.5 -39t-53.5 -94l-56 -352q-6 -40 17.5 -68t63.5 -28q24 0 62.5 19t65.5 38zM113 86l56 352q5 34 33 58.5t63 24.5h22
q34 0 54.5 -24t15.5 -59l-50 -315q-11 -9 -29.5 -23t-60 -37t-65.5 -23q-18 0 -30 13t-9 33z" />
    <glyph glyph-name="aacute" unicode="&#xe1;" horiz-adv-x="409" 
d="M319 634l121 131h-57l-122 -131h58zM299 66l1 2q4 -33 35 -55.5t67 -22.5l8 50q-21 0 -41 15.5t-18 30.5l56 352q8 55 -24.5 94t-87.5 39h-22q-55 0 -100.5 -39t-53.5 -94l-56 -352q-6 -40 17.5 -68t63.5 -28q24 0 62.5 19t65.5 38zM113 86l56 352q5 34 33 58.5t63 24.5
h22q34 0 54.5 -24t15.5 -59l-50 -315q-11 -9 -29.5 -23t-60 -37t-65.5 -23q-18 0 -30 13t-9 33z" />
    <glyph glyph-name="acircumflex" unicode="&#xe2;" horiz-adv-x="409" 
d="M312 735l61 -98h50l-100 148h-9l-148 -148h50l93 98h3zM299 66l1 2q4 -33 35 -55.5t67 -22.5l8 50q-21 0 -41 15.5t-18 30.5l56 352q8 55 -24.5 94t-87.5 39h-22q-55 0 -100.5 -39t-53.5 -94l-56 -352q-6 -40 17.5 -68t63.5 -28q24 0 62.5 19t65.5 38zM113 86l56 352
q5 34 33 58.5t63 24.5h22q34 0 54.5 -24t15.5 -59l-50 -315q-11 -9 -29.5 -23t-60 -37t-65.5 -23q-18 0 -30 13t-9 33z" />
    <glyph glyph-name="atilde" unicode="&#xe3;" horiz-adv-x="409" 
d="M163 649l3 46q28 31 66 31q25 0 67 -17.5t65 -17.5q30 0 60 28l-2 -46q-32 -32 -66 -32q-25 0 -66.5 17.5t-64.5 17.5q-31 0 -62 -27zM299 66l1 2q4 -33 35 -55.5t67 -22.5l8 50q-21 0 -41 15.5t-18 30.5l56 352q8 55 -24.5 94t-87.5 39h-22q-55 0 -100.5 -39t-53.5 -94
l-56 -352q-6 -40 17.5 -68t63.5 -28q24 0 62.5 19t65.5 38zM113 86l56 352q5 34 33 58.5t63 24.5h22q34 0 54.5 -24t15.5 -59l-50 -315q-11 -9 -29.5 -23t-60 -37t-65.5 -23q-18 0 -30 13t-9 33z" />
    <glyph glyph-name="adieresis" unicode="&#xe4;" horiz-adv-x="410" 
d="M228 631q-12 0 -19 8.5t-5 20.5t12 21t22 9t19.5 -9t5.5 -21t-12.5 -20.5t-22.5 -8.5zM350 631q-12 0 -19.5 8.5t-5.5 20.5t12.5 21t22.5 9t19 -9t5 -21t-12 -20.5t-22 -8.5zM299 66l1 2q4 -33 35 -55.5t67 -22.5l8 50q-21 0 -41 15.5t-18 30.5l56 352q8 55 -24.5 94
t-87.5 39h-22q-55 0 -100.5 -39t-53.5 -94l-56 -352q-6 -40 17.5 -68t63.5 -28q24 0 62.5 19t65.5 38zM113 86l56 352q5 34 33 58.5t63 24.5h22q34 0 54.5 -24t15.5 -59l-50 -315q-11 -9 -29.5 -23t-60 -37t-65.5 -23q-18 0 -30 13t-9 33z" />
    <glyph glyph-name="aring" unicode="&#xe5;" horiz-adv-x="410" 
d="M353 710q-3 -19 -18.5 -32.5t-34.5 -13.5t-30.5 13.5t-8.5 32.5t18.5 32.5t34.5 13.5t30.5 -13.5t8.5 -32.5zM403 710q6 40 -17.5 68t-63.5 28t-72.5 -28t-38.5 -68t17.5 -68t63.5 -28t72.5 28t38.5 68zM299 66l1 2q4 -33 35 -55.5t67 -22.5l8 50q-21 0 -41 15.5
t-18 30.5l56 352q8 55 -24.5 94t-87.5 39h-22q-55 0 -100.5 -39t-53.5 -94l-56 -352q-6 -40 17.5 -68t63.5 -28q24 0 62.5 19t65.5 38zM113 86l56 352q5 34 33 58.5t63 24.5h22q34 0 54.5 -24t15.5 -59l-50 -315q-11 -9 -29.5 -23t-60 -37t-65.5 -23q-18 0 -30 13t-9 33z
" />
    <glyph glyph-name="ae" unicode="&#xe6;" horiz-adv-x="611" 
d="M357 123l12 81l223 138q5 3 12 9t21.5 30.5t19.5 55.5q8 56 -24.5 94.5t-87.5 38.5h-22q-70 0 -117 -55q-31 56 -99 56h-22q-55 0 -100.5 -39t-53.5 -94l-56 -352q-6 -40 17.5 -68t63.5 -28q24 0 62.5 19t65.5 38l27 19l9 7q9 -37 39 -60t72 -23h22q55 0 100 38.5
t54 94.5l11 72h-50l-11 -72q-5 -34 -33 -58.5t-63 -24.5h-22q-34 0 -54.5 24t-15.5 59zM113 86l56 352q5 34 33 58.5t63 24.5h22q34 0 54.5 -24t15.5 -59l-50 -315q-11 -9 -29.5 -23t-60 -37t-65.5 -23q-18 0 -30 13t-9 33zM549 371l-169 -103l27 169q5 34 33 58.5t63 24.5
h22q34 0 54.5 -24t15.5 -59q-3 -19 -14.5 -35.5t-21.5 -23.5z" />
    <glyph glyph-name="ccedilla" unicode="&#xe7;" horiz-adv-x="363" 
d="M85 -192l-40 -35q42 -30 77 -30q55 0 95.5 33.5t48.5 82.5q7 40 -14 72.5t-59 41.5l7 17h3q55 0 100 39t54 94l11 72h-50l-11 -72q-5 -34 -33 -58.5t-63 -24.5h-22q-34 0 -54.5 24t-15.5 59l50 314q5 34 33 58.5t63 24.5h22q34 0 54.5 -24t15.5 -59l-12 -75h50l12 75
q8 56 -24.5 94.5t-87.5 38.5h-22q-56 0 -101 -39t-53 -94l-50 -314q-7 -47 16 -83t66 -46l-22 -69h33q28 0 43 -20t11 -46q-5 -28 -29 -47t-57 -19q-18 0 -45 15z" />
    <glyph glyph-name="egrave" unicode="&#xe8;" horiz-adv-x="373" 
d="M311 371l-169 -103l27 169q5 34 33 58.5t63 24.5h22q34 0 54.5 -24t15.5 -59q-3 -19 -14.5 -35.5t-21.5 -23.5zM211 40h-22q-34 0 -54.5 24t-15.5 59l12 81l223 138q5 3 12 9t21.5 30.5t19.5 55.5q8 56 -24.5 94.5t-87.5 38.5h-22q-56 0 -101 -39t-53 -94l-50 -314
q-9 -55 23.5 -94t88.5 -39h22q55 0 100 38.5t54 94.5l11 72h-50l-11 -72q-5 -34 -33 -58.5t-63 -24.5zM320 634l-80 131h57l80 -131h-57z" />
    <glyph glyph-name="eacute" unicode="&#xe9;" horiz-adv-x="373" 
d="M311 371l-169 -103l27 169q5 34 33 58.5t63 24.5h22q34 0 54.5 -24t15.5 -59q-3 -19 -14.5 -35.5t-21.5 -23.5zM211 40h-22q-34 0 -54.5 24t-15.5 59l12 81l223 138q5 3 12 9t21.5 30.5t19.5 55.5q8 56 -24.5 94.5t-87.5 38.5h-22q-56 0 -101 -39t-53 -94l-50 -314
q-9 -55 23.5 -94t88.5 -39h22q55 0 100 38.5t54 94.5l11 72h-50l-11 -72q-5 -34 -33 -58.5t-63 -24.5zM297 634l121 131h-57l-122 -131h58z" />
    <glyph glyph-name="ecircumflex" unicode="&#xea;" horiz-adv-x="373" 
d="M311 371l-169 -103l27 169q5 34 33 58.5t63 24.5h22q34 0 54.5 -24t15.5 -59q-3 -19 -14.5 -35.5t-21.5 -23.5zM211 40h-22q-34 0 -54.5 24t-15.5 59l12 81l223 138q5 3 12 9t21.5 30.5t19.5 55.5q8 56 -24.5 94.5t-87.5 38.5h-22q-56 0 -101 -39t-53 -94l-50 -314
q-9 -55 23.5 -94t88.5 -39h22q55 0 100 38.5t54 94.5l11 72h-50l-11 -72q-5 -34 -33 -58.5t-63 -24.5zM311 735l61 -98h50l-100 148h-9l-148 -148h50l93 98h3z" />
    <glyph glyph-name="edieresis" unicode="&#xeb;" horiz-adv-x="373" 
d="M311 371l-169 -103l27 169q5 34 33 58.5t63 24.5h22q34 0 54.5 -24t15.5 -59q-3 -19 -14.5 -35.5t-21.5 -23.5zM211 40h-22q-34 0 -54.5 24t-15.5 59l12 81l223 138q5 3 12 9t21.5 30.5t19.5 55.5q8 56 -24.5 94.5t-87.5 38.5h-22q-56 0 -101 -39t-53 -94l-50 -314
q-9 -55 23.5 -94t88.5 -39h22q55 0 100 38.5t54 94.5l11 72h-50l-11 -72q-5 -34 -33 -58.5t-63 -24.5zM230 631q-12 0 -19 8.5t-5 20.5t12 21t22 9t19.5 -9t5.5 -21t-12.5 -20.5t-22.5 -8.5zM352 631q-12 0 -19.5 8.5t-5.5 20.5t12.5 21t22.5 9t19 -9t5 -21t-12 -20.5
t-22 -8.5z" />
    <glyph glyph-name="igrave" unicode="&#xec;" horiz-adv-x="207" 
d="M163 560l-75 -474q-6 -38 26.5 -67t74.5 -29l8 50q-21 0 -41 15.5t-18 30.5l75 474h-50zM198 634l-80 131h57l80 -131h-57z" />
    <glyph glyph-name="iacute" unicode="&#xed;" horiz-adv-x="206" 
d="M153 560l-75 -474q-6 -38 26.5 -67t74.5 -29l8 50q-21 0 -41 15.5t-18 30.5l75 474h-50zM191 634l121 131h-57l-122 -131h58z" />
    <glyph glyph-name="icircumflex" unicode="&#xee;" horiz-adv-x="217" 
d="M154 560l-75 -474q-6 -38 26.5 -67t74.5 -29l8 50q-21 0 -41 15.5t-18 30.5l75 474h-50zM209 735l61 -98h50l-100 148h-9l-148 -148h50l93 98h3z" />
    <glyph glyph-name="idieresis" unicode="&#xef;" horiz-adv-x="197" 
d="M153 560l-75 -474q-6 -38 26.5 -67t74.5 -29l8 50q-21 0 -41 15.5t-18 30.5l75 474h-50zM127 631q-12 0 -19 8.5t-5 20.5t12 21t22 9t19.5 -9t5.5 -21t-12.5 -20.5t-22.5 -8.5zM249 631q-12 0 -19.5 8.5t-5.5 20.5t12.5 21t22.5 9t19 -9t5 -21t-12 -20.5t-22 -8.5z" />
    <glyph glyph-name="eth" unicode="&#xf0;" horiz-adv-x="363" 
d="M297 124l29 182q5 33 -16 55.5t-55 22.5h-22q-35 0 -63 -24.5t-33 -58.5l-28 -177q-5 -35 15.5 -59t54.5 -24h22q35 0 63 24.5t33 58.5zM281 554h84l18 112q4 27 -14.5 48.5t-45.5 21.5h-21q-35 0 -69.5 -30t-39.5 -64l-12 -78h-50l12 78q10 60 58.5 102t108.5 42h22
q49 0 79 -35t22 -85l-18 -112h50l-8 -49h-50l-60 -381q-8 -55 -53.5 -94t-100.5 -39h-22q-55 0 -87.5 39t-24.5 94l28 177q9 55 54 94t100 39h22q14 0 27.5 -3t22 -7.5t15.5 -8.5t10 -7l3 -4l16 101h-84z" />
    <glyph glyph-name="ntilde" unicode="&#xf1;" 
d="M60 0h50l69 438q11 9 29.5 22.5t60 36.5t65.5 23q18 0 30 -13t9 -33l-75 -474h50l75 474q6 40 -17.5 68t-63.5 28q-24 0 -62.5 -18t-65.5 -36l-26 -18l10 62h-50zM178 649l3 46q28 31 66 31q25 0 67 -17.5t65 -17.5q30 0 60 28l-2 -46q-32 -32 -66 -32q-25 0 -66.5 17.5
t-64.5 17.5q-31 0 -62 -27z" />
    <glyph glyph-name="ograve" unicode="&#xf2;" horiz-adv-x="388" 
d="M307 123q-5 -34 -33 -58.5t-63 -24.5h-22q-34 0 -54.5 24t-15.5 59l50 314q5 34 33 58.5t63 24.5h22q34 0 54.5 -24t15.5 -59zM357 123l50 314q8 56 -24.5 94.5t-87.5 38.5h-22q-56 0 -101 -39t-53 -94l-50 -314q-9 -55 24 -94t88 -39h22q55 0 100 39t54 94zM310 634
l-80 131h57l80 -131h-57z" />
    <glyph glyph-name="oacute" unicode="&#xf3;" horiz-adv-x="388" 
d="M307 123q-5 -34 -33 -58.5t-63 -24.5h-22q-34 0 -54.5 24t-15.5 59l50 314q5 34 33 58.5t63 24.5h22q34 0 54.5 -24t15.5 -59zM357 123l50 314q8 56 -24.5 94.5t-87.5 38.5h-22q-56 0 -101 -39t-53 -94l-50 -314q-9 -55 24 -94t88 -39h22q55 0 100 39t54 94zM307 634
l121 131h-57l-122 -131h58z" />
    <glyph glyph-name="ocircumflex" unicode="&#xf4;" horiz-adv-x="388" 
d="M307 123q-5 -34 -33 -58.5t-63 -24.5h-22q-34 0 -54.5 24t-15.5 59l50 314q5 34 33 58.5t63 24.5h22q34 0 54.5 -24t15.5 -59zM357 123l50 314q8 56 -24.5 94.5t-87.5 38.5h-22q-56 0 -101 -39t-53 -94l-50 -314q-9 -55 24 -94t88 -39h22q55 0 100 39t54 94zM311 735
l61 -98h50l-100 148h-9l-148 -148h50l93 98h3z" />
    <glyph glyph-name="otilde" unicode="&#xf5;" horiz-adv-x="388" 
d="M307 123q-5 -34 -33 -58.5t-63 -24.5h-22q-34 0 -54.5 24t-15.5 59l50 314q5 34 33 58.5t63 24.5h22q34 0 54.5 -24t15.5 -59zM357 123l50 314q8 56 -24.5 94.5t-87.5 38.5h-22q-56 0 -101 -39t-53 -94l-50 -314q-9 -55 24 -94t88 -39h22q55 0 100 39t54 94zM171 649
l3 46q28 31 66 31q25 0 67 -17.5t65 -17.5q30 0 60 28l-2 -46q-32 -32 -66 -32q-25 0 -66.5 17.5t-64.5 17.5q-31 0 -62 -27z" />
    <glyph glyph-name="odieresis" unicode="&#xf6;" horiz-adv-x="388" 
d="M307 123q-5 -34 -33 -58.5t-63 -24.5h-22q-34 0 -54.5 24t-15.5 59l50 314q5 34 33 58.5t63 24.5h22q34 0 54.5 -24t15.5 -59zM357 123l50 314q8 56 -24.5 94.5t-87.5 38.5h-22q-56 0 -101 -39t-53 -94l-50 -314q-9 -55 24 -94t88 -39h22q55 0 100 39t54 94zM230 631
q-12 0 -19 8.5t-5 20.5t12 21t22 9t19.5 -9t5.5 -21t-12.5 -20.5t-22.5 -8.5zM352 631q-12 0 -19.5 8.5t-5.5 20.5t12.5 21t22.5 9t19 -9t5 -21t-12 -20.5t-22 -8.5z" />
    <glyph glyph-name="divide" unicode="&#xf7;" horiz-adv-x="430" 
d="M91 327h350l8 49h-350zM246 204q-12 0 -19.5 8.5t-5.5 20.5t12 21t22 9t19.5 -9t5.5 -21q-1 -12 -11.5 -20.5t-22.5 -8.5zM284 442q-12 0 -19.5 8.5t-5.5 20.5t12 21t22 9t19.5 -9t5.5 -21q-1 -12 -11.5 -20.5t-22.5 -8.5z" />
    <glyph glyph-name="oslash" unicode="&#xf8;" horiz-adv-x="408" 
d="M95 -27l24 41q29 -24 72 -24h22q55 0 100 39t54 94l50 314q6 39 -11 75l45 79h-50l-26 -44q-28 23 -70 23h-22q-56 0 -101 -39t-53 -94l-50 -314q-6 -40 10 -74l-44 -76h50zM317 123q-5 -34 -33 -58.5t-63 -24.5h-22q-34 0 -53 21l221 385q1 0 1 -4l-1 -5zM297 520
q32 0 51 -21l-220 -382l51 320q5 34 33 58.5t63 24.5h22z" />
    <glyph glyph-name="ugrave" unicode="&#xf9;" 
d="M431 560h-50l-69 -438q-11 -9 -29.5 -22.5t-60 -36.5t-65.5 -23q-18 0 -30 13t-9 33l75 474h-50l-75 -474q-6 -40 17.5 -68t63.5 -28q24 0 62 18t65 36l26 18l-9 -62h50zM307 634l-80 131h57l80 -131h-57z" />
    <glyph glyph-name="uacute" unicode="&#xfa;" 
d="M431 560h-50l-69 -438q-11 -9 -29.5 -22.5t-60 -36.5t-65.5 -23q-18 0 -30 13t-9 33l75 474h-50l-75 -474q-6 -40 17.5 -68t63.5 -28q24 0 62 18t65 36l26 18l-9 -62h50zM337 634l121 131h-57l-122 -131h58z" />
    <glyph glyph-name="ucircumflex" unicode="&#xfb;" 
d="M431 560h-50l-69 -438q-11 -9 -29.5 -22.5t-60 -36.5t-65.5 -23q-18 0 -30 13t-9 33l75 474h-50l-75 -474q-6 -40 17.5 -68t63.5 -28q24 0 62 18t65 36l26 18l-9 -62h50zM312 735l61 -98h50l-100 148h-9l-148 -148h50l93 98h3z" />
    <glyph glyph-name="udieresis" unicode="&#xfc;" 
d="M431 560h-50l-69 -438q-11 -9 -29.5 -22.5t-60 -36.5t-65.5 -23q-18 0 -30 13t-9 33l75 474h-50l-75 -474q-6 -40 17.5 -68t63.5 -28q24 0 62 18t65 36l26 18l-9 -62h50zM237 631q-12 0 -19 8.5t-5 20.5t12 21t22 9t19.5 -9t5.5 -21t-12.5 -20.5t-22.5 -8.5zM359 631
q-12 0 -19.5 8.5t-5.5 20.5t12.5 21t22.5 9t19 -9t5 -21t-12 -20.5t-22 -8.5z" />
    <glyph glyph-name="yacute" unicode="&#xfd;" 
d="M320 634l121 131h-57l-122 -131h58zM30 -155l8 50h155q35 0 63 24.5t33 58.5l13 84q-100 -72 -153 -72q-40 0 -63.5 28t-17.5 68l75 474h50l-75 -474q-3 -20 9 -33t30 -13q24 0 62.5 20.5t65.5 41.5l27 20l69 438h50l-92 -584q-9 -55 -53.5 -93t-100.5 -38h-155z" />
    <glyph glyph-name="thorn" unicode="&#xfe;" horiz-adv-x="398" 
d="M362 123l56 351q6 40 -17.5 68t-63.5 28q-24 0 -62.5 -18t-64.5 -36l-27 -18l43 267h-50l-144 -909h50l26 163q31 -29 78 -29h22q55 0 100 39t54 94zM174 438q11 9 29.5 22.5t60 36.5t65.5 23q18 0 30 -13t9 -33l-56 -351q-5 -34 -33 -58.5t-63 -24.5h-22q-34 0 -54.5 24
t-15.5 59z" />
    <glyph glyph-name="ydieresis" unicode="&#xff;" 
d="M236 631q-12 0 -19 8.5t-5 20.5t12 21t22 9t19.5 -9t5.5 -21t-12.5 -20.5t-22.5 -8.5zM358 631q-12 0 -19.5 8.5t-5.5 20.5t12.5 21t22.5 9t19 -9t5 -21t-12 -20.5t-22 -8.5zM30 -155l8 50h155q35 0 63 24.5t33 58.5l13 84q-100 -72 -153 -72q-40 0 -63.5 28t-17.5 68
l75 474h50l-75 -474q-3 -20 9 -33t30 -13q24 0 62.5 20.5t65.5 41.5l27 20l69 438h50l-92 -584q-9 -55 -53.5 -93t-100.5 -38h-155z" />
    <glyph glyph-name="Amacron" unicode="&#x100;" horiz-adv-x="421" 
d="M411 0h-50l-7 214h-222l-72 -214h-50l261 772q4 13 18.5 23.5t29.5 10.5h34q15 0 26 -10.5t12 -23.5zM312 743l-163 -479h204l-13 479q0 13 -8 13h-8q-6 0 -12 -13zM236 866h220l7 49h-220z" />
    <glyph glyph-name="amacron" unicode="&#x101;" horiz-adv-x="413" 
d="M185 628h220l8 49h-220zM299 66l1 2q4 -33 35 -55.5t67 -22.5l8 50q-21 0 -41 15.5t-18 30.5l56 352q8 55 -24.5 94t-87.5 39h-22q-55 0 -100.5 -39t-53.5 -94l-56 -352q-6 -40 17.5 -68t63.5 -28q24 0 62.5 19t65.5 38zM113 86l56 352q5 34 33 58.5t63 24.5h22
q34 0 54.5 -24t15.5 -59l-50 -315q-11 -9 -29.5 -23t-60 -37t-65.5 -23q-18 0 -30 13t-9 33z" />
    <glyph glyph-name="Abreve" unicode="&#x102;" horiz-adv-x="421" 
d="M411 0h-50l-7 214h-222l-72 -214h-50l261 772q4 13 18.5 23.5t29.5 10.5h34q15 0 26 -10.5t12 -23.5zM312 743l-163 -479h204l-13 479q0 13 -8 13h-8q-6 0 -12 -13zM456 948h-50q-4 -20 -19 -33t-35 -13t-31 13t-7 33h-50q-7 -40 16.5 -68t63.5 -28t72.5 28t39.5 68z" />
    <glyph glyph-name="abreve" unicode="&#x103;" horiz-adv-x="410" 
d="M404 717h-50q-3 -20 -18 -33t-35 -13t-31 13t-8 33h-50q-6 -40 17.5 -68t63.5 -28t72.5 28t38.5 68zM299 66l1 2q4 -33 35 -55.5t67 -22.5l8 50q-21 0 -41 15.5t-18 30.5l56 352q8 55 -24.5 94t-87.5 39h-22q-55 0 -100.5 -39t-53.5 -94l-56 -352q-6 -40 17.5 -68
t63.5 -28q24 0 62.5 19t65.5 38zM113 86l56 352q5 34 33 58.5t63 24.5h22q34 0 54.5 -24t15.5 -59l-50 -315q-11 -9 -29.5 -23t-60 -37t-65.5 -23q-18 0 -30 13t-9 33z" />
    <glyph glyph-name="Aogonek" unicode="&#x104;" horiz-adv-x="420" 
d="M411 0q-53 -23 -59 -62q-4 -25 11 -43t41 -18q17 0 39 12t37 32l40 -16q-21 -33 -58 -54t-65 -21q-46 0 -73 32t-19 77q7 47 55 82l-6 193h-222l-72 -214h-50l261 772q4 13 18.5 23.5t29.5 10.5h34q15 0 26 -10.5t12 -23.5zM312 743l-163 -479h204l-13 479q0 13 -8 13h-8
q-6 0 -12 -13z" />
    <glyph glyph-name="aogonek" unicode="&#x105;" horiz-adv-x="393" 
d="M402 -10l8 50q-21 0 -41 15.5t-18 30.5l56 352q8 55 -24.5 94t-87.5 39h-22q-55 0 -100.5 -39t-53.5 -94l-56 -352q-6 -40 17.5 -68t63.5 -28q24 0 62.5 19t65.5 38l27 19l1 2q4 -38 44 -62q-40 -34 -48 -77q-7 -45 19.5 -77t72.5 -32q28 0 65 21t59 54l-41 16
q-14 -20 -36.5 -32t-39.5 -12q-25 0 -40.5 17.5t-11.5 43.5q2 16 18 33.5t41 28.5zM113 86l56 352q5 34 33 58.5t63 24.5h22q34 0 54.5 -24t15.5 -59l-50 -315q-11 -9 -29.5 -23t-60 -37t-65.5 -23q-18 0 -30 13t-9 33z" />
    <glyph glyph-name="Cacute" unicode="&#x106;" horiz-adv-x="413" 
d="M359 292h-2l-25 -158q-7 -39 -37.5 -66.5t-69.5 -27.5h-20q-39 0 -62.5 27.5t-16.5 66.5l83 528q7 39 38.5 66.5t70.5 27.5h20q39 0 62.5 -27.5t16.5 -66.5l-20 -126h50l20 126q10 60 -25.5 102t-95.5 42h-20q-60 0 -108.5 -42t-58.5 -102l-83 -528q-10 -60 25.5 -102
t95.5 -42h20q60 0 108.5 42t58.5 102l25 158h-50zM342 861l121 131h-57l-122 -131h58z" />
    <glyph glyph-name="cacute" unicode="&#x107;" horiz-adv-x="363" 
d="M318 195l-11 -72q-5 -34 -33 -58.5t-63 -24.5h-22q-34 0 -54.5 24t-15.5 59l50 314q5 34 33 58.5t63 24.5h22q34 0 54.5 -24t15.5 -59l-12 -75h50l12 75q8 56 -24.5 94.5t-87.5 38.5h-22q-56 0 -101 -39t-53 -94l-50 -314q-9 -55 24 -94t88 -39h22q55 0 100 39t54 94
l11 72h-50zM303 617l121 131h-57l-122 -131h58z" />
    <glyph glyph-name="Ccaron" unicode="&#x10c;" horiz-adv-x="413" 
d="M359 292h-2l-25 -158q-7 -39 -37.5 -66.5t-69.5 -27.5h-20q-39 0 -62.5 27.5t-16.5 66.5l83 528q7 39 38.5 66.5t70.5 27.5h20q39 0 62.5 -27.5t16.5 -66.5l-20 -126h50l20 126q10 60 -25.5 102t-95.5 42h-20q-60 0 -108.5 -42t-58.5 -102l-83 -528q-10 -60 25.5 -102
t95.5 -42h20q60 0 108.5 42t58.5 102l25 158h-50zM345 887l-61 98h-50l100 -148h9l148 148h-50l-93 -98h-3z" />
    <glyph glyph-name="ccaron" unicode="&#x10d;" horiz-adv-x="363" 
d="M318 195l-11 -72q-5 -34 -33 -58.5t-63 -24.5h-22q-34 0 -54.5 24t-15.5 59l50 314q5 34 33 58.5t63 24.5h22q34 0 54.5 -24t15.5 -59l-12 -75h50l12 75q8 56 -24.5 94.5t-87.5 38.5h-22q-56 0 -101 -39t-53 -94l-50 -314q-9 -55 24 -94t88 -39h22q55 0 100 39t54 94
l11 72h-50zM297 647l-62 98h-50l101 -148h9l147 148h-50l-92 -98h-3z" />
    <glyph glyph-name="Dcaron" unicode="&#x10e;" horiz-adv-x="438" 
d="M243 750h114q39 0 62.5 -25t17.5 -63l-82 -518q-6 -39 -38 -66.5t-71 -27.5h-114zM201 800l-126 -800h164q60 0 108.5 42t57.5 102l82 518q10 59 -25.5 98.5t-96.5 39.5h-164zM337 890l-61 98h-50l101 -148h9l147 148h-50l-93 -98h-3z" />
    <glyph glyph-name="dcaron" unicode="&#x10f;" horiz-adv-x="513" 
d="M363 443l-51 -320q-11 -9 -29.5 -23t-60 -37t-65.5 -23q-18 0 -30 13t-9 33l56 352q5 34 33 58.5t63 24.5h22q34 0 54.5 -23t16.5 -55zM343 0l121 764h-50l-36 -222q-29 29 -78 29h-22q-55 0 -100.5 -39t-53.5 -94l-56 -352q-6 -40 17.5 -68t63.5 -28q24 0 62 18t65 36
l26 18l-9 -62h50zM547 596h-50l27 169h50z" />
    <glyph glyph-name="Dcroat" unicode="&#x110;" horiz-adv-x="463" 
d="M114 408h50l-64 -408h164q60 0 108.5 42t57.5 102l82 518q10 59 -25.5 98.5t-96.5 39.5h-164l-54 -343h-50zM268 750h114q39 0 62.5 -25t17.5 -63l-82 -518q-6 -39 -38 -66.5t-71 -27.5h-114l57 358h96l8 49h-96z" />
    <glyph glyph-name="dcroat" unicode="&#x111;" horiz-adv-x="462" 
d="M343 0l102 650h59l8 49h-59l11 65h-50l-11 -65h-193l-8 -49h193l-17 -108q-29 29 -78 29h-22q-55 0 -100.5 -39t-53.5 -94l-56 -352q-6 -40 17.5 -68t63.5 -28q24 0 62 18t65 36l26 18l-9 -62h50zM363 443l-51 -320q-11 -9 -29.5 -23t-60 -37t-65.5 -23q-18 0 -30 13
t-9 33l56 352q5 34 33 58.5t63 24.5h22q34 0 54.5 -23t16.5 -55z" />
    <glyph glyph-name="Emacron" unicode="&#x112;" horiz-adv-x="338" 
d="M219 866h220l7 49h-220zM436 750h-198l-45 -284h171l-8 -50h-171l-58 -366h198l-7 -50h-248l126 800h248z" />
    <glyph glyph-name="emacron" unicode="&#x113;" horiz-adv-x="373" 
d="M311 371l-169 -103l27 169q5 34 33 58.5t63 24.5h22q34 0 54.5 -24t15.5 -59q-3 -19 -14.5 -35.5t-21.5 -23.5zM211 40h-22q-34 0 -54.5 24t-15.5 59l12 81l223 138q5 3 12 9t21.5 30.5t19.5 55.5q8 56 -24.5 94.5t-87.5 38.5h-22q-56 0 -101 -39t-53 -94l-50 -314
q-9 -55 23.5 -94t88.5 -39h22q55 0 100 38.5t54 94.5l11 72h-50l-11 -72q-5 -34 -33 -58.5t-63 -24.5zM176 628h220l8 49h-220z" />
    <glyph glyph-name="Edotaccent" unicode="&#x116;" horiz-adv-x="338" 
d="M436 750h-198l-45 -284h171l-8 -50h-171l-58 -366h198l-7 -50h-248l126 800h248zM339 844q-12 0 -19 8.5t-5 20.5q1 12 11.5 21t22.5 9t19.5 -9t5.5 -21t-12.5 -20.5t-22.5 -8.5z" />
    <glyph glyph-name="edotaccent" unicode="&#x117;" horiz-adv-x="373" 
d="M311 371l-169 -103l27 169q5 34 33 58.5t63 24.5h22q34 0 54.5 -24t15.5 -59q-3 -19 -14.5 -35.5t-21.5 -23.5zM211 40h-22q-34 0 -54.5 24t-15.5 59l12 81l223 138q5 3 12 9t21.5 30.5t19.5 55.5q8 56 -24.5 94.5t-87.5 38.5h-22q-56 0 -101 -39t-53 -94l-50 -314
q-9 -55 23.5 -94t88.5 -39h22q55 0 100 38.5t54 94.5l11 72h-50l-11 -72q-5 -34 -33 -58.5t-63 -24.5zM284 616q-12 0 -19 8.5t-5 20.5t11.5 21t21.5 9t20 -9t6 -21t-12.5 -20.5t-22.5 -8.5z" />
    <glyph glyph-name="Eogonek" unicode="&#x118;" horiz-adv-x="347" 
d="M436 750h-198l-45 -284h171l-8 -50h-171l-58 -366h198l-7 -50q-53 -23 -59 -62q-4 -25 11 -43t41 -18q17 0 39 12t37 32l40 -16q-21 -33 -58 -54t-65 -21q-46 0 -73 32t-19 77q5 33 31 61h-173l126 800h248z" />
    <glyph glyph-name="eogonek" unicode="&#x119;" horiz-adv-x="386" 
d="M119 123l12 81l223 138q5 3 12 9t21.5 30.5t19.5 55.5q8 56 -24.5 94.5t-87.5 38.5h-22q-56 0 -101 -39t-53 -94l-50 -314q-7 -47 15.5 -83t65.5 -46q-27 -30 -31 -61q-8 -45 19 -77t73 -32q28 0 65 21t59 54l-41 16q-15 -20 -37 -32t-39 -12q-26 0 -41 18t-11 43
q5 36 51 59q51 5 91.5 43t48.5 89l11 72h-50l-11 -72q-5 -34 -33 -58.5t-63 -24.5h-22q-34 0 -54.5 24t-15.5 59zM311 371l-169 -103l27 169q5 34 33 58.5t63 24.5h22q34 0 54.5 -24t15.5 -59q-3 -19 -14.5 -35.5t-21.5 -23.5z" />
    <glyph glyph-name="Ecaron" unicode="&#x11a;" horiz-adv-x="347" 
d="M442 750h-198l-45 -284h171l-8 -50h-171l-58 -366h198l-7 -50h-248l126 800h248zM337 890l-61 98h-50l101 -148h9l147 148h-50l-93 -98h-3z" />
    <glyph glyph-name="ecaron" unicode="&#x11b;" horiz-adv-x="373" 
d="M311 371l-169 -103l27 169q5 34 33 58.5t63 24.5h22q34 0 54.5 -24t15.5 -59q-3 -19 -14.5 -35.5t-21.5 -23.5zM211 40h-22q-34 0 -54.5 24t-15.5 59l12 81l223 138q5 3 12 9t21.5 30.5t19.5 55.5q8 56 -24.5 94.5t-87.5 38.5h-22q-56 0 -101 -39t-53 -94l-50 -314
q-9 -55 23.5 -94t88.5 -39h22q55 0 100 38.5t54 94.5l11 72h-50l-11 -72q-5 -34 -33 -58.5t-63 -24.5zM297 658l-62 98h-50l101 -148h9l147 148h-50l-92 -98h-3z" />
    <glyph glyph-name="Gbreve" unicode="&#x11e;" horiz-adv-x="409" 
d="M221 40q39 0 70.5 27.5t38.5 66.5l33 208h-102l8 50h152l-41 -258q-10 -60 -58.5 -102t-108.5 -42h-16q-60 0 -95.5 42t-25.5 102l83 528q10 60 58.5 102t108.5 42h16q60 0 95.5 -42t25.5 -102l-20 -126h-50l20 126q7 39 -16.5 66.5t-62.5 27.5h-16q-39 0 -70.5 -27.5
t-38.5 -66.5l-83 -528q-7 -39 16.5 -66.5t62.5 -27.5h16zM456 937h-50q-3 -20 -18 -33t-35 -13t-31 13t-8 33h-50q-6 -40 17.5 -68t63.5 -28t72.5 28t38.5 68z" />
    <glyph glyph-name="gbreve" unicode="&#x11f;" horiz-adv-x="388" 
d="M122 141l47 297q5 34 33 58.5t63 24.5h22q34 0 54.5 -24t15.5 -59l-41 -260q-11 -9 -29.5 -23t-60 -37t-65.5 -23q-18 0 -30.5 13t-8.5 33zM308 121l-25 -153q-5 -34 -33 -58.5t-63 -24.5h-22q-34 0 -54.5 24t-15.5 59l4 22h-50l-4 -22q-8 -56 24.5 -94.5t87.5 -38.5h22
q56 0 100 38t53 93l75 472q8 55 -24.5 94t-87.5 39h-22q-55 0 -100.5 -39t-53.5 -94l-47 -297q-7 -40 17 -68t64 -28q24 0 62.5 19t65.5 38zM406 720h-50q-4 -20 -19 -33t-35 -13t-31 13t-7 33h-50q-7 -40 16.5 -68t63.5 -28t72.5 28t39.5 68z" />
    <glyph glyph-name="Gcommaaccent" unicode="&#x122;" horiz-adv-x="399" 
d="M221 40q39 0 70.5 27.5t38.5 66.5l33 208h-102l8 50h152l-41 -258q-10 -60 -58.5 -102t-108.5 -42h-16q-60 0 -95.5 42t-25.5 102l83 528q10 60 58.5 102t108.5 42h16q60 0 95.5 -42t25.5 -102l-20 -126h-50l20 126q7 39 -16.5 66.5t-62.5 27.5h-16q-39 0 -70.5 -27.5
t-38.5 -66.5l-83 -528q-7 -39 16.5 -66.5t62.5 -27.5h16zM197 -211h-50l27 169h50z" />
    <glyph glyph-name="gcommaaccent" unicode="&#x123;" horiz-adv-x="388" 
d="M122 141l47 297q5 34 33 58.5t63 24.5h22q34 0 54.5 -24t15.5 -59l-41 -260q-11 -9 -29.5 -23t-60 -37t-65.5 -23q-18 0 -30.5 13t-8.5 33zM308 121l-25 -153q-5 -34 -33 -58.5t-63 -24.5h-22q-34 0 -54.5 24t-15.5 59l4 22h-50l-4 -22q-8 -56 24.5 -94.5t87.5 -38.5h22
q56 0 100 38t53 93l75 472q8 55 -24.5 94t-87.5 39h-22q-55 0 -100.5 -39t-53.5 -94l-47 -297q-7 -40 17 -68t64 -28q24 0 62.5 19t65.5 38zM316 626h-50l26 169h50z" />
    <glyph glyph-name="Imacron" unicode="&#x12a;" horiz-adv-x="160" 
d="M107 866h220l7 49h-220zM105 0l126 800h-50l-126 -800h50z" />
    <glyph glyph-name="imacron" unicode="&#x12b;" horiz-adv-x="176" 
d="M151 560l-75 -474q-6 -38 26.5 -67t74.5 -29l8 50q-21 0 -41 15.5t-18 30.5l75 474h-50zM80 647h220l8 49h-220z" />
    <glyph glyph-name="Iogonek" unicode="&#x12e;" horiz-adv-x="195" 
d="M122 0l126 800h-50l-123 -775q-51 -36 -59 -86q-8 -45 19 -77t73 -32q28 0 65 21t58 54l-40 16q-15 -20 -37 -32t-39 -12q-26 0 -41 18t-11 43q6 39 59 62z" />
    <glyph glyph-name="iogonek" unicode="&#x12f;" horiz-adv-x="205" 
d="M179 -10l8 50q-21 0 -41 15.5t-18 30.5l75 474h-50l-75 -474q-7 -49 43 -80q-40 -32 -48 -77q-7 -45 19.5 -77t72.5 -32q28 0 65 21t59 54l-41 16q-14 -20 -36.5 -32t-39.5 -12q-25 0 -40.5 17.5t-11.5 43.5q2 16 18 33.5t41 28.5z" />
    <glyph glyph-name="Idot" unicode="&#x130;" horiz-adv-x="197" 
d="M123 0l126 800h-50l-126 -800h50zM229 831q-12 0 -19 8.5t-5 20.5t11.5 21t21.5 9t20 -9t6 -21t-12.5 -20.5t-22.5 -8.5z" />
    <glyph glyph-name="dotlessi" unicode="&#x131;" horiz-adv-x="196" 
d="M153 560l-75 -474q-6 -38 26.5 -67t74.5 -29l8 50q-21 0 -41 15.5t-18 30.5l75 474h-50z" />
    <glyph glyph-name="Kcommaaccent" unicode="&#x136;" horiz-adv-x="436" 
d="M220 -97h-50l27 169h50zM185 417l-66 -417h-49l126 800h49l-53 -334h75l241 334h54l-253 -354l-1 -9l128 -437h-54l-122 417h-75z" />
    <glyph glyph-name="kcommaaccent" unicode="&#x137;" horiz-adv-x="396" 
d="M187 -80h-50l27 169h50zM376 0l-104 204q48 10 84 46.5t44 84.5l22 139q6 40 -17.5 68t-63.5 28q-24 0 -62.5 -18t-64.5 -36l-27 -18l43 267h-49l-121 -765h49l31 202h75l107 -202h54zM253 252h-105l30 186q11 9 29.5 22.5t60 36.5t65.5 23q18 0 30 -13t9 -33l-22 -139
q-6 -35 -34.5 -59t-62.5 -24z" />
    <glyph glyph-name="Lacute" unicode="&#x139;" horiz-adv-x="317" 
d="M245 800l-119 -750h198l-7 -50h-247l126 800h49zM233 858l121 131h-57l-122 -131h58z" />
    <glyph glyph-name="lacute" unicode="&#x13a;" horiz-adv-x="215" 
d="M205 764l-108 -678q-6 -38 26.5 -67t74.5 -29l8 50q-21 0 -41 15.5t-18 30.5l108 678h-50zM218 782l121 131h-57l-122 -131h58z" />
    <glyph glyph-name="Lcommaaccent" unicode="&#x13b;" horiz-adv-x="298" 
d="M226 800l-119 -750h198l-7 -50h-247l126 800h49zM166 -202h-50l26 169h50z" />
    <glyph glyph-name="lcommaaccent" unicode="&#x13c;" horiz-adv-x="196" 
d="M186 764l-108 -678q-6 -38 26.5 -67t74.5 -29l8 50q-21 0 -41 15.5t-18 30.5l108 678h-50zM85 -191h-50l27 169h50z" />
    <glyph glyph-name="Lcaron" unicode="&#x13d;" horiz-adv-x="298" 
d="M226 800l-119 -750h198l-7 -50h-247l126 800h49zM337 632h-50l26 169h50z" />
    <glyph glyph-name="lcaron" unicode="&#x13e;" horiz-adv-x="215" 
d="M186 764l-108 -678q-6 -38 26.5 -67t74.5 -29l8 50q-21 0 -41 15.5t-18 30.5l108 678h-50zM309 596h-50l27 169h50z" />
    <glyph glyph-name="Lslash" unicode="&#x141;" horiz-adv-x="358" 
d="M326 507l-8 -49l-104 -49l-57 -359h198l-7 -50h-247l60 384l-55 -26l8 49l55 26l58 367h49l-54 -342z" />
    <glyph glyph-name="lslash" unicode="&#x142;" horiz-adv-x="226" 
d="M293 458l8 49l-82 -39l47 296h-50l-51 -322l-76 -35l-8 -49l76 35l-49 -307q-6 -38 26.5 -67t74.5 -29l8 50q-21 0 -41 15.5t-18 30.5l53 333z" />
    <glyph glyph-name="Nacute" unicode="&#x143;" horiz-adv-x="485" 
d="M307 0h108l126 800h-50l-119 -750h-20l-46 750h-110l-126 -800h50l118 750h20zM406 837l121 131h-57l-122 -131h58z" />
    <glyph glyph-name="nacute" unicode="&#x144;" 
d="M60 0h50l69 438q11 9 29.5 22.5t60 36.5t65.5 23q18 0 30 -13t9 -33l-75 -474h50l75 474q6 40 -17.5 68t-63.5 28q-24 0 -62.5 -18t-65.5 -36l-26 -18l10 62h-50zM317 623l121 131h-57l-122 -131h58z" />
    <glyph glyph-name="Ncommaaccent" unicode="&#x145;" horiz-adv-x="485" 
d="M307 0h108l126 800h-50l-119 -750h-20l-46 750h-110l-126 -800h50l118 750h20zM220 -80h-50l27 169h50z" />
    <glyph glyph-name="ncommaaccent" unicode="&#x146;" 
d="M213 -81h-50l26 169h50zM60 0h50l69 438q11 9 29.5 22.5t60 36.5t65.5 23q18 0 30 -13t9 -33l-75 -474h50l75 474q6 40 -17.5 68t-63.5 28q-24 0 -62.5 -18t-65.5 -36l-26 -18l10 62h-50z" />
    <glyph glyph-name="Ncaron" unicode="&#x147;" horiz-adv-x="485" 
d="M307 0h108l126 800h-50l-119 -750h-20l-46 750h-110l-126 -800h50l118 750h20zM379 878l-62 98h-50l101 -148h9l147 148h-50l-92 -98h-3z" />
    <glyph glyph-name="ncaron" unicode="&#x148;" 
d="M60 0h50l69 438q11 9 29.5 22.5t60 36.5t65.5 23q18 0 30 -13t9 -33l-75 -474h50l75 474q6 40 -17.5 68t-63.5 28q-24 0 -62.5 -18t-65.5 -36l-26 -18l10 62h-50zM319 674l-61 98h-50l100 -148h9l148 148h-50l-93 -98h-3z" />
    <glyph glyph-name="Omacron" unicode="&#x14c;" horiz-adv-x="418" 
d="M417 662l-83 -528q-7 -39 -38.5 -66.5t-70.5 -27.5h-20q-39 0 -62.5 27.5t-16.5 66.5l83 528q7 39 38.5 66.5t70.5 27.5h20q39 0 62.5 -27.5t16.5 -66.5zM384 134l83 528q10 60 -25.5 102t-95.5 42h-20q-60 0 -108.5 -42t-58.5 -102l-83 -528q-10 -60 25.5 -102t95.5 -42
h20q60 0 108.5 42t58.5 102zM236 867h220l8 49h-220z" />
    <glyph glyph-name="omacron" unicode="&#x14d;" horiz-adv-x="388" 
d="M307 123q-5 -34 -33 -58.5t-63 -24.5h-22q-34 0 -54.5 24t-15.5 59l50 314q5 34 33 58.5t63 24.5h22q34 0 54.5 -24t15.5 -59zM357 123l50 314q8 56 -24.5 94.5t-87.5 38.5h-22q-56 0 -101 -39t-53 -94l-50 -314q-9 -55 24 -94t88 -39h22q55 0 100 39t54 94zM184 629h220
l8 49h-220z" />
    <glyph glyph-name="Ohungarumlaut" unicode="&#x150;" horiz-adv-x="426" 
d="M417 662l-83 -528q-7 -39 -38.5 -66.5t-70.5 -27.5h-20q-39 0 -62.5 27.5t-16.5 66.5l83 528q7 39 38.5 66.5t70.5 27.5h20q39 0 62.5 -27.5t16.5 -66.5zM384 134l83 528q10 60 -25.5 102t-95.5 42h-20q-60 0 -108.5 -42t-58.5 -102l-83 -528q-10 -60 25.5 -102t95.5 -42
h20q60 0 108.5 42t58.5 102zM317 856l121 131h-57l-122 -131h58zM406 856l121 131h-57l-122 -131h58z" />
    <glyph glyph-name="ohungarumlaut" unicode="&#x151;" horiz-adv-x="406" 
d="M264 617l121 131h-57l-122 -131h58zM353 617l121 131h-57l-122 -131h58zM307 123q-5 -34 -33 -58.5t-63 -24.5h-22q-34 0 -54.5 24t-15.5 59l50 314q5 34 33 58.5t63 24.5h22q34 0 54.5 -24t15.5 -59zM357 123l50 314q8 56 -24.5 94.5t-87.5 38.5h-22q-56 0 -101 -39
t-53 -94l-50 -314q-9 -55 24 -94t88 -39h22q55 0 100 39t54 94z" />
    <glyph glyph-name="OE" unicode="&#x152;" horiz-adv-x="581" 
d="M481 750h198l8 50h-248l-4 -29q-35 35 -89 35h-20q-60 0 -108.5 -42t-58.5 -102l-83 -528q-10 -60 25.5 -102t95.5 -42h20q54 0 99 34l-3 -24h248l7 50h-198l58 366h171l8 50h-171zM338 756q38 0 62 -26.5t18 -63.5l-84 -532q-7 -39 -38.5 -66.5t-70.5 -27.5h-20
q-39 0 -62.5 27.5t-16.5 66.5l83 528q7 39 38.5 66.5t70.5 27.5h20z" />
    <glyph glyph-name="oe" unicode="&#x153;" horiz-adv-x="611" 
d="M357 123l12 81l223 138q5 3 12 9t21.5 30.5t19.5 55.5q8 56 -24.5 94.5t-87.5 38.5h-22q-70 0 -117 -55q-31 55 -99 55h-22q-56 0 -101 -39t-53 -94l-50 -314q-9 -55 24 -94t88 -39h22q68 0 117 55q29 -55 99 -55h22q55 0 100 38.5t54 94.5l11 72h-50l-11 -72
q-5 -34 -33 -58.5t-63 -24.5h-22q-34 0 -54.5 24t-15.5 59zM287 520q34 0 54.5 -24t15.5 -59l-51 -318q-5 -33 -33 -56t-62 -23h-22q-34 0 -54.5 24t-15.5 59l50 314q5 34 33 58.5t63 24.5h22zM549 371l-169 -103l27 169q5 34 33 58.5t63 24.5h22q34 0 54.5 -24t15.5 -59
q-3 -19 -14.5 -35.5t-21.5 -23.5z" />
    <glyph glyph-name="Racute" unicode="&#x154;" horiz-adv-x="418" 
d="M328 0h50l47 298q6 41 -12 73.5t-53 46.5q37 15 63 47.5t32 70.5l23 144q8 49 -21.5 84.5t-79.5 35.5h-181l-126 -800h50l62 393h125q77 -37 68 -95zM316 443h-126l48 308h131q29 0 46 -21.5t12 -49.5l-23 -146q-9 -58 -88 -91zM342 857l121 131h-57l-122 -131h58z" />
    <glyph glyph-name="racute" unicode="&#x155;" horiz-adv-x="363" 
d="M60 0h50l69 438q11 9 29.5 22.5t60 36.5t65.5 23q18 0 30 -13t9 -33l-16 -101h50l16 101q6 40 -17.5 68t-63.5 28q-24 0 -62.5 -18t-65.5 -36l-26 -18l10 62h-50zM323 620l120 131h-57l-121 -131h58z" />
    <glyph glyph-name="Rcommaaccent" unicode="&#x156;" horiz-adv-x="418" 
d="M232 -86h-50l27 169h50zM328 0h50l47 298q6 41 -12 73.5t-53 46.5q37 15 63 47.5t32 70.5l23 144q8 49 -21.5 84.5t-79.5 35.5h-181l-126 -800h50l62 393h125q77 -37 68 -95zM316 443h-126l48 308h131q29 0 46 -21.5t12 -49.5l-23 -146q-9 -58 -88 -91z" />
    <glyph glyph-name="rcommaaccent" unicode="&#x157;" horiz-adv-x="364" 
d="M61 0h50l69 438q11 9 29.5 22.5t60 36.5t65.5 23q18 0 30 -13t9 -33l-16 -101h50l16 101q6 40 -17.5 68t-63.5 28q-24 0 -62.5 -18t-64.5 -36l-27 -18l10 62h-50zM78 -202h-50l26 169h50z" />
    <glyph glyph-name="Rcaron" unicode="&#x158;" horiz-adv-x="418" 
d="M328 0h50l47 298q6 41 -12 73.5t-53 46.5q37 15 63 47.5t32 70.5l23 144q8 49 -21.5 84.5t-79.5 35.5h-181l-126 -800h50l62 393h125q77 -37 68 -95zM316 443h-126l48 308h131q29 0 46 -21.5t12 -49.5l-23 -146q-9 -58 -88 -91zM343 889l-61 98h-50l100 -148h9l148 148
h-50l-93 -98h-3z" />
    <glyph glyph-name="rcaron" unicode="&#x159;" horiz-adv-x="363" 
d="M60 0h50l69 438q11 9 29.5 22.5t60 36.5t65.5 23q18 0 30 -13t9 -33l-16 -101h50l16 101q6 40 -17.5 68t-63.5 28q-24 0 -62.5 -18t-65.5 -36l-26 -18l10 62h-50zM320 646l-62 98h-50l101 -148h9l147 148h-50l-92 -98h-3z" />
    <glyph glyph-name="Sacute" unicode="&#x15a;" horiz-adv-x="394" 
d="M382 211l-12 -77q-10 -60 -58.5 -102t-108.5 -42h-16q-60 0 -95.5 42t-25.5 102l23 148h50l-23 -148q-7 -39 16.5 -66.5t62.5 -27.5h16q39 0 70.5 27.5t38.5 66.5l12 77q9 57 -6.5 100t-40 66.5t-68.5 51.5q-48 33 -67 74.5t-9 103.5l8 55q10 60 58.5 102t108.5 42h16
q60 0 95.5 -42t25.5 -102h-50q7 39 -16.5 66.5t-62.5 27.5h-16q-39 0 -70.5 -27.5t-38.5 -66.5l-8 -55q-6 -35 8 -66t35.5 -51.5t57.5 -44.5q57 -38 81 -90.5t9 -143.5zM353 872l120 131h-57l-121 -131h58z" />
    <glyph glyph-name="sacute" unicode="&#x15b;" horiz-adv-x="368" 
d="M156 417l3 20q5 34 33 58.5t63 24.5h22q34 0 54.5 -24t15.5 -59l-3 -20h50l3 20q8 56 -24.5 94.5t-87.5 38.5h-22q-56 0 -101 -39t-53 -94l-3 -20q-4 -22 5 -45.5t24 -40t30 -30.5t27 -21l11 -7q4 -3 11.5 -8t25.5 -19.5t31 -28t23 -30.5t8 -30l-5 -34q-5 -34 -33 -58.5
t-63 -24.5h-22q-34 0 -54.5 24t-15.5 59l14 89h-50l-14 -89q-9 -55 24 -94t88 -39h22q55 0 100 39t54 94l5 34q4 22 -5 45.5t-24.5 41t-31 32t-27.5 22.5l-11 7q-4 3 -11 7.5t-25 18.5t-31 27t-22.5 29.5t-7.5 29.5zM298 634l121 131h-57l-122 -131h58z" />
    <glyph glyph-name="Scedilla" unicode="&#x15e;" horiz-adv-x="394" 
d="M66 -227l40 35q27 -15 45 -15q33 0 57 19t29 47q4 26 -11.5 46t-42.5 20h-33l21 66q-54 6 -84 46.5t-21 96.5l23 148h50l-23 -148q-7 -39 16.5 -66.5t62.5 -27.5h16q39 0 70.5 27.5t38.5 66.5l12 77q9 57 -6.5 100t-40 66.5t-68.5 51.5q-48 33 -67 74.5t-9 103.5l8 55
q10 60 58.5 102t108.5 42h16q60 0 95.5 -42t25.5 -102h-50q7 39 -16.5 66.5t-62.5 27.5h-16q-39 0 -70.5 -27.5t-38.5 -66.5l-8 -55q-6 -35 8 -66t35.5 -51.5t57.5 -44.5q57 -38 81 -90.5t9 -143.5l-12 -77q-9 -55 -51.5 -95.5t-97.5 -47.5l-7 -18q38 -9 59 -41.5t14 -72.5
q-8 -49 -48.5 -82.5t-95.5 -33.5q-35 0 -77 30z" />
    <glyph glyph-name="scedilla" unicode="&#x15f;" horiz-adv-x="368" 
d="M85 -192l-40 -35q42 -30 77 -30q55 0 95.5 33.5t48.5 82.5q7 40 -14 72.5t-59 41.5l7 17q53 3 96 41.5t51 91.5l5 34q4 22 -5 45.5t-24.5 41t-31 32t-27.5 22.5l-11 7q-4 3 -11 7.5t-25 18.5t-31 27t-22.5 29.5t-7.5 29.5l3 20q5 34 33 58.5t63 24.5h22q34 0 54.5 -24
t15.5 -59l-3 -20h50l3 20q8 56 -24.5 94.5t-87.5 38.5h-22q-56 0 -101 -39t-53 -94l-3 -20q-4 -22 5 -45.5t24 -40t30 -30.5t27 -21l11 -7q4 -3 11.5 -8t25.5 -19.5t31 -28t23 -30.5t8 -30l-5 -34q-5 -34 -33 -58.5t-63 -24.5h-22q-34 0 -54.5 24t-15.5 59l14 89h-50
l-14 -89q-7 -49 18.5 -86.5t72.5 -44.5l-21 -67h33q28 0 43 -20t11 -46q-5 -28 -29 -47t-57 -19q-18 0 -45 15z" />
    <glyph glyph-name="Scaron" unicode="&#x160;" horiz-adv-x="394" 
d="M382 211l-12 -77q-10 -60 -58.5 -102t-108.5 -42h-16q-60 0 -95.5 42t-25.5 102l23 148h50l-23 -148q-7 -39 16.5 -66.5t62.5 -27.5h16q39 0 70.5 27.5t38.5 66.5l12 77q9 57 -6.5 100t-40 66.5t-68.5 51.5q-48 33 -67 74.5t-9 103.5l8 55q10 60 58.5 102t108.5 42h16
q60 0 95.5 -42t25.5 -102h-50q7 39 -16.5 66.5t-62.5 27.5h-16q-39 0 -70.5 -27.5t-38.5 -66.5l-8 -55q-6 -35 8 -66t35.5 -51.5t57.5 -44.5q57 -38 81 -90.5t9 -143.5zM335 877l-61 98h-50l100 -148h9l148 148h-50l-93 -98h-3z" />
    <glyph glyph-name="scaron" unicode="&#x161;" horiz-adv-x="368" 
d="M156 417l3 20q5 34 33 58.5t63 24.5h22q34 0 54.5 -24t15.5 -59l-3 -20h50l3 20q8 56 -24.5 94.5t-87.5 38.5h-22q-56 0 -101 -39t-53 -94l-3 -20q-4 -22 5 -45.5t24 -40t30 -30.5t27 -21l11 -7q4 -3 11.5 -8t25.5 -19.5t31 -28t23 -30.5t8 -30l-5 -34q-5 -34 -33 -58.5
t-63 -24.5h-22q-34 0 -54.5 24t-15.5 59l14 89h-50l-14 -89q-9 -55 24 -94t88 -39h22q55 0 100 39t54 94l5 34q4 22 -5 45.5t-24.5 41t-31 32t-27.5 22.5l-11 7q-4 3 -11 7.5t-25 18.5t-31 27t-22.5 29.5t-7.5 29.5zM283 647l-62 98h-50l101 -148h9l147 148h-50l-92 -98h-3z
" />
    <glyph glyph-name="Tcommaaccent" unicode="&#x162;" horiz-adv-x="330" 
d="M448 750h-140l-118 -750h-50l118 750h-140l8 50h330zM158 -199h-50l27 169h50z" />
    <glyph glyph-name="tcommaaccent" unicode="&#x163;" horiz-adv-x="237" 
d="M80 511h80l-67 -425q-6 -38 26.5 -67t74.5 -29l8 50q-21 0 -41 15.5t-18 30.5l67 425h107l8 49h-107l23 145h-50l-23 -145h-80zM101 -178h-50l27 169h50z" />
    <glyph glyph-name="Tcaron" unicode="&#x164;" horiz-adv-x="330" 
d="M448 750h-140l-118 -750h-50l118 750h-140l8 50h330zM304 889l-61 98h-50l100 -148h9l148 148h-50l-93 -98h-3z" />
    <glyph glyph-name="tcaron" unicode="&#x165;" horiz-adv-x="276" 
d="M80 511h80l-67 -425q-6 -38 26.5 -67t74.5 -29l8 50q-21 0 -41 15.5t-18 30.5l67 425h107l8 49h-107l23 145h-50l-23 -145h-80zM395 580h-50l27 169h50z" />
    <glyph glyph-name="Umacron" unicode="&#x16a;" horiz-adv-x="428" 
d="M444 800l-105 -666q-7 -39 -38.5 -66.5t-70.5 -27.5h-20q-39 0 -62.5 27.5t-16.5 66.5l105 666h-50l-105 -666q-10 -60 25.5 -102t95.5 -42h20q60 0 108.5 42t58.5 102l105 666h-50zM241 866h220l7 49h-220z" />
    <glyph glyph-name="umacron" unicode="&#x16b;" 
d="M431 560h-50l-69 -438q-11 -9 -29.5 -22.5t-60 -36.5t-65.5 -23q-18 0 -30 13t-9 33l75 474h-50l-75 -474q-6 -40 17.5 -68t63.5 -28q24 0 62 18t65 36l26 18l-9 -62h50zM192 628h220l8 49h-220z" />
    <glyph glyph-name="Uring" unicode="&#x16e;" horiz-adv-x="428" 
d="M444 800l-105 -666q-7 -39 -38.5 -66.5t-70.5 -27.5h-20q-39 0 -62.5 27.5t-16.5 66.5l105 666h-50l-105 -666q-10 -60 25.5 -102t95.5 -42h20q60 0 108.5 42t58.5 102l105 666h-50zM404 919q-3 -19 -18.5 -32.5t-34.5 -13.5t-30.5 13.5t-8.5 32.5t18.5 32.5t34.5 13.5
t30.5 -13.5t8.5 -32.5zM454 919q6 40 -17.5 68t-63.5 28t-72.5 -28t-38.5 -68t17.5 -68t63.5 -28t72.5 28t38.5 68z" />
    <glyph glyph-name="uring" unicode="&#x16f;" 
d="M431 560h-50l-69 -438q-11 -9 -29.5 -22.5t-60 -36.5t-65.5 -23q-18 0 -30 13t-9 33l75 474h-50l-75 -474q-6 -40 17.5 -68t63.5 -28q24 0 62 18t65 36l26 18l-9 -62h50zM359 679q-3 -19 -18.5 -32.5t-34.5 -13.5t-30.5 13.5t-8.5 32.5t18.5 32.5t34.5 13.5t30.5 -13.5
t8.5 -32.5zM409 679q6 40 -17.5 68t-63.5 28t-72.5 -28t-38.5 -68t17.5 -68t63.5 -28t72.5 28t38.5 68z" />
    <glyph glyph-name="Uhungarumlaut" unicode="&#x170;" horiz-adv-x="435" 
d="M321 856l121 131h-57l-122 -131h58zM410 856l121 131h-57l-122 -131h58zM444 800l-105 -666q-7 -39 -38.5 -66.5t-70.5 -27.5h-20q-39 0 -62.5 27.5t-16.5 66.5l105 666h-50l-105 -666q-10 -60 25.5 -102t95.5 -42h20q60 0 108.5 42t58.5 102l105 666h-50z" />
    <glyph glyph-name="uhungarumlaut" unicode="&#x171;" horiz-adv-x="431" 
d="M275 592l121 131h-57l-122 -131h58zM364 592l121 131h-57l-122 -131h58zM431 560h-50l-69 -438q-11 -9 -29.5 -22.5t-60 -36.5t-65.5 -23q-18 0 -30 13t-9 33l75 474h-50l-75 -474q-6 -40 17.5 -68t63.5 -28q24 0 62 18t65 36l26 18l-9 -62h50z" />
    <glyph glyph-name="Uogonek" unicode="&#x172;" horiz-adv-x="428" 
d="M444 800l-105 -666q-7 -39 -38.5 -66.5t-70.5 -27.5h-20q-39 0 -62.5 27.5t-16.5 66.5l105 666h-50l-105 -666q-8 -50 15 -88.5t68 -50.5q-29 -30 -35 -65q-7 -45 19.5 -77t72.5 -32q29 0 66 21t58 54l-40 16q-15 -20 -37 -32t-39 -12q-26 0 -41.5 18t-11.5 43
q8 40 57 62q57 4 102 45t54 98l105 666h-50z" />
    <glyph glyph-name="uogonek" unicode="&#x173;" horiz-adv-x="401" 
d="M343 0l88 560h-50l-69 -438q-11 -9 -29.5 -22.5t-60 -36.5t-65.5 -23q-18 0 -30 13t-9 33l75 474h-50l-75 -474q-6 -40 17.5 -68t63.5 -28q24 0 62 18t65 36l26 18l-6 -37q-51 -36 -59 -86q-8 -45 19 -77t73 -32q28 0 65 21t58 54l-40 16q-15 -20 -37 -32t-39 -12
q-26 0 -41 18t-11 43q6 39 59 62z" />
    <glyph glyph-name="Ydieresis" unicode="&#x178;" horiz-adv-x="424" 
d="M271 283l219 517h50l-227 -546q-4 -11 -16 -21t-26 -13l-34 -220h-50l35 221q-13 3 -21.5 12.5t-7.5 20.5l-57 546h50l57 -517q0 -13 8 -13h8q9 0 12 13zM279 831q-12 0 -19 8.5t-5 20.5t11.5 21t21.5 9t20 -9t6 -21t-12.5 -20.5t-22.5 -8.5zM401 831q-12 0 -19.5 8.5
t-5.5 20.5q1 12 11.5 21t22.5 9t19.5 -9t5.5 -21t-12 -20.5t-22 -8.5z" />
    <glyph glyph-name="Zacute" unicode="&#x179;" horiz-adv-x="360" 
d="M15 0h330l7 50h-260l379 750h-330l-8 -50h261zM317 859l120 131h-57l-121 -131h58z" />
    <glyph glyph-name="zacute" unicode="&#x17a;" horiz-adv-x="334" 
d="M316 49l-7 -49h-284l7 50l305 464h-229l8 50h279l-8 -50l-306 -465h235zM281 624l121 131h-57l-122 -131h58z" />
    <glyph glyph-name="Zdotaccent" unicode="&#x17b;" horiz-adv-x="360" 
d="M15 0h330l7 50h-260l379 750h-330l-8 -50h261zM315 857q-12 0 -19 8.5t-5 20.5q1 12 11.5 21t22.5 9t19.5 -9t5.5 -21t-12.5 -20.5t-22.5 -8.5z" />
    <glyph glyph-name="zdotaccent" unicode="&#x17c;" horiz-adv-x="334" 
d="M316 49l-7 -49h-284l7 50l305 464h-229l8 50h279l-8 -50l-306 -465h235zM263 616q-12 0 -19 8.5t-5 20.5t11.5 21t21.5 9t20 -9t6 -21t-12.5 -20.5t-22.5 -8.5z" />
    <glyph glyph-name="Zcaron" unicode="&#x17d;" horiz-adv-x="360" 
d="M15 0h330l7 50h-260l379 750h-330l-8 -50h261zM318 877l-61 98h-50l100 -148h9l148 148h-50l-93 -98h-3z" />
    <glyph glyph-name="zcaron" unicode="&#x17e;" horiz-adv-x="334" 
d="M316 49l-7 -49h-284l7 50l305 464h-229l8 50h279l-8 -50l-306 -465h235zM276 657l-62 98h-50l101 -148h9l147 148h-50l-92 -98h-3z" />
    <glyph glyph-name="florin" unicode="&#x192;" horiz-adv-x="242" 
d="M125 -59l70 444h107l8 49h-107l37 235q3 16 29 31t45 15l8 50q-42 0 -83.5 -29t-48.5 -67l-37 -235h-80l-8 -49h80l-70 -444q-2 -16 -28 -31t-45 -15l-7 -50q41 0 82.5 29t47.5 67z" />
    <glyph glyph-name="Scommaaccent" unicode="&#x218;" horiz-adv-x="394" 
d="M382 211l-12 -77q-10 -60 -58.5 -102t-108.5 -42h-16q-60 0 -95.5 42t-25.5 102l23 148h50l-23 -148q-7 -39 16.5 -66.5t62.5 -27.5h16q39 0 70.5 27.5t38.5 66.5l12 77q9 57 -6.5 100t-40 66.5t-68.5 51.5q-48 33 -67 74.5t-9 103.5l8 55q10 60 58.5 102t108.5 42h16
q60 0 95.5 -42t25.5 -102h-50q7 39 -16.5 66.5t-62.5 27.5h-16q-39 0 -70.5 -27.5t-38.5 -66.5l-8 -55q-6 -35 8 -66t35.5 -51.5t57.5 -44.5q57 -38 81 -90.5t9 -143.5zM189 -222h-50l27 169h50z" />
    <glyph glyph-name="scommaaccent" unicode="&#x219;" horiz-adv-x="368" 
d="M156 417l3 20q5 34 33 58.5t63 24.5h22q34 0 54.5 -24t15.5 -59l-3 -20h50l3 20q8 56 -24.5 94.5t-87.5 38.5h-22q-56 0 -101 -39t-53 -94l-3 -20q-4 -22 5 -45.5t24 -40t30 -30.5t27 -21l11 -7q4 -3 11.5 -8t25.5 -19.5t31 -28t23 -30.5t8 -30l-5 -34q-5 -34 -33 -58.5
t-63 -24.5h-22q-34 0 -54.5 24t-15.5 59l14 89h-50l-14 -89q-9 -55 24 -94t88 -39h22q55 0 100 39t54 94l5 34q4 22 -5 45.5t-24.5 41t-31 32t-27.5 22.5l-11 7q-4 3 -11 7.5t-25 18.5t-31 27t-22.5 29.5t-7.5 29.5zM178 -214h-50l26 169h50z" />
    <glyph glyph-name="circumflex" unicode="&#x2c6;" horiz-adv-x="310" 
d="M277 735l61 -98h50l-100 148h-9l-148 -148h50l93 98h3z" />
    <glyph glyph-name="caron" unicode="&#x2c7;" horiz-adv-x="396" 
d="M305 677l-62 98h-50l101 -148h9l147 148h-50l-92 -98h-3z" />
    <glyph glyph-name="breve" unicode="&#x2d8;" horiz-adv-x="232" 
d="M330 750h-50q-3 -20 -18 -33t-35 -13t-31 13t-8 33h-50q-6 -40 17.5 -68t63.5 -28t72.5 28t38.5 68z" />
    <glyph glyph-name="dotaccent" unicode="&#x2d9;" horiz-adv-x="159" 
d="M176 616q-12 0 -19 8.5t-5 20.5t11.5 21t21.5 9t20 -9t6 -21t-12.5 -20.5t-22.5 -8.5z" />
    <glyph glyph-name="ring" unicode="&#x2da;" horiz-adv-x="232" 
d="M274 710q-3 -19 -18.5 -32.5t-34.5 -13.5t-30.5 13.5t-8.5 32.5t18.5 32.5t34.5 13.5t30.5 -13.5t8.5 -32.5zM324 710q6 40 -17.5 68t-63.5 28t-72.5 -28t-38.5 -68t17.5 -68t63.5 -28t72.5 28t38.5 68z" />
    <glyph glyph-name="ogonek" unicode="&#x2db;" horiz-adv-x="535" 
d="M208 -15l-13 44q-39 -18 -63.5 -46.5t-29.5 -58.5q-7 -45 19.5 -77t72.5 -32q29 0 66 21t58 54l-40 16q-15 -20 -37 -32t-39 -12q-26 0 -41.5 18t-11.5 43q3 17 19 34t40 28z" />
    <glyph glyph-name="tilde" unicode="&#x2dc;" horiz-adv-x="307" 
d="M131 649l3 46q28 31 66 31q25 0 67 -17.5t65 -17.5q30 0 60 28l-2 -46q-32 -32 -66 -32q-25 0 -66.5 17.5t-64.5 17.5q-31 0 -62 -27z" />
    <glyph glyph-name="hungarumlaut" unicode="&#x2dd;" horiz-adv-x="319" 
d="M308 634l121 131h-57l-122 -131h58zM208 634l121 131h-57l-122 -131h58z" />
    <glyph glyph-name="tonos" unicode="&#x384;" horiz-adv-x="283" 
d="M253 669l121 131h-57l-122 -131h58z" />
    <glyph glyph-name="dieresistonos" unicode="&#x385;" horiz-adv-x="298" 
d="M167 641q-12 0 -19 8.5t-5 20.5t11.5 21t21.5 9t20 -9t6 -21t-12.5 -20.5t-22.5 -8.5zM239 618l121 131h-57l-122 -131h58zM337 641q-12 0 -19 8.5t-5 20.5t11.5 21t21.5 9t20 -9t6 -21t-12.5 -20.5t-22.5 -8.5z" />
    <glyph glyph-name="Alphatonos" unicode="&#x386;" horiz-adv-x="447" 
d="M437 0h-50l-7 214h-222l-72 -214h-50l261 772q4 13 18.5 23.5t29.5 10.5h34q15 0 26 -10.5t12 -23.5zM338 743l-163 -479h204l-13 479q0 13 -8 13h-8q-6 0 -12 -13zM141 668l121 131h-57l-122 -131h58z" />
    <glyph glyph-name="Epsilontonos" unicode="&#x388;" horiz-adv-x="363" 
d="M73 669l121 131h-57l-122 -131h58zM461 750h-198l-45 -284h171l-8 -50h-171l-58 -366h198l-7 -50h-248l126 800h248z" />
    <glyph glyph-name="Etatonos" unicode="&#x389;" horiz-adv-x="490" 
d="M83 669l121 131h-57l-122 -131h58zM546 800h-50l-53 -334h-205l53 334h-50l-126 -800h50l66 417h205l-66 -417h50z" />
    <glyph glyph-name="Iotatonos" unicode="&#x38a;" horiz-adv-x="229" 
d="M77 669l121 131h-57l-122 -131h58zM154 0l126 800h-50l-126 -800h50z" />
    <glyph glyph-name="Omicrontonos" unicode="&#x38c;" horiz-adv-x="474" 
d="M108 669l121 131h-57l-122 -131h58zM473 662l-83 -528q-7 -39 -38.5 -66.5t-70.5 -27.5h-20q-39 0 -62.5 27.5t-16.5 66.5l83 528q7 39 38.5 66.5t70.5 27.5h20q39 0 62.5 -27.5t16.5 -66.5zM440 134l83 528q10 60 -25.5 102t-95.5 42h-20q-60 0 -108.5 -42t-58.5 -102
l-83 -528q-10 -60 25.5 -102t95.5 -42h20q60 0 108.5 42t58.5 102z" />
    <glyph glyph-name="Upsilontonos" unicode="&#x38e;" horiz-adv-x="585" 
d="M113 669l121 131h-57l-122 -131h58zM388 283l219 517h50l-227 -546q-4 -11 -16 -21t-26 -13l-34 -220h-50l35 221q-13 3 -21.5 12.5t-7.5 20.5l-57 546h50l57 -517q0 -13 8 -13h8q9 0 12 13z" />
    <glyph glyph-name="Omegatonos" unicode="&#x38f;" horiz-adv-x="476" 
d="M108 669l121 131h-57l-122 -131h58zM374 756h23q39 0 62.5 -27.5t16.5 -66.5l-59 -376q-6 -38 -37 -65.5t-62 -27.5l-30 -193h120l7 50h-70l17 104q40 18 69 53t36 79l59 376q10 60 -25.5 102t-95.5 42h-23q-60 0 -108.5 -42t-58.5 -102l-59 -376q-7 -43 10.5 -78.5
t52.5 -53.5l-17 -104h-70l-7 -50h120l30 193q-31 0 -53 27.5t-16 65.5l59 376q7 39 38.5 66.5t70.5 27.5z" />
    <glyph glyph-name="iotadieresistonos" unicode="&#x390;" horiz-adv-x="242" 
d="M147 0l126 800h-50l-126 -800h50zM174 869q-12 0 -19 8.5t-5 20.5t11.5 21t21.5 9t20 -9t6 -21t-12.5 -20.5t-22.5 -8.5zM246 846l121 131h-57l-122 -131h58zM344 869q-12 0 -19 8.5t-5 20.5t11.5 21t21.5 9t20 -9t6 -21t-12.5 -20.5t-22.5 -8.5z" />
    <glyph glyph-name="Alpha" unicode="&#x391;" horiz-adv-x="421" 
d="M411 0h-50l-7 214h-222l-72 -214h-50l261 772q4 13 18.5 23.5t29.5 10.5h34q15 0 26 -10.5t12 -23.5zM312 743l-163 -479h204l-13 479q0 13 -8 13h-8q-6 0 -12 -13z" />
    <glyph glyph-name="Beta" unicode="&#x392;" horiz-adv-x="428" 
d="M347 120l28 178q9 58 -68 95h-125l-55 -343h137q30 0 54 20.5t29 49.5zM190 443h126q79 33 88 91l23 146q5 28 -12 49.5t-46 21.5h-131zM196 800h181q50 0 79.5 -35.5t21.5 -84.5l-23 -144q-6 -38 -32 -70.5t-63 -47.5q35 -14 53 -46.5t12 -73.5l-28 -178q-8 -50 -49 -85
t-90 -35h-188z" />
    <glyph glyph-name="Gamma" unicode="&#x393;" horiz-adv-x="319" 
d="M445 800h-249l-126 -800h50l118 750h199z" />
    <glyph glyph-name="Epsilon" unicode="&#x395;" horiz-adv-x="338" 
d="M436 750h-198l-45 -284h171l-8 -50h-171l-58 -366h198l-7 -50h-248l126 800h248z" />
    <glyph glyph-name="Zeta" unicode="&#x396;" horiz-adv-x="360" 
d="M15 0h330l7 50h-260l379 750h-330l-8 -50h261z" />
    <glyph glyph-name="Eta" unicode="&#x397;" horiz-adv-x="445" 
d="M501 800h-50l-53 -334h-205l53 334h-50l-126 -800h50l66 417h205l-66 -417h50z" />
    <glyph glyph-name="Theta" unicode="&#x398;" horiz-adv-x="418" 
d="M209 417h140l7 49h-140zM417 662l-83 -528q-7 -39 -38.5 -66.5t-70.5 -27.5h-20q-39 0 -62.5 27.5t-16.5 66.5l83 528q7 39 38.5 66.5t70.5 27.5h20q39 0 62.5 -27.5t16.5 -66.5zM384 134l83 528q10 60 -25.5 102t-95.5 42h-20q-60 0 -108.5 -42t-58.5 -102l-83 -528
q-10 -60 25.5 -102t95.5 -42h20q60 0 108.5 42t58.5 102z" />
    <glyph glyph-name="Iota" unicode="&#x399;" horiz-adv-x="200" 
d="M125 0l126 800h-50l-126 -800h50z" />
    <glyph glyph-name="Kappa" unicode="&#x39a;" horiz-adv-x="436" 
d="M185 417l-66 -417h-49l126 800h49l-53 -334h75l241 334h54l-253 -354l-1 -9l128 -437h-54l-122 417h-75z" />
    <glyph glyph-name="Lambda" unicode="&#x39b;" horiz-adv-x="421" 
d="M361 0l-21 743q0 13 -8 13h-8q-6 0 -12 -13l-252 -743h-50l261 772q4 13 18.5 23.5t29.5 10.5h34q15 0 26 -10.5t12 -23.5l20 -772h-50z" />
    <glyph glyph-name="Mu" unicode="&#x39c;" horiz-adv-x="614" 
d="M542 800h108l-96 -800h-50l89 750h-20l-240 -740h-50l-5 740h-20l-148 -750h-50l157 800h109l-2 -690z" />
    <glyph glyph-name="Nu" unicode="&#x39d;" horiz-adv-x="485" 
d="M307 0h108l126 800h-50l-119 -750h-20l-46 750h-110l-126 -800h50l118 750h20z" />
    <glyph glyph-name="Xi" unicode="&#x39e;" horiz-adv-x="525" 
d="M234 800h305l-31 -200h-50l23 151h-205l-23 -151h-50zM70 0h385l52 330h-50l-45 -281h-285l45 281h-50zM219 417h220l7 49h-220z" />
    <glyph glyph-name="Omicron" unicode="&#x39f;" horiz-adv-x="418" 
d="M417 662l-83 -528q-7 -39 -38.5 -66.5t-70.5 -27.5h-20q-39 0 -62.5 27.5t-16.5 66.5l83 528q7 39 38.5 66.5t70.5 27.5h20q39 0 62.5 -27.5t16.5 -66.5zM384 134l83 528q10 60 -25.5 102t-95.5 42h-20q-60 0 -108.5 -42t-58.5 -102l-83 -528q-10 -60 25.5 -102t95.5 -42
h20q60 0 108.5 42t58.5 102z" />
    <glyph glyph-name="Pi" unicode="&#x3a0;" horiz-adv-x="445" 
d="M501 800h-305l-126 -800h50l118 751h205l-118 -751h50z" />
    <glyph glyph-name="Rho" unicode="&#x3a1;" horiz-adv-x="404" 
d="M238 750h110q39 0 62.5 -25t17.5 -63l-28 -176q-6 -39 -37.5 -66.5t-70.5 -27.5h-110zM196 800l-126 -800h50l54 342h110q60 0 108.5 42t57.5 102l28 176q10 59 -25.5 98.5t-96.5 39.5h-160z" />
    <glyph glyph-name="Sigma" unicode="&#x3a3;" horiz-adv-x="390" 
d="M304 401l-67 349h261l8 50h-330l75 -399l-201 -401h330l7 50h-261z" />
    <glyph glyph-name="Tau" unicode="&#x3a4;" horiz-adv-x="330" 
d="M448 750h-140l-118 -750h-50l118 750h-140l8 50h330z" />
    <glyph glyph-name="Upsilon" unicode="&#x3a5;" horiz-adv-x="424" 
d="M271 283l219 517h50l-227 -546q-4 -11 -16 -21t-26 -13l-34 -220h-50l35 221q-13 3 -21.5 12.5t-7.5 20.5l-57 546h50l57 -517q0 -13 8 -13h8q9 0 12 13z" />
    <glyph glyph-name="Phi" unicode="&#x3a6;" horiz-adv-x="468" 
d="M260 0l14 90h9q60 0 108.5 42t58.5 102l52 328q9 60 -26.5 102t-95.5 42h-9l15 94h-50l-15 -94h-11q-60 0 -108.5 -42t-57.5 -102l-52 -328q-10 -60 25.5 -102t95.5 -42h11l-14 -90h50zM194 562q6 39 37.5 66.5t70.5 27.5h11l-81 -516h-11q-39 0 -62.5 27.5t-16.5 66.5z
M452 562l-52 -328q-7 -39 -38.5 -66.5t-70.5 -27.5h-9l81 516h9q39 0 62.5 -27.5t17.5 -66.5z" />
    <glyph glyph-name="Chi" unicode="&#x3a7;" horiz-adv-x="400" 
d="M418 800l-138 -289l-45 289h-51l62 -345l-226 -455h51l192 399l66 -399h51l-83 455l172 345h-51z" />
    <glyph glyph-name="Psi" unicode="&#x3a8;" horiz-adv-x="398" 
d="M225 0l56 358h9q60 0 108.5 42t58.5 102l47 298h-50l-47 -298q-6 -39 -38 -66.5t-71 -27.5h-9l62 392h-50l-62 -392h-11q-39 0 -62 27.5t-17 66.5l47 298h-50l-47 -298q-10 -60 25.5 -102t95.5 -42h11l-56 -358h50z" />
    <glyph glyph-name="Iotadieresis" unicode="&#x3aa;" horiz-adv-x="196" 
d="M125 0l126 800h-50l-126 -800h50zM168 831q-12 0 -19 8.5t-5 20.5t11.5 21t21.5 9t20 -9t6 -21t-12.5 -20.5t-22.5 -8.5zM290 831q-12 0 -19.5 8.5t-5.5 20.5q1 12 11.5 21t22.5 9t19.5 -9t5.5 -21t-12 -20.5t-22 -8.5z" />
    <glyph glyph-name="Upsilondieresis" unicode="&#x3ab;" horiz-adv-x="424" 
d="M271 283l219 517h50l-227 -546q-4 -11 -16 -21t-26 -13l-34 -220h-50l35 221q-13 3 -21.5 12.5t-7.5 20.5l-57 546h50l57 -517q0 -13 8 -13h8q9 0 12 13zM279 831q-12 0 -19 8.5t-5 20.5t11.5 21t21.5 9t20 -9t6 -21t-12.5 -20.5t-22.5 -8.5zM401 831q-12 0 -19.5 8.5
t-5.5 20.5q1 12 11.5 21t22.5 9t19.5 -9t5.5 -21t-12 -20.5t-22 -8.5z" />
    <glyph glyph-name="alphatonos" unicode="&#x3ac;" horiz-adv-x="447" 
d="M437 0h-50l-7 214h-222l-72 -214h-50l261 772q4 13 18.5 23.5t29.5 10.5h34q15 0 26 -10.5t12 -23.5zM338 743l-163 -479h204l-13 479q0 13 -8 13h-8q-6 0 -12 -13zM141 668l121 131h-57l-122 -131h58z" />
    <glyph glyph-name="epsilontonos" unicode="&#x3ad;" horiz-adv-x="363" 
d="M73 669l121 131h-57l-122 -131h58zM461 750h-198l-45 -284h171l-8 -50h-171l-58 -366h198l-7 -50h-248l126 800h248z" />
    <glyph glyph-name="etatonos" unicode="&#x3ae;" horiz-adv-x="490" 
d="M83 669l121 131h-57l-122 -131h58zM546 800h-50l-53 -334h-205l53 334h-50l-126 -800h50l66 417h205l-66 -417h50z" />
    <glyph glyph-name="iotatonos" unicode="&#x3af;" horiz-adv-x="229" 
d="M77 669l121 131h-57l-122 -131h58zM154 0l126 800h-50l-126 -800h50z" />
    <glyph glyph-name="upsilondieresistonos" unicode="&#x3b0;" horiz-adv-x="424" 
d="M271 283l219 517h50l-227 -546q-4 -11 -16 -21t-26 -13l-34 -220h-50l35 221q-13 3 -21.5 12.5t-7.5 20.5l-57 546h50l57 -517q0 -13 8 -13h8q9 0 12 13zM254 772q-12 0 -19.5 8.5t-5.5 20.5t12 21t22 9t19.5 -9t5.5 -21q-1 -12 -11.5 -20.5t-22.5 -8.5zM326 749l121 131
h-57l-122 -131h58zM424 772q-12 0 -19.5 8.5t-5.5 20.5t12 21t22 9t19.5 -9t5.5 -21q-1 -12 -11.5 -20.5t-22.5 -8.5z" />
    <glyph glyph-name="alpha" unicode="&#x3b1;" horiz-adv-x="421" 
d="M411 0h-50l-7 214h-222l-72 -214h-50l261 772q4 13 18.5 23.5t29.5 10.5h34q15 0 26 -10.5t12 -23.5zM312 743l-163 -479h204l-13 479q0 13 -8 13h-8q-6 0 -12 -13z" />
    <glyph glyph-name="beta" unicode="&#x3b2;" horiz-adv-x="428" 
d="M347 120l28 178q9 58 -68 95h-125l-55 -343h137q30 0 54 20.5t29 49.5zM190 443h126q79 33 88 91l23 146q5 28 -12 49.5t-46 21.5h-131zM196 800h181q50 0 79.5 -35.5t21.5 -84.5l-23 -144q-6 -38 -32 -70.5t-63 -47.5q35 -14 53 -46.5t12 -73.5l-28 -178q-8 -50 -49 -85
t-90 -35h-188z" />
    <glyph glyph-name="gamma" unicode="&#x3b3;" horiz-adv-x="319" 
d="M445 800h-249l-126 -800h50l118 750h199z" />
    <glyph glyph-name="delta" unicode="&#x3b4;" horiz-adv-x="421" 
d="M10 0l261 772q4 13 18.5 23.5t29.5 10.5h34q15 0 26 -10.5t12 -23.5l20 -772h-401zM312 743l-236 -693h282l-18 693q0 13 -8 13h-8q-6 0 -12 -13z" />
    <glyph glyph-name="epsilon" unicode="&#x3b5;" horiz-adv-x="338" 
d="M436 750h-198l-45 -284h171l-8 -50h-171l-58 -366h198l-7 -50h-248l126 800h248z" />
    <glyph glyph-name="zeta" unicode="&#x3b6;" horiz-adv-x="360" 
d="M15 0h330l7 50h-260l379 750h-330l-8 -50h261z" />
    <glyph glyph-name="eta" unicode="&#x3b7;" horiz-adv-x="445" 
d="M501 800h-50l-53 -334h-205l53 334h-50l-126 -800h50l66 417h205l-66 -417h50z" />
    <glyph glyph-name="theta" unicode="&#x3b8;" horiz-adv-x="418" 
d="M209 417h140l7 49h-140zM417 662l-83 -528q-7 -39 -38.5 -66.5t-70.5 -27.5h-20q-39 0 -62.5 27.5t-16.5 66.5l83 528q7 39 38.5 66.5t70.5 27.5h20q39 0 62.5 -27.5t16.5 -66.5zM384 134l83 528q10 60 -25.5 102t-95.5 42h-20q-60 0 -108.5 -42t-58.5 -102l-83 -528
q-10 -60 25.5 -102t95.5 -42h20q60 0 108.5 42t58.5 102z" />
    <glyph glyph-name="iota" unicode="&#x3b9;" horiz-adv-x="200" 
d="M125 0l126 800h-50l-126 -800h50z" />
    <glyph glyph-name="kappa" unicode="&#x3ba;" horiz-adv-x="436" 
d="M185 417l-66 -417h-49l126 800h49l-53 -334h75l241 334h54l-253 -354l-1 -9l128 -437h-54l-122 417h-75z" />
    <glyph glyph-name="lambda" unicode="&#x3bb;" horiz-adv-x="421" 
d="M361 0l-21 743q0 13 -8 13h-8q-6 0 -12 -13l-252 -743h-50l261 772q4 13 18.5 23.5t29.5 10.5h34q15 0 26 -10.5t12 -23.5l20 -772h-50z" />
    <glyph glyph-name="nu" unicode="&#x3bd;" horiz-adv-x="485" 
d="M307 0h108l126 800h-50l-119 -750h-20l-46 750h-110l-126 -800h50l118 750h20z" />
    <glyph glyph-name="xi" unicode="&#x3be;" horiz-adv-x="525" 
d="M234 800h305l-31 -200h-50l23 151h-205l-23 -151h-50zM70 0h385l52 330h-50l-45 -281h-285l45 281h-50zM219 417h220l7 49h-220z" />
    <glyph glyph-name="omicron" unicode="&#x3bf;" horiz-adv-x="418" 
d="M417 662l-83 -528q-7 -39 -38.5 -66.5t-70.5 -27.5h-20q-39 0 -62.5 27.5t-16.5 66.5l83 528q7 39 38.5 66.5t70.5 27.5h20q39 0 62.5 -27.5t16.5 -66.5zM384 134l83 528q10 60 -25.5 102t-95.5 42h-20q-60 0 -108.5 -42t-58.5 -102l-83 -528q-10 -60 25.5 -102t95.5 -42
h20q60 0 108.5 42t58.5 102z" />
    <glyph glyph-name="pi" unicode="&#x3c0;" horiz-adv-x="445" 
d="M501 800h-305l-126 -800h50l118 751h205l-118 -751h50z" />
    <glyph glyph-name="rho" unicode="&#x3c1;" horiz-adv-x="404" 
d="M238 750h110q39 0 62.5 -25t17.5 -63l-28 -176q-6 -39 -37.5 -66.5t-70.5 -27.5h-110zM196 800l-126 -800h50l54 342h110q60 0 108.5 42t57.5 102l28 176q10 59 -25.5 98.5t-96.5 39.5h-160z" />
    <glyph glyph-name="sigma1" unicode="&#x3c2;" horiz-adv-x="390" 
d="M304 401l-67 349h261l8 50h-330l75 -399l-201 -401h330l7 50h-261z" />
    <glyph glyph-name="sigma" unicode="&#x3c3;" horiz-adv-x="390" 
d="M304 401l-67 349h261l8 50h-330l75 -399l-201 -401h330l7 50h-261z" />
    <glyph glyph-name="tau" unicode="&#x3c4;" horiz-adv-x="330" 
d="M448 750h-140l-118 -750h-50l118 750h-140l8 50h330z" />
    <glyph glyph-name="upsilon" unicode="&#x3c5;" horiz-adv-x="424" 
d="M271 283l219 517h50l-227 -546q-4 -11 -16 -21t-26 -13l-34 -220h-50l35 221q-13 3 -21.5 12.5t-7.5 20.5l-57 546h50l57 -517q0 -13 8 -13h8q9 0 12 13z" />
    <glyph glyph-name="phi" unicode="&#x3c6;" horiz-adv-x="468" 
d="M260 0l14 90h9q60 0 108.5 42t58.5 102l52 328q9 60 -26.5 102t-95.5 42h-9l15 94h-50l-15 -94h-11q-60 0 -108.5 -42t-57.5 -102l-52 -328q-10 -60 25.5 -102t95.5 -42h11l-14 -90h50zM194 562q6 39 37.5 66.5t70.5 27.5h11l-81 -516h-11q-39 0 -62.5 27.5t-16.5 66.5z
M452 562l-52 -328q-7 -39 -38.5 -66.5t-70.5 -27.5h-9l81 516h9q39 0 62.5 -27.5t17.5 -66.5z" />
    <glyph glyph-name="chi" unicode="&#x3c7;" horiz-adv-x="400" 
d="M418 800l-138 -289l-45 289h-51l62 -345l-226 -455h51l192 399l66 -399h51l-83 455l172 345h-51z" />
    <glyph glyph-name="psi" unicode="&#x3c8;" horiz-adv-x="398" 
d="M225 0l56 358h9q60 0 108.5 42t58.5 102l47 298h-50l-47 -298q-6 -39 -38 -66.5t-71 -27.5h-9l62 392h-50l-62 -392h-11q-39 0 -62 27.5t-17 66.5l47 298h-50l-47 -298q-10 -60 25.5 -102t95.5 -42h11l-56 -358h50z" />
    <glyph glyph-name="omega" unicode="&#x3c9;" horiz-adv-x="418" 
d="M315 756h23q39 0 62.5 -27.5t16.5 -66.5l-59 -376q-6 -38 -37 -65.5t-62 -27.5l-30 -193h120l7 50h-70l17 104q40 18 69 53t36 79l59 376q10 60 -25.5 102t-95.5 42h-23q-60 0 -108.5 -42t-58.5 -102l-59 -376q-7 -43 10.5 -78.5t52.5 -53.5l-17 -104h-70l-7 -50h120
l30 193q-31 0 -53 27.5t-16 65.5l59 376q7 39 38.5 66.5t70.5 27.5z" />
    <glyph glyph-name="iotadieresis" unicode="&#x3ca;" horiz-adv-x="196" 
d="M125 0l126 800h-50l-126 -800h50zM168 831q-12 0 -19 8.5t-5 20.5t11.5 21t21.5 9t20 -9t6 -21t-12.5 -20.5t-22.5 -8.5zM290 831q-12 0 -19.5 8.5t-5.5 20.5q1 12 11.5 21t22.5 9t19.5 -9t5.5 -21t-12 -20.5t-22 -8.5z" />
    <glyph glyph-name="upsilondieresis" unicode="&#x3cb;" horiz-adv-x="424" 
d="M271 283l219 517h50l-227 -546q-4 -11 -16 -21t-26 -13l-34 -220h-50l35 221q-13 3 -21.5 12.5t-7.5 20.5l-57 546h50l57 -517q0 -13 8 -13h8q9 0 12 13zM279 831q-12 0 -19 8.5t-5 20.5t11.5 21t21.5 9t20 -9t6 -21t-12.5 -20.5t-22.5 -8.5zM401 831q-12 0 -19.5 8.5
t-5.5 20.5q1 12 11.5 21t22.5 9t19.5 -9t5.5 -21t-12 -20.5t-22 -8.5z" />
    <glyph glyph-name="omicrontonos" unicode="&#x3cc;" horiz-adv-x="474" 
d="M108 669l121 131h-57l-122 -131h58zM473 662l-83 -528q-7 -39 -38.5 -66.5t-70.5 -27.5h-20q-39 0 -62.5 27.5t-16.5 66.5l83 528q7 39 38.5 66.5t70.5 27.5h20q39 0 62.5 -27.5t16.5 -66.5zM440 134l83 528q10 60 -25.5 102t-95.5 42h-20q-60 0 -108.5 -42t-58.5 -102
l-83 -528q-10 -60 25.5 -102t95.5 -42h20q60 0 108.5 42t58.5 102z" />
    <glyph glyph-name="upsilontonos" unicode="&#x3cd;" horiz-adv-x="541" 
d="M113 669l121 131h-57l-122 -131h58zM388 283l219 517h50l-227 -546q-4 -11 -16 -21t-26 -13l-34 -220h-50l35 221q-13 3 -21.5 12.5t-7.5 20.5l-57 546h50l57 -517q0 -13 8 -13h8q9 0 12 13z" />
    <glyph glyph-name="omegatonos" unicode="&#x3ce;" horiz-adv-x="476" 
d="M108 669l121 131h-57l-122 -131h58zM374 756h23q39 0 62.5 -27.5t16.5 -66.5l-59 -376q-6 -38 -37 -65.5t-62 -27.5l-30 -193h120l7 50h-70l17 104q40 18 69 53t36 79l59 376q10 60 -25.5 102t-95.5 42h-23q-60 0 -108.5 -42t-58.5 -102l-59 -376q-7 -43 10.5 -78.5
t52.5 -53.5l-17 -104h-70l-7 -50h120l30 193q-31 0 -53 27.5t-16 65.5l59 376q7 39 38.5 66.5t70.5 27.5z" />
    <glyph glyph-name="afii10023" unicode="&#x401;" horiz-adv-x="338" 
d="M436 750h-198l-45 -284h171l-8 -50h-171l-58 -366h198l-7 -50h-248l126 800h248zM264 831q-12 0 -19 8.5t-5 20.5t11.5 21t21.5 9t20 -9t6 -21t-12.5 -20.5t-22.5 -8.5zM386 831q-12 0 -19.5 8.5t-5.5 20.5q1 12 11.5 21t22.5 9t19.5 -9t5.5 -21t-12 -20.5t-22 -8.5z" />
    <glyph glyph-name="afii10051" unicode="&#x402;" horiz-adv-x="503" 
d="M388 -59l85 533q3 20 -9 33t-30 13q-24 0 -67.5 -20.5t-75.5 -41.5l-32 -20l-69 -438h-50l118 750h-140l8 50h330l-8 -50h-140l-40 -252q121 72 174 72q40 0 63.5 -28t17.5 -68l-85 -533q-6 -38 -47.5 -67t-83.5 -29l8 50q19 0 45 15t28 31z" />
    <glyph glyph-name="afii10052" unicode="&#x403;" horiz-adv-x="319" 
d="M445 800h-249l-126 -800h50l118 750h199zM336 849l121 131h-57l-122 -131h58z" />
    <glyph glyph-name="afii10053" unicode="&#x404;" horiz-adv-x="413" 
d="M357 292l-25 -158q-7 -39 -37.5 -66.5t-69.5 -27.5h-20q-39 0 -62.5 27.5t-16.5 66.5l41 262h207l8 50h-207l34 216q7 39 38.5 66.5t70.5 27.5h20q39 0 62.5 -27.5t16.5 -66.5l-20 -126h50l20 126q10 60 -25.5 102t-95.5 42h-20q-60 0 -108.5 -42t-58.5 -102l-83 -528
q-10 -60 25.5 -102t95.5 -42h20q60 0 108.5 42t58.5 102l25 158h-52z" />
    <glyph glyph-name="afii10054" unicode="&#x405;" horiz-adv-x="394" 
d="M382 211l-12 -77q-10 -60 -58.5 -102t-108.5 -42h-16q-60 0 -95.5 42t-25.5 102l23 148h50l-23 -148q-7 -39 16.5 -66.5t62.5 -27.5h16q39 0 70.5 27.5t38.5 66.5l12 77q9 57 -6.5 100t-40 66.5t-68.5 51.5q-48 33 -67 74.5t-9 103.5l8 55q10 60 58.5 102t108.5 42h16
q60 0 95.5 -42t25.5 -102h-50q7 39 -16.5 66.5t-62.5 27.5h-16q-39 0 -70.5 -27.5t-38.5 -66.5l-8 -55q-6 -35 8 -66t35.5 -51.5t57.5 -44.5q57 -38 81 -90.5t9 -143.5z" />
    <glyph glyph-name="afii10055" unicode="&#x406;" horiz-adv-x="200" 
d="M125 0l126 800h-50l-126 -800h50z" />
    <glyph glyph-name="afii10056" unicode="&#x407;" horiz-adv-x="196" 
d="M125 0l126 800h-50l-126 -800h50zM168 831q-12 0 -19 8.5t-5 20.5t11.5 21t21.5 9t20 -9t6 -21t-12.5 -20.5t-22.5 -8.5zM290 831q-12 0 -19.5 8.5t-5.5 20.5q1 12 11.5 21t22.5 9t19.5 -9t5.5 -21t-12 -20.5t-22 -8.5z" />
    <glyph glyph-name="afii10057" unicode="&#x408;" horiz-adv-x="389" 
d="M460 800h-50l-105 -666q-7 -39 -38.5 -66.5t-70.5 -27.5h-16q-39 0 -62.5 27.5t-16.5 66.5l25 158h-50l-25 -158q-10 -60 25.5 -102t95.5 -42h16q60 0 108.5 42t58.5 102z" />
    <glyph glyph-name="afii10058" unicode="&#x409;" horiz-adv-x="723" 
d="M312 751h186l-99 -628q-9 -55 24 -94t88 -39h22q55 0 100 39t54 94l52 331q7 40 -16.5 68t-63.5 28q-24 0 -62.5 -18t-64.5 -36l-27 -18l51 323h-285l-133 -670q-7 -30 -40.5 -60t-80.5 -30h-11l-7 -50h10q61 0 114.5 40.5t64.5 99.5zM689 454l-52 -331q-5 -34 -33 -58.5
t-63 -24.5h-22q-34 0 -54.5 24t-15.5 59l47 295q11 9 29.5 22.5t60 36.5t65.5 23q18 0 30 -13t8 -33z" />
    <glyph glyph-name="afii10059" unicode="&#x40a;" horiz-adv-x="708" 
d="M672 123l52 331q7 40 -16.5 68t-63.5 28q-24 0 -62.5 -18t-65.5 -36l-26 -18l51 323h-50l-53 -335h-245l53 334h-50l-126 -800h50l66 417h245l-47 -294q-9 -55 24 -94t88 -39h22q55 0 100 39t54 94zM674 454l-52 -331q-5 -34 -33 -58.5t-63 -24.5h-22q-34 0 -54.5 24
t-15.5 59l47 295q11 9 29.5 22.5t60 36.5t65.5 23q18 0 30 -13t8 -33z" />
    <glyph glyph-name="afii10060" unicode="&#x40b;" horiz-adv-x="503" 
d="M448 750h-140l-40 -252q121 72 174 72q40 0 63.5 -28t17.5 -68l-75 -474h-50l75 474q3 20 -9 33t-30 13q-24 0 -67.5 -20.5t-75.5 -41.5l-32 -20l-69 -438h-50l118 750h-140l8 50h330z" />
    <glyph glyph-name="afii10061" unicode="&#x40c;" horiz-adv-x="436" 
d="M494 718l-185 -272l-1 -9l128 -437h-54l-122 417h-75l-66 -417h-49l126 800h49l-53 -334h75l202 292q7 11 32 26t51 16l-8 -51q-29 0 -50 -31zM368 799l121 131h-57l-122 -131h58z" />
    <glyph glyph-name="afii10062" unicode="&#x40e;" horiz-adv-x="420" 
d="M153 0h50l333 800h-50l-220 -527q-3 -3 -7 -3h-8q-4 0 -6 3t-2 7v3l-57 517h-50l57 -546q-1 -11 7.5 -20.5t21.5 -12.5h23zM448 888h-50q-3 -20 -18 -33t-35 -13t-31 13t-8 33h-50q-6 -40 17.5 -68t63.5 -28t72.5 28t38.5 68z" />
    <glyph glyph-name="afii10145" unicode="&#x40f;" horiz-adv-x="445" 
d="M375 0h-123l-25 -156h-50l25 156h-132l126 800h50l-119 -751h205l119 751h50z" />
    <glyph glyph-name="afii10017" unicode="&#x410;" horiz-adv-x="421" 
d="M411 0h-50l-7 214h-222l-72 -214h-50l261 772q4 13 18.5 23.5t29.5 10.5h34q15 0 26 -10.5t12 -23.5zM312 743l-163 -479h204l-13 479q0 13 -8 13h-8q-6 0 -12 -13z" />
    <glyph glyph-name="afii10018" unicode="&#x411;" 
d="M186 801l-107 -678q-9 -55 24 -94t88 -39h22q55 0 100 39t54 94l52 331q7 40 -16.5 68t-63.5 28q-24 0 -62.5 -18t-64.5 -36l-27 -18l43 273h199l8 50h-249zM369 454l-52 -331q-5 -34 -33 -58.5t-63 -24.5h-22q-34 0 -54.5 24t-15.5 59l47 295q11 9 29.5 22.5t60 36.5
t65.5 23q18 0 30 -13t8 -33z" />
    <glyph glyph-name="afii10019" unicode="&#x412;" horiz-adv-x="428" 
d="M347 120l28 178q9 58 -68 95h-125l-55 -343h137q30 0 54 20.5t29 49.5zM190 443h126q79 33 88 91l23 146q5 28 -12 49.5t-46 21.5h-131zM196 800h181q50 0 79.5 -35.5t21.5 -84.5l-23 -144q-6 -38 -32 -70.5t-63 -47.5q35 -14 53 -46.5t12 -73.5l-28 -178q-8 -50 -49 -85
t-90 -35h-188z" />
    <glyph glyph-name="afii10020" unicode="&#x413;" horiz-adv-x="319" 
d="M445 800h-249l-126 -800h50l118 750h199z" />
    <glyph glyph-name="afii10021" unicode="&#x414;" horiz-adv-x="522" 
d="M569 801h-299l-131 -661q-6 -30 -40.5 -60t-81.5 -30l-7 -50h462l-15 -91h50l22 140h-79zM400 49h-267q44 38 56 91l122 611h200z" />
    <glyph glyph-name="afii10022" unicode="&#x415;" horiz-adv-x="338" 
d="M436 750h-198l-45 -284h171l-8 -50h-171l-58 -366h198l-7 -50h-248l126 800h248z" />
    <glyph glyph-name="afii10024" unicode="&#x416;" horiz-adv-x="703" 
d="M178 718l99 -272l-1 -9l-266 -437h54l254 417h75l-66 -417h49l66 417h75l122 -417h54l-128 437l1 9l185 272q21 31 50 31l8 51q-26 -1 -51 -16t-32 -26l-202 -292h-75l53 334h-49l-53 -334h-75l-108 292q-5 12 -25 26.5t-46 15.5l-8 -51q15 0 25.5 -10t14.5 -21z" />
    <glyph glyph-name="afii10025" unicode="&#x417;" horiz-adv-x="392" 
d="M169 751l8 50h138q63 0 97 -31t25 -89l-21 -134q-6 -39 -32.5 -71t-63.5 -47q35 -13 53.5 -47t11.5 -73l-30 -194q-9 -58 -53 -89t-107 -31h-17q-61 0 -90.5 30.5t-19.5 89.5l26 167h50l-26 -167q-7 -38 10.5 -54t57.5 -16h16q91 0 103 70l30 194q5 24 -20 59.5t-49 35.5
h-97l8 50h97q23 0 55.5 34t36.5 59l21 134q6 37 -16.5 53.5t-64.5 16.5h-137z" />
    <glyph glyph-name="afii10026" unicode="&#x418;" horiz-adv-x="445" 
d="M325 0h50l126 800h-50l-5 -32l-299 -595l99 627h-50l-126 -800h50l5 33l299 595z" />
    <glyph glyph-name="afii10027" unicode="&#x419;" horiz-adv-x="445" 
d="M325 0h50l126 800h-50l-5 -32l-299 -595l99 627h-50l-126 -800h50l5 33l299 595zM458 870h-50q-3 -20 -18 -33t-35 -13t-31 13t-8 33h-50q-6 -40 17.5 -68t63.5 -28t72.5 28t38.5 68z" />
    <glyph glyph-name="afii10028" unicode="&#x41a;" horiz-adv-x="436" 
d="M494 718l-185 -272l-1 -9l128 -437h-54l-122 417h-75l-66 -417h-49l126 800h49l-53 -334h75l202 292q7 11 32 26t51 16l-8 -51q-29 0 -50 -31z" />
    <glyph glyph-name="afii10029" unicode="&#x41b;" horiz-adv-x="502" 
d="M6 41h11q47 0 80.5 30t40.5 60l133 670h287l-126 -801h-50l118 751h-188l-124 -620q-11 -59 -64.5 -99.5t-114.5 -40.5h-10z" />
    <glyph glyph-name="afii10030" unicode="&#x41c;" horiz-adv-x="614" 
d="M542 800h108l-96 -800h-50l89 750h-20l-240 -740h-50l-5 740h-20l-148 -750h-50l157 800h109l-2 -690z" />
    <glyph glyph-name="afii10031" unicode="&#x41d;" horiz-adv-x="445" 
d="M501 800h-50l-53 -334h-205l53 334h-50l-126 -800h50l66 417h205l-66 -417h50z" />
    <glyph glyph-name="afii10032" unicode="&#x41e;" horiz-adv-x="418" 
d="M417 662l-83 -528q-7 -39 -38.5 -66.5t-70.5 -27.5h-20q-39 0 -62.5 27.5t-16.5 66.5l83 528q7 39 38.5 66.5t70.5 27.5h20q39 0 62.5 -27.5t16.5 -66.5zM384 134l83 528q10 60 -25.5 102t-95.5 42h-20q-60 0 -108.5 -42t-58.5 -102l-83 -528q-10 -60 25.5 -102t95.5 -42
h20q60 0 108.5 42t58.5 102z" />
    <glyph glyph-name="afii10033" unicode="&#x41f;" horiz-adv-x="445" 
d="M501 800h-305l-126 -800h50l118 751h205l-118 -751h50z" />
    <glyph glyph-name="afii10034" unicode="&#x420;" horiz-adv-x="404" 
d="M238 750h110q39 0 62.5 -25t17.5 -63l-28 -176q-6 -39 -37.5 -66.5t-70.5 -27.5h-110zM196 800l-126 -800h50l54 342h110q60 0 108.5 42t57.5 102l28 176q10 59 -25.5 98.5t-96.5 39.5h-160z" />
    <glyph glyph-name="afii10035" unicode="&#x421;" horiz-adv-x="413" 
d="M359 292h-2l-25 -158q-7 -39 -37.5 -66.5t-69.5 -27.5h-20q-39 0 -62.5 27.5t-16.5 66.5l83 528q7 39 38.5 66.5t70.5 27.5h20q39 0 62.5 -27.5t16.5 -66.5l-20 -126h50l20 126q10 60 -25.5 102t-95.5 42h-20q-60 0 -108.5 -42t-58.5 -102l-83 -528q-10 -60 25.5 -102
t95.5 -42h20q60 0 108.5 42t58.5 102l25 158h-50z" />
    <glyph glyph-name="afii10036" unicode="&#x422;" horiz-adv-x="330" 
d="M448 750h-140l-118 -750h-50l118 750h-140l8 50h330z" />
    <glyph glyph-name="afii10037" unicode="&#x423;" horiz-adv-x="420" 
d="M153 0h50l333 800h-50l-220 -527q-3 -3 -7 -3h-8q-4 0 -6 3t-2 7v3l-57 517h-50l57 -546q-1 -11 7.5 -20.5t21.5 -12.5h23z" />
    <glyph glyph-name="afii10038" unicode="&#x424;" horiz-adv-x="468" 
d="M260 0l14 90h9q60 0 108.5 42t58.5 102l52 328q9 60 -26.5 102t-95.5 42h-9l15 94h-50l-15 -94h-11q-60 0 -108.5 -42t-57.5 -102l-52 -328q-10 -60 25.5 -102t95.5 -42h11l-14 -90h50zM194 562q6 39 37.5 66.5t70.5 27.5h11l-81 -516h-11q-39 0 -62.5 27.5t-16.5 66.5z
M452 562l-52 -328q-7 -39 -38.5 -66.5t-70.5 -27.5h-9l81 516h9q39 0 62.5 -27.5t17.5 -66.5z" />
    <glyph glyph-name="afii10039" unicode="&#x425;" horiz-adv-x="400" 
d="M418 800l-138 -289l-45 289h-51l62 -345l-226 -455h51l192 399l66 -399h51l-83 455l172 345h-51z" />
    <glyph glyph-name="afii10040" unicode="&#x426;" horiz-adv-x="464" 
d="M461 49l-22 -140h-50l15 91h-334l126 800h50l-119 -751h205l119 751h50l-119 -751h79z" />
    <glyph glyph-name="afii10041" unicode="&#x427;" horiz-adv-x="448" 
d="M499 799h-50l-53 -338q-127 -82 -180 -82q-18 0 -30.5 13t-8.5 33l59 374h-50l-59 -374q-7 -40 17 -68t64 -28q24 0 68.5 18t77.5 36l32 18l-65 -410h50z" />
    <glyph glyph-name="afii10042" unicode="&#x428;" horiz-adv-x="640" 
d="M570 0h-500l126 800h50l-119 -751h175l119 751h50l-119 -751h175l119 751h50z" />
    <glyph glyph-name="afii10043" unicode="&#x429;" horiz-adv-x="659" 
d="M527 49l119 751h50l-119 -751h79l-22 -140h-50l15 91h-529l126 800h50l-119 -751h175l119 751h50l-119 -751h175z" />
    <glyph glyph-name="afii10044" unicode="&#x42a;" horiz-adv-x="584" 
d="M548 123l52 331q7 40 -16.5 68t-63.5 28q-24 0 -62.5 -18t-65.5 -36l-26 -18l51 323h-291l-8 -50h241l-99 -628q-9 -55 24 -94t88 -39h22q55 0 100 39t54 94zM550 454l-52 -331q-5 -34 -33 -58.5t-63 -24.5h-22q-34 0 -54.5 24t-15.5 59l47 295q11 9 29.5 22.5t60 36.5
t65.5 23q18 0 30 -13t8 -33z" />
    <glyph glyph-name="afii10045" unicode="&#x42b;" horiz-adv-x="575" 
d="M367 123l52 331q7 40 -16.5 68t-63.5 28q-24 0 -62.5 -18t-64.5 -36l-27 -18l51 323h-50l-107 -678q-9 -55 24 -94t88 -39h22q55 0 100 39t54 94zM369 454l-52 -331q-5 -34 -33 -58.5t-63 -24.5h-22q-34 0 -54.5 24t-15.5 59l47 295q11 9 29.5 22.5t60 36.5t65.5 23
q18 0 30 -13t8 -33zM506 0l126 800h-50l-126 -800h50z" />
    <glyph glyph-name="afii10046" unicode="&#x42c;" 
d="M367 123l52 331q7 40 -16.5 68t-63.5 28q-24 0 -62.5 -18t-64.5 -36l-27 -18l51 323h-50l-107 -678q-9 -55 24 -94t88 -39h22q55 0 100 39t54 94zM369 454l-52 -331q-5 -34 -33 -58.5t-63 -24.5h-22q-34 0 -54.5 24t-15.5 59l47 295q11 9 29.5 22.5t60 36.5t65.5 23
q18 0 30 -13t8 -33z" />
    <glyph glyph-name="afii10047" unicode="&#x42d;" horiz-adv-x="413" 
d="M148 292l-25 -158q-7 -39 15.5 -66.5t61.5 -27.5h20q39 0 70.5 27.5t38.5 66.5l41 262h-207l8 50h207l34 216q7 39 -16.5 66.5t-62.5 27.5h-20q-39 0 -70.5 -27.5t-38.5 -66.5l-20 -126h-50l20 126q10 60 58.5 102t108.5 42h20q60 0 95.5 -42t25.5 -102l-83 -528
q-10 -60 -58.5 -102t-108.5 -42h-20q-60 0 -95.5 42t-25.5 102l25 158h52z" />
    <glyph glyph-name="afii10048" unicode="&#x42e;" horiz-adv-x="570" 
d="M536 134l83 528q10 60 -25.5 102t-95.5 42h-20q-60 0 -108.5 -42t-58.5 -102l-31 -196h-87l53 334h-50l-126 -800h50l66 417h87l-45 -283q-10 -60 25.5 -102t95.5 -42h20q60 0 108.5 42t58.5 102zM569 662l-83 -528q-7 -39 -38.5 -66.5t-70.5 -27.5h-20q-39 0 -62.5 27.5
t-16.5 66.5l83 528q7 39 38.5 66.5t70.5 27.5h20q39 0 62.5 -27.5t16.5 -66.5z" />
    <glyph glyph-name="afii10049" unicode="&#x42f;" horiz-adv-x="431" 
d="M487 800l-126 -800h-50l65 412h-53l-233 -412h-50l233 412h-7q-60 0 -95.5 42t-25.5 102l16 106q10 59 57.5 98.5t108.5 39.5h160zM429 750h-110q-39 0 -70.5 -25t-37.5 -63l-16 -106q-7 -39 16.5 -66.5t62.5 -27.5h110z" />
    <glyph glyph-name="afii10065" unicode="&#x430;" horiz-adv-x="421" 
d="M411 0h-50l-7 214h-222l-72 -214h-50l261 772q4 13 18.5 23.5t29.5 10.5h34q15 0 26 -10.5t12 -23.5zM312 743l-163 -479h204l-13 479q0 13 -8 13h-8q-6 0 -12 -13z" />
    <glyph glyph-name="afii10066" unicode="&#x431;" 
d="M186 801l-107 -678q-9 -55 24 -94t88 -39h22q55 0 100 39t54 94l52 331q7 40 -16.5 68t-63.5 28q-24 0 -62.5 -18t-64.5 -36l-27 -18l43 273h199l8 50h-249zM369 454l-52 -331q-5 -34 -33 -58.5t-63 -24.5h-22q-34 0 -54.5 24t-15.5 59l47 295q11 9 29.5 22.5t60 36.5
t65.5 23q18 0 30 -13t8 -33z" />
    <glyph glyph-name="afii10067" unicode="&#x432;" horiz-adv-x="428" 
d="M347 120l28 178q9 58 -68 95h-125l-55 -343h137q30 0 54 20.5t29 49.5zM190 443h126q79 33 88 91l23 146q5 28 -12 49.5t-46 21.5h-131zM196 800h181q50 0 79.5 -35.5t21.5 -84.5l-23 -144q-6 -38 -32 -70.5t-63 -47.5q35 -14 53 -46.5t12 -73.5l-28 -178q-8 -50 -49 -85
t-90 -35h-188z" />
    <glyph glyph-name="afii10068" unicode="&#x433;" horiz-adv-x="319" 
d="M445 800h-249l-126 -800h50l118 750h199z" />
    <glyph glyph-name="afii10069" unicode="&#x434;" horiz-adv-x="522" 
d="M569 801h-299l-131 -661q-6 -30 -40.5 -60t-81.5 -30l-7 -50h462l-15 -91h50l22 140h-79zM400 49h-267q44 38 56 91l122 611h200z" />
    <glyph glyph-name="afii10070" unicode="&#x435;" horiz-adv-x="338" 
d="M436 750h-198l-45 -284h171l-8 -50h-171l-58 -366h198l-7 -50h-248l126 800h248z" />
    <glyph glyph-name="afii10072" unicode="&#x436;" horiz-adv-x="703" 
d="M178 718l99 -272l-1 -9l-266 -437h54l254 417h75l-66 -417h49l66 417h75l122 -417h54l-128 437l1 9l185 272q21 31 50 31l8 51q-26 -1 -51 -16t-32 -26l-202 -292h-75l53 334h-49l-53 -334h-75l-108 292q-5 12 -25 26.5t-46 15.5l-8 -51q15 0 25.5 -10t14.5 -21z" />
    <glyph glyph-name="afii10073" unicode="&#x437;" horiz-adv-x="392" 
d="M169 751l8 50h138q63 0 97 -31t25 -89l-21 -134q-6 -39 -32.5 -71t-63.5 -47q35 -13 53.5 -47t11.5 -73l-30 -194q-9 -58 -53 -89t-107 -31h-17q-61 0 -90.5 30.5t-19.5 89.5l26 167h50l-26 -167q-7 -38 10.5 -54t57.5 -16h16q91 0 103 70l30 194q5 24 -20 59.5t-49 35.5
h-97l8 50h97q23 0 55.5 34t36.5 59l21 134q6 37 -16.5 53.5t-64.5 16.5h-137z" />
    <glyph glyph-name="afii10074" unicode="&#x438;" horiz-adv-x="445" 
d="M325 0h50l126 800h-50l-5 -32l-299 -595l99 627h-50l-126 -800h50l5 33l299 595z" />
    <glyph glyph-name="afii10075" unicode="&#x439;" horiz-adv-x="445" 
d="M325 0h50l126 800h-50l-5 -32l-299 -595l99 627h-50l-126 -800h50l5 33l299 595zM458 871h-50q-3 -20 -18 -33t-35 -13t-31 13t-8 33h-50q-6 -40 17.5 -68t63.5 -28t72.5 28t38.5 68z" />
    <glyph glyph-name="afii10076" unicode="&#x43a;" horiz-adv-x="436" 
d="M494 718l-185 -272l-1 -9l128 -437h-54l-122 417h-75l-66 -417h-49l126 800h49l-53 -334h75l202 292q7 11 32 26t51 16l-8 -51q-29 0 -50 -31z" />
    <glyph glyph-name="afii10077" unicode="&#x43b;" horiz-adv-x="504" 
d="M8 41h11q47 0 80.5 30t40.5 60l133 670h287l-126 -801h-50l118 751h-188l-124 -620q-11 -59 -64.5 -99.5t-114.5 -40.5h-11z" />
    <glyph glyph-name="afii10078" unicode="&#x43c;" horiz-adv-x="614" 
d="M542 800h108l-96 -800h-50l89 750h-20l-240 -740h-50l-5 740h-20l-148 -750h-50l157 800h109l-2 -690z" />
    <glyph glyph-name="afii10079" unicode="&#x43d;" horiz-adv-x="445" 
d="M501 800h-50l-53 -334h-205l53 334h-50l-126 -800h50l66 417h205l-66 -417h50z" />
    <glyph glyph-name="afii10080" unicode="&#x43e;" horiz-adv-x="418" 
d="M417 662l-83 -528q-7 -39 -38.5 -66.5t-70.5 -27.5h-20q-39 0 -62.5 27.5t-16.5 66.5l83 528q7 39 38.5 66.5t70.5 27.5h20q39 0 62.5 -27.5t16.5 -66.5zM384 134l83 528q10 60 -25.5 102t-95.5 42h-20q-60 0 -108.5 -42t-58.5 -102l-83 -528q-10 -60 25.5 -102t95.5 -42
h20q60 0 108.5 42t58.5 102z" />
    <glyph glyph-name="afii10081" unicode="&#x43f;" horiz-adv-x="445" 
d="M501 800h-305l-126 -800h50l118 751h205l-118 -751h50z" />
    <glyph glyph-name="afii10082" unicode="&#x440;" horiz-adv-x="404" 
d="M238 750h110q39 0 62.5 -25t17.5 -63l-28 -176q-6 -39 -37.5 -66.5t-70.5 -27.5h-110zM196 800l-126 -800h50l54 342h110q60 0 108.5 42t57.5 102l28 176q10 59 -25.5 98.5t-96.5 39.5h-160z" />
    <glyph glyph-name="afii10083" unicode="&#x441;" horiz-adv-x="413" 
d="M359 292h-2l-25 -158q-7 -39 -37.5 -66.5t-69.5 -27.5h-20q-39 0 -62.5 27.5t-16.5 66.5l83 528q7 39 38.5 66.5t70.5 27.5h20q39 0 62.5 -27.5t16.5 -66.5l-20 -126h50l20 126q10 60 -25.5 102t-95.5 42h-20q-60 0 -108.5 -42t-58.5 -102l-83 -528q-10 -60 25.5 -102
t95.5 -42h20q60 0 108.5 42t58.5 102l25 158h-50z" />
    <glyph glyph-name="afii10084" unicode="&#x442;" horiz-adv-x="330" 
d="M448 750h-140l-118 -750h-50l118 750h-140l8 50h330z" />
    <glyph glyph-name="afii10085" unicode="&#x443;" horiz-adv-x="420" 
d="M153 0h50l333 800h-50l-220 -527q-3 -3 -7 -3h-8q-4 0 -6 3t-2 7v3l-57 517h-50l57 -546q-1 -11 7.5 -20.5t21.5 -12.5h23z" />
    <glyph glyph-name="afii10086" unicode="&#x444;" horiz-adv-x="468" 
d="M260 0l14 90h9q60 0 108.5 42t58.5 102l52 328q9 60 -26.5 102t-95.5 42h-9l15 94h-50l-15 -94h-11q-60 0 -108.5 -42t-57.5 -102l-52 -328q-10 -60 25.5 -102t95.5 -42h11l-14 -90h50zM194 562q6 39 37.5 66.5t70.5 27.5h11l-81 -516h-11q-39 0 -62.5 27.5t-16.5 66.5z
M452 562l-52 -328q-7 -39 -38.5 -66.5t-70.5 -27.5h-9l81 516h9q39 0 62.5 -27.5t17.5 -66.5z" />
    <glyph glyph-name="afii10087" unicode="&#x445;" horiz-adv-x="400" 
d="M418 800l-138 -289l-45 289h-51l62 -345l-226 -455h51l192 399l66 -399h51l-83 455l172 345h-51z" />
    <glyph glyph-name="afii10088" unicode="&#x446;" horiz-adv-x="464" 
d="M461 49l-22 -140h-50l15 91h-334l126 800h50l-119 -751h205l119 751h50l-119 -751h79z" />
    <glyph glyph-name="afii10089" unicode="&#x447;" horiz-adv-x="448" 
d="M499 799h-50l-53 -338q-127 -82 -180 -82q-18 0 -30.5 13t-8.5 33l59 374h-50l-59 -374q-7 -40 17 -68t64 -28q24 0 68.5 18t77.5 36l32 18l-65 -410h50z" />
    <glyph glyph-name="afii10090" unicode="&#x448;" horiz-adv-x="640" 
d="M570 0h-500l126 800h50l-119 -751h175l119 751h50l-119 -751h175l119 751h50z" />
    <glyph glyph-name="afii10091" unicode="&#x449;" horiz-adv-x="659" 
d="M527 49l119 751h50l-119 -751h79l-22 -140h-50l15 91h-529l126 800h50l-119 -751h175l119 751h50l-119 -751h175z" />
    <glyph glyph-name="afii10092" unicode="&#x44a;" horiz-adv-x="584" 
d="M548 123l52 331q7 40 -16.5 68t-63.5 28q-24 0 -62.5 -18t-65.5 -36l-26 -18l51 323h-291l-8 -50h241l-99 -628q-9 -55 24 -94t88 -39h22q55 0 100 39t54 94zM550 454l-52 -331q-5 -34 -33 -58.5t-63 -24.5h-22q-34 0 -54.5 24t-15.5 59l47 295q11 9 29.5 22.5t60 36.5
t65.5 23q18 0 30 -13t8 -33z" />
    <glyph glyph-name="afii10093" unicode="&#x44b;" horiz-adv-x="575" 
d="M367 123l52 331q7 40 -16.5 68t-63.5 28q-24 0 -62.5 -18t-64.5 -36l-27 -18l51 323h-50l-107 -678q-9 -55 24 -94t88 -39h22q55 0 100 39t54 94zM369 454l-52 -331q-5 -34 -33 -58.5t-63 -24.5h-22q-34 0 -54.5 24t-15.5 59l47 295q11 9 29.5 22.5t60 36.5t65.5 23
q18 0 30 -13t8 -33zM506 0l126 800h-50l-126 -800h50z" />
    <glyph glyph-name="afii10094" unicode="&#x44c;" 
d="M367 123l52 331q7 40 -16.5 68t-63.5 28q-24 0 -62.5 -18t-64.5 -36l-27 -18l51 323h-50l-107 -678q-9 -55 24 -94t88 -39h22q55 0 100 39t54 94zM369 454l-52 -331q-5 -34 -33 -58.5t-63 -24.5h-22q-34 0 -54.5 24t-15.5 59l47 295q11 9 29.5 22.5t60 36.5t65.5 23
q18 0 30 -13t8 -33z" />
    <glyph glyph-name="afii10095" unicode="&#x44d;" horiz-adv-x="413" 
d="M148 292l-25 -158q-7 -39 15.5 -66.5t61.5 -27.5h20q39 0 70.5 27.5t38.5 66.5l41 262h-207l8 50h207l34 216q7 39 -16.5 66.5t-62.5 27.5h-20q-39 0 -70.5 -27.5t-38.5 -66.5l-20 -126h-50l20 126q10 60 58.5 102t108.5 42h20q60 0 95.5 -42t25.5 -102l-83 -528
q-10 -60 -58.5 -102t-108.5 -42h-20q-60 0 -95.5 42t-25.5 102l25 158h52z" />
    <glyph glyph-name="afii10096" unicode="&#x44e;" horiz-adv-x="570" 
d="M536 134l83 528q10 60 -25.5 102t-95.5 42h-20q-60 0 -108.5 -42t-58.5 -102l-31 -196h-87l53 334h-50l-126 -800h50l66 417h87l-45 -283q-10 -60 25.5 -102t95.5 -42h20q60 0 108.5 42t58.5 102zM569 662l-83 -528q-7 -39 -38.5 -66.5t-70.5 -27.5h-20q-39 0 -62.5 27.5
t-16.5 66.5l83 528q7 39 38.5 66.5t70.5 27.5h20q39 0 62.5 -27.5t16.5 -66.5z" />
    <glyph glyph-name="afii10097" unicode="&#x44f;" horiz-adv-x="431" 
d="M487 800l-126 -800h-50l65 412h-53l-233 -412h-50l233 412h-7q-60 0 -95.5 42t-25.5 102l16 106q10 59 57.5 98.5t108.5 39.5h160zM429 750h-110q-39 0 -70.5 -25t-37.5 -63l-16 -106q-7 -39 16.5 -66.5t62.5 -27.5h110z" />
    <glyph glyph-name="afii10071" unicode="&#x451;" horiz-adv-x="338" 
d="M436 750h-198l-45 -284h171l-8 -50h-171l-58 -366h198l-7 -50h-248l126 800h248zM264 831q-12 0 -19 8.5t-5 20.5t11.5 21t21.5 9t20 -9t6 -21t-12.5 -20.5t-22.5 -8.5zM386 831q-12 0 -19.5 8.5t-5.5 20.5q1 12 11.5 21t22.5 9t19.5 -9t5.5 -21t-12 -20.5t-22 -8.5z" />
    <glyph glyph-name="afii10099" unicode="&#x452;" horiz-adv-x="503" 
d="M388 -59l85 533q3 20 -9 33t-30 13q-24 0 -67.5 -20.5t-75.5 -41.5l-32 -20l-69 -438h-50l118 750h-140l8 50h330l-8 -50h-140l-40 -252q121 72 174 72q40 0 63.5 -28t17.5 -68l-85 -533q-6 -38 -47.5 -67t-83.5 -29l8 50q19 0 45 15t28 31z" />
    <glyph glyph-name="afii10100" unicode="&#x453;" horiz-adv-x="319" 
d="M445 800h-249l-126 -800h50l118 750h199zM336 849l121 131h-57l-122 -131h58z" />
    <glyph glyph-name="afii10101" unicode="&#x454;" horiz-adv-x="413" 
d="M357 292l-25 -158q-7 -39 -37.5 -66.5t-69.5 -27.5h-20q-39 0 -62.5 27.5t-16.5 66.5l41 262h207l8 50h-207l34 216q7 39 38.5 66.5t70.5 27.5h20q39 0 62.5 -27.5t16.5 -66.5l-20 -126h50l20 126q10 60 -25.5 102t-95.5 42h-20q-60 0 -108.5 -42t-58.5 -102l-83 -528
q-10 -60 25.5 -102t95.5 -42h20q60 0 108.5 42t58.5 102l25 158h-52z" />
    <glyph glyph-name="afii10102" unicode="&#x455;" horiz-adv-x="394" 
d="M382 211l-12 -77q-10 -60 -58.5 -102t-108.5 -42h-16q-60 0 -95.5 42t-25.5 102l23 148h50l-23 -148q-7 -39 16.5 -66.5t62.5 -27.5h16q39 0 70.5 27.5t38.5 66.5l12 77q9 57 -6.5 100t-40 66.5t-68.5 51.5q-48 33 -67 74.5t-9 103.5l8 55q10 60 58.5 102t108.5 42h16
q60 0 95.5 -42t25.5 -102h-50q7 39 -16.5 66.5t-62.5 27.5h-16q-39 0 -70.5 -27.5t-38.5 -66.5l-8 -55q-6 -35 8 -66t35.5 -51.5t57.5 -44.5q57 -38 81 -90.5t9 -143.5z" />
    <glyph glyph-name="afii10103" unicode="&#x456;" horiz-adv-x="210" 
d="M135 0l126 800h-60l-126 -800h60z" />
    <glyph glyph-name="afii10104" unicode="&#x457;" horiz-adv-x="196" 
d="M125 0l126 800h-50l-126 -800h50zM168 831q-12 0 -19 8.5t-5 20.5t11.5 21t21.5 9t20 -9t6 -21t-12.5 -20.5t-22.5 -8.5zM290 831q-12 0 -19.5 8.5t-5.5 20.5q1 12 11.5 21t22.5 9t19.5 -9t5.5 -21t-12 -20.5t-22 -8.5z" />
    <glyph glyph-name="afii10105" unicode="&#x458;" horiz-adv-x="389" 
d="M460 800h-50l-105 -666q-7 -39 -38.5 -66.5t-70.5 -27.5h-16q-39 0 -62.5 27.5t-16.5 66.5l25 158h-50l-25 -158q-10 -60 25.5 -102t95.5 -42h16q60 0 108.5 42t58.5 102z" />
    <glyph glyph-name="afii10106" unicode="&#x459;" horiz-adv-x="723" 
d="M312 751h186l-99 -628q-9 -55 24 -94t88 -39h22q55 0 100 39t54 94l52 331q7 40 -16.5 68t-63.5 28q-24 0 -62.5 -18t-64.5 -36l-27 -18l51 323h-285l-133 -670q-7 -30 -40.5 -60t-80.5 -30h-11l-7 -50h10q61 0 114.5 40.5t64.5 99.5zM689 454l-52 -331q-5 -34 -33 -58.5
t-63 -24.5h-22q-34 0 -54.5 24t-15.5 59l47 295q11 9 29.5 22.5t60 36.5t65.5 23q18 0 30 -13t8 -33z" />
    <glyph glyph-name="afii10107" unicode="&#x45a;" horiz-adv-x="708" 
d="M672 123l52 331q7 40 -16.5 68t-63.5 28q-24 0 -62.5 -18t-65.5 -36l-26 -18l51 323h-50l-53 -335h-245l53 334h-50l-126 -800h50l66 417h245l-47 -294q-9 -55 24 -94t88 -39h22q55 0 100 39t54 94zM674 454l-52 -331q-5 -34 -33 -58.5t-63 -24.5h-22q-34 0 -54.5 24
t-15.5 59l47 295q11 9 29.5 22.5t60 36.5t65.5 23q18 0 30 -13t8 -33z" />
    <glyph glyph-name="afii10108" unicode="&#x45b;" horiz-adv-x="503" 
d="M448 750h-140l-40 -252q121 72 174 72q40 0 63.5 -28t17.5 -68l-75 -474h-50l75 474q3 20 -9 33t-30 13q-24 0 -67.5 -20.5t-75.5 -41.5l-32 -20l-69 -438h-50l118 750h-140l8 50h330z" />
    <glyph glyph-name="afii10109" unicode="&#x45c;" horiz-adv-x="436" 
d="M494 718l-185 -272l-1 -9l128 -437h-54l-122 417h-75l-66 -417h-49l126 800h49l-53 -334h75l202 292q7 11 32 26t51 16l-8 -51q-29 0 -50 -31zM368 799l121 131h-57l-122 -131h58z" />
    <glyph glyph-name="afii10110" unicode="&#x45e;" horiz-adv-x="420" 
d="M153 0h50l333 800h-50l-220 -527q-3 -3 -7 -3h-8q-4 0 -6 3t-2 7v3l-57 517h-50l57 -546q-1 -11 7.5 -20.5t21.5 -12.5h23zM448 888h-50q-3 -20 -18 -33t-35 -13t-31 13t-8 33h-50q-6 -40 17.5 -68t63.5 -28t72.5 28t38.5 68z" />
    <glyph glyph-name="afii10193" unicode="&#x45f;" horiz-adv-x="445" 
d="M375 0h-123l-25 -156h-50l25 156h-132l126 800h50l-119 -751h205l119 751h50z" />
    <glyph glyph-name="endash" unicode="&#x2013;" horiz-adv-x="288" 
d="M51 327h288l8 49h-288z" />
    <glyph glyph-name="emdash" unicode="&#x2014;" horiz-adv-x="566" 
d="M51 327h566l8 49h-566z" />
    <glyph glyph-name="afii00208" unicode="&#x2015;" horiz-adv-x="1001" 
d="M51 327h1000l8 49h-1000z" />
    <glyph glyph-name="quoteleft" unicode="&#x2018;" horiz-adv-x="187" 
d="M227 799l-41 -75q-10 -18 -13 -38q-11 -70 61 -97l23 44q-42 16 -36 52q1 11 6 22l42 76z" />
    <glyph glyph-name="quoteright" unicode="&#x2019;" horiz-adv-x="187" 
d="M179 593l41 75q10 18 13 38q11 70 -60 97l-23 -44q42 -16 35 -52q-1 -11 -6 -22l-41 -76z" />
    <glyph glyph-name="quotesinglbase" unicode="&#x201a;" horiz-adv-x="187" 
d="M60 -158l41 75q10 18 13 38q12 70 -60 97l-23 -44q42 -16 36 -52q-3 -14 -7 -22l-41 -76z" />
    <glyph glyph-name="quotedblleft" unicode="&#x201c;" horiz-adv-x="287" 
d="M327 799l-41 -75q-10 -18 -13 -38q-11 -70 61 -97l23 44q-42 16 -36 52q1 11 6 22l42 76zM227 799l-41 -75q-10 -18 -13 -38q-11 -70 61 -97l23 44q-42 16 -36 52q1 11 6 22l42 76z" />
    <glyph glyph-name="quotedblright" unicode="&#x201d;" horiz-adv-x="287" 
d="M179 593l41 75q10 18 13 38q11 70 -60 97l-23 -44q42 -16 35 -52q-1 -11 -6 -22l-41 -76zM279 593l41 75q10 18 13 38q11 70 -60 97l-23 -44q42 -16 35 -52q-1 -11 -6 -22l-41 -76z" />
    <glyph glyph-name="quotedblbase" unicode="&#x201e;" horiz-adv-x="287" 
d="M60 -158l41 75q10 18 13 38q12 70 -60 97l-23 -44q42 -16 36 -52q-3 -14 -7 -22l-41 -76zM160 -158l41 75q10 18 13 38q12 70 -60 97l-23 -44q42 -16 36 -52q-3 -14 -7 -22l-41 -76z" />
    <glyph glyph-name="dagger" unicode="&#x2020;" horiz-adv-x="317" 
d="M86 607h150l-96 -602h49l96 602h151l7 49h-151l22 139h-49l-22 -139h-150z" />
    <glyph glyph-name="daggerdbl" unicode="&#x2021;" horiz-adv-x="317" 
d="M13 147h149l-23 -142h50l23 142h151l8 49h-151l65 411h151l7 49h-151l22 139h-50l-22 -139h-149l-7 -49h149l-65 -411h-149z" />
    <glyph glyph-name="bullet" unicode="&#x2022;" horiz-adv-x="234" 
d="M221 269q-4 -23 -23.5 -40t-42.5 -17t-37.5 17t-10.5 40t23.5 40t42.5 17t37.5 -17t10.5 -40z" />
    <glyph glyph-name="ellipsis" unicode="&#x2026;" horiz-adv-x="519" 
d="M109 0q-12 0 -19.5 8.5t-5.5 20.5t12 21t22 9t19.5 -9t5.5 -21q-1 -12 -11.5 -20.5t-22.5 -8.5zM259 0q-12 0 -19.5 8.5t-5.5 20.5t12 21t22 9t19.5 -9t5.5 -21q-1 -12 -11.5 -20.5t-22.5 -8.5zM409 0q-12 0 -19.5 8.5t-5.5 20.5t12 21t22 9t19.5 -9t5.5 -21
q-1 -12 -11.5 -20.5t-22.5 -8.5z" />
    <glyph glyph-name="perthousand" unicode="&#x2030;" horiz-adv-x="955" 
d="M324 496l24 149q5 35 -9.5 59t-40.5 24h-10q-26 0 -48.5 -24.5t-27.5 -58.5l-24 -149q-5 -35 9.5 -59t40.5 -24h10q26 0 48.5 24.5t27.5 58.5zM398 645l-24 -149q-9 -55 -48 -94t-86 -39h-10q-47 0 -74 39t-18 94l24 149q8 55 47.5 94t86.5 39h10q47 0 73.5 -38.5
t18.5 -94.5zM584 123l24 149q5 35 -9.5 59t-40.5 24h-10q-26 0 -48.5 -24.5t-27.5 -58.5l-24 -149q-5 -35 9.5 -59t40.5 -24h10q26 0 48.5 24.5t27.5 58.5zM658 272l-24 -149q-9 -55 -48 -94t-86 -39h-10q-47 0 -74 39t-18 94l24 149q8 55 47.5 94t86.5 39h10
q47 0 73.5 -38.5t18.5 -94.5zM240 0l378 798h-50l-378 -798h50zM864 123l24 149q5 35 -9.5 59t-40.5 24h-10q-26 0 -48.5 -24.5t-27.5 -58.5l-24 -149q-5 -35 9.5 -59t40.5 -24h10q26 0 48.5 24.5t27.5 58.5zM938 272l-24 -149q-9 -55 -48 -94t-86 -39h-10q-47 0 -74 39
t-18 94l24 149q8 55 47.5 94t86.5 39h10q47 0 73.5 -38.5t18.5 -94.5z" />
    <glyph glyph-name="guilsinglleft" unicode="&#x2039;" horiz-adv-x="314" 
d="M143 239l176 113l-27 34l-225 -147l178 -147l38 34z" />
    <glyph glyph-name="guilsinglright" unicode="&#x203a;" horiz-adv-x="314" 
d="M245 239l-140 113l39 34l177 -147l-224 -147l-28 34z" />
    <glyph glyph-name="fraction" unicode="&#x2044;" horiz-adv-x="302" 
d="M50 0l378 798h-50l-378 -798h50z" />
    <glyph glyph-name="Euro" unicode="&#x20ac;" horiz-adv-x="448" 
d="M392 292l-25 -158q-7 -39 -37.5 -66.5t-69.5 -27.5h-20q-39 0 -62.5 27.5t-16.5 66.5l31 196h171l8 50h-171l5 36h171l8 50h-171l27 166q6 39 37.5 66.5t70.5 27.5h20q39 0 62.5 -27.5t17.5 -66.5l-20 -126h50l20 126q9 60 -26.5 102t-95.5 42h-20q-60 0 -108.5 -42
t-57.5 -102l-27 -166h-55l-8 -50h55l-5 -36h-55l-8 -50h55l-31 -196q-10 -60 25.5 -102t95.5 -42h20q60 0 108.5 42t58.5 102l25 158h-52z" />
    <glyph glyph-name="afii61352" unicode="&#x2116;" horiz-adv-x="734" 
d="M307 0h108l126 800h-50l-119 -750h-20l-46 750h-110l-126 -800h50l118 750h20zM717 499l-30 -188q-3 -20 -17 -30t-30 -10h-13q-16 0 -26 10t-7 30l30 188q6 40 46 40h13q16 0 26.5 -10t7.5 -30zM727 311l30 188q5 34 -15 57t-53 23h-13q-34 0 -60.5 -23t-31.5 -57
l-30 -188q-5 -33 14 -56.5t53 -23.5h13q33 0 60.5 23.5t32.5 56.5zM516 135h194l6 39h-194z" />
    <glyph glyph-name="trademark" unicode="&#x2122;" horiz-adv-x="524" 
d="M452 410h-68l26 350h-20l-57 -360h-40l63 400h98l-29 -350l82 350h98l-63 -400h-40l57 360h-20zM330 760h-63l-57 -360h-39l57 360h-63l6 40h165z" />
    <glyph glyph-name="Omega" unicode="&#x2126;" horiz-adv-x="418" 
d="M315 756h23q39 0 62.5 -27.5t16.5 -66.5l-59 -376q-6 -38 -37 -65.5t-62 -27.5l-30 -193h120l7 50h-70l17 104q40 18 69 53t36 79l59 376q10 60 -25.5 102t-95.5 42h-23q-60 0 -108.5 -42t-58.5 -102l-59 -376q-7 -43 10.5 -78.5t52.5 -53.5l-17 -104h-70l-7 -50h120
l30 193q-31 0 -53 27.5t-16 65.5l59 376q7 39 38.5 66.5t70.5 27.5z" />
    <glyph glyph-name="partialdiff" unicode="&#x2202;" horiz-adv-x="393" 
d="M331 273q-9 -54 -30 -78.5t-70 -24.5h-22q-49 0 -61.5 26.5t-4.5 76.5l26 164q5 36 32.5 59.5t63.5 23.5h27q33 0 51.5 -24t13.5 -59zM287 -34l-2 -12q-5 -33 -34 -50.5t-65 -17.5h-22q-36 0 -59 17.5t-18 50.5l2 12q6 33 35.5 53t64.5 20h22q35 0 58.5 -20t17.5 -53z
M224 120q37 0 66 12.5t44 27.5t26 40.5t14 38t7 34.5l26 164q7 47 -17 84h50l8 49h-175q-56 0 -101 -39t-53 -94l-26 -164q-18 -103 36 -136q-7 -10 -11 -26q-3 -26 15 -44q-31 -10 -57 -36.5t-32 -64.5l-2 -12q-8 -50 24 -81.5t91 -31.5h22q59 0 101.5 31.5t49.5 81.5l2 12
q8 50 -25 81.5t-90 31.5q-24 0 -36.5 9.5t-10.5 23.5q1 6 7.5 6.5t46.5 1.5z" />
    <glyph glyph-name="Delta" unicode="&#x2206;" horiz-adv-x="421" 
d="M10 0l261 772q4 13 18.5 23.5t29.5 10.5h34q15 0 26 -10.5t12 -23.5l20 -772h-401zM312 743l-236 -693h282l-18 693q0 13 -8 13h-8q-6 0 -12 -13z" />
    <glyph glyph-name="product" unicode="&#x220f;" horiz-adv-x="335" 
d="M111 24q1 -13 12 -23.5t26 -10.5h20l-51 -148h50l245 715h-50l-177 -517h-16q-4 0 -6 3t-2 7v3l-14 505h-50z" />
    <glyph glyph-name="summation" unicode="&#x2211;" horiz-adv-x="373" 
d="M104 155q12 73 86 100l124 37l-27 -169q-11 -9 -29.5 -23t-60 -37t-65.5 -23q-17 0 -29.5 14.5t-9.5 31.5zM337 437l-15 -93l-146 -44q-47 -17 -80.5 -55.5t-41.5 -89.5l-11 -69q-6 -40 17.5 -68t63.5 -28q24 0 62 18t64 36l27 18l-9 -62h50l69 437q9 59 -23.5 96
t-88.5 37q-57 0 -101 -37t-53 -96l-3 -20h50l3 20q5 36 31.5 59.5t64.5 23.5q39 0 57.5 -22t12.5 -61z" />
    <glyph glyph-name="minus" unicode="&#x2212;" horiz-adv-x="430" 
d="M91 327h350l8 49h-350z" />
    <glyph glyph-name="radical" unicode="&#x221a;" horiz-adv-x="381" 
d="M121 560l-75 -474q-2 -14 -21 -145q-2 -16 -27.5 -31t-44.5 -15l-8 -50q42 0 83 29t47 67l10 59q20 -10 42 -10q24 0 62 18t65 36l26 18l-9 -62h50l88 560h-50l-69 -438q-11 -9 -29.5 -22.5t-60 -36.5t-65.5 -23q-15 0 -26 8.5t-13 23.5l77 488h-52z" />
    <glyph glyph-name="infinity" unicode="&#x221e;" horiz-adv-x="772" 
d="M550 765l-102 -642q-5 -34 -33 -58.5t-63 -24.5h-163q-34 0 -54.5 24t-15.5 59l50 314q5 34 33 58.5t63 24.5h22q34 0 54.5 -24t15.5 -59l-12 -75h50l12 75q8 56 -24.5 94.5t-87.5 38.5h-22q-56 0 -101 -39t-53 -94l-50 -314q-9 -55 24 -94t88 -39h163q55 0 100 39t54 94
l50 315q11 9 29.5 22.5t60 36.5t65.5 23q18 0 30 -13t9 -33l-75 -474h50l75 474q6 40 -17.5 68t-63.5 28q-24 0 -62.5 -18t-64.5 -36l-27 -18l43 267h-50z" />
    <glyph glyph-name="integral" unicode="&#x222b;" horiz-adv-x="582" 
d="M392 638l-2 152h-50l7 -220l-145 -441l-16 671h-50l21 -800h50l159 479l9 -479h50l273 800h-50l-228 -671l-5 441l77 220h-50z" />
    <glyph glyph-name="approxequal" unicode="&#x2248;" horiz-adv-x="431" 
d="M196 800l-126 -800h50l65 412h53l103 -412h50l-103 412h7q60 0 108.5 42t58.5 102l16 106q10 59 -25.5 98.5t-96.5 39.5h-160zM238 750h110q39 0 62.5 -25t17.5 -63l-16 -106q-7 -39 -38.5 -66.5t-70.5 -27.5h-110z" />
    <glyph glyph-name="notequal" unicode="&#x2260;" horiz-adv-x="430" 
d="M197 164l34 71h196l7 49h-180l63 133h139l7 49h-123l29 59h-40l-30 -59h-186l-7 -49h171l-64 -133h-129l-7 -49h114l-35 -71h41z" />
    <glyph glyph-name="lessequal" unicode="&#x2264;" horiz-adv-x="440" 
d="M73 147h350l8 49h-350zM106 417l328 -199l8 49l-247 150l294 150l8 49z" />
    <glyph glyph-name="greaterequal" unicode="&#x2265;" horiz-adv-x="440" 
d="M413 147h-350l8 49h350zM466 417l-392 -199l8 49l295 150l-248 150l8 49z" />
    <glyph glyph-name="lozenge" unicode="&#x25ca;" horiz-adv-x="164" 
d="M124 752l7 49h154l-7 -49h-52l-112 -703h52l-7 -49h-154l7 49h52l112 703h-52z" />
    <glyph glyph-name="commaaccent" unicode="&#xf6c3;" horiz-adv-x="206" 
d="M123 -80h-50l27 169h50z" />
    <glyph glyph-name="apple" unicode="&#xf8ff;" horiz-adv-x="632" 
d="M433 738l-90 -85q-9 1 -28 1t-28 -1l-90 85h59l58 -61l59 61h60zM631 304q0 -130 -92.5 -223t-223.5 -93t-223 92.5t-92 223.5t92 223.5t223 92.5t223.5 -93t92.5 -223zM585 304q0 112 -79 191.5t-191 79.5t-191.5 -79.5t-79.5 -191.5t79 -191.5t192 -79.5
q112 0 191 79.5t79 191.5zM457 204q0 -53 -44.5 -80.5t-110.5 -27.5q-49 0 -129 39l9 47q66 -41 128 -41q40 0 65 16.5t25 42.5q0 23 -22.5 42.5t-54.5 35t-64 32.5t-54.5 42.5t-22.5 56.5q0 54 39.5 78.5t91.5 24.5q19 0 39.5 -5.5t32 -11t29 -15t20.5 -11.5l-11 -43
q-48 42 -107 42q-36 0 -58 -15.5t-22 -39.5q0 -23 23 -41t55 -31.5t64.5 -29t55.5 -43t23 -64.5z" />
    <glyph glyph-name="fi" unicode="&#xfb01;" horiz-adv-x="424" 
d="M223 560l17 109q3 16 29 31t45 15l8 50q-42 0 -83.5 -29t-48.5 -67l-17 -109h-80l-8 -49h80l-90 -570q-2 -16 -28 -31t-45 -15l-7 -50q41 0 82.5 29t47.5 67l90 570h158l-67 -425q-6 -38 26.5 -67t74.5 -29l8 50q-21 0 -41 15.5t-18 30.5l75 474h-208zM447 659l17 106
h-50l-17 -106h50z" />
    <glyph glyph-name="fl" unicode="&#xfb02;" horiz-adv-x="424" 
d="M322 765h142l-108 -679q-2 -15 18 -30.5t41 -15.5l-8 -50q-42 0 -74.5 29t-26.5 67l100 629h-92q-19 0 -45 -15t-29 -31l-17 -109h107l-8 -49h-107l-90 -570q-6 -38 -47.5 -67t-82.5 -29l7 50q19 0 45 15t28 31l90 570h-80l8 49h80l17 109q7 38 48.5 67t83.5 29z" />
    <glyph glyph-name="HT" horiz-adv-x="500" 
 />
    <glyph glyph-name="LF" horiz-adv-x="500" 
 />
    <glyph glyph-name="DLE" horiz-adv-x="500" 
 />
    <glyph glyph-name="DC1" horiz-adv-x="500" 
 />
    <glyph glyph-name="DC2" horiz-adv-x="500" 
 />
    <glyph glyph-name="DC3" horiz-adv-x="500" 
 />
    <glyph glyph-name="DC4" horiz-adv-x="500" 
 />
    <glyph glyph-name="RS" horiz-adv-x="500" 
 />
    <glyph glyph-name="US" horiz-adv-x="500" 
 />
    <glyph glyph-name="DEL" horiz-adv-x="500" 
 />
    <glyph glyph-name="NUL" horiz-adv-x="182" 
d="M91 0q-5 0 -8 3.5t-2 7.5q2 11 13 11t9 -11t-12 -11zM165 470q-11 0 -9 11t12 11q5 0 8 -3.5t2 -7.5q-2 -11 -13 -11z" />
    <glyph glyph-name="Idotaccent" horiz-adv-x="75" 
d="M62 0l126 800h-50l-126 -800h50zM168 831q-12 0 -19 8.5t-5 20.5t11.5 21t21.5 9t20 -9t6 -21t-12.5 -20.5t-22.5 -8.5z" />
    </font>
</defs>
</svg>
